<svg id="Capa_1" data-name="Capa 1" xmlns="http://www.w3.org/2000/svg" xmlns:xlink="http://www.w3.org/1999/xlink" viewBox="0 0 244.05 258.84"><defs><style>.cls-1{fill:none;}.cls-2{clip-path:url(#clip-path);}.cls-3{fill:#adadad;}.cls-4{fill:#ddd;}.cls-5{fill:#26add2;}.cls-6{fill:#d8d8d8;}.cls-7{fill:#229bb7;}.cls-8{fill:#444443;}.cls-9{fill:#fff;}.cls-10{fill:#1d1d1b;}.cls-11{fill:#de5446;}.cls-12{fill:#634e42;}.cls-13{clip-path:url(#clip-path-2);}</style><clipPath id="clip-path" transform="translate(-559.59 -320.57)"><circle class="cls-1" cx="681.64" cy="457.53" r="121.79"/></clipPath><clipPath id="clip-path-2" transform="translate(-559.59 -320.57)"><path class="cls-1" d="M639.24,338.61a215.78,215.78,0,0,1,49.93-2.54c0,3.49.05,5.22.07,8.66a206.26,206.26,0,0,0-48.07,5.33C640.41,345.5,640,343.21,639.24,338.61Z"/></clipPath></defs><g class="cls-2"><path class="cls-3" d="M588.05,379.15s20-28.95,91.84-28.95c66,0,89.51,13.69,109,50.26,9.17,17.21.64,31.31-19.37,29s-27.12-16.47-45.84,3.39,7.1,20.74-67.15,39.44-82.67-73.38-80.7-76.11C579.24,389.73,588.05,379.15,588.05,379.15Z" transform="translate(-559.59 -320.57)"/><path class="cls-4" d="M588.05,379.15s30.34-43.42,93.22-43.42c60.61,0,89.89,39.61,96.83,47.92s11.74,39.55-5.76,37.29S735,408.2,718.66,427.26s6.54,16.79-58.4,34.73-81.48-71-81.48-71Z" transform="translate(-559.59 -320.57)"/><path class="cls-4" d="M769.83,452.85s-33,.41-43.59,24.55-25.31,20.75-20.79,39.38,30.38,2.83,40.88,11.3,21.13,15.7,21.13,15.7,20.78-21,26.5-39.32S805.4,457.24,769.83,452.85Z" transform="translate(-559.59 -320.57)"/><path class="cls-3" d="M670.09,498.34s-17.51,16.58-13.55,22.79,14.68,1.93,16.37,9.43,3.21-9.67,10.36-12.07S682.51,497.56,670.09,498.34Z" transform="translate(-559.59 -320.57)"/><path class="cls-3" d="M583.48,491.94s48.56-7.34,51.95,29.93,23.46,55.18,23.46,55.18-39.46-2.29-73.91-44.83c0,0-16-21.27-20.33-39Z" transform="translate(-559.59 -320.57)"/><circle class="cls-5" cx="122.05" cy="136.96" r="121.79"/><path class="cls-6" d="M786.68,395.25c-8.5-14.35-19.65-27.85-34.56-37.51-57-36.91-113.81-24-152.37,8.91,0,0,46.21,24.21,106.53,7.83S786.68,395.25,786.68,395.25Z" transform="translate(-559.59 -320.57)"/><path class="cls-7" d="M651.06,516.22c-38,10.1-74.92,1.56-75.32,1.47A122.17,122.17,0,0,0,763.22,547.9C753,550.67,714.92,499.24,651.06,516.22Z" transform="translate(-559.59 -320.57)"/><path class="cls-7" d="M786.86,518.82a121.29,121.29,0,0,0,11.33-25.72s-6-6.56-20.35-11.44C790.74,498.9,787,518.28,786.86,518.82Z" transform="translate(-559.59 -320.57)"/><path class="cls-6" d="M671.3,490.43c53.82-18.77,87.51-15.25,106.54-8.77a48.61,48.61,0,0,0-5.4-6.1c-19.51-18.63-49.29-19.46-109.67,9a142.58,142.58,0,0,1-35.34,11.6C639.57,497.87,654,496.45,671.3,490.43Z" transform="translate(-559.59 -320.57)"/><path class="cls-3" d="M780.94,528c2.14-3,4.1-6.06,5.92-9.17.11-.54,3.88-19.92-9-37.16-19-6.48-52.72-10-106.54,8.77-17.26,6-31.73,7.44-43.87,5.77-39,7.12-63-7.88-63.93-8.48a121.79,121.79,0,0,0,12.24,30c.4.09,37.32,8.63,75.32-1.47,63.86-17,101.93,34.45,112.16,31.68A121.47,121.47,0,0,0,780.94,528Z" transform="translate(-559.59 -320.57)"/><path class="cls-7" d="M563.5,487.72c.94.6,24.93,15.6,63.93,8.48-35.08-4.82-50.6-35.6-57.19-56.72a40.45,40.45,0,0,1-8.84-3.16A121.17,121.17,0,0,0,563.5,487.72Z" transform="translate(-559.59 -320.57)"/><path class="cls-6" d="M786.68,395.25s-47.37-19.64-104-3.83-99.46-5.6-99.46-5.6c-8.28,11.39-16.26,25.22-21.78,50.5h0c1-5.72,5.24-8.36,8.84,3.16,15.72,4.1,53.5,8.19,121.67-15.58C786.27,391,797.5,495,797.5,495A121.09,121.09,0,0,0,786.68,395.25Z" transform="translate(-559.59 -320.57)"/><path class="cls-3" d="M561.4,436.32a40.45,40.45,0,0,0,8.84,3.16A98.33,98.33,0,0,1,566,419.19,122,122,0,0,0,561.4,436.32Z" transform="translate(-559.59 -320.57)"/><path class="cls-3" d="M622.94,564.05s34.14-24.68,56-10.37,49.75,16.19,49.75,16.19-18.37,10.62-53.23,9.45S622.94,564.05,622.94,564.05Z" transform="translate(-559.59 -320.57)"/></g><path class="cls-8" d="M617.41,481a22.28,22.28,0,0,1-10.49,1.12c-8.67-.83-13.34-6.13-12.31-15.15,1-8.47,6.45-13.3,15.18-12.46a22.22,22.22,0,0,1,8.79,2.51c-1,3.16-1.51,4.73-2.54,7.88a17.32,17.32,0,0,0-5.85-1.66c-3.52-.34-4.84,1.72-5.17,5s.51,5.71,3.83,6c.09-.89.13-1.33.21-2.22l-2.15-.2.64-6.53c4.43.44,6.64.64,11.07,1C618.14,472.17,617.9,475.11,617.41,481Z" transform="translate(-559.59 -320.57)"/><path class="cls-8" d="M634.42,483.5c-.95-2.87-1.42-4.3-2.34-7.17h-.83l-.45,7c-4.08-.27-6.11-.41-10.19-.73.82-10.47,1.23-15.71,2-26.18,5.35.42,8,.61,13.38.92,6.65.4,10,4.06,9.72,9.77a8.5,8.5,0,0,1-4.3,7.15c1.63,4,2.46,5.93,4.13,9.87C641.12,483.88,638.89,483.77,634.42,483.5Zm-1.26-14.18c1.38,0,2.07-.84,2.17-2.39s-.72-2.27-2.34-2.37l-1.15-.08-.3,4.78Z" transform="translate(-559.59 -320.57)"/><path class="cls-8" d="M663.86,484.68l-.3-2.27-5.14-.13c-.16.9-.24,1.36-.41,2.26-4.5-.13-6.75-.21-11.25-.4,3.07-10.38,4.56-15.58,7.45-26,5.88.21,8.82.28,14.7.36,2.39,10.54,3.64,15.8,6.21,26.32C670.62,484.81,668.36,484.78,663.86,484.68Zm-2.05-16.47a11.66,11.66,0,0,1-.2-2.44h-.42a12.06,12.06,0,0,1-.32,2.42c-.56,2.58-.84,3.87-1.41,6.44l3.44.08C662.46,472.11,662.24,470.81,661.81,468.21Z" transform="translate(-559.59 -320.57)"/><path class="cls-8" d="M677.34,484.84c0-10.5,0-15.75.08-26.25,4.72,0,7.08,0,11.79-.07,7.38-.09,11.45,3.88,11.63,10.05.2,6.89-3.68,10.82-11.91,10.92l-1.43,0,0,5.29C683.47,484.84,681.43,484.85,677.34,484.84Zm10.81-12.73c1.63,0,2.43-1.17,2.4-3.1,0-1.77-.94-2.8-2.38-2.78h-1c0,2.35,0,3.53.06,5.88Z" transform="translate(-559.59 -320.57)"/><path class="cls-8" d="M717.87,483.87c-.17-3.49-.26-5.23-.44-8.73-1.48.08-2.22.12-3.71.18l.4,8.73c-4.08.19-6.12.27-10.21.4-.33-10.5-.5-15.74-.84-26.24,3.94-.13,5.91-.2,9.85-.39.16,3.41.23,5.12.39,8.52l3.66-.17c-.17-3.41-.26-5.11-.43-8.52,3.94-.2,5.91-.31,9.85-.57.67,10.48,1,15.72,1.68,26.2C724,483.55,722,483.66,717.87,483.87Z" transform="translate(-559.59 -320.57)"/><path class="cls-8" d="M731.56,483.05c-.73-10.48-1.09-15.71-1.81-26.19,3.94-.27,5.9-.42,9.84-.75.86,10.47,1.29,15.7,2.16,26.17C737.67,482.62,735.63,482.77,731.56,483.05Z" transform="translate(-559.59 -320.57)"/><path class="cls-8" d="M764.92,479.59a21.19,21.19,0,0,1-7,1.94c-8.53.88-13.64-4-14.38-12.47s3.29-14.3,11.51-15.15a20.58,20.58,0,0,1,7,.42c-.38,3.58-.57,5.37-1,8.95a7.64,7.64,0,0,0-3.76-.57c-2.37.25-3.64,2.19-3.33,5.2s2,4.79,4.36,4.53a7.61,7.61,0,0,0,3.59-1.36C763.13,474.49,763.73,476.19,764.92,479.59Z" transform="translate(-559.59 -320.57)"/><path class="cls-8" d="M578.34,528.88l3.3-26.05c4.65.59,7,.87,11.64,1.38,9.73,1.09,13,6.48,12.26,14.26-.75,8-5.33,12.94-15.76,11.77C585.2,529.73,582.92,529.46,578.34,528.88Zm12.72-7.58c2.16.24,3-1.07,3.33-3.74s-.1-4.19-2.64-4.47l-.64-.07c-.37,3.27-.55,4.91-.92,8.18Z" transform="translate(-559.59 -320.57)"/><path class="cls-8" d="M607.45,532c.94-10.46,1.4-15.69,2.34-26.15,7.73.69,11.59,1,19.33,1.49l-.5,7.63c-3.59-.23-5.39-.36-9-.63-.06.84-.09,1.25-.16,2.09,2.9.22,4.35.33,7.24.52l-.45,6.71c-2.92-.2-4.38-.3-7.3-.53-.06.86-.09,1.29-.16,2.14,3.65.28,5.47.41,9.12.64l-.5,7.63C619.43,533,615.43,532.74,607.45,532Z" transform="translate(-559.59 -320.57)"/><path class="cls-8" d="M631.84,523.61a20.55,20.55,0,0,0,9.16,3c.78,0,1.25-.24,1.27-.62s-.38-.69-.93-.84c-6.47-1.57-10.68-4-10.34-9.65s4.72-8.45,11.46-8.13c4.82.23,8.88,1,11.72,2.45-.63,3.44-.95,5.16-1.6,8.6a21.83,21.83,0,0,0-8.79-2.49c-.73,0-1.15.24-1.17.58s.38.69,1,.84c7.19,1.55,10.6,3.77,10.43,9.15-.2,6.21-4.81,9-12.54,8.63-4-.19-8.36-1-11.54-2.94C630.73,528.74,631.1,527,631.84,523.61Z" transform="translate(-559.59 -320.57)"/><path class="cls-8" d="M656.72,534.92c.3-10.5.44-15.74.74-26.24,4.21.12,6.32.16,10.54.22-.16,10.5-.24,15.76-.39,26.26C663.25,535.09,661.07,535.05,656.72,534.92Z" transform="translate(-559.59 -320.57)"/><path class="cls-8" d="M696.63,533.76a25.1,25.1,0,0,1-11,2.22c-9.27.07-14.82-4.73-14.72-13.81.1-8.52,5.37-13.89,14.73-14a25.08,25.08,0,0,1,9.62,1.59c-.73,3.24-1.09,4.86-1.84,8.1a19.63,19.63,0,0,0-6.39-1c-3.77,0-4.95,2.22-4.94,5.49s1.17,5.64,4.72,5.6c0-.89,0-1.33,0-2.22h-2.3c0-2.62,0-3.93,0-6.55,4.75,0,7.12-.06,11.87-.16C696.44,524.91,696.5,527.86,696.63,533.76Z" transform="translate(-559.59 -320.57)"/><path class="cls-8" d="M715.09,534.71c-1.52-2.69-2.27-4-3.76-6.74a4.2,4.2,0,0,1-.59-2l-.46,0,.33,8.64c-4.17.16-6.25.23-10.42.34-.27-10.5-.4-15.75-.67-26.25,4.68-.12,7-.2,11.7-.39,1.46,2.7,2.2,4.05,3.69,6.74a4.32,4.32,0,0,1,.59,2l.45,0-.41-8.89c4-.19,6.05-.3,10.08-.53.63,10.58.94,15.87,1.57,26.46C722.35,534.37,719.93,534.5,715.09,534.71Z" transform="translate(-559.59 -320.57)"/><path class="cls-8" d="M730.89,533.61c-.67-10.48-1-15.72-1.68-26.21,7.74-.49,11.61-.78,19.33-1.47l.67,7.62c-3.59.32-5.38.46-9,.74l.16,2.1c2.9-.23,4.35-.35,7.24-.6.23,2.68.35,4,.58,6.7l-7.3.6c.07.85.1,1.28.17,2.13,3.64-.28,5.46-.43,9.1-.75l.68,7.61C742.88,532.79,738.88,533.1,730.89,533.61Z" transform="translate(-559.59 -320.57)"/><path class="cls-8" d="M768.81,530.29c-1.5-2.66-2.24-4-3.72-6.65l-.87.13c.3,2.78.44,4.16.74,6.94-4.34.46-6.51.68-10.85,1.08-1-10.46-1.46-15.69-2.43-26.14,5.71-.53,8.56-.83,14.27-1.46,7.08-.79,11.23,2.22,11.94,7.89a8.35,8.35,0,0,1-3.29,7.81c2.4,3.61,3.62,5.4,6.06,9C775.92,529.48,773.55,529.76,768.81,530.29ZM765,516.55a2.18,2.18,0,0,0,1.86-2.74c-.16-1.42-1.15-2.11-2.87-1.93l-1.22.13.5,4.76Z" transform="translate(-559.59 -320.57)"/><path class="cls-9" d="M619.52,483A22.3,22.3,0,0,1,609,484.11c-8.67-.83-13.35-6.13-12.31-15.15,1-8.47,6.45-13.3,15.18-12.46a22.22,22.22,0,0,1,8.79,2.51c-1,3.16-1.52,4.73-2.54,7.88a17.39,17.39,0,0,0-5.85-1.66c-3.52-.34-4.84,1.72-5.17,5s.51,5.71,3.83,6c.08-.89.12-1.33.21-2.22l-2.15-.2.64-6.53c4.42.44,6.64.64,11.07,1C620.25,474.17,620,477.11,619.52,483Z" transform="translate(-559.59 -320.57)"/><path class="cls-9" d="M636.53,485.5c-.95-2.87-1.42-4.3-2.35-7.17h-.82l-.45,7c-4.08-.27-6.12-.41-10.19-.73.81-10.47,1.22-15.71,2-26.18,5.35.42,8,.61,13.38.92,6.64.4,10,4.06,9.72,9.77a8.5,8.5,0,0,1-4.3,7.15c1.63,4,2.46,5.93,4.13,9.87C643.23,485.88,641,485.77,636.53,485.5Zm-1.26-14.18c1.38,0,2.07-.84,2.16-2.39s-.72-2.27-2.33-2.37l-1.15-.08c-.12,1.92-.18,2.87-.31,4.78Z" transform="translate(-559.59 -320.57)"/><path class="cls-9" d="M666,486.68l-.3-2.27-5.14-.13c-.16.9-.25,1.36-.41,2.26-4.5-.13-6.76-.21-11.26-.4,3.07-10.38,4.57-15.58,7.46-26,5.88.21,8.82.28,14.7.36,2.39,10.54,3.63,15.8,6.21,26.32C672.72,486.81,670.47,486.78,666,486.68Zm-2.05-16.47a11,11,0,0,1-.2-2.44h-.43a11.37,11.37,0,0,1-.31,2.42c-.56,2.58-.85,3.87-1.41,6.44l3.44.08C664.57,474.11,664.35,472.81,663.92,470.21Z" transform="translate(-559.59 -320.57)"/><path class="cls-9" d="M679.45,486.84c0-10.5,0-15.75.07-26.25,4.72,0,7.08,0,11.8-.07,7.37-.09,11.45,3.88,11.63,10.05.2,6.89-3.68,10.82-11.91,10.92l-1.43,0,0,5.29C685.58,486.84,683.53,486.85,679.45,486.84Zm10.81-12.73c1.63,0,2.43-1.17,2.4-3.1,0-1.77-.94-2.8-2.39-2.78h-1c0,2.35,0,3.53.06,5.88Z" transform="translate(-559.59 -320.57)"/><path class="cls-9" d="M720,485.87c-.18-3.49-.27-5.23-.44-8.73-1.49.08-2.23.12-3.71.18l.4,8.73c-4.08.19-6.12.27-10.21.4l-.85-26.24c4-.13,5.92-.2,9.86-.39.15,3.41.23,5.12.39,8.52l3.66-.17c-.17-3.41-.26-5.11-.43-8.52,3.94-.2,5.91-.31,9.85-.57.67,10.48,1,15.72,1.68,26.2C726.1,485.55,724.06,485.66,720,485.87Z" transform="translate(-559.59 -320.57)"/><path class="cls-9" d="M733.66,485.05l-1.8-26.19c3.93-.27,5.9-.42,9.83-.75.87,10.47,1.3,15.7,2.16,26.17C739.78,484.62,737.74,484.77,733.66,485.05Z" transform="translate(-559.59 -320.57)"/><path class="cls-9" d="M767,481.59a21.19,21.19,0,0,1-7,1.94c-8.53.88-13.65-4-14.38-12.47s3.29-14.3,11.5-15.15a20.62,20.62,0,0,1,7,.42c-.38,3.58-.57,5.37-1,8.95a7.66,7.66,0,0,0-3.76-.57c-2.38.25-3.64,2.19-3.34,5.2s2,4.79,4.37,4.53a7.65,7.65,0,0,0,3.59-1.36C765.24,476.49,765.83,478.19,767,481.59Z" transform="translate(-559.59 -320.57)"/><path class="cls-9" d="M580.45,530.88c1.32-10.42,2-15.63,3.29-26.05,4.66.59,7,.87,11.65,1.38,9.73,1.09,13,6.48,12.25,14.26-.75,8-5.32,12.94-15.75,11.77C587.31,531.73,585,531.46,580.45,530.88Zm12.72-7.58c2.15.24,3-1.07,3.32-3.74s-.1-4.19-2.63-4.47l-.64-.07c-.37,3.27-.55,4.91-.92,8.18Z" transform="translate(-559.59 -320.57)"/><path class="cls-9" d="M609.56,534c.93-10.46,1.4-15.69,2.34-26.15,7.72.69,11.59,1,19.32,1.49-.19,3-.29,4.58-.49,7.63-3.6-.23-5.39-.36-9-.63-.06.84-.09,1.25-.16,2.09,2.9.22,4.34.33,7.24.52l-.45,6.71c-2.92-.2-4.38-.3-7.3-.53-.06.86-.1,1.29-.16,2.14,3.64.28,5.47.41,9.11.64-.2,3.05-.29,4.58-.49,7.63C621.53,535,617.54,534.74,609.56,534Z" transform="translate(-559.59 -320.57)"/><path class="cls-9" d="M634,525.61a20.51,20.51,0,0,0,9.15,3c.79,0,1.26-.24,1.28-.62s-.38-.69-.93-.84c-6.47-1.57-10.68-4-10.34-9.65s4.72-8.45,11.46-8.13c4.81.23,8.88,1,11.72,2.45l-1.6,8.6a21.88,21.88,0,0,0-8.79-2.49c-.73,0-1.15.24-1.17.58s.38.69,1,.84c7.18,1.55,10.6,3.77,10.42,9.15-.19,6.21-4.81,9-12.53,8.63-4-.19-8.36-1-11.55-2.94C632.84,530.74,633.21,529,634,525.61Z" transform="translate(-559.59 -320.57)"/><path class="cls-9" d="M658.83,536.92c.29-10.5.44-15.74.74-26.24,4.21.12,6.32.16,10.53.22-.15,10.5-.23,15.76-.38,26.26C665.36,537.09,663.18,537.05,658.83,536.92Z" transform="translate(-559.59 -320.57)"/><path class="cls-9" d="M698.74,535.76a25.1,25.1,0,0,1-11,2.22c-9.28.07-14.82-4.73-14.72-13.81.09-8.52,5.37-13.89,14.73-14a25.08,25.08,0,0,1,9.62,1.59c-.73,3.24-1.1,4.86-1.84,8.1a19.68,19.68,0,0,0-6.39-1c-3.78,0-4.95,2.22-4.94,5.49s1.17,5.64,4.72,5.6c0-.89,0-1.33,0-2.22h-2.3c0-2.62,0-3.93,0-6.55,4.74,0,7.12-.06,11.86-.16C698.55,526.91,698.61,529.86,698.74,535.76Z" transform="translate(-559.59 -320.57)"/><path class="cls-9" d="M717.2,536.71c-1.52-2.69-2.27-4-3.77-6.74a4.08,4.08,0,0,1-.58-2l-.46,0c.13,3.46.2,5.19.33,8.64-4.17.16-6.25.23-10.42.34-.27-10.5-.41-15.75-.68-26.25,4.69-.12,7-.2,11.71-.39,1.46,2.7,2.2,4.05,3.68,6.74a4.34,4.34,0,0,1,.6,2l.45,0-.41-8.89c4-.19,6.05-.3,10.08-.53.62,10.58.94,15.87,1.56,26.46C724.46,536.37,722,536.5,717.2,536.71Z" transform="translate(-559.59 -320.57)"/><path class="cls-9" d="M733,535.61c-.67-10.48-1-15.72-1.67-26.21,7.74-.49,11.6-.78,19.33-1.47l.67,7.62c-3.59.32-5.39.46-9,.74.06.84.1,1.26.16,2.1,2.9-.23,4.34-.35,7.23-.6.24,2.68.35,4,.58,6.7-2.91.25-4.37.37-7.29.6.07.85.1,1.28.16,2.13,3.65-.28,5.47-.43,9.11-.75l.68,7.61C745,534.79,741,535.1,733,535.61Z" transform="translate(-559.59 -320.57)"/><path class="cls-9" d="M770.91,532.29c-1.49-2.66-2.24-4-3.71-6.65l-.87.13c.29,2.78.44,4.16.74,6.94-4.34.46-6.51.68-10.86,1.08-1-10.46-1.45-15.69-2.42-26.14,5.71-.53,8.56-.83,14.26-1.46,7.09-.79,11.24,2.22,12,7.89a8.4,8.4,0,0,1-3.29,7.81c2.4,3.61,3.61,5.4,6.06,9C778,531.48,775.66,531.76,770.91,532.29Zm-3.79-13.74a2.18,2.18,0,0,0,1.87-2.74c-.16-1.42-1.16-2.11-2.87-1.93l-1.23.13.51,4.76Z" transform="translate(-559.59 -320.57)"/><path class="cls-10" d="M638.67,551.13l2.27.28a4.5,4.5,0,0,1,2.21.72,1.64,1.64,0,0,1,.57,1.56c0,.1,0,.2-.05.3a1.72,1.72,0,0,1-.14.36,1.84,1.84,0,0,1-.26.4,1.62,1.62,0,0,1-.44.33,2.19,2.19,0,0,1-.65.24,2,2,0,0,1,1.15.8,2,2,0,0,1,.28,1.31,2,2,0,0,1-.9,1.58,3.33,3.33,0,0,1-2.21.34l-2.83-.34Zm.5,3.5,1.72.21a2.24,2.24,0,0,0,1.3-.14,1.19,1.19,0,0,0,.54-1,1.08,1.08,0,0,0-.39-1.08,3.47,3.47,0,0,0-1.55-.46L639.5,552C639.37,553.06,639.3,553.59,639.17,554.63Zm-.09.74c-.15,1.2-.22,1.8-.37,3l1.69.2a2.61,2.61,0,0,0,1.58-.19,1.32,1.32,0,0,0,.65-1.1,1.23,1.23,0,0,0-.42-1.2,3.56,3.56,0,0,0-1.68-.53Z" transform="translate(-559.59 -320.57)"/><path class="cls-10" d="M652.41,556.57a5.13,5.13,0,0,1-.39,1.63,3.8,3.8,0,0,1-.85,1.23,3.16,3.16,0,0,1-1.28.72,4.31,4.31,0,0,1-1.67.15,4,4,0,0,1-2.05-.72A3.16,3.16,0,0,1,645,558a4.81,4.81,0,0,1-.21-2.18,4.34,4.34,0,0,1,1.32-2.89,3.62,3.62,0,0,1,2.89-.82,3.54,3.54,0,0,1,2.65,1.36A4.27,4.27,0,0,1,652.41,556.57ZM645.8,556a3.68,3.68,0,0,0,.46,2.46,3,3,0,0,0,4.23.41,4.46,4.46,0,0,0,.42-4.82,2.51,2.51,0,0,0-2-1.06,2.6,2.6,0,0,0-2.16.66A3.72,3.72,0,0,0,645.8,556Z" transform="translate(-559.59 -320.57)"/><path class="cls-10" d="M661.25,557.2a5.25,5.25,0,0,1-.35,1.65,3.58,3.58,0,0,1-.82,1.24,3.2,3.2,0,0,1-1.26.76,4.24,4.24,0,0,1-1.66.19,4,4,0,0,1-2.07-.67,3.13,3.13,0,0,1-1.2-1.53,4.87,4.87,0,0,1-.26-2.17,4.32,4.32,0,0,1,1.24-2.92,4.09,4.09,0,0,1,5.56.39A4.36,4.36,0,0,1,661.25,557.2Zm-6.62-.45a3.61,3.61,0,0,0,.53,2.45,3,3,0,0,0,4.22.3,3.67,3.67,0,0,0,.86-2.36,3.75,3.75,0,0,0-.55-2.47,2.55,2.55,0,0,0-2-1,2.6,2.6,0,0,0-2.15.71A3.72,3.72,0,0,0,654.63,556.75Z" transform="translate(-559.59 -320.57)"/><path class="cls-10" d="M666.18,560.94c-.9-2.31-1.34-3.46-2.21-5.78-.07-.22-.1-.33-.18-.55,0,.77,0,1.16-.06,1.94-.1,1.9-.15,2.85-.24,4.75l-.9,0c.18-3.18.26-4.76.43-7.94l1.21.07c1,2.58,1.48,3.87,2.5,6.45,1.23-2.48,1.83-3.73,3-6.22l1.18,0-.25,7.94-.93,0c.07-1.91.1-2.87.17-4.78l.1-1.9c-.09.22-.13.33-.22.54-1.06,2.23-1.59,3.34-2.68,5.55Z" transform="translate(-559.59 -320.57)"/><path class="cls-10" d="M672.59,561.66c.08-3.18.12-4.77.21-7.95,1.82,0,2.73.07,4.56.09l-.05.82-3.6-.06c0,1,0,1.56-.06,2.6l3.45.06V558l-3.46-.06c0,1.15,0,1.73-.07,2.89,1.52,0,2.28,0,3.8.06,0,.33,0,.5-.06.83Z" transform="translate(-559.59 -320.57)"/><path class="cls-10" d="M684.94,561.76h-1.11l-1.13-2.48c-.3-.67-.5-1.07-.58-1.21-.27,0-.58,0-.94,0l-1.45-.05c0,1.49,0,2.23,0,3.72h-1c0-3.21,0-4.82.06-8l2.55,0c.29,0,.55,0,.78,0s.45,0,.68.07a2.69,2.69,0,0,1,.58.16,2.12,2.12,0,0,1,.47.25,1.4,1.4,0,0,1,.35.38,1.77,1.77,0,0,1,.21.52,2.82,2.82,0,0,1,.08.68,2.15,2.15,0,0,1-.39,1.3,2,2,0,0,1-1.13.76l.11.19.26.45.24.44C684.12,560.08,684.39,560.64,684.94,561.76Zm-5.19-7.2c0,1.08,0,1.61,0,2.69h.92l1.08,0a2.26,2.26,0,0,0,1.44-.35,1.34,1.34,0,0,0,.41-1.08,1.2,1.2,0,0,0-.4-1,2.09,2.09,0,0,0-1.3-.31Z" transform="translate(-559.59 -320.57)"/><path class="cls-10" d="M691.48,561.63c-.41-1-.61-1.49-1-2.49l-3.22.07-1,2.53h-1c1.22-3.19,1.81-4.8,3-8l1,0c1.25,3.15,1.9,4.73,3.21,7.87Zm-1.34-3.26c-.83-2.18-1.27-3.4-1.35-3.67l-1.25,3.72Z" transform="translate(-559.59 -320.57)"/><path class="cls-10" d="M699.86,561.3l-1.08.05c-1.81-2.41-2.7-3.63-4.45-6.07l-.29-.36c.06.75.1,1.43.12,2,.06,1.84.1,2.76.17,4.6l-.9,0c-.1-3.17-.16-4.76-.26-7.94l1,0c1.75,2.43,2.64,3.65,4.45,6.06l.3.36c-.08-1.14-.13-1.8-.14-2-.09-1.85-.13-2.78-.23-4.63l.87,0C699.61,556.54,699.7,558.12,699.86,561.3Z" transform="translate(-559.59 -320.57)"/><path class="cls-10" d="M705.33,561.09a4.39,4.39,0,0,1-1.69-.2,3.34,3.34,0,0,1-1.27-.77,3.75,3.75,0,0,1-.81-1.25,5.07,5.07,0,0,1-.34-1.62,4.69,4.69,0,0,1,.34-2.15,3.44,3.44,0,0,1,1.27-1.53,4.19,4.19,0,0,1,2.11-.67,4.6,4.6,0,0,1,2.45.45l-.3.79a4.11,4.11,0,0,0-2.08-.43,3.23,3.23,0,0,0-1.29.34,2.43,2.43,0,0,0-.89.75,3.19,3.19,0,0,0-.5,1.07,4.37,4.37,0,0,0-.11,1.32,3.52,3.52,0,0,0,.91,2.35,2.86,2.86,0,0,0,2.33.72,4.65,4.65,0,0,0,1.72-.46c-.07-.9-.1-1.35-.17-2.26l-1.9.14,0-.81,2.74-.2c.11,1.45.16,2.17.27,3.62a6.54,6.54,0,0,1-1.3.56A7.27,7.27,0,0,1,705.33,561.09Z" transform="translate(-559.59 -320.57)"/><path class="cls-10" d="M715.15,560.16l-.95.09c-.27-2.83-.4-4.25-.66-7.09l-2.45.22c0-.33,0-.49-.07-.82,2.33-.2,3.49-.31,5.81-.55,0,.33.06.49.09.82l-2.45.24C714.75,555.91,714.88,557.33,715.15,560.16Z" transform="translate(-559.59 -320.57)"/><path class="cls-10" d="M722.57,551.37l1-.12c-.76,3.3-1.16,4.94-2,8.23l-1,.12c-1.52-3-2.27-4.55-3.75-7.59l1-.1c.92,1.93,1.39,2.89,2.33,4.81q.45.94.81,1.77a18.19,18.19,0,0,1,.4-1.92C721.76,554.92,722.16,553.18,722.57,551.37Z" transform="translate(-559.59 -320.57)"/><path class="cls-9" d="M639.66,551.25l2.27.27a4.51,4.51,0,0,1,2.22.72,1.64,1.64,0,0,1,.57,1.56,1.57,1.57,0,0,1-.05.3,2.34,2.34,0,0,1-.13.36,1.84,1.84,0,0,1-.26.4,1.81,1.81,0,0,1-.44.34,2.49,2.49,0,0,1-.65.23,2,2,0,0,1,1.15.81,2,2,0,0,1,.29,1.3,2,2,0,0,1-.9,1.58,3.33,3.33,0,0,1-2.21.35l-2.83-.34C639.08,556,639.27,554.4,639.66,551.25Zm.52,3.51,1.71.2a2.31,2.31,0,0,0,1.3-.15,1.13,1.13,0,0,0,.54-1,1,1,0,0,0-.39-1.07,3.35,3.35,0,0,0-1.55-.46l-1.3-.16C640.37,553.19,640.31,553.71,640.18,554.76Zm-.09.74c-.14,1.19-.22,1.79-.36,3l1.69.2a2.62,2.62,0,0,0,1.58-.19,1.33,1.33,0,0,0,.64-1.1,1.24,1.24,0,0,0-.42-1.21,3.57,3.57,0,0,0-1.68-.52Z" transform="translate(-559.59 -320.57)"/><path class="cls-9" d="M653.42,556.65a5.19,5.19,0,0,1-.39,1.64,3.69,3.69,0,0,1-.84,1.22,3.18,3.18,0,0,1-1.28.73,4.13,4.13,0,0,1-1.67.15,4,4,0,0,1-2-.71,3.26,3.26,0,0,1-1.17-1.55,5.15,5.15,0,0,1-.21-2.19,4.33,4.33,0,0,1,1.31-2.89,3.6,3.6,0,0,1,2.88-.82,3.54,3.54,0,0,1,2.67,1.35A4.34,4.34,0,0,1,653.42,556.65Zm-6.61-.6a3.65,3.65,0,0,0,.47,2.46,2.55,2.55,0,0,0,2,1.07,2.52,2.52,0,0,0,2.18-.67,3.69,3.69,0,0,0,.92-2.34,3.73,3.73,0,0,0-.5-2.48,2.51,2.51,0,0,0-2-1.05,2.6,2.6,0,0,0-2.16.66A3.66,3.66,0,0,0,646.81,556.05Z" transform="translate(-559.59 -320.57)"/><path class="cls-9" d="M662.26,557.26a4.93,4.93,0,0,1-.35,1.64,3.49,3.49,0,0,1-.8,1.25,3.37,3.37,0,0,1-1.26.77,4.49,4.49,0,0,1-1.67.19,4.16,4.16,0,0,1-2.07-.66,3.18,3.18,0,0,1-1.2-1.53,4.73,4.73,0,0,1-.27-2.17,4.36,4.36,0,0,1,1.23-2.93,4.1,4.1,0,0,1,5.56.38A4.36,4.36,0,0,1,662.26,557.26Zm-6.62-.43a3.68,3.68,0,0,0,.53,2.45,2.64,2.64,0,0,0,2.07,1,2.55,2.55,0,0,0,2.16-.74,3.67,3.67,0,0,0,.86-2.36,3.75,3.75,0,0,0-.57-2.47,2.52,2.52,0,0,0-2-1,2.6,2.6,0,0,0-2.14.71A3.75,3.75,0,0,0,655.64,556.83Z" transform="translate(-559.59 -320.57)"/><path class="cls-9" d="M667.2,561c-.9-2.31-1.35-3.47-2.22-5.78l-.18-.55c0,.77,0,1.16-.06,1.94-.09,1.9-.14,2.85-.23,4.75l-.89,0c.16-3.17.24-4.76.41-7.93l1.2.06c1,2.58,1.49,3.87,2.52,6.44,1.22-2.48,1.82-3.73,3-6.22l1.17,0c-.09,3.18-.14,4.77-.22,7.94l-.93,0,.15-4.77.1-1.9c-.09.21-.14.32-.22.53-1,2.23-1.59,3.34-2.67,5.56Z" transform="translate(-559.59 -320.57)"/><path class="cls-9" d="M673.62,561.68c.07-3.18.11-4.76.18-7.94,1.82,0,2.74.06,4.56.07,0,.33,0,.5,0,.82-1.44,0-2.17,0-3.61,0l-.05,2.6c1.38,0,2.07,0,3.45.05,0,.33,0,.49,0,.81l-3.46,0,0,2.89c1.51,0,2.27,0,3.79,0l0,.83C676.44,561.74,675.5,561.72,673.62,561.68Z" transform="translate(-559.59 -320.57)"/><path class="cls-9" d="M686,561.74l-1.1,0c-.46-1-.69-1.49-1.14-2.49-.31-.67-.5-1.07-.58-1.2-.27,0-.58,0-.95,0l-1.44-.05c0,1.49,0,2.23,0,3.72h-1l0-8h3.32c.23,0,.45,0,.68.08a2.23,2.23,0,0,1,.58.15,2.64,2.64,0,0,1,.47.25,1.4,1.4,0,0,1,.35.38,1.77,1.77,0,0,1,.21.52,2.38,2.38,0,0,1,.09.68,2.09,2.09,0,0,1-.39,1.3,2,2,0,0,1-1.12.76.82.82,0,0,0,.11.2l.26.44a4.89,4.89,0,0,1,.23.45C685.14,560.07,685.41,560.63,686,561.74Zm-5.2-7.17c0,1.07,0,1.61,0,2.68l.92,0h1.08a2.29,2.29,0,0,0,1.45-.35,1.29,1.29,0,0,0,.39-1.08,1.16,1.16,0,0,0-.39-1,2.05,2.05,0,0,0-1.31-.31Z" transform="translate(-559.59 -320.57)"/><path class="cls-9" d="M692.5,561.6c-.41-1-.61-1.49-1-2.49l-3.23.08c-.37,1-.56,1.52-.94,2.54h-1c1.2-3.2,1.79-4.8,2.95-8l1,0c1.27,3.16,1.91,4.73,3.23,7.87Zm-1.35-3.26c-.83-2.17-1.27-3.39-1.36-3.66-.49,1.49-.73,2.23-1.24,3.72Z" transform="translate(-559.59 -320.57)"/><path class="cls-9" d="M700.89,561.24l-1.08.06c-1.82-2.41-2.72-3.62-4.48-6l-.28-.36q.09,1.13.12,2c.07,1.84.11,2.76.18,4.6l-.89,0c-.12-3.18-.18-4.77-.29-7.94l1,0c1.75,2.43,2.65,3.64,4.46,6.05l.3.36c-.09-1.14-.13-1.8-.14-2-.1-1.85-.15-2.78-.24-4.63l.86-.05C700.63,556.48,700.71,558.07,700.89,561.24Z" transform="translate(-559.59 -320.57)"/><path class="cls-9" d="M706.36,561a4.37,4.37,0,0,1-1.69-.19,3.3,3.3,0,0,1-1.28-.77,3.75,3.75,0,0,1-.81-1.25,5.07,5.07,0,0,1-.35-1.62,4.69,4.69,0,0,1,.33-2.15,3.54,3.54,0,0,1,1.28-1.54,4.21,4.21,0,0,1,2.1-.67,4.66,4.66,0,0,1,2.46.44l-.3.79a4.13,4.13,0,0,0-2.09-.42,3.4,3.4,0,0,0-1.28.34,2.46,2.46,0,0,0-.9.75,3.14,3.14,0,0,0-.49,1.08,4.37,4.37,0,0,0-.11,1.32,3.48,3.48,0,0,0,.92,2.34,2.86,2.86,0,0,0,2.33.72,4.85,4.85,0,0,0,1.72-.46l-.18-2.26-1.9.14c0-.33,0-.49,0-.81l2.74-.21c.11,1.45.17,2.17.29,3.62a6.07,6.07,0,0,1-1.31.56A7.25,7.25,0,0,1,706.36,561Z" transform="translate(-559.59 -320.57)"/><path class="cls-9" d="M716.18,560.06l-1,.1c-.27-2.84-.41-4.26-.68-7.09l-2.45.22-.07-.81c2.33-.21,3.49-.32,5.81-.57l.09.81-2.45.26C715.76,555.81,715.9,557.23,716.18,560.06Z" transform="translate(-559.59 -320.57)"/><path class="cls-9" d="M723.57,551.25l1-.12c-.76,3.29-1.14,4.94-1.95,8.24l-1,.11c-1.53-3-2.29-4.54-3.77-7.57l1-.11c.93,1.93,1.39,2.89,2.34,4.81.3.62.58,1.21.81,1.77,0-.28.16-.92.4-1.93C722.77,554.8,723.16,553.06,723.57,551.25Z" transform="translate(-559.59 -320.57)"/><path class="cls-10" d="M652.37,447.05c0-.35,0-.53,0-.89,1.29-1.08,1.94-1.62,3.2-2.72a3.45,3.45,0,0,0,.64-.74,6.43,6.43,0,0,0,.48-.79l.16-.32a1.39,1.39,0,0,0-.26-1.07,1.45,1.45,0,0,0-1-.48,2.47,2.47,0,0,0-1.87.44c-.09-.34-.13-.5-.21-.84a3.12,3.12,0,0,1,2.25-.43,2.51,2.51,0,0,1,1.67.78,1.93,1.93,0,0,1,.49,1.65,1.43,1.43,0,0,1-.09.19,4.17,4.17,0,0,1-.24.47c-.12.23-.24.45-.37.66s-.29.43-.48.67a4.74,4.74,0,0,1-.56.6c-1,.86-1.56,1.29-2.61,2.13,1.54.19,2.3.28,3.84.44l-.15.81C655.28,447.41,654.31,447.3,652.37,447.05Z" transform="translate(-559.59 -320.57)"/><path class="cls-10" d="M662.7,447.93a2.49,2.49,0,0,1-1.32.2,2.56,2.56,0,0,1-1.27-.42,2.47,2.47,0,0,1-.81-1,4.62,4.62,0,0,1-.37-1.35,8.35,8.35,0,0,1,0-1.66,7.66,7.66,0,0,1,.25-1.36,4.59,4.59,0,0,1,.44-1.11,3.13,3.13,0,0,1,.63-.82,2.19,2.19,0,0,1,.82-.48,2.68,2.68,0,0,1,2.22.29,2.4,2.4,0,0,1,.79.93,4.3,4.3,0,0,1,.4,1.34,7.83,7.83,0,0,1,0,1.7,7.65,7.65,0,0,1-.29,1.63,4.37,4.37,0,0,1-.59,1.27A2.39,2.39,0,0,1,662.7,447.93Zm.23-6.76a1.3,1.3,0,0,0-.9-.51,1.28,1.28,0,0,0-1,.35,2.86,2.86,0,0,0-.7,1.11,7,7,0,0,0-.35,1.68,6.71,6.71,0,0,0,0,1.75,2.91,2.91,0,0,0,.5,1.25,1.27,1.27,0,0,0,.93.52,1.3,1.3,0,0,0,1-.36,2.88,2.88,0,0,0,.7-1.14,7.69,7.69,0,0,0,.27-3.43A2.78,2.78,0,0,0,662.93,441.17Z" transform="translate(-559.59 -320.57)"/><path class="cls-10" d="M667,440.38l.86.05c-.2,3.21-.29,4.82-.49,8l-1-.06c.19-2.81.28-4.21.46-7a5.53,5.53,0,0,1-1.38.51l.07-.89.36-.13.41-.14.34-.15A3,3,0,0,0,667,440.38Z" transform="translate(-559.59 -320.57)"/><path class="cls-10" d="M674.18,440.73c0,.35-.07.52-.11.88-1.32-.05-2-.07-3.3-.14-.08,1-.15,1.88-.2,2.52a2.54,2.54,0,0,1,1.35-.32,3,3,0,0,1,1.08.23,2.19,2.19,0,0,1,.76.55,2.31,2.31,0,0,1,.44.8,2.94,2.94,0,0,1,.13,1,2.52,2.52,0,0,1-.87,1.92,3.13,3.13,0,0,1-2.23.65,3.21,3.21,0,0,1-2.2-.85l.4-.73a3,3,0,0,0,1.87.71,2,2,0,0,0,1.46-.44,1.73,1.73,0,0,0,.57-1.28,1.61,1.61,0,0,0-.4-1.19,1.7,1.7,0,0,0-1.23-.5,1.76,1.76,0,0,0-1.33.47l-.75-.13c.17-1.72.26-2.57.43-4.29C671.7,440.64,672.53,440.67,674.18,440.73Z" transform="translate(-559.59 -320.57)"/><path class="cls-10" d="M678.24,446.19l0-.79,2.74,0v.78C679.9,446.21,679.35,446.21,678.24,446.19Z" transform="translate(-559.59 -320.57)"/><path class="cls-10" d="M685,448.86c-.05-.35-.08-.53-.14-.88,1.13-1.25,1.69-1.87,2.79-3.14a3.63,3.63,0,0,0,.53-.82,5,5,0,0,0,.36-.85c0-.13.07-.2.12-.34a1.41,1.41,0,0,0-.41-1,1.44,1.44,0,0,0-1.07-.34,2.46,2.46,0,0,0-1.79.7l-.33-.8a3.07,3.07,0,0,1,2.17-.74,2.49,2.49,0,0,1,1.76.54,1.92,1.92,0,0,1,.71,1.56.87.87,0,0,1-.06.21c0,.08-.08.25-.17.49a6.56,6.56,0,0,1-.28.71,5.77,5.77,0,0,1-.38.73,3.73,3.73,0,0,1-.47.67c-.9,1-1.36,1.49-2.28,2.48,1.54,0,2.31,0,3.85-.11,0,.33,0,.5,0,.83C687.88,448.81,686.9,448.83,685,448.86Z" transform="translate(-559.59 -320.57)"/><path class="cls-10" d="M695.29,448.29a2.47,2.47,0,0,1-1.27.39,2.56,2.56,0,0,1-1.32-.25,2.34,2.34,0,0,1-.93-.84,4.44,4.44,0,0,1-.55-1.29,7.29,7.29,0,0,1-.23-1.64,7.67,7.67,0,0,1,0-1.38,4.38,4.38,0,0,1,.28-1.16,3,3,0,0,1,.51-.9,2.43,2.43,0,0,1,.75-.6,2.67,2.67,0,0,1,1-.24,2.36,2.36,0,0,1,1.23.23,2.43,2.43,0,0,1,.92.8,4.57,4.57,0,0,1,.58,1.28,8,8,0,0,1,.28,1.67,7.43,7.43,0,0,1-.06,1.66,4.47,4.47,0,0,1-.4,1.34A2.36,2.36,0,0,1,695.29,448.29Zm-.7-6.72a1.25,1.25,0,0,0-1-.38,1.24,1.24,0,0,0-.92.48,2.78,2.78,0,0,0-.54,1.2,6.56,6.56,0,0,0-.12,1.71,6.66,6.66,0,0,0,.28,1.73,2.75,2.75,0,0,0,.66,1.17,1.29,1.29,0,0,0,1,.38,1.26,1.26,0,0,0,.95-.49,2.91,2.91,0,0,0,.54-1.23,6.89,6.89,0,0,0,.09-1.74,6.64,6.64,0,0,0-.3-1.69A2.79,2.79,0,0,0,694.59,441.57Z" transform="translate(-559.59 -320.57)"/><path class="cls-10" d="M698.09,448.31c-.08-.35-.12-.53-.19-.87,1.06-1.31,1.58-2,2.61-3.29a4.44,4.44,0,0,0,.48-.85,6.31,6.31,0,0,0,.31-.87l.1-.35a1.41,1.41,0,0,0-.46-1,1.5,1.5,0,0,0-1.09-.28,2.51,2.51,0,0,0-1.75.8c-.15-.31-.23-.47-.37-.78a3.08,3.08,0,0,1,2.12-.86,2.54,2.54,0,0,1,1.79.44,1.94,1.94,0,0,1,.8,1.52,1.49,1.49,0,0,1-.05.21c0,.09-.07.26-.14.51a6.56,6.56,0,0,1-.24.71c-.09.23-.2.48-.34.76a3.73,3.73,0,0,1-.44.69c-.84,1.05-1.27,1.57-2.13,2.6,1.54-.11,2.3-.18,3.84-.32,0,.33,0,.5,0,.83C701,448.09,700,448.17,698.09,448.31Z" transform="translate(-559.59 -320.57)"/><path class="cls-10" d="M708.39,447.16a2.78,2.78,0,0,1-2.58.28,2.34,2.34,0,0,1-1-.79,4.44,4.44,0,0,1-.63-1.25,8.26,8.26,0,0,1-.32-1.63,8.08,8.08,0,0,1,0-1.38,5.26,5.26,0,0,1,.22-1.18,3.17,3.17,0,0,1,.46-.92,2.22,2.22,0,0,1,.72-.64,2.5,2.5,0,0,1,1-.3,2.34,2.34,0,0,1,2.21.91,4.6,4.6,0,0,1,.65,1.25,7.44,7.44,0,0,1,.37,1.65,7.2,7.2,0,0,1,0,1.66,4.18,4.18,0,0,1-.33,1.36A2.43,2.43,0,0,1,708.39,447.16Zm-1.08-6.67a1.26,1.26,0,0,0-1.89.2,2.85,2.85,0,0,0-.47,1.23,6.5,6.5,0,0,0,0,1.72,6.58,6.58,0,0,0,.37,1.7,2.8,2.8,0,0,0,.73,1.13,1.29,1.29,0,0,0,1,.33,1.25,1.25,0,0,0,.91-.54,2.66,2.66,0,0,0,.47-1.26,7.39,7.39,0,0,0-.4-3.42A2.8,2.8,0,0,0,707.31,440.49Z" transform="translate(-559.59 -320.57)"/><path class="cls-9" d="M653.4,447.18c0-.35,0-.53,0-.89,1.29-1.08,1.93-1.63,3.19-2.73a4.14,4.14,0,0,0,.63-.75,5.21,5.21,0,0,0,.47-.79l.17-.32a1.43,1.43,0,0,0-.27-1.07,1.45,1.45,0,0,0-1-.48,2.53,2.53,0,0,0-1.88.45c-.08-.33-.13-.5-.21-.84a3.09,3.09,0,0,1,2.24-.44,2.51,2.51,0,0,1,1.68.78,1.91,1.91,0,0,1,.5,1.64,1,1,0,0,1-.09.2l-.24.47c-.12.23-.24.45-.37.65a5.61,5.61,0,0,1-.47.68,4.14,4.14,0,0,1-.57.6c-1,.86-1.54,1.29-2.59,2.15,1.54.18,2.3.26,3.84.41l-.15.82C656.31,447.52,655.34,447.42,653.4,447.18Z" transform="translate(-559.59 -320.57)"/><path class="cls-9" d="M663.73,448a2.81,2.81,0,0,1-2.58-.21,2.32,2.32,0,0,1-.82-1,4.62,4.62,0,0,1-.37-1.35,7.62,7.62,0,0,1,0-1.66,8.71,8.71,0,0,1,.24-1.36,4.93,4.93,0,0,1,.43-1.12,3.13,3.13,0,0,1,.63-.82,2.19,2.19,0,0,1,.82-.48,2.63,2.63,0,0,1,2.22.28,2.39,2.39,0,0,1,.8.92,4.39,4.39,0,0,1,.4,1.34,7.25,7.25,0,0,1,0,1.7,7.7,7.7,0,0,1-.27,1.63,4.43,4.43,0,0,1-.59,1.28A2.32,2.32,0,0,1,663.73,448Zm.21-6.75a1.26,1.26,0,0,0-1.89-.16,2.83,2.83,0,0,0-.7,1.11,7,7,0,0,0-.35,1.69,6.57,6.57,0,0,0,0,1.74,2.74,2.74,0,0,0,.5,1.25,1.27,1.27,0,0,0,.93.52,1.3,1.3,0,0,0,1-.36,2.8,2.8,0,0,0,.69-1.15,6.82,6.82,0,0,0,.33-1.72,6.28,6.28,0,0,0-.07-1.71A2.68,2.68,0,0,0,663.94,441.26Z" transform="translate(-559.59 -320.57)"/><path class="cls-9" d="M668,440.44l.86.05-.45,8-1-.05c.17-2.81.26-4.22.43-7a5.53,5.53,0,0,1-1.38.52l.06-.9.36-.12.41-.15.34-.14A2.9,2.9,0,0,0,668,440.44Z" transform="translate(-559.59 -320.57)"/><path class="cls-9" d="M675.18,440.76l-.1.88c-1.32,0-2-.06-3.3-.12-.08,1-.15,1.88-.19,2.52a2.46,2.46,0,0,1,1.35-.33,3,3,0,0,1,1.07.23,2.11,2.11,0,0,1,.77.55,2.18,2.18,0,0,1,.44.79,2.69,2.69,0,0,1,.13,1,2.47,2.47,0,0,1-.86,1.93,3.12,3.12,0,0,1-2.23.65,3.29,3.29,0,0,1-2.2-.83l.4-.74a3,3,0,0,0,1.87.71,2,2,0,0,0,1.46-.45,1.73,1.73,0,0,0,.57-1.29A1.6,1.6,0,0,0,674,445a1.66,1.66,0,0,0-1.23-.49,1.69,1.69,0,0,0-1.33.47l-.75-.13c.16-1.72.25-2.57.41-4.29C672.7,440.68,673.53,440.71,675.18,440.76Z" transform="translate(-559.59 -320.57)"/><path class="cls-9" d="M679.27,446.2c0-.31,0-.47,0-.79,1.1,0,1.65,0,2.75,0v.79Z" transform="translate(-559.59 -320.57)"/><path class="cls-9" d="M686,448.84c-.06-.35-.09-.52-.14-.87,1.12-1.26,1.68-1.89,2.77-3.16a3.63,3.63,0,0,0,.53-.82,6.18,6.18,0,0,0,.35-.85l.12-.34a1.41,1.41,0,0,0-.41-1,1.45,1.45,0,0,0-1.07-.34,2.48,2.48,0,0,0-1.79.71l-.33-.8a3.14,3.14,0,0,1,2.16-.75,2.58,2.58,0,0,1,1.77.53,1.92,1.92,0,0,1,.71,1.57,1.88,1.88,0,0,1,0,.2c0,.08-.09.25-.17.5s-.18.48-.28.7-.22.47-.37.74a4.85,4.85,0,0,1-.48.67c-.89,1-1.35,1.49-2.26,2.48,1.54,0,2.31-.06,3.85-.12,0,.34,0,.5,0,.83C688.92,448.78,687.94,448.81,686,448.84Z" transform="translate(-559.59 -320.57)"/><path class="cls-9" d="M696.33,448.23a2.61,2.61,0,0,1-1.28.39,2.54,2.54,0,0,1-1.31-.24,2.44,2.44,0,0,1-.94-.84,4.68,4.68,0,0,1-.56-1.28,7.37,7.37,0,0,1-.23-1.64,7.87,7.87,0,0,1,0-1.39,4.58,4.58,0,0,1,.28-1.16,3.24,3.24,0,0,1,.5-.9,2.43,2.43,0,0,1,.75-.6,2.68,2.68,0,0,1,1-.25,2.47,2.47,0,0,1,1.23.23,2.28,2.28,0,0,1,.92.8,4.39,4.39,0,0,1,.59,1.27,8.35,8.35,0,0,1,.24,3.33,4.47,4.47,0,0,1-.4,1.34A2.3,2.3,0,0,1,696.33,448.23Zm-.73-6.72a1.28,1.28,0,0,0-1-.37,1.26,1.26,0,0,0-.92.48,2.89,2.89,0,0,0-.53,1.2,6.59,6.59,0,0,0-.11,1.71,6.66,6.66,0,0,0,.28,1.73,2.82,2.82,0,0,0,.67,1.16,1.29,1.29,0,0,0,1,.39,1.27,1.27,0,0,0,.94-.5,2.78,2.78,0,0,0,.53-1.23,6.94,6.94,0,0,0,.09-1.75,6.36,6.36,0,0,0-.31-1.69A2.75,2.75,0,0,0,695.6,441.51Z" transform="translate(-559.59 -320.57)"/><path class="cls-9" d="M699.12,448.23c-.07-.35-.11-.52-.19-.87,1.05-1.31,1.57-2,2.6-3.3a4.15,4.15,0,0,0,.48-.85,5.68,5.68,0,0,0,.3-.87l.1-.35a1.38,1.38,0,0,0-.47-1,1.42,1.42,0,0,0-1.09-.28,2.51,2.51,0,0,0-1.75.8l-.37-.77a3.11,3.11,0,0,1,2.12-.88,2.58,2.58,0,0,1,1.8.44,1.43,1.43,0,0,1,.75,1.73l-.14.5q-.1.38-.24.72a6.5,6.5,0,0,1-.33.76,3.73,3.73,0,0,1-.44.69c-.84,1.05-1.26,1.57-2.12,2.61,1.54-.12,2.31-.19,3.84-.33,0,.33,0,.49,0,.82C702,448,701.07,448.08,699.12,448.23Z" transform="translate(-559.59 -320.57)"/><path class="cls-9" d="M709.42,447a2.61,2.61,0,0,1-1.25.46,2.53,2.53,0,0,1-1.33-.17,2.4,2.4,0,0,1-1-.78,4.58,4.58,0,0,1-.63-1.25,7.7,7.7,0,0,1-.33-1.63,9.31,9.31,0,0,1,0-1.38,5.27,5.27,0,0,1,.21-1.18,3.37,3.37,0,0,1,.46-.93,2.19,2.19,0,0,1,.72-.63,2.36,2.36,0,0,1,1-.31,2.48,2.48,0,0,1,1.25.16,2.35,2.35,0,0,1,1,.74,4.84,4.84,0,0,1,.66,1.24,8.28,8.28,0,0,1,.38,1.66,7.73,7.73,0,0,1,0,1.65,4.31,4.31,0,0,1-.32,1.36A2.4,2.4,0,0,1,709.42,447Zm-1.11-6.67a1.28,1.28,0,0,0-1-.32,1.25,1.25,0,0,0-.9.54,2.76,2.76,0,0,0-.46,1.22,7,7,0,0,0,0,1.72,6.73,6.73,0,0,0,.39,1.71,2.73,2.73,0,0,0,.73,1.12,1.29,1.29,0,0,0,1,.33,1.27,1.27,0,0,0,.91-.55,2.66,2.66,0,0,0,.46-1.26,6.42,6.42,0,0,0,0-1.75,6.3,6.3,0,0,0-.4-1.67A2.78,2.78,0,0,0,708.31,440.37Z" transform="translate(-559.59 -320.57)"/><path class="cls-11" d="M690.63,323.89s-55.88-3.23-55.33,2.88c.47,5.19,4.21,41.85,10.42,38.68,14.3-5.73,47.35-7,50.55-5.88C696.27,359.57,690.43,326.56,690.63,323.89Z" transform="translate(-559.59 -320.57)"/><path class="cls-12" d="M689.87,320.57,693.52,340l3.54,19.44c1.19,6.49,2.49,12.95,3.44,19.47.47,3.26.94,6.52,1.33,9.8l.57,4.91c.15,1.64.34,3.28.46,4.93l-.19,0c-.43-1.6-.78-3.21-1.17-4.81l-1-4.84c-.69-3.22-1.31-6.46-1.92-9.69-1.21-6.48-2.07-13-3-19.53l-3-19.55-2.85-19.56Z" transform="translate(-559.59 -320.57)"/><path class="cls-3" d="M648.24,422.9s2.52,1.52,20.76,4.71c1.61-4.41,20-14.82,27.27-18.52-6.64-6.3-24.69-.9-27.43.77C668.84,409.86,649.74,418.53,648.24,422.9Z" transform="translate(-559.59 -320.57)"/><path class="cls-3" d="M702.84,398.21a38.12,38.12,0,0,0-6.7,1.65c-2.19.7-4.36,1.48-6.52,2.29-4.32,1.61-8.6,3.36-12.83,5.19s-8.39,3.82-12.56,5.78q-3.13,1.44-6.19,3.05c-1,.53-2,1.08-3,1.68-.49.3-1,.61-1.43.95a3.26,3.26,0,0,0-1.12,1.22l-.1,0a3.16,3.16,0,0,1,1-1.42c.43-.4.89-.76,1.35-1.11,1-.68,1.93-1.31,2.92-1.91,2-1.2,4-2.28,6.09-3.34,4.14-2.09,8.41-3.87,12.69-5.62s8.6-3.4,13-4.92c2.19-.75,4.39-1.46,6.61-2.11a38.17,38.17,0,0,1,6.77-1.46Z" transform="translate(-559.59 -320.57)"/><path class="cls-1" d="M702.84,398.16" transform="translate(-559.59 -320.57)"/><path class="cls-1" d="M652.44,420" transform="translate(-559.59 -320.57)"/><g class="cls-13"><path class="cls-9" d="M640.63,346.8a10.48,10.48,0,0,0,1-.16,2.69,2.69,0,0,0,1.7-.86,1.56,1.56,0,0,0,.27-1.15,1.32,1.32,0,0,0-1.25-1.14v0a1.28,1.28,0,0,0,.66-1.32,1.16,1.16,0,0,0-.58-.88,2,2,0,0,0-1.49-.15,7,7,0,0,0-1.25.35c.36,2.15.54,3.22.9,5.35Zm-.16-5a2.63,2.63,0,0,1,.64-.17c.65-.11,1.18,0,1.29.68.08.5-.25.95-1,1.09l-.67.13c-.12-.69-.18-1-.29-1.73Zm.38,2.28.61-.12c.73-.14,1.38,0,1.5.76s-.5,1.17-1.17,1.3a2.25,2.25,0,0,1-.61.08Zm5.49,1.67a2,2,0,0,0,1.61-2.36,1.81,1.81,0,0,0-2.15-1.62,1.94,1.94,0,0,0-1.6,2.36,1.78,1.78,0,0,0,2.14,1.62Zm-.08-.52c-.64.11-1.27-.34-1.41-1.25a1.34,1.34,0,0,1,1-1.68,1.28,1.28,0,0,1,1.42,1.24,1.36,1.36,0,0,1-1,1.69m4.38-.23a2,2,0,0,0,1.65-2.27,1.79,1.79,0,0,0-2.12-1.62,1.91,1.91,0,0,0-1.65,2.28,1.79,1.79,0,0,0,2.12,1.61Zm-.06-.51a1.26,1.26,0,0,1-1.39-1.24,1.31,1.31,0,0,1,1-1.63,1.28,1.28,0,0,1,1.4,1.24,1.34,1.34,0,0,1-1,1.63m2.81,0,.63-.09c-.1-.86-.15-1.29-.26-2.16a.73.73,0,0,1,0-.33,1,1,0,0,1,.8-.8c.5-.06.86.31.94.95.1.84.14,1.26.24,2.09l.64-.08c-.1-.88-.15-1.31-.26-2.19a1.83,1.83,0,0,1,0-.34,1,1,0,0,1,.78-.7c.54-.07.9.3,1,1.06s.13,1.17.21,1.94l.64-.08c-.09-.8-.13-1.2-.22-2-.15-1.35-1-1.55-1.45-1.5a1.3,1.3,0,0,0-.84.38,2,2,0,0,0-.36.54h0a1.11,1.11,0,0,0-1.17-.64,1.32,1.32,0,0,0-1.13.86h0c0-.24-.07-.37-.12-.62l-.57.08c.06.3.11.63.16,1,.14,1.05.2,1.58.34,2.63Zm9.43-2.79a1.36,1.36,0,0,0,0-.29,1.59,1.59,0,0,0-1.76-1.53,1.78,1.78,0,0,0-1.63,2.09,1.71,1.71,0,0,0,2.05,1.57,3.59,3.59,0,0,0,1.28-.37c-.07-.18-.1-.28-.16-.46a2.8,2.8,0,0,1-1.09.31,1.18,1.18,0,0,1-1.44-1c1.1-.12,1.65-.17,2.75-.27Zm-2.78-.21a1.13,1.13,0,0,1,1-1.15,1,1,0,0,1,1.11,1c-.85.07-1.27.12-2.12.2Zm3.81,1.72.66-.07c-.06-.72-.09-1.08-.16-1.8a1.5,1.5,0,0,1,0-.3.92.92,0,0,1,.85-.89h.25l-.05-.59a.74.74,0,0,0-.21,0,1.13,1.13,0,0,0-1,.88h0c0-.29,0-.43-.09-.72l-.58,0c0,.34.09.68.13,1.13.09.92.13,1.38.21,2.3Zm5-2.45a1.33,1.33,0,0,0-1.57-1.35,2.48,2.48,0,0,0-1.26.4l.19.41a1.91,1.91,0,0,1,1-.34c.81-.06.93.51.94.72v.07c-1.56.08-2.29.62-2.22,1.44a1,1,0,0,0,1.24.88,1.6,1.6,0,0,0,1.15-.62h0l.09.44.61,0A4.48,4.48,0,0,1,669,342c0-.48-.06-.72-.09-1.19Zm-.58.89a.49.49,0,0,1,0,.2,1,1,0,0,1-.92.66.58.58,0,0,1-.7-.54c0-.63.77-.83,1.59-.87l.06.55Zm1.84,1,.66-.05c-.05-.79-.08-1.18-.13-2a.59.59,0,0,1,0-.27,1,1,0,0,1,.93-.69c.67,0,1,.43,1,1s.07,1.09.11,1.82l.66,0c0-.75-.06-1.12-.11-1.88a1.37,1.37,0,0,0-1.47-1.43,1.48,1.48,0,0,0-1.26.73h0c0-.24,0-.35-.08-.59l-.6,0c0,.28.08.58.1.92.07,1,.1,1.44.17,2.41Zm7.59-2.72c0-.35,0-.6,0-.83h-.59v.52h0a1.44,1.44,0,0,0-1.29-.58,1.65,1.65,0,0,0-1.67,1.78,1.63,1.63,0,0,0,1.75,1.51,1.51,1.51,0,0,0,1.24-.63h0l0,.36c0,.84-.49,1.18-1.22,1.21a2.28,2.28,0,0,1-1.17-.23l-.15.47a2.63,2.63,0,0,0,1.32.23,2.32,2.32,0,0,0,1.37-.45,1.77,1.77,0,0,0,.49-1.5c0-.74-.05-1.12-.09-1.86Zm-.62.93a.86.86,0,0,1,0,.32,1.05,1.05,0,0,1-1,.67,1.13,1.13,0,0,1-1.24-1.09,1.17,1.17,0,0,1,2.21-.62,1,1,0,0,1,.06.26l0,.46Zm4.45-3c2.44-1.91,5.45-2.48,6.87-1.43s.61,3.62-1.9,5.78-5.7,3.26-7.19,2.23-.88-3.41,1.12-5.55c0,1.34.07,2,.12,3.35h.67c0-1.55-.08-2.33-.13-3.89l1.75,0c0-.19,0-.28,0-.47Zm4.06,4.36c.76-1.69,1.15-2.53,1.93-4.18l-.73,0c-.37.84-.56,1.26-.92,2.11a15.6,15.6,0,0,0-.62,1.55c-.18-.48-.38-1-.65-1.58-.37-.86-.55-1.3-.93-2.17l-.73,0,1.92,4.32Z" transform="translate(-559.59 -320.57)"/></g><g class="cls-13"><path class="cls-9" d="M680.49,338.91c0-.23,0-.34,0-.56h-1.74c0-.2,0-.3,0-.49l2.9,0c-.17.14-.34.28-.5.43a5.78,5.78,0,0,0-.61.6" transform="translate(-559.59 -320.57)"/></g></svg>