<svg id="Capa_1" data-name="Capa 1" xmlns="http://www.w3.org/2000/svg" viewBox="0 0 227.42 235.28"><defs><style>.cls-1{fill:#26add2;}.cls-2{fill:#229bb7;}.cls-3{fill:#f9b233;}.cls-4{fill:#df9b2d;}.cls-5{fill:#d8d8d8;}.cls-6{fill:#242323;}.cls-7{fill:#545353;}.cls-8{fill:#100f0f;}.cls-9{fill:#e1e0e0;}.cls-10{fill:#40b3d5;}.cls-11{fill:#1d1d1b;}.cls-12{fill:#fff;}</style></defs><circle class="cls-1" cx="113.71" cy="147.65" r="87.63"/><path class="cls-2" d="M263.25,625.67a87.65,87.65,0,0,1-157.56-73.21s4,51.84,63.1,73.21S263.25,625.67,263.25,625.67Z" transform="translate(-76.55 -430.87)"/><path class="cls-3" d="M160.88,592.21c8.14.42,17.53.52,25.69.53,17.94,0,34.44,2,52.25,0,8.22-.92,12.33-10.6,20.47-12.07,5.77-1,11.89-2.13,17.7-.91,0-.43,0-.86,0-1.3a88,88,0,0,0-2.09-19.06c-1.34,2.78-5.74,4-8.25,1.52-4.12-4-10.48-2.83-15.73-3.66-4.25-.67-9-2.75-11.35-6.6a6.88,6.88,0,0,1,1.16-8.71l.16-.15a15.69,15.69,0,0,0-4-.57c-6.91-.05-13.35,2.16-20.15-.32-4-1.48-7.88-4.89-6.38-9.61,1.33-4.19,6.06-6.32,10-7.26,6-1.42,12-.2,17.74,1.56s14.58,6,20.1,1.71a5.57,5.57,0,0,1,1.67-.9,87.88,87.88,0,0,0-36.51-28.74c3.06,3.38,5.12,7.24,5.16,11.66.11,14.28-16.8,13.81-26.73,12.51a154.28,154.28,0,0,0-15.62-1.36c-5.88-.17-12.6-.69-18.15,1.68-5.32,2.28-7.33,8.71-2.41,12.62,5.76,4.57,14.1,4.71,21,5.29,8.91.75,17.53,2.2,24.89,7.62,5.33,3.93,10.41,8.67,13.92,14.33,2.95,4.75,4.62,11.27.28,15.78-5.08,5.3-14.36,4.84-21,3.91-15.66-2.19-33.82-13.37-49.16-4.32C149.78,580.82,156.8,590.06,160.88,592.21Z" transform="translate(-76.55 -430.87)"/><path class="cls-4" d="M140.67,612.59c-5.66-2.44-13.57-6.21-21.1-1.31s-6.36,5.68-7.4,8.72c.12.18,3.23,5.49,3.35,5.67C120.89,614.85,158.44,622.48,140.67,612.59Z" transform="translate(-76.55 -430.87)"/><path class="cls-3" d="M104.31,558.49c-.16.77-.29,1.54-.43,2.31.16-.73.34-1.45.52-2.18Z" transform="translate(-76.55 -430.87)"/><path class="cls-3" d="M147.53,556.89c-1.61-7.11,24.09-1,10.83-15.86-3.87-8.9-7.82-2-11.18-2.81-2.36-.55.66-7.69-9.71-1.2s5.84,11.79,3.91,14.9c-2.88,4.63-8,1.84-11.29-.47-5-3.54-10.06-7.45-14.78-11.41a35.47,35.47,0,0,1-3.14-3s-2.58,3.52-5.94,14.43C115.45,553.72,146.11,596.13,147.53,556.89Z" transform="translate(-76.55 -430.87)"/><path class="cls-3" d="M235.74,635.56a16.83,16.83,0,0,0-1.06-3.58c-2.23-7.6-19-14.64-28.23,4A121.45,121.45,0,0,0,235.74,635.56Z" transform="translate(-76.55 -430.87)"/><path class="cls-3" d="M203.67,635.69a7.64,7.64,0,0,1-1.29-3.71c.21-7.56,17.8-9.41,9.84-15.12-14.25-2.87-12,5.34-29.46,5.52-10,.11-11.24-9.22-21.24-9.51,1.84,2.44,1.51,5.77-.16,8.46A5.46,5.46,0,0,1,163.3,625c1.77.74,3.61,1.45,5.49,2.14A159,159,0,0,0,203.67,635.69Z" transform="translate(-76.55 -430.87)"/><path class="cls-4" d="M206.05,636.81c.13-.28.27-.54.4-.81-.91-.09-1.84-.2-2.78-.31C204.52,637,205.56,637.86,206.05,636.81Z" transform="translate(-76.55 -430.87)"/><path class="cls-4" d="M105.69,554c-.48,1.53-.9,3.08-1.29,4.65a24.3,24.3,0,0,0,2.79,3.58A57,57,0,0,1,105.69,554Z" transform="translate(-76.55 -430.87)"/><path class="cls-4" d="M143.89,637.24c-3.51.62-8.33,1-12,2.66l-2.27,2.68A87.66,87.66,0,0,0,224,659c-8.42,2.15-17.25,2.51-18.31-6.35-.69-5.8,32.78-.93,30.05-17.13a121.45,121.45,0,0,1-29.29.44c-.13.27-.27.53-.4.81-.49,1.05-1.53.22-2.38-1.12a159,159,0,0,1-34.88-8.51c-1.88-.69-3.72-1.4-5.49-2.14a4.07,4.07,0,0,1-.73,2.69C158.09,634,151.18,636,143.89,637.24Z" transform="translate(-76.55 -430.87)"/><path class="cls-5" d="M226,447.17s-22-17-43.12-16.28c1.07,10.22-12.36,33.91-6.57,33.57,12.81.4,40,9.83,42.08,11.77C218.43,476.23,225,449.14,226,447.17Z" transform="translate(-76.55 -430.87)"/><path class="cls-3" d="M210.45,508.13l7.59-32c1.27-5.33,2.48-10.67,3.87-16s2.8-10.59,4.4-15.84l.09,0c-1,5.39-2.29,10.72-3.52,16.06s-2.69,10.63-4.06,15.93l-8.27,31.83Z" transform="translate(-76.55 -430.87)"/><path class="cls-2" d="M172.58,499.32a56.48,56.48,0,0,0,6,20.26c3.42-2.14,11.27-3,16.58-2,1.24-7.16-3.88-17.17-6.05-17.34C189.16,500.21,175.94,497.15,172.58,499.32Z" transform="translate(-76.55 -430.87)"/><path class="cls-2" d="M210.36,508.11c-4.25-3.76-31.54-11-34.25-8.75" transform="translate(-76.55 -430.87)"/><path class="cls-2" d="M210.36,508.11" transform="translate(-76.55 -430.87)"/><path class="cls-2" d="M176.11,499.36" transform="translate(-76.55 -430.87)"/><g id="yCNl5o.tif"><path class="cls-6" d="M196.43,460.93c-.09,0-.19-.05-.28-.09-5.5-2-11-2.28-16.43-3.2l-.27-.06,0-.14c0-.1,0-.2.08-.3q3.36-10.35,6.74-20.47l.12-.29.08-.05.06,0,.28,0a135.26,135.26,0,0,1,16.47,4.93l.27.13,0,.07,0-.05c.15.11,0,.21,0,.29-2.29,6.47-4.59,12.68-6.89,19,0,.08,0,.24-.17.22v-.06Zm-7.93-9.31v0a9.12,9.12,0,0,0,.91.17,2.61,2.61,0,0,0,2.7-1.69,2,2,0,0,0-1-2.8,14.77,14.77,0,0,0-2-.52c-.18,0-.22.05-.26.19l-1.45,4.23c-.08.21,0,.26.17.28S188.22,451.56,188.5,451.62Zm4.68-4.89a3.18,3.18,0,0,0,1.28.13,1.43,1.43,0,0,0,1.12-.66,1.2,1.2,0,0,0-.19-1.66,10,10,0,0,0-1.28-.88c-.12-.09-.27-.19-.16-.38s.27-.12.41-.08a2,2,0,0,1,1,.57c.22.22.35.21.58,0,.71-.65.72-.64-.06-1.16a2.8,2.8,0,0,0-2.15-.56,1.58,1.58,0,0,0-1.31,1.12,1.12,1.12,0,0,0,.5,1.33c.23.17.48.32.72.47s.32.21.47.33a.2.2,0,0,1,.1.27c-.07.13-.19.12-.3.1a2.56,2.56,0,0,1-.93-.39c-.26-.15-.45-.56-.73-.49s-.49.45-.75.67-.14.26,0,.38A5.6,5.6,0,0,0,193.18,446.73Zm-1.76-3c.15-.44.32-.89.46-1.33s.4-.71.26-.92-.59-.2-.9-.3-.32,0-.4.21c-.37,1.11-.77,2.22-1.14,3.33-.11.33-.42.75-.26,1s.61.18.93.28.28,0,.34-.2C190.94,445.08,191.18,444.4,191.42,443.72Zm1.25,6.32c-.24.67-.47,1.34-.72,2-.07.2-.06.31.17.35a4.21,4.21,0,0,1,.74.18c.22.08.3,0,.37-.2.38-1.09.78-2.17,1.16-3.26.11-.31.37-.69.27-.91s-.61-.21-.92-.33-.3,0-.38.19C193.15,448.73,192.9,449.38,192.67,450Zm4.13-3.66c-.19.18-.06.3,0,.43.35.52.69,1.05,1.05,1.58.13.17.09.22-.1.28-.63.19-1.25.41-1.88.63-.14.05-.29.08-.25.31.82-.29,1.63-.56,2.43-.82.24-.07.2-.2.09-.35Zm-9.43,1.2c.17-.21.06-.31,0-.42-.34-.49-.68-1-1-1.45-.13-.17-.09-.24.12-.33l1.83-.86c.14-.07.32-.11.26-.35-.81.37-1.6.75-2.4,1.13-.21.1-.24.21-.12.37C186.46,446.3,186.9,446.93,187.37,447.58Zm6.38,8c.13.33.21.56.3.8,0,.06.06.14.15.13s.1-.09.13-.15l.25-.72c0-.08.08-.18,0-.21s-.13.09-.15.16-.12.31-.21.55l-.3-.79c0-.07,0-.15-.13-.15s-.11.08-.13.15l-.27.76c0,.07-.06.15,0,.18s.13-.05.15-.12Zm-10.63-1.83-.13.4c0,.09-.07.2,0,.22a1.05,1.05,0,0,0,.61,0,.76.76,0,0,0,.46-.71c0-.39-.31-.46-.62-.47s-.22.32-.33.47S183.13,453.75,183.12,453.78Zm2.18.37c-.15.19.3.1.06.3a.31.31,0,0,1-.46,0,.43.43,0,0,1,.09-.58.35.35,0,0,1,.5-.06c.06,0,.08.21.2.07s0-.17-.07-.23a.48.48,0,0,0-.61,0,.67.67,0,0,0-.37.64c0,.26.12.45.39.44s.34.1.43,0a.6.6,0,0,0,.16-.5C185.59,454.11,185.41,454.12,185.3,454.15Zm7.92,1.51c0-.09-.1-.09-.15-.12s-.35,0-.28-.22.24-.06.36-.07a.33.33,0,0,1,.14,0c.07,0,.13,0,.15-.08s0-.07-.08-.1c-.43-.24-.65-.16-.82.32a3.59,3.59,0,0,1-.12.35c-.12.23,0,.33.2.34s.38.21.48,0-.24-.12-.37-.17-.14-.1-.1-.21.11-.14.23-.11S193.07,455.77,193.22,455.66Zm-5.29-.59c0-.35,0-.7-.05-1,0-.16-.15-.12-.24,0s-.42.54-.63.81c0,.05-.1.12,0,.16s.12,0,.19-.05c.3-.26.45-.23.57.1,0,.06,0,.1.11.11A.08.08,0,0,0,187.93,455.07Zm3.31.64c0-.35,0-.68-.05-1s-.13-.17-.25,0l-.63.78s-.1.1,0,.15.11,0,.17,0c.36-.26.46-.24.59.11,0,.06.05.11.12.11S191.25,455.75,191.24,455.71Zm-1-1.32-.32-.07c-.06,0-.13,0-.16.06s0,.12.09.12c.32,0,.19.2.13.38s-.12.33-.17.5,0,.12.05.14.11,0,.13-.11l.21-.61c0-.09,0-.2.19-.19s.24.11.28-.06-.16-.09-.25-.13A1.13,1.13,0,0,0,190.21,454.39Zm5.06,1.29c-.1,0-.19-.07-.29-.09s-.15-.07-.19,0,0,.13.11.14c.23,0,.17.18.12.32s-.14.36-.2.54,0,.12.06.15.11,0,.14-.09.15-.4.22-.61,0-.17.17-.14.24.14.28,0-.19-.12-.28-.18Zm-8.34-1.89-.31-.06c-.07,0-.16,0-.19.07s0,.12.12.12.19.11.12.27-.12.34-.17.51-.13.22,0,.23.14-.13.17-.22.13-.36.18-.54.08-.18.22-.16.2.07.23-.08-.11-.09-.19-.11A1.33,1.33,0,0,0,186.93,453.79Zm1.49,1.47.11,0c.12,0,.27.15.34,0s-.17-.11-.28-.12-.27-.11-.17-.33a5.62,5.62,0,0,0,.19-.58c0-.06,0-.12,0-.13s-.12,0-.15.1a4.83,4.83,0,0,1-.22.64C188.05,455.14,188.13,455.28,188.42,455.26Zm3.31.66a1.31,1.31,0,0,0,.22,0c.08,0,.19.12.24,0s-.11-.11-.18-.12c-.36,0-.37-.19-.24-.46a2.35,2.35,0,0,0,.15-.42c0-.07.05-.15,0-.17s-.12.06-.15.13a5.12,5.12,0,0,1-.21.59C191.35,455.79,191.45,455.92,191.73,455.92Zm-5.8-1.75-.16.5c0,.06-.05.13,0,.15s.11-.05.13-.11a2.32,2.32,0,0,0,.15-.47c0-.19.3-.46.08-.54S186,454,185.93,454.17Zm-1.48-.17.15-.48s0-.1,0-.11-.1,0-.11.09c-.11.31-.22.63-.32.95,0,.05,0,.1.05.11s.09,0,.11-.08S184.39,454.16,184.45,454Z" transform="translate(-76.55 -430.87)"/><path class="cls-7" d="M204.92,442c0-.07,0-.14.09-.12a1.42,1.42,0,0,1,.29.1,167.08,167.08,0,0,1,16.44,7.42c.31.16.36.27.25.56q-3.41,9.21-6.79,18.63c-.09.25-.17.32-.47.18-5.5-2.55-11-5-16.56-7.2-.09,0-.23,0-.27-.17l.43.16c5.43,2.19,10.87,4.59,16.29,7.08a1,1,0,0,0,.28.12c.17,0,0-.09,0-.12s.1-.22.14-.33q3.33-9.23,6.67-18.27c.11-.32,0-.42-.28-.58a163,163,0,0,0-15.95-7.19l-.34-.16C205.11,442,205,442,204.92,442Z" transform="translate(-76.55 -430.87)"/><path class="cls-8" d="M214.92,468.68s.15.14,0,.12a1,1,0,0,1-.28-.12c-5.42-2.49-10.86-4.89-16.29-7.08l-.43-.16a2.17,2.17,0,0,1,.07-.24c2.29-6.29,4.58-12.51,6.87-19a1.67,1.67,0,0,1,.08-.2c.12-.06.19,0,.24.11h-.09c-.14.1-.15.27-.21.41-2.21,6.24-4.43,12.28-6.65,18.36,0,.12-.13.23-.08.37s.17.15.27.19C203.91,463.72,209.43,466.13,214.92,468.68Z" transform="translate(-76.55 -430.87)"/><path class="cls-6" d="M186.37,436.31c0-.09.07-.05.11,0l-.06,0Z" transform="translate(-76.55 -430.87)"/><path class="cls-8" d="M203.57,441.42l0,.05,0-.07Z" transform="translate(-76.55 -430.87)"/><path class="cls-8" d="M186.37,436.31l0,0-.08.05Z" transform="translate(-76.55 -430.87)"/><path class="cls-8" d="M179.4,457.44l0,.14h0l-.06-.06Z" transform="translate(-76.55 -430.87)"/><path class="cls-8" d="M196.43,460.93l.06,0V461Z" transform="translate(-76.55 -430.87)"/><path class="cls-6" d="M179.38,457.52l.06.06C179.39,457.59,179.35,457.6,179.38,457.52Z" transform="translate(-76.55 -430.87)"/><path class="cls-9" d="M196.8,446.38l1.36,2.06c.11.15.15.28-.09.35-.8.26-1.61.53-2.43.82,0-.23.11-.26.25-.31.63-.22,1.25-.44,1.88-.63.19-.06.23-.11.1-.28-.36-.53-.7-1.06-1.05-1.58C196.74,446.68,196.61,446.56,196.8,446.38Z" transform="translate(-76.55 -430.87)"/><path class="cls-9" d="M187.37,447.58c-.47-.65-.91-1.28-1.37-1.91-.12-.16-.09-.27.12-.37.8-.38,1.59-.76,2.4-1.13.06.24-.12.28-.26.35l-1.83.86c-.21.09-.25.16-.12.33.36.47.7,1,1,1.45C187.43,447.27,187.54,447.37,187.37,447.58Z" transform="translate(-76.55 -430.87)"/><path class="cls-9" d="M193.75,455.61l-.21.59c0,.07-.06.15-.15.12s-.07-.11,0-.18l.27-.76c0-.07,0-.16.13-.15s.1.08.13.15l.3.79c.09-.24.14-.4.21-.55s0-.19.15-.16.07.13,0,.21l-.25.72c0,.06,0,.15-.13.15s-.12-.07-.15-.13C194,456.17,193.88,455.94,193.75,455.61Z" transform="translate(-76.55 -430.87)"/><path class="cls-9" d="M183.12,453.78s0-.06,0-.08,0-.48.33-.47.6.08.62.47a.76.76,0,0,1-.46.71,1.05,1.05,0,0,1-.61,0c-.11,0-.07-.13,0-.22Zm.16.06c.11.11-.28.36.06.42a.45.45,0,0,0,.53-.35c.08-.25,0-.41-.24-.46S183.42,453.7,183.28,453.84Z" transform="translate(-76.55 -430.87)"/><path class="cls-9" d="M185.3,454.15c.11,0,.29,0,.32.06a.6.6,0,0,1-.16.5c-.09.09-.28,0-.43,0s-.38-.18-.39-.44a.67.67,0,0,1,.37-.64.48.48,0,0,1,.61,0c.06.06.16.13.07.23s-.14,0-.2-.07a.35.35,0,0,0-.5.06.43.43,0,0,0-.09.58.31.31,0,0,0,.46,0C185.6,454.25,185.15,454.34,185.3,454.15Z" transform="translate(-76.55 -430.87)"/><path class="cls-9" d="M193.22,455.66c-.15.11-.26,0-.36,0s-.19,0-.23.11,0,.17.1.21.43,0,.37.17-.31,0-.48,0-.32-.11-.2-.34a3.59,3.59,0,0,0,.12-.35c.17-.48.39-.56.82-.32,0,0,.09.05.08.1s-.08.09-.15.08a.33.33,0,0,0-.14,0c-.12,0-.28-.18-.36.07s.18.16.28.22S193.19,455.57,193.22,455.66Z" transform="translate(-76.55 -430.87)"/><path class="cls-9" d="M187.93,455.07a.08.08,0,0,1-.09.09c-.07,0-.09-.05-.11-.11-.12-.33-.27-.36-.57-.1-.07.06-.13.1-.19.05s0-.11,0-.16c.21-.27.41-.55.63-.81s.22-.16.24,0C187.91,454.37,187.91,454.72,187.93,455.07Zm-.24-.82c-.09.12-.27.2-.23.35s.19.07.22,0S187.72,454.38,187.69,454.25Z" transform="translate(-76.55 -430.87)"/><path class="cls-9" d="M191.24,455.71s0,.08-.08.08-.09-.05-.12-.11c-.13-.35-.23-.37-.59-.11-.06,0-.11.07-.17,0s0-.11,0-.15l.63-.78c.12-.14.23-.15.25,0S191.23,455.36,191.24,455.71Zm-.5-.5c.09.05.22.12.28,0a.32.32,0,0,0,0-.38C190.9,455,190.78,455.07,190.74,455.21Z" transform="translate(-76.55 -430.87)"/><path class="cls-9" d="M190.21,454.38l.18,0c.09,0,.27,0,.25.13s-.18.07-.28.06-.15.1-.19.19l-.21.61c0,.06-.05.12-.13.11s-.07-.08-.05-.14.11-.34.17-.5.19-.38-.13-.38c-.08,0-.11-.05-.09-.12s.1-.07.16-.06Z" transform="translate(-76.55 -430.87)"/><path class="cls-9" d="M195.27,455.68l.14,0c.09.06.3,0,.28.18s-.19,0-.28,0-.14.07-.17.14-.15.41-.22.61-.07.11-.14.09-.08-.09-.06-.15.13-.36.2-.54.11-.28-.12-.32c-.07,0-.16-.05-.11-.14s.13,0,.19,0S195.17,455.65,195.27,455.68Z" transform="translate(-76.55 -430.87)"/><path class="cls-9" d="M186.93,453.79a1.33,1.33,0,0,1,.21,0c.08,0,.21,0,.19.11s-.15.09-.23.08-.18,0-.22.16-.11.36-.18.54,0,.24-.17.22-.05-.15,0-.23.11-.34.17-.51.08-.27-.12-.27-.16,0-.12-.12.12-.08.19-.07Z" transform="translate(-76.55 -430.87)"/><path class="cls-9" d="M188.42,455.26c-.29,0-.37-.12-.22-.44a4.83,4.83,0,0,0,.22-.64c0-.07.07-.12.15-.1s.06.07,0,.13a5.62,5.62,0,0,1-.19.58c-.1.22,0,.31.17.33s.33,0,.28.12-.22,0-.34,0Z" transform="translate(-76.55 -430.87)"/><path class="cls-9" d="M191.73,455.92c-.28,0-.38-.13-.22-.45a5.12,5.12,0,0,0,.21-.59c0-.07.06-.15.15-.13s.08.1,0,.17a2.35,2.35,0,0,1-.15.42c-.13.27-.12.45.24.46.07,0,.21,0,.18.12s-.16.05-.24,0A1.31,1.31,0,0,1,191.73,455.92Z" transform="translate(-76.55 -430.87)"/><path class="cls-7" d="M205.07,442.16a2.17,2.17,0,0,1-.07.24c-2.24,6.33-4.49,12.45-6.74,18.61,0,.1-.09.2-.13.29,0-.14,0-.25.08-.37,2.22-6.08,4.44-12.12,6.65-18.36C204.92,442.43,204.93,442.26,205.07,442.16Z" transform="translate(-76.55 -430.87)"/><path class="cls-6" d="M189.48,449.31c.1-.3.22-.59.3-.89s.19-.29.42-.23c.73.19,1,.73.65,1.53a1.29,1.29,0,0,1-1.6.86c-.14,0-.19-.09-.13-.25C189.25,450,189.36,449.65,189.48,449.31Z" transform="translate(-76.55 -430.87)"/><path class="cls-6" d="M183.28,453.84c.14-.14,0-.46.35-.39s.32.21.24.46a.45.45,0,0,1-.53.35C183,454.2,183.39,454,183.28,453.84Z" transform="translate(-76.55 -430.87)"/><path class="cls-6" d="M187.69,454.25c0,.13.11.26,0,.39s-.21,0-.22,0S187.6,454.37,187.69,454.25Z" transform="translate(-76.55 -430.87)"/><path class="cls-6" d="M190.74,455.21c0-.14.16-.23.24-.35a.32.32,0,0,1,0,.38C191,455.33,190.83,455.26,190.74,455.21Z" transform="translate(-76.55 -430.87)"/><path class="cls-6" d="M207.78,452.12c-.11.3-.21.6-.33.89a.8.8,0,0,1-1.13.49,3.54,3.54,0,0,1-.53-.23.86.86,0,0,1-.46-1.08c.21-.65.44-1.29.68-1.92a.78.78,0,0,1,1.05-.48,2.58,2.58,0,0,1,.46.18.9.9,0,0,1,.57,1.25Zm-.54-.24.33-.93c.13-.37-.13-.48-.4-.59s-.52-.16-.64.18c-.21.61-.43,1.21-.65,1.82-.13.36.13.48.4.6s.52.16.64-.18S207.13,452.18,207.24,451.88Z" transform="translate(-76.55 -430.87)"/><path class="cls-6" d="M209.11,459a1,1,0,0,0,0-.1c.08-.61.12-.62-.5-.65a1.08,1.08,0,0,1-.91-.52c-.18-.27-.41-.52-.62-.78s-.16-.21,0-.33.24-.08.35.07l1.12,1.34c0-.57.09-1.06.14-1.54,0-.15-.09-.41.24-.37s.21.29.2.45c0,.49,0,1-.09,1.52.44-.34.82-.65,1.21-.94.11-.09.2-.3.41,0s0,.31-.13.41l-1.2,1c.61.09,1.15.17,1.67.27.11,0,.27,0,.28.18s0,.32-.29.27c-.54-.1-1.08-.16-1.69-.24l1.11,1.38c.1.13.16.21,0,.33s-.24.09-.35-.06-.42-.53-.64-.78a1,1,0,0,1-.35-.83Z" transform="translate(-76.55 -430.87)"/><path class="cls-6" d="M215.19,457.29a.62.62,0,0,1-.62-.73c0-.31-.07-.65-.08-1s-.12-.29-.28-.35-.21.11-.25.21c-.11.28-.22.56-.31.85s-.14.27-.38.16-.21-.22-.15-.4c.36-1,.72-1.94,1-2.92.09-.25.19-.27.42-.14s.57.26.84.41a.82.82,0,0,1,.48,1c-.14.44-.19,1-.8,1.06-.14,0-.06.16-.05.25C215.1,456.28,215.14,456.78,215.19,457.29Zm.08-2.78c0-.19.28-.37,0-.62s-.65-.32-.82.13l-.09.27c-.17.46-.17.45.31.66S215.15,454.77,215.27,454.51Z" transform="translate(-76.55 -430.87)"/><path class="cls-6" d="M209.91,454.36c-.19.38-.53.37-.88.25s-.77-.32-1.16-.48l-.05-.09c.38-1.14.78-2.27,1.21-3.38l.09,0c.37.15.74.28,1.1.46s.63.41.56.85Zm-1-1.82c-.13.37-.25.74-.4,1.1-.06.17,0,.25.15.3a3.68,3.68,0,0,1,.35.15c.23.1.39.05.47-.18.22-.65.45-1.29.68-1.93.09-.23,0-.38-.23-.48l-.35-.15c-.16-.09-.24,0-.29.12C209.2,451.83,209.07,452.18,208.94,452.54Z" transform="translate(-76.55 -430.87)"/><path class="cls-6" d="M213.5,452.59a.41.41,0,0,1-.1.27l-.11.05-.91-.39c-.16-.07-.23-.07-.31.1-.33.79-.34.79.53,1.18.16.07.33.1.24.36s-.22.17-.4.1-.58-.39-.79-.29-.2.49-.32.73-.08.37.2.46.45.21.67.29.24.17.17.36-.16.18-.33.1c-.48-.23-1-.44-1.47-.66.42-1.16.83-2.32,1.25-3.47l1.62.72Z" transform="translate(-76.55 -430.87)"/><path class="cls-6" d="M218,454.61a2.3,2.3,0,0,0,.32.15c.2.08.2.19.14.35s-.13.23-.32.12a3.84,3.84,0,0,0-.35-.18c-.66-.37-.7-.09-.86.45-.05.17.08.3.25.39.75.43.84.74.5,1.6-.24.58-.64.69-1.32.37l-.43-.19c-.16-.07-.29-.12-.2-.35s.17-.25.37-.12a.61.61,0,0,0,.14.07c.75.35.82.32,1-.41a.33.33,0,0,0-.19-.47,1,1,0,0,1-.56-1.52c.25-.56.63-.67,1.34-.33Z" transform="translate(-76.55 -430.87)"/><path class="cls-10" d="M209.11,459c-.18.17-.13.41-.16.62,0,.44-.07.89-.11,1.33,0,.17-.07.25-.26.21s-.21-.11-.19-.28c.05-.53.07-1.06.11-1.67l-1.27,1c-.11.09-.2.19-.36,0s-.08-.28.06-.39c.39-.3.76-.61,1.23-1-.61-.08-1.13-.16-1.64-.25-.12,0-.29,0-.28-.22s0-.3.27-.25c.72.12,1.44.2,2.16.28.31,0,.43.14.37.44,0,.07,0,.15.07.19Z" transform="translate(-76.55 -430.87)"/><path class="cls-6" d="M203.49,450.3c.11-.29.2-.58.31-.85a.83.83,0,0,1,1.19-.51c.19.07.38.16.57.22s.27.12.2.34-.19.22-.39.13c-1-.42-.89-.35-1.2.52-.15.41-.29.83-.45,1.23s0,.52.3.64c.15.05.28.13.43.17s.29.13.21.37-.23.16-.39.1c-1.26-.52-1.37-.73-.93-2Z" transform="translate(-76.55 -430.87)"/><path class="cls-7" d="M211.82,451.78c-.42,1.15-.83,2.31-1.25,3.47-.07-.07,0-.14,0-.2l1.12-3.12C211.71,451.87,211.71,451.78,211.82,451.78Z" transform="translate(-76.55 -430.87)"/><path class="cls-7" d="M209.91,454.36l.87-2.42a4.16,4.16,0,0,1-.36,1.18A4.83,4.83,0,0,1,209.91,454.36Z" transform="translate(-76.55 -430.87)"/><path class="cls-8" d="M213.29,452.91l.11-.05C213.39,452.93,213.35,452.94,213.29,452.91Z" transform="translate(-76.55 -430.87)"/><path class="cls-8" d="M213.5,452.59l-.06-.09C213.49,452.51,213.53,452.54,213.5,452.59Z" transform="translate(-76.55 -430.87)"/><path class="cls-8" d="M209.12,450.63l-.09,0C209,450.6,209.08,450.6,209.12,450.63Z" transform="translate(-76.55 -430.87)"/><path class="cls-8" d="M207.82,454l.05.09C207.82,454.12,207.79,454.1,207.82,454Z" transform="translate(-76.55 -430.87)"/></g><path class="cls-11" d="M81.35,543.7v3l-4.8-.45V533.48c3.62.34,5.43.5,9,.82v4.37l-4.31-.39v1.41l3.49.31v4Z" transform="translate(-76.55 -430.87)"/><path class="cls-11" d="M94.22,547.77l-1.32-3.51h-.39v3.39l-4.8-.4V534.48l6.53.54c3.24.25,4.94,2.09,4.94,4.87a3.83,3.83,0,0,1-1.89,3.43l2.18,4.86Zm-1-6.92c.66,0,1-.39,1-1.14A1.12,1.12,0,0,0,93,538.53l-.55,0v2.33Z" transform="translate(-76.55 -430.87)"/><path class="cls-11" d="M101,541.94c0-4.1,2-6.62,6.13-6.34s6.11,2.75,6.11,7.12c0,4.09-2,6.66-6.15,6.37S101,546.31,101,541.94Zm7.22.49c0-1.36-.26-2.44-1.13-2.5s-1.08,1-1.08,2.29.26,2.49,1.12,2.55S108.19,543.76,108.19,542.43Z" transform="translate(-76.55 -430.87)"/><path class="cls-11" d="M122,549.78c-.62-1.37-.93-2.06-1.54-3.44a2.16,2.16,0,0,1-.23-1H120v4.2l-4.6-.27V536.51l5.34.32c.62,1.37.93,2.06,1.54,3.43a2.23,2.23,0,0,1,.23,1h.21v-4.33l4.6.25v12.88Z" transform="translate(-76.55 -430.87)"/><path class="cls-11" d="M132.27,550.19V541.8l-3-.14v-4.37c4.29.22,6.44.31,10.73.49v4.37l-3-.13v8.39Z" transform="translate(-76.55 -430.87)"/><path class="cls-11" d="M139.55,547.31v-3.67l5.84.23v3.67C143.05,547.46,141.88,547.41,139.55,547.31Z" transform="translate(-76.55 -430.87)"/><path class="cls-11" d="M147.56,550.82V538.07c3.54.12,5.31.17,8.85.27v3.72l-4.07-.12v1l3.27.1v3.26l-3.27-.1v1l4.07.11v3.72C152.87,551,151.1,551,147.56,550.82Z" transform="translate(-76.55 -430.87)"/><path class="cls-11" d="M165.21,551.43c-.62-1.35-.93-2-1.54-3.38a2.15,2.15,0,0,1-.23-1h-.2v4.21l-4.61-.11V538.4l5.35.13c.61,1.35.92,2,1.54,3.37a2.33,2.33,0,0,1,.23,1h.2v-4.32l4.61.08v12.88Z" transform="translate(-76.55 -430.87)"/><path class="cls-11" d="M173,551.44V538.68l5.35.06c4.47,0,6.18,2.53,6.18,6.33s-1.82,6.47-6.44,6.43Zm5.21-4.33c1,0,1.29-.66,1.29-2s-.24-2-1.39-2h-.29v4Z" transform="translate(-76.55 -430.87)"/><path class="cls-11" d="M191.37,551.55V538.79l5.35,0c4.47,0,6.17,2.44,6.17,6.23s-1.81,6.5-6.44,6.53Zm5.21-4.41c1,0,1.29-.68,1.29-2s-.24-2-1.4-2h-.28v4Z" transform="translate(-76.55 -430.87)"/><path class="cls-11" d="M205.07,551.45V538.69l8.85-.15v3.71l-4.08.08v1l3.28-.06v3.27l-3.28.06v1l4.08-.08v3.72Z" transform="translate(-76.55 -430.87)"/><path class="cls-11" d="M218.61,551.19c-1.24-5.07-1.86-7.61-3.09-12.69l5.37-.12c.35,2.56.53,3.84.88,6.4a7.2,7.2,0,0,1,.08,1.12h.21a7.33,7.33,0,0,1,.08-1.13c.36-2.58.53-3.87.89-6.45l5.36-.17c-1.23,5.15-1.85,7.72-3.08,12.86Z" transform="translate(-76.55 -430.87)"/><path class="cls-11" d="M230.2,550.85V538.09c3.54-.12,5.31-.19,8.84-.33v3.71l-4.07.17v1l3.27-.13v3.26l-3.27.13v1l4.07-.16v3.72C235.51,550.66,233.74,550.73,230.2,550.85Z" transform="translate(-76.55 -430.87)"/><path class="cls-11" d="M241.26,550.42V537.66c1.93-.08,2.89-.12,4.81-.22v8.39l3.83-.18V550C246.44,550.19,244.72,550.27,241.26,550.42Z" transform="translate(-76.55 -430.87)"/><path class="cls-11" d="M251.46,543.59c0-4.11,2-6.88,6.14-7.12s6.1,2,6.1,6.35c0,4.09-2,6.91-6.14,7.15S251.46,548,251.46,543.59Zm7.23-.42c0-1.37-.27-2.42-1.13-2.37s-1.09,1.11-1.09,2.43.27,2.46,1.13,2.41S258.69,544.49,258.69,543.17Z" transform="translate(-76.55 -430.87)"/><path class="cls-11" d="M265.9,549.1V536.34l5.75-.38c3.59-.25,5.52,1.6,5.52,4.6,0,3.35-1.89,5.33-5.79,5.6l-.68.05v2.57Zm5.15-6.51c.78-.05,1.17-.63,1.17-1.57s-.43-1.34-1.13-1.29l-.47,0v2.86Z" transform="translate(-76.55 -430.87)"/><path class="cls-11" d="M279.18,548.17V535.41c3.53-.26,5.3-.4,8.83-.69v3.71l-4.07.33v1l3.27-.26v3.26l-3.27.27v1l4.07-.33v3.71C284.48,547.76,282.71,547.9,279.18,548.17Z" transform="translate(-76.55 -430.87)"/><path class="cls-11" d="M296.72,546.72c-.52-1.32-.78-2-1.31-3.29l-.39.05v3.39l-4.8.42V534.53c2.61-.22,3.92-.33,6.52-.57,3.25-.29,4.95,1.26,4.95,4a4.65,4.65,0,0,1-1.89,3.75c.87,1.8,1.31,2.7,2.17,4.49Zm-1-6.75c.66-.12,1-.55,1-1.31s-.41-1-1.19-1l-.55.05v2.33Z" transform="translate(-76.55 -430.87)"/><path class="cls-11" d="M135,574.81V562.05l6,.26c4.09.16,5.1,1.66,5.1,3.68a2.63,2.63,0,0,1-1.67,2.51,3.11,3.11,0,0,1,1.81,2.83c0,2.16-.93,3.91-5.33,3.73Zm5.49-7.56a.64.64,0,0,0,.68-.67.71.71,0,0,0-.68-.74l-.72,0v1.41Zm.29,4.25a.64.64,0,0,0,.68-.68.69.69,0,0,0-.68-.72l-1-.05v1.41Z" transform="translate(-76.55 -430.87)"/><path class="cls-11" d="M148,569c0-4.1,2-6.7,6.14-6.58s6.11,2.51,6.11,6.88c0,4.08-2,6.73-6.15,6.61S148,573.35,148,569Zm7.23.21c0-1.37-.26-2.44-1.13-2.46s-1.09,1-1.09,2.33.27,2.48,1.13,2.5S155.22,570.51,155.22,569.19Z" transform="translate(-76.55 -430.87)"/><path class="cls-11" d="M162.28,569.39c0-4.11,2-6.73,6.15-6.66s6.11,2.44,6.11,6.81c0,4.08-2,6.76-6.15,6.69S162.28,573.76,162.28,569.39Zm7.24.12c0-1.37-.27-2.43-1.13-2.45s-1.09,1-1.09,2.35.26,2.47,1.13,2.49S169.52,570.84,169.52,569.51Z" transform="translate(-76.55 -430.87)"/><path class="cls-11" d="M179,576v-8.39l-3,0v-4.37c4.29,0,6.44.06,10.74.07v4.37h-3V576Z" transform="translate(-76.55 -430.87)"/><path class="cls-11" d="M197.78,575.81a10,10,0,0,1-3.35.59c-4,0-6.24-2.54-6.24-6.69s2.21-6.79,6.24-6.81a10,10,0,0,1,3.35.56c-.38,1.7-.57,2.56-.94,4.27a3.77,3.77,0,0,0-1.77-.46c-1.16,0-1.86.88-1.86,2.35s.7,2.41,1.86,2.41a3.9,3.9,0,0,0,1.77-.48C197.21,573.25,197.4,574.1,197.78,575.81Z" transform="translate(-76.55 -430.87)"/><path class="cls-11" d="M207.37,575.9l-.17-1.1-2.43,0-.16,1.1-5.31.06c1.24-5.12,1.85-7.67,3.09-12.79l7.18-.1,3.1,12.7Zm-1.16-8a5.76,5.76,0,0,1-.12-1.18h-.21a5.86,5.86,0,0,1-.12,1.19l-.6,3.15,1.65,0Z" transform="translate(-76.55 -430.87)"/><path class="cls-11" d="M225.61,575.49l.08-6.17h-.18a5.41,5.41,0,0,1-.15,1.16l-1.05,4.83-4.36.12-1-4.77a5.34,5.34,0,0,1-.14-1.16h-.19c0,2.46.05,3.69.09,6.16l-4.34.1c.16-5.11.24-7.66.41-12.77l6.29-.15c.37,1.91.56,2.86.93,4.77a5.48,5.48,0,0,1,.1,1.1h.18a5.63,5.63,0,0,1,.11-1.11c.34-1.93.52-2.89.86-4.82l6.34-.19c.16,5.09.24,7.64.41,12.74Z" transform="translate(-76.55 -430.87)"/><path class="cls-11" d="M232.23,575.27V562.51c2.3-.08,3.45-.12,5.75-.22,3.6-.14,5.53,1.76,5.53,4.76,0,3.35-1.89,5.28-5.79,5.44l-.68,0v2.58Zm5.16-6.36c.78,0,1.17-.6,1.17-1.54s-.43-1.35-1.13-1.32l-.47,0v2.86Z" transform="translate(-76.55 -430.87)"/><path class="cls-12" d="M83.35,545.7v3l-4.8-.45V535.48c3.62.34,5.43.5,9,.82v4.37l-4.31-.39v1.41l3.49.31v4Z" transform="translate(-76.55 -430.87)"/><path class="cls-12" d="M96.22,549.77l-1.32-3.51h-.39v3.39l-4.8-.4V536.48l6.53.54c3.24.25,4.94,2.09,4.94,4.87a3.83,3.83,0,0,1-1.89,3.43l2.18,4.86Zm-1-6.92c.66,0,1-.39,1-1.14A1.12,1.12,0,0,0,95,540.53l-.55,0v2.33Z" transform="translate(-76.55 -430.87)"/><path class="cls-12" d="M103,543.94c0-4.1,2-6.62,6.13-6.34s6.11,2.75,6.11,7.12c0,4.09-2,6.66-6.15,6.37S103,548.31,103,543.94Zm7.22.49c0-1.36-.26-2.44-1.13-2.5s-1.08,1-1.08,2.29.26,2.49,1.12,2.55S110.19,545.76,110.19,544.43Z" transform="translate(-76.55 -430.87)"/><path class="cls-12" d="M124,551.78c-.62-1.37-.93-2.06-1.54-3.44a2.16,2.16,0,0,1-.23-1H122v4.2l-4.6-.27V538.51l5.34.32c.62,1.37.93,2.06,1.54,3.43a2.23,2.23,0,0,1,.23,1h.21v-4.33l4.6.25v12.88Z" transform="translate(-76.55 -430.87)"/><path class="cls-12" d="M134.27,552.19V543.8l-3-.14v-4.37c4.29.22,6.44.31,10.73.49v4.37l-3-.13v8.39Z" transform="translate(-76.55 -430.87)"/><path class="cls-12" d="M141.55,549.31v-3.67l5.84.23v3.67C145.05,549.46,143.88,549.41,141.55,549.31Z" transform="translate(-76.55 -430.87)"/><path class="cls-12" d="M149.56,552.82V540.07c3.54.12,5.31.17,8.85.27v3.72l-4.07-.12v1l3.27.1v3.26l-3.27-.1v1l4.07.11v3.72C154.87,553,153.1,553,149.56,552.82Z" transform="translate(-76.55 -430.87)"/><path class="cls-12" d="M167.21,553.43c-.62-1.35-.93-2-1.54-3.38a2.15,2.15,0,0,1-.23-1h-.2v4.21l-4.61-.11V540.4l5.35.13c.61,1.35.92,2,1.54,3.37a2.33,2.33,0,0,1,.23,1h.2v-4.32l4.61.08v12.88Z" transform="translate(-76.55 -430.87)"/><path class="cls-12" d="M175,553.44V540.68l5.35.06c4.47,0,6.18,2.53,6.18,6.33s-1.82,6.47-6.44,6.43Zm5.21-4.33c1,0,1.29-.66,1.29-2s-.24-2-1.39-2h-.29v4Z" transform="translate(-76.55 -430.87)"/><path class="cls-12" d="M193.37,553.55V540.79l5.35,0c4.47,0,6.17,2.44,6.17,6.23s-1.81,6.5-6.44,6.53Zm5.21-4.41c1,0,1.29-.68,1.29-2s-.24-2-1.4-2h-.28v4Z" transform="translate(-76.55 -430.87)"/><path class="cls-12" d="M207.07,553.45V540.69l8.85-.15v3.71l-4.08.08v1l3.28-.06v3.27l-3.28.06v1l4.08-.08v3.72Z" transform="translate(-76.55 -430.87)"/><path class="cls-12" d="M220.61,553.19c-1.24-5.07-1.86-7.61-3.09-12.69l5.37-.12c.35,2.56.53,3.84.88,6.4a7.2,7.2,0,0,1,.08,1.12h.21a7.33,7.33,0,0,1,.08-1.13c.36-2.58.53-3.87.89-6.45l5.36-.17c-1.23,5.15-1.85,7.72-3.08,12.86Z" transform="translate(-76.55 -430.87)"/><path class="cls-12" d="M232.2,552.85V540.09c3.54-.12,5.31-.19,8.84-.33v3.71l-4.07.17v1l3.27-.13v3.26l-3.27.13v1l4.07-.16v3.72C237.51,552.66,235.74,552.73,232.2,552.85Z" transform="translate(-76.55 -430.87)"/><path class="cls-12" d="M243.26,552.42V539.66c1.93-.08,2.89-.12,4.81-.22v8.39l3.83-.18V552C248.44,552.19,246.72,552.27,243.26,552.42Z" transform="translate(-76.55 -430.87)"/><path class="cls-12" d="M253.46,545.59c0-4.11,2-6.88,6.14-7.12s6.1,2,6.1,6.35c0,4.09-2,6.91-6.14,7.15S253.46,550,253.46,545.59Zm7.23-.42c0-1.37-.27-2.42-1.13-2.37s-1.09,1.11-1.09,2.43.27,2.46,1.13,2.41S260.69,546.49,260.69,545.17Z" transform="translate(-76.55 -430.87)"/><path class="cls-12" d="M267.9,551.1V538.34l5.75-.38c3.59-.25,5.52,1.6,5.52,4.6,0,3.35-1.89,5.33-5.79,5.6l-.68.05v2.57Zm5.15-6.51c.78-.05,1.17-.63,1.17-1.57s-.43-1.34-1.13-1.29l-.47,0v2.86Z" transform="translate(-76.55 -430.87)"/><path class="cls-12" d="M281.18,550.17V537.41c3.53-.26,5.3-.4,8.83-.69v3.71l-4.07.33v1l3.27-.26v3.26l-3.27.27v1l4.07-.33v3.71C286.48,549.76,284.71,549.9,281.18,550.17Z" transform="translate(-76.55 -430.87)"/><path class="cls-12" d="M298.72,548.72c-.52-1.32-.78-2-1.31-3.29l-.39.05v3.39l-4.8.42V536.53c2.61-.22,3.92-.33,6.52-.57,3.25-.29,4.95,1.26,4.95,4a4.65,4.65,0,0,1-1.89,3.75c.87,1.8,1.31,2.7,2.17,4.49Zm-1-6.75c.66-.12,1-.55,1-1.31s-.41-1-1.19-1l-.55.05v2.33Z" transform="translate(-76.55 -430.87)"/><path class="cls-12" d="M137,576.81V564.05l6,.26c4.09.16,5.1,1.66,5.1,3.68a2.63,2.63,0,0,1-1.67,2.51,3.11,3.11,0,0,1,1.81,2.83c0,2.16-.93,3.91-5.33,3.73Zm5.49-7.56a.64.64,0,0,0,.68-.67.71.71,0,0,0-.68-.74l-.72,0v1.41Zm.29,4.25a.64.64,0,0,0,.68-.68.69.69,0,0,0-.68-.72l-1-.05v1.41Z" transform="translate(-76.55 -430.87)"/><path class="cls-12" d="M150,571c0-4.1,2-6.7,6.14-6.58s6.11,2.51,6.11,6.88c0,4.08-2,6.73-6.15,6.61S150,575.35,150,571Zm7.23.21c0-1.37-.26-2.44-1.13-2.46s-1.09,1-1.09,2.33.27,2.48,1.13,2.5S157.22,572.51,157.22,571.19Z" transform="translate(-76.55 -430.87)"/><path class="cls-12" d="M164.28,571.39c0-4.11,2-6.73,6.15-6.66s6.11,2.44,6.11,6.81c0,4.08-2,6.76-6.15,6.69S164.28,575.76,164.28,571.39Zm7.24.12c0-1.37-.27-2.43-1.13-2.45s-1.09,1-1.09,2.35.26,2.47,1.13,2.49S171.52,572.84,171.52,571.51Z" transform="translate(-76.55 -430.87)"/><path class="cls-12" d="M181,578v-8.39l-3,0v-4.37c4.29,0,6.44.06,10.74.07v4.37h-3V578Z" transform="translate(-76.55 -430.87)"/><path class="cls-12" d="M199.78,577.81a10,10,0,0,1-3.35.59c-4,0-6.24-2.54-6.24-6.69s2.21-6.79,6.24-6.81a10,10,0,0,1,3.35.56c-.38,1.7-.57,2.56-.94,4.27a3.77,3.77,0,0,0-1.77-.46c-1.16,0-1.86.88-1.86,2.35s.7,2.41,1.86,2.41a3.9,3.9,0,0,0,1.77-.48C199.21,575.25,199.4,576.1,199.78,577.81Z" transform="translate(-76.55 -430.87)"/><path class="cls-12" d="M209.37,577.9l-.17-1.1-2.43,0-.16,1.1-5.31.06c1.24-5.12,1.85-7.67,3.09-12.79l7.18-.1,3.1,12.7Zm-1.16-8a5.76,5.76,0,0,1-.12-1.18h-.21a5.86,5.86,0,0,1-.12,1.19l-.6,3.15,1.65,0Z" transform="translate(-76.55 -430.87)"/><path class="cls-12" d="M227.61,577.49l.08-6.17h-.18a5.41,5.41,0,0,1-.15,1.16l-1.05,4.83-4.36.12-1-4.77a5.34,5.34,0,0,1-.14-1.16h-.19c0,2.46.05,3.69.09,6.16l-4.34.1c.16-5.11.24-7.66.41-12.77l6.29-.15c.37,1.91.56,2.86.93,4.77a5.48,5.48,0,0,1,.1,1.1h.18a5.63,5.63,0,0,1,.11-1.11c.34-1.93.52-2.89.86-4.82l6.34-.19c.16,5.09.24,7.64.41,12.74Z" transform="translate(-76.55 -430.87)"/><path class="cls-12" d="M234.23,577.27V564.51c2.3-.08,3.45-.12,5.75-.22,3.6-.14,5.53,1.76,5.53,4.76,0,3.35-1.89,5.28-5.79,5.44l-.68,0v2.58Zm5.16-6.36c.78,0,1.17-.6,1.17-1.54s-.43-1.35-1.13-1.32l-.47,0v2.86Z" transform="translate(-76.55 -430.87)"/><path class="cls-12" d="M164.13,527.35l-.11-.81,2.52-2.59a3.07,3.07,0,0,0,.49-.69,4.91,4.91,0,0,0,.34-.73l.12-.3a1.28,1.28,0,0,0-1.3-1.38,2,2,0,0,0-1.62.46c-.12-.31-.17-.46-.29-.76a2.59,2.59,0,0,1,2-.46,2.44,2.44,0,0,1,1.59.66,1.9,1.9,0,0,1,.59,1.49,1.84,1.84,0,0,1-.06.18c0,.07-.08.22-.17.43s-.18.42-.27.61a5.42,5.42,0,0,1-.36.63,3.31,3.31,0,0,1-.44.56l-2.06,2c1.35.12,2,.17,3.38.27l0,.75C166.69,527.57,165.84,527.5,164.13,527.35Z" transform="translate(-76.55 -430.87)"/><path class="cls-12" d="M173.57,527.87a2,2,0,0,1-1.13.22,2.2,2.2,0,0,1-1.14-.36,2.29,2.29,0,0,1-.78-.85,4.21,4.21,0,0,1-.44-1.22,7.09,7.09,0,0,1-.15-1.51,8,8,0,0,1,.1-1.25,4,4,0,0,1,.3-1,2.55,2.55,0,0,1,.49-.76,1.9,1.9,0,0,1,.71-.46,2.21,2.21,0,0,1,.91-.12,2.37,2.37,0,0,1,1.1.34,2.33,2.33,0,0,1,.79.83,4.12,4.12,0,0,1,.45,1.21,7.41,7.41,0,0,1,.15,1.55,7.55,7.55,0,0,1-.14,1.49,4.06,4.06,0,0,1-.44,1.17A1.88,1.88,0,0,1,173.57,527.87Zm-.28-6.15a1.17,1.17,0,0,0-.85-.44,1.06,1.06,0,0,0-.86.34,2.34,2.34,0,0,0-.53,1,5.92,5.92,0,0,0-.18,1.54,6.33,6.33,0,0,0,.18,1.59,3,3,0,0,0,.53,1.13,1.2,1.2,0,0,0,.86.45,1,1,0,0,0,.85-.35,2.37,2.37,0,0,0,.54-1,6.22,6.22,0,0,0,.18-1.57,6.08,6.08,0,0,0-.18-1.56A2.7,2.7,0,0,0,173.29,521.72Z" transform="translate(-76.55 -430.87)"/><path class="cls-12" d="M176.39,528.2l-.11-.81,2.53-2.69a4,4,0,0,0,.49-.71,7.07,7.07,0,0,0,.34-.75l.11-.31a1.32,1.32,0,0,0-.33-.95,1.4,1.4,0,0,0-1-.37,2.11,2.11,0,0,0-1.63.53c-.12-.3-.17-.45-.29-.75a2.74,2.74,0,0,1,2-.55,2.37,2.37,0,0,1,1.58.6,1.81,1.81,0,0,1,.6,1.47s0,.1-.06.18-.08.22-.17.44-.18.43-.27.62-.22.41-.36.64a3.65,3.65,0,0,1-.44.58l-2.06,2.12c1.35.06,2,.09,3.38.13l-.05.75C179,528.31,178.1,528.28,176.39,528.2Z" transform="translate(-76.55 -430.87)"/><path class="cls-12" d="M183.15,521.14l.78,0v7.3l-.87,0V522a4.68,4.68,0,0,1-1.21.52v-.82l.32-.13.36-.14.3-.15Z" transform="translate(-76.55 -430.87)"/><path class="cls-12" d="M188.41,526.1v-.72h2.45v.72Z" transform="translate(-76.55 -430.87)"/><path class="cls-12" d="M195.09,528.49l-.12-.8,2.53-2.85a4.24,4.24,0,0,0,.49-.75,6.64,6.64,0,0,0,.35-.77l.11-.31a1.21,1.21,0,0,0-.34-.93,1.25,1.25,0,0,0-1-.31,2.21,2.21,0,0,0-1.63.63l-.28-.72a2.81,2.81,0,0,1,2-.68,2.19,2.19,0,0,1,1.59.5,1.67,1.67,0,0,1,.59,1.42.78.78,0,0,1-.06.19c0,.07-.08.22-.16.45s-.18.44-.28.64a5.6,5.6,0,0,1-.36.66,3.43,3.43,0,0,1-.44.61L196,527.72c1.35,0,2,0,3.39-.09l-.06.76C197.65,528.44,196.8,528.46,195.09,528.49Z" transform="translate(-76.55 -430.87)"/><path class="cls-12" d="M204.54,528a2.21,2.21,0,0,1-1.13.34,2.18,2.18,0,0,1-1.14-.23,2.08,2.08,0,0,1-.79-.77,4,4,0,0,1-.43-1.18,6.83,6.83,0,0,1-.15-1.49,7,7,0,0,1,.1-1.26,4.69,4.69,0,0,1,.29-1.06,2.93,2.93,0,0,1,.5-.81,2.06,2.06,0,0,1,.7-.54,2.49,2.49,0,0,1,.92-.22,2.2,2.2,0,0,1,1.1.23,2,2,0,0,1,.78.73,3.86,3.86,0,0,1,.46,1.17,7.08,7.08,0,0,1,.15,1.53,7.83,7.83,0,0,1-.14,1.51,4.33,4.33,0,0,1-.44,1.21A2.11,2.11,0,0,1,204.54,528Zm-.28-6.12a1,1,0,0,0-.85-.35,1.18,1.18,0,0,0-.86.43A2.6,2.6,0,0,0,202,523a6.19,6.19,0,0,0-.18,1.56,6.11,6.11,0,0,0,.18,1.57,2.44,2.44,0,0,0,.53,1.07,1.07,1.07,0,0,0,.86.36,1.14,1.14,0,0,0,.85-.44,2.74,2.74,0,0,0,.54-1.11,6.46,6.46,0,0,0,.17-1.59,5.9,5.9,0,0,0-.17-1.54A2.38,2.38,0,0,0,204.26,521.88Z" transform="translate(-76.55 -430.87)"/><path class="cls-12" d="M207.36,528l-.11-.79,2.52-3a3.65,3.65,0,0,0,.49-.77,5.85,5.85,0,0,0,.35-.78l.11-.32a1.19,1.19,0,0,0-.34-.92,1.27,1.27,0,0,0-.95-.27,2.33,2.33,0,0,0-1.63.71l-.29-.72a3,3,0,0,1,2-.76,2.17,2.17,0,0,1,1.59.43,1.66,1.66,0,0,1,.59,1.4.67.67,0,0,1-.06.19c0,.08-.08.23-.17.46a6.32,6.32,0,0,1-.27.65,6.63,6.63,0,0,1-.36.68,3.64,3.64,0,0,1-.44.63l-2.06,2.33c1.36-.08,2-.13,3.39-.23l-.06.76C209.92,527.87,209.07,527.92,207.36,528Z" transform="translate(-76.55 -430.87)"/><path class="cls-12" d="M213.19,527.62l-.12-.79,2.53-3a4.58,4.58,0,0,0,.48-.78,5.89,5.89,0,0,0,.35-.79l.11-.32a1.15,1.15,0,0,0-.34-.91,1.19,1.19,0,0,0-.95-.25,2.38,2.38,0,0,0-1.63.74l-.28-.71a3,3,0,0,1,2-.8,2.07,2.07,0,0,1,1.58.4,1.6,1.6,0,0,1,.59,1.38.78.78,0,0,1-.06.19c0,.08-.08.23-.17.46a6.5,6.5,0,0,1-.27.66,7.51,7.51,0,0,1-.35.69,4.29,4.29,0,0,1-.45.63l-2.05,2.38,3.38-.3-.06.76C215.75,527.41,214.89,527.48,213.19,527.62Z" transform="translate(-76.55 -430.87)"/><path class="cls-11" d="M163.13,526.26l-.11-.82c1-1,1.51-1.54,2.52-2.57a3.61,3.61,0,0,0,.49-.69,5.81,5.81,0,0,0,.35-.74l.11-.29a1.34,1.34,0,0,0-.34-1,1.43,1.43,0,0,0-1-.42,2,2,0,0,0-1.63.46l-.28-.76a2.6,2.6,0,0,1,2-.46,2.47,2.47,0,0,1,1.59.67,1.9,1.9,0,0,1,.59,1.49,1.24,1.24,0,0,1-.06.18,4.69,4.69,0,0,1-.17.44,7.19,7.19,0,0,1-.63,1.23,3.31,3.31,0,0,1-.44.56l-2,2,3.37.29,0,.74C165.69,526.49,164.84,526.42,163.13,526.26Z" transform="translate(-76.55 -430.87)"/><path class="cls-11" d="M172.57,526.81a2.07,2.07,0,0,1-1.13.22,2.4,2.4,0,0,1-1.14-.36,2.49,2.49,0,0,1-.78-.86,4.52,4.52,0,0,1-.44-1.22,7.11,7.11,0,0,1-.14-1.51,8,8,0,0,1,.09-1.25,4,4,0,0,1,.3-1,2.55,2.55,0,0,1,.49-.76,1.87,1.87,0,0,1,.71-.45,2.21,2.21,0,0,1,.91-.12,2.34,2.34,0,0,1,1.1.34,2.42,2.42,0,0,1,.79.83,4.18,4.18,0,0,1,.45,1.22,7.25,7.25,0,0,1,.15,1.54,7.47,7.47,0,0,1-.14,1.49,3.85,3.85,0,0,1-.44,1.17A1.88,1.88,0,0,1,172.57,526.81Zm-.28-6.15a1.17,1.17,0,0,0-.85-.45,1.06,1.06,0,0,0-.86.34,2.38,2.38,0,0,0-.53,1,5.84,5.84,0,0,0-.18,1.53,6.47,6.47,0,0,0,.18,1.6,2.92,2.92,0,0,0,.53,1.12,1.25,1.25,0,0,0,.86.46,1,1,0,0,0,.85-.35,2.37,2.37,0,0,0,.54-1.05,6.16,6.16,0,0,0,.18-1.57,6.08,6.08,0,0,0-.18-1.56A2.7,2.7,0,0,0,172.29,520.66Z" transform="translate(-76.55 -430.87)"/><path class="cls-11" d="M175.39,527.15l-.11-.81,2.52-2.68a3.51,3.51,0,0,0,.5-.71,7.07,7.07,0,0,0,.34-.75l.11-.3a1.33,1.33,0,0,0-.33-1,1.35,1.35,0,0,0-1-.37,2.11,2.11,0,0,0-1.63.52c-.12-.3-.17-.45-.29-.75a2.7,2.7,0,0,1,2-.54,2.33,2.33,0,0,1,1.58.61,1.79,1.79,0,0,1,.6,1.46l-.06.18-.17.44c-.09.22-.18.43-.27.62s-.22.41-.36.64a3.24,3.24,0,0,1-.44.58l-2.07,2.11,3.39.15-.05.75Z" transform="translate(-76.55 -430.87)"/><path class="cls-11" d="M182.15,520.11l.77,0c0,2.92,0,4.38,0,7.31l-.86,0V521a4.68,4.68,0,0,1-1.21.52v-.82l.32-.13.36-.14.3-.14A3,3,0,0,0,182.15,520.11Z" transform="translate(-76.55 -430.87)"/><path class="cls-11" d="M187.41,525.09v-.72h2.44v.72Z" transform="translate(-76.55 -430.87)"/><path class="cls-11" d="M194.09,527.5l-.12-.8,2.53-2.84a3.79,3.79,0,0,0,.49-.74,7.5,7.5,0,0,0,.35-.77l.11-.32a1.22,1.22,0,0,0-.34-.93,1.29,1.29,0,0,0-1-.31,2.21,2.21,0,0,0-1.63.63l-.28-.73a2.85,2.85,0,0,1,2-.67,2.24,2.24,0,0,1,1.59.5,1.73,1.73,0,0,1,.59,1.43.78.78,0,0,1-.06.19c0,.07-.08.22-.17.45a6,6,0,0,1-.27.63,5,5,0,0,1-.36.67,3.33,3.33,0,0,1-.44.6c-.82.91-1.24,1.35-2.06,2.25,1.35,0,2,0,3.39-.08l-.06.76C196.65,527.46,195.8,527.48,194.09,527.5Z" transform="translate(-76.55 -430.87)"/><path class="cls-11" d="M203.54,527.05a2.21,2.21,0,0,1-1.13.34,2.18,2.18,0,0,1-1.14-.24,2,2,0,0,1-.79-.78,4.38,4.38,0,0,1-.44-1.17,7.65,7.65,0,0,1-.14-1.5,7.15,7.15,0,0,1,.1-1.26,4.75,4.75,0,0,1,.29-1.05,2.71,2.71,0,0,1,.5-.81,2.06,2.06,0,0,1,.7-.54,2.3,2.3,0,0,1,.92-.21,2.19,2.19,0,0,1,1.1.22,2,2,0,0,1,.78.74,3.86,3.86,0,0,1,.46,1.17,7.22,7.22,0,0,1,.15,1.53,7.83,7.83,0,0,1-.14,1.51,4.33,4.33,0,0,1-.44,1.21A2.11,2.11,0,0,1,203.54,527.05Zm-.28-6.12a1.05,1.05,0,0,0-.85-.36,1.16,1.16,0,0,0-.86.43,2.6,2.6,0,0,0-.53,1.08,6.89,6.89,0,0,0,0,3.13,2.44,2.44,0,0,0,.53,1.07,1,1,0,0,0,.86.36,1.16,1.16,0,0,0,.85-.43,2.74,2.74,0,0,0,.54-1.11,6.46,6.46,0,0,0,.17-1.59,5.9,5.9,0,0,0-.17-1.54A2.33,2.33,0,0,0,203.26,520.93Z" transform="translate(-76.55 -430.87)"/><path class="cls-11" d="M206.36,527.08l-.11-.79,2.52-3a3.57,3.57,0,0,0,.49-.76,5.38,5.38,0,0,0,.35-.79l.11-.31a1.09,1.09,0,0,0-1.29-1.19,2.28,2.28,0,0,0-1.63.7l-.29-.72a2.93,2.93,0,0,1,2-.75,2.16,2.16,0,0,1,1.58.43,1.64,1.64,0,0,1,.59,1.41.74.74,0,0,1-.06.18c0,.08-.08.23-.17.46a5.51,5.51,0,0,1-.27.65,7.44,7.44,0,0,1-.35.68,3.69,3.69,0,0,1-.45.62c-.82.94-1.23,1.41-2.06,2.34l3.39-.22-.06.75C208.92,526.93,208.07,527,206.36,527.08Z" transform="translate(-76.55 -430.87)"/><path class="cls-11" d="M212.19,526.7l-.11-.79,2.52-3a4.11,4.11,0,0,0,.49-.77,8.12,8.12,0,0,0,.34-.79l.11-.32a1.16,1.16,0,0,0-.33-.91,1.23,1.23,0,0,0-1-.26,2.38,2.38,0,0,0-1.63.74l-.28-.72a3,3,0,0,1,2-.79,2.11,2.11,0,0,1,1.58.41,1.58,1.58,0,0,1,.59,1.39.74.74,0,0,1-.06.18c0,.08-.08.24-.16.47s-.18.44-.27.65-.22.44-.36.69a4.29,4.29,0,0,1-.44.63l-2.06,2.37c1.35-.1,2-.16,3.38-.28l-.06.75C214.75,526.5,213.89,526.57,212.19,526.7Z" transform="translate(-76.55 -430.87)"/><path class="cls-12" d="M160,627.26l-.84-.12v-7.22l.84.12Z" transform="translate(-76.55 -430.87)"/><path class="cls-12" d="M162,626.33a5.79,5.79,0,0,0,2.41.84c1,.12,1.58-.31,1.58-1.27a1.24,1.24,0,0,0-.25-.79,2,2,0,0,0-.92-.55l-1.43-.53c-1.09-.41-1.64-1.06-1.64-2a1.52,1.52,0,0,1,.71-1.44,3.08,3.08,0,0,1,2-.27,5.18,5.18,0,0,1,1.22.28,3.59,3.59,0,0,1,1,.48l-.24.66a4.46,4.46,0,0,0-.87-.41,4.7,4.7,0,0,0-1.09-.27c-1.17-.13-1.76.2-1.76,1a1,1,0,0,0,.27.7,2.07,2.07,0,0,0,.81.48l1.37.49a3,3,0,0,1,1.33.82,2,2,0,0,1,.45,1.35,1.81,1.81,0,0,1-.67,1.59,2.53,2.53,0,0,1-1.84.36,6.11,6.11,0,0,1-1.54-.36,4.8,4.8,0,0,1-1.07-.55Z" transform="translate(-76.55 -430.87)"/><path class="cls-12" d="M174.38,625.11a3.29,3.29,0,0,1-1,2.62,3.69,3.69,0,0,1-2.8.7c-.86-.07-1.28-.11-2.14-.2V621l2,.19a6,6,0,0,1,1.62.34,3.88,3.88,0,0,1,1.23.74,3.15,3.15,0,0,1,.81,1.19A4.62,4.62,0,0,1,174.38,625.11Zm-.91,0a3,3,0,0,0-.78-2.26,3.65,3.65,0,0,0-2.27-.88l-1.14-.1v5.75l1.28.11a2.81,2.81,0,0,0,2.17-.54A2.67,2.67,0,0,0,173.47,625.07Z" transform="translate(-76.55 -430.87)"/><path class="cls-12" d="M177,628.9l-.85,0v-7.22l.85,0Z" transform="translate(-76.55 -430.87)"/><path class="cls-12" d="M185.23,622.62a2.51,2.51,0,0,0-1.41.36,2.33,2.33,0,0,0-.87,1,3.67,3.67,0,0,0-.29,1.53,4.46,4.46,0,0,0,.15,1.19,3.13,3.13,0,0,0,.47,1,2.12,2.12,0,0,0,.82.65,2.78,2.78,0,0,0,1.15.25,3.86,3.86,0,0,0,1.73-.4l.15.72a4.24,4.24,0,0,1-3.44.11,2.87,2.87,0,0,1-1.07-.8A3.48,3.48,0,0,1,182,627a5.3,5.3,0,0,1-.22-1.54A4.38,4.38,0,0,1,182,624a3.37,3.37,0,0,1,.68-1.15,2.87,2.87,0,0,1,1.09-.73,4.17,4.17,0,0,1,3.52.34l-.34.68A3.39,3.39,0,0,0,185.23,622.62Z" transform="translate(-76.55 -430.87)"/><path class="cls-12" d="M195.31,625.62a4.83,4.83,0,0,1-.23,1.51,3.5,3.5,0,0,1-.65,1.19,3.06,3.06,0,0,1-1.08.78,3.85,3.85,0,0,1-1.47.28,3.48,3.48,0,0,1-1.87-.46,2.9,2.9,0,0,1-1.17-1.3,4.6,4.6,0,0,1-.39-2,3.94,3.94,0,0,1,.9-2.73,3.28,3.28,0,0,1,2.54-1,3.18,3.18,0,0,1,2.51,1A3.86,3.86,0,0,1,195.31,625.62Zm-6,0a3.38,3.38,0,0,0,.64,2.19,2.62,2.62,0,0,0,3.78,0,3.44,3.44,0,0,0,.63-2.19,3.38,3.38,0,0,0-.64-2.21,2.26,2.26,0,0,0-1.87-.76,2.32,2.32,0,0,0-1.89.79A3.33,3.33,0,0,0,189.35,625.67Z" transform="translate(-76.55 -430.87)"/><path class="cls-12" d="M203,625.31a3.69,3.69,0,0,1-1,2.74,4.06,4.06,0,0,1-2.8,1.05l-2.15.08V622l2-.07a5.9,5.9,0,0,1,1.62.14,3.27,3.27,0,0,1,1.23.59,2.53,2.53,0,0,1,.81,1.08A4.17,4.17,0,0,1,203,625.31Zm-.91.07a2.66,2.66,0,0,0-.78-2.16,3.23,3.23,0,0,0-2.28-.59l-1.13,0v5.74l1.27,0a3.1,3.1,0,0,0,2.18-.82A2.94,2.94,0,0,0,202.13,625.38Z" transform="translate(-76.55 -430.87)"/><path class="cls-12" d="M204.82,628.82V621.6c1.65-.11,2.48-.17,4.14-.31l0,.75c-1.3.11-1.95.16-3.26.25v2.36c1.24-.08,1.86-.13,3.1-.23v.74l-3.1.23V628c1.35-.09,2-.14,3.37-.25l0,.75C207.32,628.65,206.49,628.71,204.82,628.82Z" transform="translate(-76.55 -430.87)"/><path class="cls-12" d="M216.13,627.81l-1,.11-1-2.16c-.27-.58-.44-.93-.51-1l-.85.11-1.29.08v3.38l-.86.08v-7.31l2.3-.21.71-.06c.21,0,.41,0,.61,0a2,2,0,0,1,.53.09,1.57,1.57,0,0,1,.42.18,1.18,1.18,0,0,1,.32.31,1.47,1.47,0,0,1,.18.46,2.27,2.27,0,0,1,.07.61,2.13,2.13,0,0,1-.36,1.22,2.06,2.06,0,0,1-1,.79.93.93,0,0,0,.09.17c.07.1.15.23.24.38s.15.28.2.38C215.43,626.36,215.66,626.84,216.13,627.81Zm-4.62-6.07v2.44l.83-.07,1-.08a2.17,2.17,0,0,0,1.29-.45,1.32,1.32,0,0,0,.37-1,1,1,0,0,0-.35-.84,1.81,1.81,0,0,0-1.18-.17Z" transform="translate(-76.55 -430.87)"/><path class="cls-12" d="M217.55,626.45a5,5,0,0,0,2.41.26,1.57,1.57,0,0,0,1.58-1.66,1,1,0,0,0-.25-.73,1.52,1.52,0,0,0-.91-.33l-1.43-.18c-1.1-.13-1.64-.66-1.64-1.55a2,2,0,0,1,.7-1.62,3.77,3.77,0,0,1,2-.75,5.58,5.58,0,0,1,1.22,0,3.05,3.05,0,0,1,1,.25l-.25.72a3.53,3.53,0,0,0-.86-.2,4.42,4.42,0,0,0-1.09,0c-1.17.16-1.76.64-1.76,1.45a.78.78,0,0,0,.27.64,1.6,1.6,0,0,0,.81.28l1.37.15a2.34,2.34,0,0,1,1.33.49,1.58,1.58,0,0,1,.45,1.25,2.32,2.32,0,0,1-.68,1.75,3,3,0,0,1-1.83.81,5.72,5.72,0,0,1-1.54,0,3.4,3.4,0,0,1-1.06-.29Z" transform="translate(-76.55 -430.87)"/><path class="cls-11" d="M159,626.12l-.84-.11v-7.23l.84.12Z" transform="translate(-76.55 -430.87)"/><path class="cls-11" d="M161,625.2a5.72,5.72,0,0,0,2.41.85c1,.13,1.58-.29,1.58-1.26a1.24,1.24,0,0,0-.25-.79,2.06,2.06,0,0,0-.91-.56l-1.43-.53c-1.1-.41-1.64-1.07-1.64-2a1.54,1.54,0,0,1,.7-1.44,3.15,3.15,0,0,1,2-.26,5.27,5.27,0,0,1,1.23.29,3.83,3.83,0,0,1,.95.48l-.24.67a3.93,3.93,0,0,0-.87-.42,4.24,4.24,0,0,0-1.09-.27c-1.17-.14-1.76.19-1.76,1a1,1,0,0,0,.27.7,2.07,2.07,0,0,0,.81.48l1.37.5a3.09,3.09,0,0,1,1.33.82,2,2,0,0,1,.45,1.36,1.84,1.84,0,0,1-.67,1.59,2.53,2.53,0,0,1-1.84.34,6.22,6.22,0,0,1-1.54-.36,4.48,4.48,0,0,1-1.06-.56Z" transform="translate(-76.55 -430.87)"/><path class="cls-11" d="M173.38,624a3.23,3.23,0,0,1-1,2.61,3.61,3.61,0,0,1-2.79.69l-2.14-.2v-7.22l2,.19a6,6,0,0,1,1.62.35,3.73,3.73,0,0,1,1.23.75,3.07,3.07,0,0,1,.81,1.19A4.62,4.62,0,0,1,173.38,624Zm-.91,0a3,3,0,0,0-.78-2.26,3.66,3.66,0,0,0-2.27-.89l-1.14-.1v5.74l1.28.12a2.77,2.77,0,0,0,2.17-.53A2.66,2.66,0,0,0,172.47,624Z" transform="translate(-76.55 -430.87)"/><path class="cls-11" d="M176,627.84l-.85-.06v-7.22l.85.06Z" transform="translate(-76.55 -430.87)"/><path class="cls-11" d="M184.23,621.6a2.49,2.49,0,0,0-1.41.35,2.36,2.36,0,0,0-.88,1,3.83,3.83,0,0,0-.28,1.53,4.33,4.33,0,0,0,.15,1.18,3,3,0,0,0,.47,1,2.12,2.12,0,0,0,.82.65,2.74,2.74,0,0,0,1.15.26,3.89,3.89,0,0,0,1.73-.4l.14.72a3.54,3.54,0,0,1-2,.42,3.77,3.77,0,0,1-1.46-.32,2.91,2.91,0,0,1-1.08-.8A3.68,3.68,0,0,1,181,626a5,5,0,0,1-.22-1.53A4.44,4.44,0,0,1,181,623a3.37,3.37,0,0,1,.68-1.15,2.89,2.89,0,0,1,1.09-.72,3.62,3.62,0,0,1,1.46-.23,3.84,3.84,0,0,1,2.06.58l-.34.68A3.39,3.39,0,0,0,184.23,621.6Z" transform="translate(-76.55 -430.87)"/><path class="cls-11" d="M194.31,624.64a4.83,4.83,0,0,1-.23,1.51,3.32,3.32,0,0,1-.66,1.18,2.79,2.79,0,0,1-1.08.78,3.76,3.76,0,0,1-1.46.28,3.62,3.62,0,0,1-1.88-.47,3,3,0,0,1-1.17-1.31,4.6,4.6,0,0,1-.39-2,3.9,3.9,0,0,1,.91-2.72,3.7,3.7,0,0,1,5.05,0A3.9,3.9,0,0,1,194.31,624.64Zm-6,0a3.38,3.38,0,0,0,.65,2.19,2.24,2.24,0,0,0,1.89.8,2.28,2.28,0,0,0,1.89-.8,3.49,3.49,0,0,0,.63-2.2,3.35,3.35,0,0,0-.64-2.2,2.27,2.27,0,0,0-1.87-.78,2.35,2.35,0,0,0-1.89.79A3.3,3.3,0,0,0,188.34,624.66Z" transform="translate(-76.55 -430.87)"/><path class="cls-11" d="M202,624.36a3.65,3.65,0,0,1-1,2.74,4,4,0,0,1-2.79,1l-2.15.07V621l2-.06a5.14,5.14,0,0,1,1.62.15,3.17,3.17,0,0,1,1.24.59,2.59,2.59,0,0,1,.81,1.09A4.28,4.28,0,0,1,202,624.36Zm-.91.07a2.69,2.69,0,0,0-.78-2.17,3.34,3.34,0,0,0-2.28-.6l-1.14,0v5.75l1.28,0a3.16,3.16,0,0,0,2.18-.81A3,3,0,0,0,201.13,624.43Z" transform="translate(-76.55 -430.87)"/><path class="cls-11" d="M203.82,627.88v-7.22c1.65-.1,2.48-.16,4.14-.29l0,.75c-1.3.1-1.95.15-3.26.23v2.37l3.1-.22v.74l-3.1.21v2.63c1.35-.09,2-.13,3.37-.24l0,.75C206.32,627.72,205.49,627.78,203.82,627.88Z" transform="translate(-76.55 -430.87)"/><path class="cls-11" d="M215.13,626.92l-1,.11c-.4-.87-.6-1.3-1-2.17-.27-.58-.45-.93-.52-1-.24,0-.52.07-.85.1l-1.29.08v3.38l-.86.08v-7.31l2.31-.21.7-.05h.62a3.28,3.28,0,0,1,.52.09,2,2,0,0,1,.42.19,1.05,1.05,0,0,1,.32.31,1.77,1.77,0,0,1,.19.46,2.8,2.8,0,0,1,.06.61,2.21,2.21,0,0,1-.35,1.22,2.14,2.14,0,0,1-1,.79,1.43,1.43,0,0,0,.1.16l.23.39c.09.15.16.28.21.38Zm-4.62-6.09v2.44l.83-.06,1-.08a2.18,2.18,0,0,0,1.29-.44,1.33,1.33,0,0,0,.37-1,1,1,0,0,0-.35-.85,1.81,1.81,0,0,0-1.18-.17Z" transform="translate(-76.55 -430.87)"/><path class="cls-11" d="M216.55,625.57a5,5,0,0,0,2.41.26,1.54,1.54,0,0,0,1.58-1.65,1,1,0,0,0-.25-.72,1.52,1.52,0,0,0-.91-.34l-1.43-.18c-1.09-.14-1.64-.67-1.64-1.57a2,2,0,0,1,.7-1.61,3.84,3.84,0,0,1,2-.74,5,5,0,0,1,1.22,0,2.74,2.74,0,0,1,.95.25c-.1.29-.15.43-.24.72a3.69,3.69,0,0,0-.87-.21,4.87,4.87,0,0,0-1.08,0q-1.77.22-1.77,1.44a.78.78,0,0,0,.27.64,1.68,1.68,0,0,0,.82.28l1.36.16a2.29,2.29,0,0,1,1.33.5,1.58,1.58,0,0,1,.45,1.25,2.31,2.31,0,0,1-.67,1.75,3.16,3.16,0,0,1-1.83.8,6.12,6.12,0,0,1-1.54,0,3.45,3.45,0,0,1-1.07-.3Z" transform="translate(-76.55 -430.87)"/></svg>