<svg id="Capa_1" data-name="Capa 1" xmlns="http://www.w3.org/2000/svg" viewBox="0 0 122.62 161.44"><defs><style>.cls-1{fill:#de5446;}.cls-2{fill:#ce4545;}.cls-3{fill:#c0423c;}.cls-4{fill:#1d1d1b;}.cls-5{fill:#fff;}.cls-6{fill:#d8d8d8;}.cls-7{fill:#634e42;}.cls-8{fill:#4c4d50;}.cls-9{fill:#eeeff0;}</style></defs><circle class="cls-1" cx="61.31" cy="95.21" r="61.31"/><path class="cls-2" d="M65.22,334.88a32.33,32.33,0,0,0,.84,6.5,26.84,26.84,0,0,0,2.11,6.08,15.08,15.08,0,0,0,8.69,8c3.76,1.29,8,1.07,12,.16a58.47,58.47,0,0,0,12-4.26c7.63-3.57,15.91-9.47,26.19-9.65a29.68,29.68,0,0,1,7.42.84c2.35.54,4.43,1.25,6.39,1.78a26.61,26.61,0,0,0,6,.91,45.23,45.23,0,0,0,6.57-.34l.3.75a22.53,22.53,0,0,1-6.25,3.37,22.3,22.3,0,0,1-3.6.9,25.85,25.85,0,0,1-3.72.26c-2.46,0-4.74-.28-6.8-.4-1-.07-2-.08-3-.08s-1.94.06-2.9.18a67.89,67.89,0,0,0-11.86,2.45c-2,.61-4.06,1.29-6.06,2.11l-1.5.61-1.59.67q-1.59.67-3.21,1.29a60.08,60.08,0,0,1-13.51,3.61,33.8,33.8,0,0,1-7.19.19A21.31,21.31,0,0,1,75.42,359a17.43,17.43,0,0,1-5.88-4.44,20.27,20.27,0,0,1-3.55-6.2,31,31,0,0,1-1.57-13.56Z" transform="translate(-42.98 -286.56)"/><path class="cls-2" d="M49.59,355a70.52,70.52,0,0,0,9.5,12.16,35.66,35.66,0,0,0,5.53,4.41A56,56,0,0,0,70.76,375,23.88,23.88,0,0,0,78,377.21a21.58,21.58,0,0,0,7.75-.54A30,30,0,0,0,93,373.75c1.16-.63,2.29-1.32,3.39-2,.54-.35,1.13-.69,1.74-1l1.8-1a67,67,0,0,1,15.7-6.13,45.35,45.35,0,0,1,8.61-1.38,40.92,40.92,0,0,1,4.43,0,43.49,43.49,0,0,1,4.41.53,50.84,50.84,0,0,1,8.28,2.3c2.61.92,5,1.94,7.38,2.69a28.39,28.39,0,0,0,7.24,1.46,36.37,36.37,0,0,0,7.83-.53l.31.74a23.19,23.19,0,0,1-7.72,3.6,25.64,25.64,0,0,1-8.81.58c-2.91-.3-5.65-.88-8.22-1.4a73,73,0,0,0-7.47-1.19,58.17,58.17,0,0,0-14.64.5,71.53,71.53,0,0,0-7.46,1.61c-2.48.7-5,1.44-7.5,2.2-1.28.39-2.48.77-3.86,1.15s-2.71.7-4.08,1c-2.73.59-5.43,1.17-8.15,1.68s-5.43,1-8.25,1.32a34.86,34.86,0,0,1-8.75.25,20,20,0,0,1-8.54-3.07,25.67,25.67,0,0,1-6.55-6.21,28,28,0,0,1-4-7.76,23.38,23.38,0,0,1-1.31-8.46Z" transform="translate(-42.98 -286.56)"/><path class="cls-2" d="M50.56,373.76a129,129,0,0,0,9.28,12.83,51.16,51.16,0,0,0,5.2,5.3,49.65,49.65,0,0,0,5.74,4.18,27,27,0,0,0,6.53,3.06,18.76,18.76,0,0,0,7.56.73,23.48,23.48,0,0,0,7.51-2.19,33.05,33.05,0,0,0,6.68-4.24,45.34,45.34,0,0,1,7.23-4.7,28.34,28.34,0,0,1,8.58-2.73,29.48,29.48,0,0,1,9.28,0,34.1,34.1,0,0,1,8.6,2.67c5.27,2.44,9.57,5.5,14,7.45a26,26,0,0,0,7,2,31.29,31.29,0,0,0,7.82-.17l.31.74a19.88,19.88,0,0,1-7.9,3.55,22.38,22.38,0,0,1-9,0,44,44,0,0,1-8.3-2.6c-2.59-1-5-2.15-7.33-3.09-4.64-1.95-9-3.33-13.68-3.12a37.24,37.24,0,0,0-7.15,1.13,50.09,50.09,0,0,0-7.36,2.4,98.3,98.3,0,0,1-15.8,5.54,40.17,40.17,0,0,1-8.6,1.23,22.51,22.51,0,0,1-8.95-1.58,22.83,22.83,0,0,1-7.56-5,33,33,0,0,1-5.43-6.95,37,37,0,0,1-3.5-7.83A30.37,30.37,0,0,1,49.79,374Z" transform="translate(-42.98 -286.56)"/><path class="cls-2" d="M47.22,393.33c2.6,4.68,5.06,9.22,7.76,13.48a66.32,66.32,0,0,0,8.9,11.56,42.69,42.69,0,0,0,5.2,4.68,19.57,19.57,0,0,0,6.34,3.22,17.45,17.45,0,0,0,7.38.38A24.12,24.12,0,0,0,90,424.21a33,33,0,0,0,3.27-2c.52-.36,1-.76,1.54-1.14l1.59-1.25a43.08,43.08,0,0,1,6.87-4.64,37.09,37.09,0,0,1,8.06-3.09,27.19,27.19,0,0,1,9-.8,35.57,35.57,0,0,1,8.33,1.92c2.5.82,4.74,1.65,7,2.17a30.86,30.86,0,0,0,7.09.85c2.48,0,5.07-.22,7.78-.48l.3.74a26,26,0,0,1-7.26,4.09,23.87,23.87,0,0,1-8.6,1.53,40.16,40.16,0,0,1-8.4-1c-2.59-.51-4.87-1-7.08-1.26a29.17,29.17,0,0,0-6.67,0,38.21,38.21,0,0,0-7,1.6c-1.19.32-2.37.75-3.59,1.1s-2.43.8-3.63,1.27c-.62.23-1.21.45-1.83.71l-1.89.81q-1.89.78-3.81,1.47a44.34,44.34,0,0,1-16.16,3,29,29,0,0,1-4.31-.46,25.44,25.44,0,0,1-4.23-1.21,23.88,23.88,0,0,1-7.45-4.63,33.07,33.07,0,0,1-5.43-6.61,43,43,0,0,1-3.8-7.42,46.93,46.93,0,0,1-2.38-7.85,36.2,36.2,0,0,1-.88-8.12Z" transform="translate(-42.98 -286.56)"/><path class="cls-2" d="M82.83,324.1c2.32,4.48,6,8.43,10.28,9.79a12.44,12.44,0,0,0,6.49.27,20.43,20.43,0,0,0,6.3-2.48,63.91,63.91,0,0,1,7.44-3.77,19.21,19.21,0,0,1,8.85-1.4,21.16,21.16,0,0,1,4.4.89c1.34.41,2.48.89,3.54,1.26a17.94,17.94,0,0,0,3.3.87,37.34,37.34,0,0,0,3.89.3l.29.74a12.47,12.47,0,0,1-3.56,2.5,13.78,13.78,0,0,1-4.44,1.14c-1.53.13-2.93.08-4.15.07a31.36,31.36,0,0,0-3.33.15c-2.06.24-4.14.67-6.43,1.13a43.28,43.28,0,0,0-7,2,27.17,27.17,0,0,1-8.52,2,16.89,16.89,0,0,1-8.72-1.93,17.84,17.84,0,0,1-6.2-5.83,22.7,22.7,0,0,1-3.19-7.43Z" transform="translate(-42.98 -286.56)"/><path class="cls-3" d="M156.78,413.46A61.32,61.32,0,0,1,48.84,355.58S72,366,83,407C93.05,444.41,156.78,413.46,156.78,413.46Z" transform="translate(-42.98 -286.56)"/><path class="cls-4" d="M55.06,395.89c-.33-1.74-.49-2.61-.82-4.34a5.27,5.27,0,0,1-.12-1.09l-.18,0a4.94,4.94,0,0,1-.12,1.07L53,395.73l-4.93-.43c-1.13-5.1-1.7-7.65-2.83-12.76l5.11.46.5,4.56a8.43,8.43,0,0,1,.06,1h.18a5.46,5.46,0,0,1,.1-1.07c.31-1.75.47-2.62.79-4.37l4.12.33.8,4.5a5.71,5.71,0,0,1,.1,1.09h.18a7.86,7.86,0,0,1,.06-1l.5-4.49c2,.16,3.07.23,5.12.36-1.14,4.93-1.71,7.39-2.84,12.31C58,396.12,57,396.05,55.06,395.89Z" transform="translate(-42.98 -286.56)"/><path class="cls-4" d="M64.79,396.58v-12.5c3.44.22,5.16.31,8.6.48v3.64l-4-.2v1l3.18.16v3.2l-3.18-.16v1l4,.2v3.64C70,396.9,68.23,396.8,64.79,396.58Z" transform="translate(-42.98 -286.56)"/><path class="cls-4" d="M75.55,397.17v-12.5l5.87.24c4,.14,5,1.6,5,3.58A2.6,2.6,0,0,1,84.76,391a3,3,0,0,1,1.76,2.75c0,2.12-.9,3.85-5.19,3.7Zm5.34-7.42a.62.62,0,0,0,.66-.66.69.69,0,0,0-.66-.72l-.7,0v1.38Zm.28,4.17a.65.65,0,0,0,.67-.68.68.68,0,0,0-.67-.7l-1,0v1.38Z" transform="translate(-42.98 -286.56)"/><path class="cls-4" d="M93.24,397.73v-12.5c3.45.06,5.17.08,8.61.09V389l-4,0v1l3.18,0v3.2l-3.18,0v1l4,0v3.64C98.41,397.81,96.69,397.79,93.24,397.73Z" transform="translate(-42.98 -286.56)"/><path class="cls-4" d="M104,397.83V385.32c2.09,0,3.13,0,5.21,0,4.35,0,6,2.37,6,6.09s-1.76,6.38-6.27,6.42Zm5.07-4.32c.94,0,1.26-.67,1.26-1.95s-.24-2-1.36-2h-.28v3.92Z" transform="translate(-42.98 -286.56)"/><path class="cls-4" d="M117.35,397.69v-12.5c1.87,0,2.81-.06,4.68-.12v12.5C120.16,397.63,119.22,397.65,117.35,397.69Z" transform="translate(-42.98 -286.56)"/><path class="cls-4" d="M126.88,397.42V389.2l-2.89.09V385c4.18-.13,6.27-.21,10.45-.41v4.28l-2.88.13v8.22Z" transform="translate(-42.98 -286.56)"/><path class="cls-4" d="M135.86,390.81c0-4,2-6.73,6-7s5.94,1.91,5.94,6.2c0,4-2,6.78-6,7S135.86,395.09,135.86,390.81Zm7-.41c0-1.35-.26-2.37-1.1-2.32s-1.06,1.08-1.06,2.38.26,2.41,1.1,2.36S142.9,391.7,142.9,390.4Z" transform="translate(-42.98 -286.56)"/><path class="cls-4" d="M156.23,395.67,155,392.44l-.38.05v3.32l-4.67.36V383.66c2.54-.18,3.81-.28,6.35-.49,3.16-.26,4.81,1.26,4.81,4a4.56,4.56,0,0,1-1.84,3.67l2.12,4.41Zm-1-6.62c.64-.11.94-.54.94-1.28s-.4-1-1.16-1l-.54,0v2.28Z" transform="translate(-42.98 -286.56)"/><path class="cls-4" d="M65.88,420.65v-8.22L63,412.24V408c4.18.28,6.26.4,10.44.6v4.29l-2.88-.15v8.22Z" transform="translate(-42.98 -286.56)"/><path class="cls-4" d="M81.74,421.42c-.51-1.35-.76-2-1.28-3.39h-.38v3.32c-1.87-.07-2.81-.11-4.68-.2v-12.5c2.55.12,3.82.17,6.36.26,3.17.11,4.83,1.83,4.83,4.55a4,4,0,0,1-1.84,3.45l2.12,4.66C84.82,421.53,83.79,421.49,81.74,421.42Zm-1-6.74c.64,0,.94-.42.94-1.16s-.4-1.08-1.16-1.11l-.54,0v2.28Z" transform="translate(-42.98 -286.56)"/><path class="cls-4" d="M96,421.77l-.16-1.08-2.37,0-.16,1.08-5.16-.11,3-12.43c2.8.05,4.19.08,7,.1,1.21,5,1.81,7.52,3,12.53C99.12,421.81,98.08,421.8,96,421.77Zm-1.12-7.84a5.57,5.57,0,0,1-.12-1.16h-.2a5,5,0,0,1-.13,1.16c-.23,1.23-.34,1.84-.58,3.07l1.61,0C95.24,415.79,95.13,415.17,94.9,413.93Z" transform="translate(-42.98 -286.56)"/><path class="cls-4" d="M102.94,421.82v-12.5c1.88,0,2.81,0,4.69,0v12.51Z" transform="translate(-42.98 -286.56)"/><path class="cls-4" d="M116.4,421.83l-1.5-3.25a2.16,2.16,0,0,1-.22-1h-.2v4.12l-4.49.06V409.3l5.21-.07,1.5,3.25a2.16,2.16,0,0,1,.22,1h.2v-4.24c1.79,0,2.69-.06,4.48-.11v12.63Z" transform="translate(-42.98 -286.56)"/><path class="cls-4" d="M124,421.52V409c3.45-.1,5.17-.17,8.61-.32v3.64l-4,.16v1l3.18-.13v3.2l-3.18.13v1l4-.16v3.64C129.13,421.34,127.41,421.41,124,421.52Z" transform="translate(-42.98 -286.56)"/><path class="cls-4" d="M134.73,421.09V408.58c3.44-.16,5.16-.26,8.6-.47v3.64l-4,.23v1l3.18-.18V416l-3.18.18v1l4-.23v3.64C139.89,420.82,138.17,420.92,134.73,421.09Z" transform="translate(-42.98 -286.56)"/><path class="cls-5" d="M57.06,397.05c-.33-1.74-.49-2.61-.82-4.35a5.2,5.2,0,0,1-.12-1.09h-.18a4.94,4.94,0,0,1-.12,1.07L55,396.89l-4.93-.41c-1.14-5.1-1.71-7.65-2.84-12.76l5.11.45.5,4.56a8.43,8.43,0,0,1,.06,1h.18a5.39,5.39,0,0,1,.1-1.07l.8-4.38c1.65.14,2.47.2,4.12.32l.8,4.5a5.71,5.71,0,0,1,.1,1.09h.18a8.14,8.14,0,0,1,.06-1l.5-4.48c2,.15,3.07.21,5.11.34-1.13,4.93-1.7,7.4-2.83,12.32C60,397.27,59,397.2,57.06,397.05Z" transform="translate(-42.98 -286.56)"/><path class="cls-5" d="M66.79,397.7V385.2c3.44.21,5.16.3,8.6.46v3.64l-4-.2v1l3.18.16v3.2l-3.18-.16v1l4,.2v3.64C72,398,70.23,397.91,66.79,397.7Z" transform="translate(-42.98 -286.56)"/><path class="cls-5" d="M77.55,398.26V385.75c2.35.1,3.52.15,5.87.23,4,.13,5,1.58,5,3.56A2.62,2.62,0,0,1,86.76,392a3,3,0,0,1,1.76,2.75c0,2.12-.9,3.85-5.18,3.71Zm5.35-7.44a.62.62,0,0,0,.66-.66.69.69,0,0,0-.66-.72l-.71,0v1.39Zm.28,4.17a.64.64,0,0,0,.66-.68.67.67,0,0,0-.66-.7l-1,0V395Z" transform="translate(-42.98 -286.56)"/><path class="cls-5" d="M95.25,398.76v-12.5c3.44.05,5.16.06,8.61.06V390h-4v1h3.19v3.2H99.89v1l4,0v3.64C100.41,398.82,98.69,398.81,95.25,398.76Z" transform="translate(-42.98 -286.56)"/><path class="cls-5" d="M106,398.82v-12.5c2.08,0,3.12,0,5.2,0,4.35-.05,6,2.34,6,6.06s-1.76,6.39-6.27,6.44C109,398.81,108,398.82,106,398.82Zm5.06-4.33c.94,0,1.26-.68,1.26-2s-.24-2-1.36-2h-.28v3.92Z" transform="translate(-42.98 -286.56)"/><path class="cls-5" d="M119.35,398.64v-12.5c1.87,0,2.81-.07,4.69-.13v12.5C122.16,398.57,121.22,398.6,119.35,398.64Z" transform="translate(-42.98 -286.56)"/><path class="cls-5" d="M128.88,398.34v-8.22l-2.88.11V386c4.17-.15,6.26-.24,10.44-.45v4.28l-2.88.14v8.22C131.69,398.23,130.75,398.27,128.88,398.34Z" transform="translate(-42.98 -286.56)"/><path class="cls-5" d="M137.86,391.71c0-4,2-6.74,6-7s5.94,1.89,5.94,6.17c0,4-2,6.8-6,7.05S137.86,396,137.86,391.71Zm7-.44c0-1.34-.26-2.36-1.1-2.31s-1.06,1.08-1.06,2.39.26,2.4,1.1,2.35S144.9,392.57,144.9,391.27Z" transform="translate(-42.98 -286.56)"/><path class="cls-5" d="M158.23,396.5c-.52-1.29-.77-1.94-1.28-3.23l-.38.05v3.32l-4.68.38V384.51c2.55-.19,3.82-.29,6.36-.51,3.15-.27,4.81,1.25,4.81,4a4.56,4.56,0,0,1-1.84,3.67l2.12,4.4C161.29,396.23,160.27,396.33,158.23,396.5Zm-1-6.61c.64-.12.94-.55.94-1.29s-.4-1-1.16-1l-.54.05V390Z" transform="translate(-42.98 -286.56)"/><path class="cls-5" d="M67.88,421.77v-8.22L65,413.37v-4.28c4.18.26,6.26.38,10.44.57v4.28l-2.88-.14V422C70.69,421.93,69.75,421.88,67.88,421.77Z" transform="translate(-42.98 -286.56)"/><path class="cls-5" d="M83.75,422.49c-.52-1.35-.77-2-1.29-3.38h-.38v3.32c-1.87-.06-2.81-.1-4.68-.18v-12.5c2.55.11,3.82.15,6.37.24,3.16.1,4.82,1.82,4.82,4.54A4,4,0,0,1,86.75,418l2.12,4.66C86.82,422.59,85.8,422.56,83.75,422.49Zm-1-6.74c.65,0,.95-.42.95-1.16s-.4-1.08-1.17-1.1l-.54,0v2.28Z" transform="translate(-42.98 -286.56)"/><path class="cls-5" d="M98,422.79l-.16-1.08-2.36,0-.16,1.08-5.17-.09,3-12.45c2.8,0,4.2.07,7,.09,1.21,5,1.82,7.51,3,12.51C101.12,422.82,100.09,422.82,98,422.79ZM96.9,415a5.57,5.57,0,0,1-.12-1.16h-.2a5.57,5.57,0,0,1-.12,1.16c-.24,1.22-.35,1.84-.58,3.07l1.6,0C97.25,416.81,97.13,416.2,96.9,415Z" transform="translate(-42.98 -286.56)"/><path class="cls-5" d="M104.94,422.83V410.32c1.88,0,2.82,0,4.69,0v12.5Z" transform="translate(-42.98 -286.56)"/><path class="cls-5" d="M118.4,422.79l-1.5-3.25a2.16,2.16,0,0,1-.22-1h-.2v4.12l-4.49.07v-12.5l5.21-.09,1.5,3.25a2.09,2.09,0,0,1,.22.95h.2v-4.24l4.49-.12v12.62Z" transform="translate(-42.98 -286.56)"/><path class="cls-5" d="M126,422.45V410c3.45-.12,5.17-.19,8.61-.36v3.64c-1.58.08-2.38.12-4,.18v1l3.18-.14v3.2l-3.18.14v1c1.58-.06,2.38-.1,4-.18v3.64C131.13,422.26,129.41,422.33,126,422.45Z" transform="translate(-42.98 -286.56)"/><path class="cls-5" d="M136.73,422V409.48c3.44-.17,5.16-.27,8.6-.5v3.64l-4,.25v1l3.18-.2v3.2l-3.18.2v1c1.58-.1,2.38-.14,4-.25v3.64C141.89,421.71,140.17,421.81,136.73,422Z" transform="translate(-42.98 -286.56)"/><path class="cls-4" d="M79.49,375.29l-.11-.81,2.52-2.57a3.85,3.85,0,0,0,.49-.7,5.53,5.53,0,0,0,.34-.73l.11-.3a1.37,1.37,0,0,0-.33-1,1.43,1.43,0,0,0-1-.42,2,2,0,0,0-1.63.46l-.28-.76a2.54,2.54,0,0,1,2-.46,2.47,2.47,0,0,1,1.58.67,1.84,1.84,0,0,1,.59,1.49.74.74,0,0,1-.06.18c0,.07-.08.22-.16.43s-.18.42-.27.61-.22.4-.36.62a3,3,0,0,1-.44.56l-2.06,2c1.35.12,2,.18,3.38.28l-.06.75C82.05,375.53,81.19,375.45,79.49,375.29Z" transform="translate(-42.98 -286.56)"/><path class="cls-4" d="M88.93,375.84a2.2,2.2,0,0,1-1.14.22,2.32,2.32,0,0,1-1.13-.36,2.42,2.42,0,0,1-.79-.86,4.88,4.88,0,0,1-.44-1.22,7.83,7.83,0,0,1-.14-1.51,8.07,8.07,0,0,1,.09-1.25,4.71,4.71,0,0,1,.3-1,2.68,2.68,0,0,1,.49-.77,2,2,0,0,1,.71-.45,2.24,2.24,0,0,1,.91-.12,2.26,2.26,0,0,1,1.89,1.16,4.18,4.18,0,0,1,.45,1.22,7.25,7.25,0,0,1,.15,1.54,7.47,7.47,0,0,1-.14,1.49,3.85,3.85,0,0,1-.43,1.17A2,2,0,0,1,88.93,375.84Zm-.28-6.16a1.23,1.23,0,0,0-.86-.44,1,1,0,0,0-.85.34,2.29,2.29,0,0,0-.54,1,6.33,6.33,0,0,0-.17,1.53,7,7,0,0,0,.17,1.6,2.79,2.79,0,0,0,.54,1.12,1.18,1.18,0,0,0,.85.45,1.06,1.06,0,0,0,.86-.34,2.57,2.57,0,0,0,.53-1.06,6.89,6.89,0,0,0,0-3.13A2.9,2.9,0,0,0,88.65,369.68Z" transform="translate(-42.98 -286.56)"/><path class="cls-4" d="M92.67,368.9l.78,0v7.31l-.87,0v-6.4a4.76,4.76,0,0,1-1.2.49v-.81l.31-.12.36-.14.3-.14Z" transform="translate(-42.98 -286.56)"/><path class="cls-4" d="M97.06,376.47a3.76,3.76,0,0,1-1.17-.2,2.15,2.15,0,0,1-.74-.42l.27-.71a2.69,2.69,0,0,0,1.64.59,1.72,1.72,0,0,0,1.17-.34,1.21,1.21,0,0,0,.43-1,1.73,1.73,0,0,0-.11-.63,1.13,1.13,0,0,0-.29-.43,1.37,1.37,0,0,0-.47-.28,4,4,0,0,0-.59-.16l-.7-.07h-.29v-.73h.25a5.62,5.62,0,0,0,.6,0,3.18,3.18,0,0,0,.52-.1,1.15,1.15,0,0,0,.43-.21.92.92,0,0,0,.28-.36,1.27,1.27,0,0,0,.11-.54c0-.78-.45-1.18-1.34-1.2a2.68,2.68,0,0,0-.91.11,2.17,2.17,0,0,0-.73.36c-.11-.29-.16-.44-.27-.72a3.26,3.26,0,0,1,2.09-.49,2.46,2.46,0,0,1,1,.23,1.92,1.92,0,0,1,.78.63,1.66,1.66,0,0,1,.3,1,1.66,1.66,0,0,1-1.29,1.72,1.84,1.84,0,0,1,1.08.67,2,2,0,0,1,.38,1.25,1.87,1.87,0,0,1-.68,1.53A2.62,2.62,0,0,1,97.06,376.47Z" transform="translate(-42.98 -286.56)"/><path class="cls-4" d="M103.7,374v-.72h2.45V374Z" transform="translate(-42.98 -286.56)"/><path class="cls-4" d="M107.5,376.44l-.11-.8c1-1.13,1.51-1.7,2.52-2.85a3.39,3.39,0,0,0,.49-.74,5.28,5.28,0,0,0,.35-.77l.11-.31a1.22,1.22,0,0,0-.34-.93,1.24,1.24,0,0,0-1-.31,2.27,2.27,0,0,0-1.64.62l-.28-.72a2.86,2.86,0,0,1,2-.67,2.18,2.18,0,0,1,1.58.5,1.66,1.66,0,0,1,.59,1.43,1.32,1.32,0,0,1,0,.18l-.17.45c-.09.23-.18.44-.27.64s-.22.42-.36.66a3.57,3.57,0,0,1-.44.61l-2.07,2.24c1.36,0,2,0,3.39-.07l0,.75C110.07,376.4,109.21,376.42,107.5,376.44Z" transform="translate(-42.98 -286.56)"/><path class="cls-4" d="M117,376a2.28,2.28,0,0,1-1.14.34,2,2,0,0,1-1.92-1,3.76,3.76,0,0,1-.44-1.18,6.77,6.77,0,0,1-.15-1.49,8.15,8.15,0,0,1,.1-1.26,4.23,4.23,0,0,1,.3-1.06,3,3,0,0,1,.49-.81,2.07,2.07,0,0,1,.71-.53,2.41,2.41,0,0,1,2,0,2,2,0,0,1,.78.74,3.86,3.86,0,0,1,.45,1.17,7.08,7.08,0,0,1,.15,1.53,7.83,7.83,0,0,1-.14,1.51,4.44,4.44,0,0,1-.43,1.21A2.34,2.34,0,0,1,117,376Zm-.28-6.12a1.11,1.11,0,0,0-.86-.36,1.18,1.18,0,0,0-.85.43,2.59,2.59,0,0,0-.54,1.09,6.05,6.05,0,0,0-.18,1.55,6.24,6.24,0,0,0,.18,1.58,2.47,2.47,0,0,0,.54,1.06,1.05,1.05,0,0,0,.85.37,1.19,1.19,0,0,0,.86-.44,2.87,2.87,0,0,0,.53-1.11,6.44,6.44,0,0,0,.18-1.59,5.87,5.87,0,0,0-.18-1.54A2.42,2.42,0,0,0,116.68,369.86Z" transform="translate(-42.98 -286.56)"/><path class="cls-4" d="M120.7,368.64l.77-.05v7.31l-.86.05v-6.4a5.07,5.07,0,0,1-1.21.63v-.82l.32-.15.36-.18.3-.17A3,3,0,0,0,120.7,368.64Z" transform="translate(-42.98 -286.56)"/><path class="cls-4" d="M128.13,373.57l-.83.07v1.82l-.82.07v-1.82c-1.32.12-2,.17-3.29.26v-.75l3.2-5,.91-.08v4.79l.9-.08Zm-1.65-4.24c-1,1.55-1.46,2.33-2.44,3.87l2.44-.19Z" transform="translate(-42.98 -286.56)"/><path class="cls-5" d="M80.49,375.39l-.12-.82c1-1,1.52-1.54,2.52-2.58a3.22,3.22,0,0,0,.49-.69,5.15,5.15,0,0,0,.35-.74l.11-.3a1.33,1.33,0,0,0-.34-1,1.38,1.38,0,0,0-1-.42,2.06,2.06,0,0,0-1.63.47c-.11-.31-.17-.46-.28-.76a2.58,2.58,0,0,1,2-.47,2.47,2.47,0,0,1,1.58.67,1.82,1.82,0,0,1,.59,1.48.62.62,0,0,1-.06.18,4.69,4.69,0,0,1-.17.44,5.63,5.63,0,0,1-.27.61,5.86,5.86,0,0,1-.35.62,3.54,3.54,0,0,1-.45.57l-2,2,3.38.27-.06.75C83,375.61,82.19,375.54,80.49,375.39Z" transform="translate(-42.98 -286.56)"/><path class="cls-5" d="M89.93,375.89a2.11,2.11,0,0,1-1.14.23,2.4,2.4,0,0,1-1.14-.36,2.37,2.37,0,0,1-.78-.85,4.52,4.52,0,0,1-.44-1.22,7.83,7.83,0,0,1-.14-1.51,8.07,8.07,0,0,1,.09-1.25,5,5,0,0,1,.3-1,2.76,2.76,0,0,1,.49-.76,2,2,0,0,1,.71-.46,2.24,2.24,0,0,1,.91-.12,2.26,2.26,0,0,1,1.11.33,2.36,2.36,0,0,1,.78.82,4.29,4.29,0,0,1,.45,1.22,7.25,7.25,0,0,1,.15,1.54,6.8,6.8,0,0,1-.14,1.49,3.85,3.85,0,0,1-.43,1.17A2,2,0,0,1,89.93,375.89Zm-.28-6.15a1.23,1.23,0,0,0-.86-.44,1,1,0,0,0-.85.34,2.34,2.34,0,0,0-.54,1,6,6,0,0,0-.17,1.54,6.35,6.35,0,0,0,.17,1.59,2.73,2.73,0,0,0,.54,1.12,1.18,1.18,0,0,0,.85.45,1,1,0,0,0,.86-.35,2.47,2.47,0,0,0,.53-1,6.24,6.24,0,0,0,.18-1.58,6.05,6.05,0,0,0-.18-1.55A2.82,2.82,0,0,0,89.65,369.74Z" transform="translate(-42.98 -286.56)"/><path class="cls-5" d="M93.67,368.94l.78,0v7.31l-.87,0v-6.4a4.76,4.76,0,0,1-1.2.5v-.82l.31-.12.36-.14.3-.14Z" transform="translate(-42.98 -286.56)"/><path class="cls-5" d="M98.06,376.5a3.76,3.76,0,0,1-1.17-.2,2.15,2.15,0,0,1-.74-.42l.27-.71a2.62,2.62,0,0,0,1.64.58,1.72,1.72,0,0,0,1.17-.33,1.24,1.24,0,0,0,.43-1,1.73,1.73,0,0,0-.11-.63,1.13,1.13,0,0,0-.29-.43,1.28,1.28,0,0,0-.47-.28,3,3,0,0,0-.59-.15,6.16,6.16,0,0,0-.69-.07h-.3v-.73h.25l.6,0a3.21,3.21,0,0,0,.52-.11,1.29,1.29,0,0,0,.44-.21,1,1,0,0,0,.27-.36,1.13,1.13,0,0,0,.11-.54c0-.78-.45-1.18-1.34-1.2a2.67,2.67,0,0,0-.91.12,2.49,2.49,0,0,0-.73.36l-.27-.72a3.39,3.39,0,0,1,2.09-.5,2.63,2.63,0,0,1,1,.23,1.92,1.92,0,0,1,.78.63,1.65,1.65,0,0,1,.3,1,1.74,1.74,0,0,1-.34,1.12,1.72,1.72,0,0,1-1,.61,1.88,1.88,0,0,1,1.08.66,2,2,0,0,1,.39,1.26,1.88,1.88,0,0,1-.69,1.53A2.67,2.67,0,0,1,98.06,376.5Z" transform="translate(-42.98 -286.56)"/><path class="cls-5" d="M104.7,374v-.72h2.45V374Z" transform="translate(-42.98 -286.56)"/><path class="cls-5" d="M108.5,376.42l-.11-.79,2.52-2.86a3.8,3.8,0,0,0,.5-.74,6.4,6.4,0,0,0,.34-.78l.11-.31a1.26,1.26,0,0,0-.33-.93,1.32,1.32,0,0,0-1-.31,2.24,2.24,0,0,0-1.63.64c-.12-.29-.17-.44-.29-.73a2.86,2.86,0,0,1,2-.67,2.18,2.18,0,0,1,1.58.49,1.7,1.7,0,0,1,.6,1.43s0,.1-.06.18-.08.23-.17.45-.18.44-.27.64-.22.43-.36.67a4.6,4.6,0,0,1-.44.61l-2.07,2.25,3.39-.09,0,.75C111.07,376.38,110.21,376.4,108.5,376.42Z" transform="translate(-42.98 -286.56)"/><path class="cls-5" d="M118,375.93a2.28,2.28,0,0,1-1.14.34,2.13,2.13,0,0,1-1.14-.23,2.06,2.06,0,0,1-.78-.77,4,4,0,0,1-.44-1.18,6.77,6.77,0,0,1-.15-1.49,8.25,8.25,0,0,1,.1-1.26,4.15,4.15,0,0,1,.3-1,2.88,2.88,0,0,1,.49-.82,2.23,2.23,0,0,1,.71-.54,2.44,2.44,0,0,1,.91-.22,2.21,2.21,0,0,1,1.11.22,2,2,0,0,1,.78.74,3.86,3.86,0,0,1,.45,1.17,7.05,7.05,0,0,1,.15,1.52,7.76,7.76,0,0,1-.14,1.51,4.39,4.39,0,0,1-.43,1.22A2.42,2.42,0,0,1,118,375.93Zm-.28-6.12a1.06,1.06,0,0,0-.86-.35,1.14,1.14,0,0,0-.85.43,2.59,2.59,0,0,0-.54,1.09,6.05,6.05,0,0,0-.18,1.55,6.24,6.24,0,0,0,.18,1.58,2.47,2.47,0,0,0,.54,1.06,1,1,0,0,0,.85.36,1.16,1.16,0,0,0,.86-.44,2.85,2.85,0,0,0,.53-1.12,6.3,6.3,0,0,0,.18-1.58,6,6,0,0,0-.18-1.55A2.44,2.44,0,0,0,117.68,369.81Z" transform="translate(-42.98 -286.56)"/><path class="cls-5" d="M121.7,368.58l.77-.05v7.3l-.86.06v-6.4a5.07,5.07,0,0,1-1.21.63v-.82l.32-.15.36-.18.3-.17Z" transform="translate(-42.98 -286.56)"/><path class="cls-5" d="M129.13,373.48l-.83.07v1.82l-.82.07v-1.81l-3.3.27v-.75c1.29-2,1.93-3,3.21-5l.91-.08v4.79l.9-.09Zm-1.65-4.24c-1,1.56-1.46,2.34-2.44,3.88,1-.07,1.47-.11,2.44-.2Z" transform="translate(-42.98 -286.56)"/><path class="cls-4" d="M82,437.59a2.75,2.75,0,0,1-2-.94,3.29,3.29,0,0,1-.74-2.24,2.71,2.71,0,0,1,.77-2.05,2.47,2.47,0,0,1,2-.65,3.23,3.23,0,0,1,1.7.58c-.14.31-.2.47-.34.78a2.7,2.7,0,0,0-1.34-.5,1.44,1.44,0,0,0-1.25.47,2.25,2.25,0,0,0-.45,1.49,2.48,2.48,0,0,0,.44,1.57,1.64,1.64,0,0,0,1.26.64,3,3,0,0,0,1.43-.26l.14.84A3,3,0,0,1,82,437.59Z" transform="translate(-42.98 -286.56)"/><path class="cls-4" d="M84.9,437.71V432l1.06.06v5.72Zm.23-6.27.66-1.45,1.17.06-1.23,1.43Z" transform="translate(-42.98 -286.56)"/><path class="cls-4" d="M87.5,437.86v-5.74l2.12.11a6.65,6.65,0,0,1,.75.08,2.87,2.87,0,0,1,.61.16,1.31,1.31,0,0,1,.46.3,1.39,1.39,0,0,1,.29.47,2.32,2.32,0,0,1,.1.68,1.38,1.38,0,0,1-1,1.46,4.29,4.29,0,0,1,.53.9l.85,1.8L91,438l-.67-1.52c-.25-.55-.41-.88-.47-1l-.44,0-.88-.05v2.46Zm2.21-3.1a1.39,1.39,0,0,0,.88-.18.82.82,0,0,0,.27-.69.75.75,0,0,0-.27-.63,1.49,1.49,0,0,0-.83-.24L88.55,433v1.73l.58,0Z" transform="translate(-42.98 -286.56)"/><path class="cls-4" d="M95.76,438.28a2.65,2.65,0,0,1-2-.85,3.16,3.16,0,0,1-.73-2.2,2.83,2.83,0,0,1,.76-2.09,2.63,2.63,0,0,1,2-.74,3,3,0,0,1,1.7.51c-.14.31-.2.47-.34.79a2.61,2.61,0,0,0-1.34-.45,1.5,1.5,0,0,0-1.25.54,2.27,2.27,0,0,0-.46,1.51,2.48,2.48,0,0,0,.44,1.55,1.62,1.62,0,0,0,1.27.58,3.11,3.11,0,0,0,1.43-.33l.14.83A3.1,3.1,0,0,1,95.76,438.28Z" transform="translate(-42.98 -286.56)"/><path class="cls-4" d="M100.89,438.38a2.4,2.4,0,0,1-1.71-.58,2.11,2.11,0,0,1-.58-1.59v-3.67l1.06,0v3.58a1.57,1.57,0,0,0,.29,1,1.21,1.21,0,0,0,1,.34,1.19,1.19,0,0,0,1-.32,1.56,1.56,0,0,0,.29-1v-3.57h1.06v3.67a2.06,2.06,0,0,1-.6,1.57A2.37,2.37,0,0,1,100.89,438.38Z" transform="translate(-42.98 -286.56)"/><path class="cls-4" d="M104.7,438.32V432.6h1.06v4.88l2.39,0,0,.85Z" transform="translate(-42.98 -286.56)"/><path class="cls-4" d="M111.75,438.31a2.64,2.64,0,0,1-2-.74,3,3,0,0,1-.75-2.15,3.05,3.05,0,0,1,.75-2.18,2.85,2.85,0,0,1,2.05-.82,2.63,2.63,0,0,1,2,.73,2.93,2.93,0,0,1,.74,2.14,3.09,3.09,0,0,1-.75,2.18A2.74,2.74,0,0,1,111.75,438.31Zm-1.25-1.38a1.46,1.46,0,0,0,1.26.52,1.55,1.55,0,0,0,1.25-.58,2.43,2.43,0,0,0,.43-1.54,2.39,2.39,0,0,0-.43-1.54,1.42,1.42,0,0,0-1.25-.51,1.5,1.5,0,0,0-1.26.58,2.46,2.46,0,0,0-.43,1.55A2.33,2.33,0,0,0,110.5,436.93Z" transform="translate(-42.98 -286.56)"/><path class="cls-4" d="M118.27,438v-5.72l1.66-.08a4.72,4.72,0,0,1,1.34.1,2.62,2.62,0,0,1,1,.46,2.06,2.06,0,0,1,.65.85,3.17,3.17,0,0,1,.23,1.25,2.86,2.86,0,0,1-.84,2.18,3.46,3.46,0,0,1-2.31.88Zm1.06-.9.76,0a1.92,1.92,0,0,0,2-2.13,1.88,1.88,0,0,0-.52-1.5,2.2,2.2,0,0,0-1.59-.39l-.65,0Z" transform="translate(-42.98 -286.56)"/><path class="cls-4" d="M124.49,437.66v-5.73l3.46-.24,0,.84-2.36.17v1.48l2.24-.17v.84l-2.24.17v1.72l2.45-.18,0,.85Z" transform="translate(-42.98 -286.56)"/><path class="cls-4" d="M75.34,446.55v-5.72l1.78.16a3.66,3.66,0,0,1,1.69.48,1.28,1.28,0,0,1,.56,1.15,2,2,0,0,1,0,.25,1.8,1.8,0,0,1-.07.27,1.17,1.17,0,0,1-.15.27,1.12,1.12,0,0,1-.25.22,1,1,0,0,1-.37.15,1.67,1.67,0,0,1,.81.56,1.53,1.53,0,0,1,.28.93,1.34,1.34,0,0,1-.57,1.19,2.45,2.45,0,0,1-1.58.29Zm1.06-3.26.9.08c.7.07,1-.17,1-.71a.7.7,0,0,0-.3-.64,2.2,2.2,0,0,0-1-.25l-.69-.06Zm0,2.6.91.08c.81.07,1.22-.21,1.22-.85a.87.87,0,0,0-.3-.72,1.93,1.93,0,0,0-.94-.29L76.4,444Z" transform="translate(-42.98 -286.56)"/><path class="cls-4" d="M80.84,447V441.3c1.39.11,2.08.16,3.47.25l0,.83-2.37-.16v1.48l2.25.15v.84l-2.25-.15v1.72l2.45.17,0,.84C82.93,447.18,82.23,447.13,80.84,447Z" transform="translate(-42.98 -286.56)"/><path class="cls-4" d="M85.64,447.35v-5.72l1.06.06v4.88l2.4.13,0,.84C87.7,447.47,87,447.44,85.64,447.35Z" transform="translate(-42.98 -286.56)"/><path class="cls-4" d="M90.13,447.59v-5.72l1.06.05v4.88l2.4.09,0,.84C92.19,447.68,91.5,447.66,90.13,447.59Z" transform="translate(-42.98 -286.56)"/><path class="cls-4" d="M94,447.75c.84-2.27,1.27-3.4,2.11-5.67l1.15,0,2.08,5.77-1.09,0-.57-1.63-2-.05-.57,1.6Zm1.94-2.35,1.47,0c-.46-1.52-.71-2.3-.72-2.35Z" transform="translate(-42.98 -286.56)"/><path class="cls-4" d="M101.85,448a3.64,3.64,0,0,1-1.86-.5c.1-.33.15-.5.26-.84a3.38,3.38,0,0,0,.8.34,2.77,2.77,0,0,0,.84.13,1.06,1.06,0,0,0,.76-.21.76.76,0,0,0,.26-.62q0-.54-.72-.75l-.29-.09-.44-.13-.29-.1a1.53,1.53,0,0,1-1.15-1.53,1.41,1.41,0,0,1,.55-1.2,2.37,2.37,0,0,1,1.47-.4,3.58,3.58,0,0,1,1.78.43c-.12.31-.19.46-.32.77a3.65,3.65,0,0,0-1.42-.35,1.27,1.27,0,0,0-.71.16.66.66,0,0,0-.26.55.61.61,0,0,0,.47.63l.47.15.47.16a2.58,2.58,0,0,1,1.13.64,1.61,1.61,0,0,1,.34,1.07,1.51,1.51,0,0,1-.58,1.26A2.55,2.55,0,0,1,101.85,448Z" transform="translate(-42.98 -286.56)"/><path class="cls-4" d="M107,447.91c.85-2.3,1.27-3.45,2.11-5.75l1.15,0c.83,2.28,1.25,3.42,2.08,5.68l-1.09,0c-.22-.64-.34-1-.56-1.6l-2,0-.57,1.63Zm2-2.43,1.47,0c-.47-1.49-.71-2.26-.73-2.31C109.37,444.07,109.23,444.54,108.93,445.48Z" transform="translate(-42.98 -286.56)"/><path class="cls-4" d="M113.17,447.79v-5.74l2.12-.07a5.81,5.81,0,0,1,.75,0,2.36,2.36,0,0,1,.61.11,1.26,1.26,0,0,1,.46.26,1.29,1.29,0,0,1,.29.45,2.2,2.2,0,0,1,.1.67,1.52,1.52,0,0,1-1,1.54,4,4,0,0,1,.53.86l.85,1.73-1.16.05c-.26-.59-.4-.88-.67-1.47s-.4-.84-.46-.94l-.45,0-.88,0v2.46Zm2.21-3.29a1.42,1.42,0,0,0,.88-.25.88.88,0,0,0,.27-.71.7.7,0,0,0-.27-.61,1.45,1.45,0,0,0-.83-.17l-1.21.05v1.73l.58,0Z" transform="translate(-42.98 -286.56)"/><path class="cls-4" d="M120.05,447.51v-4.87l-1.66.08v-.85c1.75-.08,2.63-.12,4.39-.23v.85l-1.66.09v4.88Z" transform="translate(-42.98 -286.56)"/><path class="cls-4" d="M123.7,447.31v-5.73c1.38-.08,2.08-.13,3.46-.24l0,.85-2.36.16v1.48l2.24-.16v.84l-2.24.16v1.72l2.45-.17,0,.85Z" transform="translate(-42.98 -286.56)"/><path class="cls-4" d="M130.1,446.91a3.41,3.41,0,0,1-1.85-.32l.26-.86a3.85,3.85,0,0,0,.79.26,3,3,0,0,0,.84.06,1.23,1.23,0,0,0,.76-.29.8.8,0,0,0,.26-.64q0-.54-.72-.69l-.28-.06-.44-.09-.29-.08a1.37,1.37,0,0,1-1.15-1.42,1.53,1.53,0,0,1,.55-1.24,2.6,2.6,0,0,1,1.46-.55,3.58,3.58,0,0,1,1.78.27c-.12.32-.19.48-.32.81a3.21,3.21,0,0,0-1.42-.22,1.33,1.33,0,0,0-.71.22.7.7,0,0,0-.25.57.54.54,0,0,0,.47.59l.46.11.48.11a2.39,2.39,0,0,1,1.12.54,1.48,1.48,0,0,1,.33,1,1.65,1.65,0,0,1-.57,1.31A2.73,2.73,0,0,1,130.1,446.91Z" transform="translate(-42.98 -286.56)"/><path class="cls-5" d="M83,437.66a2.78,2.78,0,0,1-2-.93,3.29,3.29,0,0,1-.74-2.24,2.75,2.75,0,0,1,.77-2.06,2.5,2.5,0,0,1,2-.65,3.23,3.23,0,0,1,1.7.58c-.14.31-.2.47-.34.78a2.61,2.61,0,0,0-1.34-.5,1.42,1.42,0,0,0-1.25.48,2.23,2.23,0,0,0-.45,1.49,2.5,2.5,0,0,0,.44,1.57,1.65,1.65,0,0,0,1.26.63,3,3,0,0,0,1.43-.27l.14.84A3,3,0,0,1,83,437.66Z" transform="translate(-42.98 -286.56)"/><path class="cls-5" d="M85.9,437.77v-5.72l1.06.06v5.72Zm.23-6.27c.26-.58.4-.87.66-1.46l1.17.07-1.23,1.43Z" transform="translate(-42.98 -286.56)"/><path class="cls-5" d="M88.5,437.91v-5.73l2.12.1a5,5,0,0,1,.75.07,2.39,2.39,0,0,1,.61.17,1.17,1.17,0,0,1,.46.29,1.39,1.39,0,0,1,.29.47,2.32,2.32,0,0,1,.1.68,1.38,1.38,0,0,1-1,1.46,4.29,4.29,0,0,1,.53.9l.85,1.8L92,438.07c-.26-.6-.4-.91-.67-1.52s-.4-.87-.46-1l-.45,0-.88,0V438Zm2.21-3.11a1.33,1.33,0,0,0,.88-.18.8.8,0,0,0,.27-.68.76.76,0,0,0-.27-.64,1.49,1.49,0,0,0-.83-.23L89.55,433v1.73l.58,0Z" transform="translate(-42.98 -286.56)"/><path class="cls-5" d="M96.76,438.31a2.64,2.64,0,0,1-2-.84,3.19,3.19,0,0,1-.73-2.21,2.83,2.83,0,0,1,.76-2.09,2.63,2.63,0,0,1,2-.75,3.1,3.1,0,0,1,1.7.51c-.14.31-.2.47-.34.79a2.6,2.6,0,0,0-1.34-.44,1.5,1.5,0,0,0-1.25.54,2.27,2.27,0,0,0-.46,1.51,2.46,2.46,0,0,0,.44,1.55,1.58,1.58,0,0,0,1.27.57,3.08,3.08,0,0,0,1.43-.33l.14.83A3,3,0,0,1,96.76,438.31Z" transform="translate(-42.98 -286.56)"/><path class="cls-5" d="M101.89,438.39a2.36,2.36,0,0,1-1.71-.58,2.11,2.11,0,0,1-.58-1.58v-3.67l1.06,0v3.57a1.59,1.59,0,0,0,.29,1.05,1.24,1.24,0,0,0,1,.33,1.18,1.18,0,0,0,1-.32,1.57,1.57,0,0,0,.29-1v-3.58h1.06v3.67a2.07,2.07,0,0,1-.59,1.57A2.42,2.42,0,0,1,101.89,438.39Z" transform="translate(-42.98 -286.56)"/><path class="cls-5" d="M105.7,438.32v-5.73h1.06v4.88l2.4,0,0,.84Z" transform="translate(-42.98 -286.56)"/><path class="cls-5" d="M112.75,438.29a2.64,2.64,0,0,1-2-.74,3,3,0,0,1-.75-2.15,3,3,0,0,1,.75-2.17,2.77,2.77,0,0,1,2.05-.83,2.62,2.62,0,0,1,2,.71,3,3,0,0,1,.74,2.14,3.1,3.1,0,0,1-.75,2.19A2.78,2.78,0,0,1,112.75,438.29Zm-1.25-1.38a1.43,1.43,0,0,0,1.26.51,1.52,1.52,0,0,0,1.25-.58,2.43,2.43,0,0,0,.43-1.54,2.39,2.39,0,0,0-.43-1.54,1.45,1.45,0,0,0-1.25-.51,1.57,1.57,0,0,0-1.26.58,2.51,2.51,0,0,0-.43,1.56A2.33,2.33,0,0,0,111.5,436.91Z" transform="translate(-42.98 -286.56)"/><path class="cls-5" d="M119.27,438v-5.72l1.66-.08a4.74,4.74,0,0,1,1.34.09,2.77,2.77,0,0,1,1,.46,2,2,0,0,1,.65.85,3.15,3.15,0,0,1,.23,1.24,2.87,2.87,0,0,1-.84,2.19,3.46,3.46,0,0,1-2.31.88Zm1.06-.9.76,0a2.07,2.07,0,0,0,1.49-.6,2.14,2.14,0,0,0,.51-1.53,1.88,1.88,0,0,0-.52-1.5A2.2,2.2,0,0,0,121,433l-.65,0Z" transform="translate(-42.98 -286.56)"/><path class="cls-5" d="M125.49,437.59v-5.72l3.46-.26,0,.84-2.37.18v1.48l2.25-.17v.84l-2.25.17v1.72l2.45-.19,0,.85Z" transform="translate(-42.98 -286.56)"/><path class="cls-5" d="M76.34,446.65v-5.73l1.78.16a3.67,3.67,0,0,1,1.69.47,1.28,1.28,0,0,1,.56,1.15,2,2,0,0,1,0,.25,1.8,1.8,0,0,1-.07.27,1.17,1.17,0,0,1-.15.27,1.12,1.12,0,0,1-.25.22,1.38,1.38,0,0,1-.37.16,1.59,1.59,0,0,1,.81.55,1.53,1.53,0,0,1,.28.93,1.34,1.34,0,0,1-.57,1.19,2.45,2.45,0,0,1-1.58.29Zm1.06-3.27.9.08c.7.06,1-.18,1-.71a.72.72,0,0,0-.3-.65,2.26,2.26,0,0,0-1-.24l-.69-.06Zm0,2.6.91.07c.81.07,1.22-.21,1.22-.85a.81.81,0,0,0-.31-.71,1.69,1.69,0,0,0-.94-.29l-.88-.08Z" transform="translate(-42.98 -286.56)"/><path class="cls-5" d="M81.84,447.1v-5.72l3.47.23,0,.84-2.37-.16v1.48l2.25.15v.84l-2.25-.15v1.72l2.45.16,0,.84C83.93,447.25,83.23,447.2,81.84,447.1Z" transform="translate(-42.98 -286.56)"/><path class="cls-5" d="M86.64,447.41v-5.72l1.06.06v4.88l2.4.12,0,.84C88.7,447.53,88,447.49,86.64,447.41Z" transform="translate(-42.98 -286.56)"/><path class="cls-5" d="M91.13,447.64v-5.72l1.06,0v4.88l2.4.08,0,.85Z" transform="translate(-42.98 -286.56)"/><path class="cls-5" d="M95,447.78c.85-2.27,1.27-3.4,2.11-5.67l1.15,0c.83,2.31,1.25,3.46,2.08,5.76H99.24l-.56-1.63-2,0-.57,1.6Zm2-2.35,1.47,0c-.47-1.51-.71-2.3-.73-2.35C97.38,444,97.23,444.5,96.94,445.43Z" transform="translate(-42.98 -286.56)"/><path class="cls-5" d="M102.85,448a3.54,3.54,0,0,1-1.86-.49l.26-.83a3.83,3.83,0,0,0,.8.33,2.82,2.82,0,0,0,.84.13,1.17,1.17,0,0,0,.76-.21.79.79,0,0,0,.26-.63c0-.36-.24-.6-.72-.74l-.28-.09-.44-.13-.3-.11A1.52,1.52,0,0,1,101,443.7a1.41,1.41,0,0,1,.55-1.2,2.44,2.44,0,0,1,1.47-.41,3.73,3.73,0,0,1,1.79.43c-.13.31-.2.46-.32.77a3.7,3.7,0,0,0-1.43-.34,1.27,1.27,0,0,0-.71.16.66.66,0,0,0-.26.55.62.62,0,0,0,.48.63l.46.15.47.15a2.59,2.59,0,0,1,1.13.65,1.57,1.57,0,0,1,.34,1.06,1.51,1.51,0,0,1-.58,1.26A2.49,2.49,0,0,1,102.85,448Z" transform="translate(-42.98 -286.56)"/><path class="cls-5" d="M108,447.9c.85-2.3,1.27-3.46,2.11-5.76l1.16,0,2.07,5.68-1.09,0-.56-1.61-2,.05-.57,1.62Zm2-2.44,1.47,0c-.47-1.49-.71-2.26-.73-2.31C110.38,444.06,110.23,444.52,109.93,445.46Z" transform="translate(-42.98 -286.56)"/><path class="cls-5" d="M114.17,447.76V442l2.12-.07a6,6,0,0,1,.75,0,2.36,2.36,0,0,1,.61.11,1.11,1.11,0,0,1,.75.71,2.08,2.08,0,0,1,.1.66,1.53,1.53,0,0,1-1,1.55,4,4,0,0,1,.53.86l.85,1.72-1.16.06c-.26-.59-.4-.88-.67-1.47s-.4-.84-.46-.93h-.45l-.88,0v2.46Zm2.22-3.3a1.41,1.41,0,0,0,.87-.25.88.88,0,0,0,.27-.71.7.7,0,0,0-.27-.61,1.38,1.38,0,0,0-.83-.16l-1.21,0v1.73l.58,0Z" transform="translate(-42.98 -286.56)"/><path class="cls-5" d="M121.05,447.46v-4.87l-1.66.08v-.84l4.39-.25v.85l-1.66.1v4.87Z" transform="translate(-42.98 -286.56)"/><path class="cls-5" d="M124.7,447.24v-5.72c1.38-.09,2.08-.14,3.46-.25l0,.84-2.37.18v1.47l2.25-.16v.84l-2.25.16v1.73l2.46-.19,0,.85C126.78,447.1,126.09,447.15,124.7,447.24Z" transform="translate(-42.98 -286.56)"/><path class="cls-5" d="M131.1,446.83a3.41,3.41,0,0,1-1.85-.32l.25-.86a4,4,0,0,0,.8.26,3,3,0,0,0,.84,0,1.23,1.23,0,0,0,.76-.29.84.84,0,0,0,.26-.64c0-.36-.24-.59-.72-.68l-.28-.06-.44-.1-.3-.07a1.38,1.38,0,0,1-1.15-1.42,1.57,1.57,0,0,1,.56-1.25,2.49,2.49,0,0,1,1.46-.54,3.38,3.38,0,0,1,1.78.26l-.32.8a3.34,3.34,0,0,0-1.42-.21,1.32,1.32,0,0,0-.71.23.68.68,0,0,0-.25.57.53.53,0,0,0,.47.58l.46.11.47.11a2.29,2.29,0,0,1,1.12.54,1.43,1.43,0,0,1,.34,1,1.63,1.63,0,0,1-.58,1.31A2.68,2.68,0,0,1,131.1,446.83Z" transform="translate(-42.98 -286.56)"/><path class="cls-6" d="M103.54,289s-41.11-2.37-40.71,2.12c.34,3.82,3.1,30.8,7.67,28.46,10.52-4.21,34.83-5.17,37.19-4.32C107.69,315.26,103.39,291,103.54,289Z" transform="translate(-42.98 -286.56)"/><path class="cls-7" d="M103,286.56l2.78,14.27,2.69,14.3c.88,4.77,1.93,9.51,2.59,14.31s1.24,9.62,1.5,14.49l-.2,0c-1.34-4.69-2.35-9.44-3.28-14.2s-1.48-9.58-2.19-14.38L104.81,301l-2-14.41Z" transform="translate(-42.98 -286.56)"/><path class="cls-3" d="M78.74,350.24a50.1,50.1,0,0,0,12.08,14.27c2-3,8.09-6.4,12.72-7.54-1.53-6.23-9.24-12.53-11.05-11.89C92.49,345.08,80.68,347.29,78.74,350.24Z" transform="translate(-42.98 -286.56)"/><path class="cls-3" d="M112.47,344c-4.78-1.54-29.45,2.31-30.86,5.06" transform="translate(-42.98 -286.56)"/><path class="cls-3" d="M112.47,344" transform="translate(-42.98 -286.56)"/><path class="cls-3" d="M81.61,349" transform="translate(-42.98 -286.56)"/><g id="mqR1K0.tif"><path class="cls-8" d="M86,315.16a13.43,13.43,0,0,1-13.84-9.71c-.08-.3.08-.32.27-.37,1.29-.33,2.58-.66,3.87-1,.3-.07.34-.18.29-.46A8.28,8.28,0,0,1,79.8,295a8.47,8.47,0,0,1,11.59,1.29c.2.23.31.23.54,0l3.33-2.61c.19-.14.28-.13.42.06a13.35,13.35,0,0,1-7.08,20.9A14.54,14.54,0,0,1,86,315.16Zm3.92-12.59L92,303.79c.48.27.46.26.61-.28.1-.34,0-.45-.32-.54-.72-.23-1.41-.51-2.13-.73-.37-.11-.29-.38-.26-.59s.26-.07.39,0c.59.12,1.17.27,1.76.41.76.19.76.19.72-.62,0-.46,0-.46-.48-.44l-2.21.09c-.4,0-.3-.3-.35-.49s.18-.16.28-.17l1.94-.17c.7-.06.69-.06.47-.77-.07-.21-.15-.25-.36-.19-.75.24-1.51.44-2.26.67-.21.07-.27,0-.34-.19s0-.24.17-.3l1.54-.64c.94-.39.94-.39.35-1.25-.12-.17-.2-.2-.37-.08-.63.46-1.26.9-1.9,1.34-.09.07-.2.25-.31,0s-.33-.3,0-.51c.54-.39,1.07-.82,1.6-1.22s.44-.33,0-.76c-.18-.2-.29-.18-.46,0-.53.52-1.08,1-1.61,1.53-.27.26-.38,0-.53-.13s0-.22,0-.31c.47-.57.94-1.14,1.43-1.7.13-.16.14-.26,0-.36s-.58-.33-.85-.51-.27-.05-.37.12c-.33.63-.71,1.25-1,1.89-.18.36-.35.12-.54.07s-.17-.2-.1-.36c.27-.65.54-1.3.82-1.95.08-.18.06-.25-.14-.3a11,11,0,0,0-1.64-.3c-.25,0-.31.07-.33.29,0,.64-.1,1.29-.12,1.94,0,.24-.09.33-.32.29s-.47.08-.46-.31c0-.62,0-1.25,0-1.88,0-.27-.08-.33-.34-.29a13.27,13.27,0,0,0-1.39.31c-.2.06-.27.14-.2.37.24.72.45,1.45.67,2.18,0,.16.13.33-.13.36s-.41.24-.54-.14c-.23-.7-.52-1.38-.78-2.07-.06-.18-.11-.27-.33-.15a8.63,8.63,0,0,0-1.87,1.42c-.15.14-.16.23,0,.38.58.54,1.14,1.11,1.73,1.65.21.19.23.32,0,.49a2.8,2.8,0,0,0-.93,1.36.86.86,0,0,1-.38.53c-.26.16-.26.34,0,.49a.4.4,0,0,1,.19.54c-.06.21-.19.46,0,.68a.61.61,0,0,1,.08.61c-.08.23-.14.48-.21.72-.11.42,0,.51.39.51.11,0,.27,0,.23.13-.11.3.19.48.2.75,0,.1.11.17.09.31a.72.72,0,0,0,.7.84,4,4,0,0,0,2-.32c.07,0,.14-.12.21,0a.26.26,0,0,1,0,.29.33.33,0,0,1-.16.17,1.4,1.4,0,0,0-.7,1c-.13.47-.28.94-.45,1.39-.09.25,0,.34.22.41a8,8,0,0,0,5.69-.36.33.33,0,0,0,.24-.39c-.1-.8-.15-1.61-.26-2.41a.75.75,0,0,1,.4-.78c0,.18.08.33.12.49l.51,2.22c0,.07,0,.18.1.2s.51-.39.45-.55c-.28-.8-.55-1.6-.86-2.38a.62.62,0,0,1,.23-.77c.35.78.68,1.53,1,2.28.26.59.25.58.71.09a.39.39,0,0,0,0-.6c-.46-.62-.86-1.26-1.34-1.86a.54.54,0,0,1,0-.81l2.1,2.12c.12-.22.2-.41.31-.58s.08-.33-.13-.46c-.59-.39-1.16-.8-1.74-1.2S89.71,303.19,89.9,302.57Zm-13,4a3.16,3.16,0,0,0-.48-1.06c-.06-.12-.14-.12-.25-.06l-2.32,1.29c-.12.06-.15.13-.08.24a3.92,3.92,0,0,0,.64,1,1.42,1.42,0,0,0,1.65.24A1.44,1.44,0,0,0,76.91,306.6Zm4.42,4.3c0-.42-.71-1-1-1-.08,0-.1.08-.13.14-.39.8-.77,1.6-1.15,2.4-.06.11-.06.18.07.24A4,4,0,0,0,80,313a.77.77,0,0,0,.82-.26.78.78,0,0,0,.07-.93c-.11-.18,0-.21.1-.29A.74.74,0,0,0,81.33,310.9Zm15.78-6.77-1.24.45c-.16.06-.23.06-.26-.15a.82.82,0,0,0-.73-.7.8.8,0,0,0-.88.49c-.1.24-.16.5-.24.75,0,.1,0,.17.11.2l2.59.73c.16,0,.19,0,.24-.17s0-.19-.13-.22l-.75-.22c-.1,0-.27,0-.27-.14s.15-.12.24-.15c.31-.11.62-.24.94-.32S97.1,304.43,97.11,304.13Zm-4.19,2.44c.58.85,1.18,1.7,1.77,2.55,0,.07.08.22.18.15a.29.29,0,0,0,.15-.35.52.52,0,0,0-.14-.19.56.56,0,0,1,0-.86.26.26,0,0,0,.07-.11c.18-.46.45-.75,1-.57H96a.27.27,0,0,0,.26-.27c0-.15-.15-.1-.23-.11l-2.92-.31C93.06,306.51,93,306.48,92.92,306.57Zm-4.41,3.72c0,1.12-.08,2.15-.12,3.19,0,.08-.07.24.08.24s.31,0,.31-.25a.33.33,0,0,0,0-.1.72.72,0,0,1,.56-.84c.48-.18.89-.34,1.23.18a.12.12,0,0,0,.05.05.28.28,0,0,0,.34-.08c.13-.12,0-.17-.1-.23l-1.48-1.36C89.11,310.83,88.84,310.59,88.51,310.29Zm-10.78-.42a1.22,1.22,0,0,0,.17-.15c.06-.06,0-.13,0-.18l-.35-.37c-.39-.41-.39-.41,0-.8.14-.12.23-.14.35,0s.38.4.56.6.16.11.25,0,.12-.17,0-.28c-.29-.29-.57-.59-.85-.89-.1-.11-.18-.14-.3,0-.64.62-1.28,1.23-1.93,1.83-.12.11-.08.18,0,.28.29.29.57.59.85.89.09.1.16.13.28,0s.08-.19,0-.28l-.54-.57c-.14-.12-.15-.21,0-.35.62-.63.61-.63,1.22,0A.77.77,0,0,0,77.73,309.87Zm19-10.14c.06.45.06.44-.38.51a2.83,2.83,0,0,0-.4.08c-.18.05-.27,0-.3-.2s-.09-.52-.12-.78-.06-.18-.2-.16-.18.08-.16.21.07.45.12.67,0,.42-.28.42a.48.48,0,0,0-.24,0c-.2.07-.26,0-.29-.2s-.09-.52-.14-.78,0-.21-.21-.18-.16.12-.14.25c.07.4.15.81.21,1.21,0,.17.11.19.26.16l2.55-.44c.14,0,.21-.06.19-.22-.08-.41-.14-.83-.21-1.24,0-.14-.09-.2-.24-.17s-.15.14-.13.26S96.73,299.54,96.76,299.73Zm-13.56,14c0-.19-.24-.13-.37-.16-.85-.21-.84-.2-.62-1.06.05-.17.12-.21.28-.17s.51.12.77.18c.11,0,.19,0,.22-.13s0-.21-.15-.23a3.94,3.94,0,0,1-.47-.1c-.53-.12-.51-.12-.41-.65,0-.25.16-.28.37-.21s.49.1.73.17.21,0,.24-.16-.05-.18-.17-.21l-1.19-.26c-.15,0-.23,0-.27.15-.18.85-.37,1.69-.56,2.53,0,.17,0,.25.18.28.39.08.78.17,1.16.27C83.14,314.06,83.19,314,83.2,313.77Zm7.91-4.36c.15,0,.24,0,.28-.18s0-.14-.12-.17a.88.88,0,0,0-.89.28.79.79,0,0,0-.18.92.69.69,0,0,0,.78.4c.24,0,.47-.1.71-.14a.51.51,0,0,1,.61.31.5.5,0,0,1-.12.62.49.49,0,0,1-.68.07c-.17-.12-.26-.07-.36.07s.09.23.17.28a.92.92,0,0,0,1.11-.12,1,1,0,0,0,.24-1.09.84.84,0,0,0-1-.53c-.24,0-.47.11-.7.14a.37.37,0,0,1-.44-.18.43.43,0,0,1,.08-.48A.55.55,0,0,1,91.11,309.41Zm2.27-11.54a.93.93,0,0,0,.85.88c.45,0,.72-.32.74-.87,0-.17,0-.34,0-.52a.54.54,0,0,1,1-.28.5.5,0,0,1-.09.68c-.16.14-.13.23,0,.36s.22,0,.29-.08a.92.92,0,0,0,.15-1.13.93.93,0,0,0-1-.48.9.9,0,0,0-.78.87,5.61,5.61,0,0,1,0,.71.39.39,0,0,1-.26.33.41.41,0,0,1-.42-.16.49.49,0,0,1-.1-.57c.08-.17,0-.23-.15-.28s-.17.07-.2.15A.68.68,0,0,0,93.38,297.87Zm3.68,4.84c.15,0,.23,0,.24-.21s-.12-.18-.25-.19l-1.74-.09a1.79,1.79,0,0,1-.57,0c-.25-.11,0-.37-.09-.55v0c0-.12-.07-.15-.18-.15s-.17,0-.17.14l-.09,1.5c0,.13.05.19.18.19s.19,0,.19-.18,0-.14,0-.2c0-.27.09-.32.34-.31C95.63,302.65,96.33,302.67,97.06,302.71ZM84.24,313.89c0,.18.06.27.28.27s.55,0,.82,0c.12,0,.22,0,.23-.17s-.1-.2-.23-.2h-.45c-.17,0-.26,0-.25-.25,0-.73,0-1.45.06-2.18,0-.14,0-.26-.2-.26s-.2.12-.2.26C84.28,312.2,84.26,313,84.24,313.89Zm2.81.1.7-.13c.12,0,.16-.07.14-.18s0-.2-.2-.17a4.33,4.33,0,0,0-.5.08c-.2.07-.25,0-.28-.19-.12-.71-.24-1.41-.37-2.12,0-.13,0-.3-.26-.25s-.15.18-.13.31l.39,2.26C86.61,314.05,86.6,314.05,87.05,314Z" transform="translate(-42.98 -286.56)"/><path class="cls-8" d="M85.66,291a1.5,1.5,0,0,1-1.37,1.71A1.59,1.59,0,1,1,85.66,291ZM85,291a1,1,0,0,0-.93-.9,1,1,0,0,0-.82,1.05,1.07,1.07,0,0,0,.95,1A1,1,0,0,0,85,291Z" transform="translate(-42.98 -286.56)"/><path class="cls-8" d="M75.33,298.08c.32.13.57.26.82.34s.18.21.1.37-.08.3-.32.2c-.79-.35-1.59-.68-2.38-1-.14-.06-.2-.12-.12-.28s.21-.5.34-.74a.78.78,0,0,1,.83-.46.92.92,0,0,1,.84.74c0,.22.12.21.28.18l1-.19c.13,0,.18,0,.13.16-.1.31-.24.54-.63.54A2.41,2.41,0,0,0,75.33,298.08ZM75,297.5a.52.52,0,0,0-.53-.42.47.47,0,0,0-.38.38,1.57,1.57,0,0,0,.75.38C75,297.77,75,297.61,75,297.5Z" transform="translate(-42.98 -286.56)"/><path class="cls-8" d="M79.19,294.54a1,1,0,0,1-.91-.44c-.39-.5-.74-1-1.11-1.55-.16-.21.07-.24.16-.31s.21-.22.35,0c.27.41.55.8.84,1.2a2.47,2.47,0,0,0,.32.39.45.45,0,0,0,.62.07.47.47,0,0,0,.17-.63,5,5,0,0,0-.43-.69l-.56-.81c-.19-.28-.13-.46.19-.57.11,0,.15,0,.19.09.36.52.76,1,1.08,1.57A1.1,1.1,0,0,1,79.19,294.54Z" transform="translate(-42.98 -286.56)"/><path class="cls-8" d="M73.43,301c-.29.68-.24,1,.17,1.31a1.16,1.16,0,0,0,1.42-.1c.32-.32.32-.71,0-1.2.53-.19.74-.06.8.49a1.36,1.36,0,0,1-.67,1.36,1.65,1.65,0,0,1-1.81,0,1.37,1.37,0,0,1-.69-1.35C72.69,301,72.81,300.9,73.43,301Z" transform="translate(-42.98 -286.56)"/><path class="cls-8" d="M77.82,294.87c.58.32.62.5.22,1a1.51,1.51,0,0,1-2.11.22,1.55,1.55,0,0,1-.42-2.14c.4-.55.6-.57,1.08-.08-.6.26-.83.57-.76,1a1.22,1.22,0,0,0,1.06.93C77.41,295.83,77.64,295.6,77.82,294.87Z" transform="translate(-42.98 -286.56)"/><path class="cls-8" d="M80.61,290.38c.2,0,.18.13.22.22.23.6.46,1.2.68,1.81.07.22.15.31.37.19s.2-.06.29-.11.25,0,.31.15.08.27-.13.34-.62.21-.93.33c-.14.06-.22,0-.27-.13-.29-.81-.6-1.62-.89-2.43C80.12,290.36,80.53,290.52,80.61,290.38Z" transform="translate(-42.98 -286.56)"/><path class="cls-8" d="M76,299.87c0,.34-.1.44-.48.37-.78-.16-1.55-.33-2.34-.47-.22,0-.24-.14-.19-.32s0-.34.3-.28c.83.19,1.67.34,2.51.51C75.85,299.7,76,299.68,76,299.87Z" transform="translate(-42.98 -286.56)"/><path class="cls-9" d="M76.91,306.6a1.44,1.44,0,0,1-.84,1.61,1.42,1.42,0,0,1-1.65-.24,3.92,3.92,0,0,1-.64-1c-.07-.11,0-.18.08-.24l2.32-1.29c.11-.06.19-.06.25.06A3.16,3.16,0,0,1,76.91,306.6ZM75.53,308a1.2,1.2,0,0,0,.93-.67,1.37,1.37,0,0,0-.17-1.27c-.08-.14-.17-.06-.26,0-.55.3-1.1.6-1.64.91-.07,0-.17.05-.13.19A1.39,1.39,0,0,0,75.53,308Z" transform="translate(-42.98 -286.56)"/><path class="cls-9" d="M81.33,310.9a.74.74,0,0,1-.37.65c-.14.08-.21.11-.1.29a.78.78,0,0,1-.07.93A.77.77,0,0,1,80,313a4,4,0,0,1-.88-.36c-.13-.06-.13-.13-.07-.24.38-.8.76-1.6,1.15-2.4,0-.06,0-.13.13-.14C80.62,309.86,81.3,310.48,81.33,310.9Zm-.73,1.26a.91.91,0,0,0-.64-.59,2.21,2.21,0,0,0-.48.84.88.88,0,0,0,.69.27A.49.49,0,0,0,80.6,312.16Zm-.06-.77a.51.51,0,0,0,.41-.48.44.44,0,0,0-.38-.49c-.25-.08-.2.21-.3.32a.3.3,0,0,0-.07.15c0,.12-.18.23-.1.34A.61.61,0,0,0,80.54,311.39Z" transform="translate(-42.98 -286.56)"/><path class="cls-9" d="M97.11,304.13c0,.3-.1.48-.38.55s-.63.21-.94.32c-.09,0-.24,0-.24.15s.17.11.27.14l.75.22c.11,0,.17.08.13.22s-.08.21-.24.17l-2.59-.73c-.11,0-.15-.1-.11-.2.08-.25.14-.51.24-.75a.8.8,0,0,1,.88-.49.82.82,0,0,1,.73.7c0,.21.1.21.26.15Zm-1.82.47a.47.47,0,0,0-.49-.49.61.61,0,0,0-.59.58c0,.3.28.18.42.27a.38.38,0,0,0,.16.05C95.22,305.13,95.31,305.05,95.29,304.6Z" transform="translate(-42.98 -286.56)"/><path class="cls-9" d="M92.92,306.57c.07-.09.14-.06.2-.06l2.92.31c.08,0,.24,0,.23.11a.27.27,0,0,1-.26.27h-.1c-.54-.18-.81.11-1,.57a.26.26,0,0,1-.07.11.56.56,0,0,0,0,.86.52.52,0,0,1,.14.19.29.29,0,0,1-.15.35c-.1.07-.13-.08-.18-.15C94.1,308.27,93.5,307.42,92.92,306.57Zm.7.37.66.91c.07.1.13.08.17,0s.41-.47.35-.7-.42-.09-.64-.13A4.61,4.61,0,0,0,93.62,306.94Z" transform="translate(-42.98 -286.56)"/><path class="cls-9" d="M88.51,310.29c.33.3.6.54.87.8l1.48,1.36c.06.06.23.11.1.23a.28.28,0,0,1-.34.08.12.12,0,0,1-.05-.05c-.34-.52-.75-.36-1.23-.18a.72.72,0,0,0-.56.84.33.33,0,0,1,0,.1c0,.21-.18.24-.31.25s-.08-.16-.08-.24C88.43,312.44,88.47,311.41,88.51,310.29ZM89.77,312l-.92-.88c0,.43,0,.78,0,1.13,0,.11.07.13.16.09Z" transform="translate(-42.98 -286.56)"/><path class="cls-9" d="M77.73,309.87a.77.77,0,0,1-.27-.23c-.61-.64-.6-.64-1.22,0-.14.14-.13.23,0,.35l.54.57c.09.09.13.17,0,.28s-.19.07-.28,0c-.28-.3-.56-.6-.85-.89-.09-.1-.13-.17,0-.28.65-.6,1.29-1.21,1.93-1.83.12-.11.2-.08.3,0,.28.3.56.6.85.89.1.11.09.18,0,.28s-.16.08-.25,0-.38-.39-.56-.6-.21-.13-.35,0c-.43.39-.43.39,0,.8l.35.37c.06,0,.09.12,0,.18A1.22,1.22,0,0,1,77.73,309.87Z" transform="translate(-42.98 -286.56)"/><path class="cls-9" d="M96.76,299.73c0-.19-.07-.38-.11-.57s0-.23.13-.26.22,0,.24.17c.07.41.13.83.21,1.24,0,.16,0,.19-.19.22l-2.55.44c-.15,0-.24,0-.26-.16-.06-.4-.14-.81-.21-1.21,0-.13,0-.22.14-.25s.19.06.21.18.1.52.14.78.09.27.29.2a.48.48,0,0,1,.24,0c.31,0,.34-.16.28-.42s-.08-.44-.12-.67,0-.18.16-.21.18,0,.2.16.09.52.12.78.12.25.3.2a2.83,2.83,0,0,1,.4-.08C96.82,300.17,96.82,300.18,96.76,299.73Z" transform="translate(-42.98 -286.56)"/><path class="cls-9" d="M83.2,313.77c0,.2-.06.29-.26.24-.38-.1-.77-.19-1.16-.27-.18,0-.22-.11-.18-.28.19-.84.38-1.68.56-2.53,0-.17.12-.19.27-.15l1.19.26c.12,0,.2.07.17.21s-.09.2-.24.16-.49-.11-.73-.17-.32,0-.37.21c-.1.53-.12.53.41.65a3.94,3.94,0,0,0,.47.1c.16,0,.18.1.15.23s-.11.16-.22.13c-.26-.06-.52-.11-.77-.18s-.23,0-.28.17c-.22.86-.23.85.62,1.06C83,313.64,83.17,313.58,83.2,313.77Z" transform="translate(-42.98 -286.56)"/><path class="cls-9" d="M91.11,309.41a.55.55,0,0,0-.47.2.43.43,0,0,0-.08.48.37.37,0,0,0,.44.18c.23,0,.46-.11.7-.14a.84.84,0,0,1,1,.53,1,1,0,0,1-.24,1.09.92.92,0,0,1-1.11.12c-.08-.05-.31-.07-.17-.28s.19-.19.36-.07a.49.49,0,0,0,.68-.07.5.5,0,0,0,.12-.62.51.51,0,0,0-.61-.31c-.24,0-.47.11-.71.14a.69.69,0,0,1-.78-.4.79.79,0,0,1,.18-.92.88.88,0,0,1,.89-.28c.09,0,.14.07.12.17S91.26,309.46,91.11,309.41Z" transform="translate(-42.98 -286.56)"/><path class="cls-9" d="M93.38,297.87a.68.68,0,0,1,.07-.39c0-.08,0-.23.2-.15s.23.11.15.28a.49.49,0,0,0,.1.57.41.41,0,0,0,.42.16.39.39,0,0,0,.26-.33,5.61,5.61,0,0,0,0-.71.9.9,0,0,1,.78-.87.93.93,0,0,1,1,.48.92.92,0,0,1-.15,1.13c-.07.07-.14.24-.29.08s-.15-.22,0-.36a.5.5,0,0,0,.09-.68.54.54,0,0,0-1,.28c0,.18,0,.35,0,.52,0,.55-.29.87-.74.87A.93.93,0,0,1,93.38,297.87Z" transform="translate(-42.98 -286.56)"/><path class="cls-9" d="M97.06,302.71c-.73,0-1.43-.06-2.13-.12-.25,0-.37,0-.34.31,0,.06,0,.13,0,.2s-.06.18-.19.18-.18-.06-.18-.19l.09-1.5c0-.12.06-.15.17-.14s.18,0,.18.15v0c.07.18-.16.44.09.55a1.79,1.79,0,0,0,.57,0l1.74.09c.13,0,.26,0,.25.19S97.21,302.74,97.06,302.71Z" transform="translate(-42.98 -286.56)"/><path class="cls-9" d="M84.24,313.89c0-.86,0-1.69.06-2.52,0-.14,0-.27.2-.26s.2.12.2.26c0,.73,0,1.45-.06,2.18,0,.21.08.26.25.25h.45c.13,0,.24,0,.23.2s-.11.18-.23.17c-.27,0-.55,0-.82,0S84.21,314.07,84.24,313.89Z" transform="translate(-42.98 -286.56)"/><path class="cls-9" d="M87.05,314c-.45.06-.44.06-.51-.39l-.39-2.26c0-.13-.08-.26.13-.31s.24.12.26.25c.13.71.25,1.41.37,2.12,0,.19.08.26.28.19a4.33,4.33,0,0,1,.5-.08c.15,0,.18.05.2.17s0,.16-.14.18Z" transform="translate(-42.98 -286.56)"/><path class="cls-9" d="M75,297.5c0,.11,0,.27-.16.34a1.57,1.57,0,0,1-.75-.38.47.47,0,0,1,.38-.38A.52.52,0,0,1,75,297.5Z" transform="translate(-42.98 -286.56)"/><path class="cls-8" d="M83.67,301.27c-.16-.25-.43-.23-.66-.27s-.14.18-.19.29a.47.47,0,0,1-.63.14c-.07-.07,0-.12,0-.18s.1-.17.23-.13.21.12.26,0-.13-.14-.21-.2c-.31-.24-.48-.12-.6.22a.46.46,0,0,1-.67.11c0-.06,0-.1,0-.15a.25.25,0,0,1,.23-.17c.12,0,.33.09.34-.08s-.22-.1-.33-.17-.37,0-.48.21-.27.34-.51.09c.15-.09.37-.18.08-.36a.17.17,0,0,1,0-.12c0-.16.48-.71.54-.82a1.6,1.6,0,0,1,.61-.55c.13-.08.17-.25.38-.21s.24,0,.23-.17.09-.18.14-.15c.4.2.45-.27.71-.34.1,0,.09-.15.11-.23s.06-.41.1-.61a.7.7,0,0,1,.67-.59,2.8,2.8,0,0,1,1.95.42c.16.1.17.16.07.31s-.41.3-.64.43-.24.08-.22.22.18.12.28.14a2.37,2.37,0,0,1,.7.15c.1,0,.2.06.27-.05a.2.2,0,0,0,0-.3c-.08-.06-.16-.13-.1-.26a.83.83,0,0,1,.65.69c0,.25.37.38.2.7-.09.15.46.36.64.24s.08-.15,0-.23c-.22-.29-.16-.71-.45-1a1.65,1.65,0,0,1,1.2.69,4.48,4.48,0,0,1-.43,6c-.23-.18-.22-.36-.06-.58a4.21,4.21,0,0,0,.79-2.08,3.72,3.72,0,0,0-.54-2.24c-.08-.14-.18-.28-.41-.22s-.29.1-.23.36a4.49,4.49,0,0,1,.22,1.51,1.91,1.91,0,0,1-1.45,1.57c-.49.08-.71-.14-.61-.62.07-.33,0-.44-.35-.49a1.57,1.57,0,0,1-1-.28c-.17-.14-.34,0-.44.13s0,.27.13.36a1.17,1.17,0,0,0,.44.16c.25.07.39.12.47.46a3.36,3.36,0,0,1,0,1.41,1.77,1.77,0,0,1-.94,1.38c-.17.09-.27.09-.27-.15,0-.56,0-1.11,0-1.67,0-.26.21-.37.38-.49a.18.18,0,0,0,.07-.28c-.43.25-.83.49-.73,1.11,0,.31,0,.64,0,.95s-.11.39-.35.49a3.76,3.76,0,0,1-1.72.34c-.46,0-.69-.27-.57-.62,0,0,0-.08,0-.1.26-.19.32-.31-.09-.3-.08,0-.12-.06-.1-.14a.16.16,0,0,1,.19-.11l.41.17c.09,0,.22.06.26-.07s-.09-.15-.18-.16c-.24,0-.41-.25-.68-.19-.09,0-.11,0-.11-.12s0-.16.1-.18l.33-.07a.2.2,0,0,0,.15-.2.3.3,0,0,0-.14-.26c-.09,0-.19,0-.15.08s-.12.21-.24.22c-.71.06-.71.06-.54-.62a1.27,1.27,0,0,0,0-1.14c-.14-.21.06-.54.12-.82s.13-.05.19,0c.94.22,1.91.32,2.83.62.11,0,.25.07.28-.08s-.1-.15-.2-.18a2.46,2.46,0,0,0-.29-.09c-.22,0-.14-.19-.12-.32s.14-.14.25-.08a.36.36,0,0,0,.36,0C83.74,301.33,83.71,301.3,83.67,301.27ZM86.49,299c-.19-.09-.37-.19-.57,0s-.12.08-.09.16a.13.13,0,0,0,.16.09.67.67,0,0,1,.58.08c.18.08.27,0,.25-.19a1.2,1.2,0,0,1-.07-.42c0-.06,0-.09-.12-.1a.14.14,0,0,0-.15.11,2.51,2.51,0,0,0,0,.27Zm-5.77,3.5a.28.28,0,0,1,.23,0,2.55,2.55,0,0,0,.73,0c.07,0,.14,0,.13-.13s0-.13-.1-.11c-.31.08-.61-.11-.91,0a.29.29,0,0,0-.21.45c.22.29.59.24.87.41h0c.17-.24.4-.19.63-.14.06,0,.14,0,.14-.1s-.07-.11-.14-.11a3.15,3.15,0,0,1-.44,0C81.37,302.61,81,302.73,80.72,302.53Zm3.52,2.8c.35-.15.33-.15.31-.46s-.08-.77.34-1c.15-.1.11-.5,0-.59s-.18,0-.14.1c.11.25-.08.32-.23.41a.32.32,0,0,0-.17.3C84.29,304.49,84.27,304.89,84.24,305.33Zm.13-8.07c-.56.06-.64.13-.66.5,0,.13,0,.17.15.17s.17,0,.1-.14.05-.2.15-.2c.38,0,.77-.24,1.14.05.11.09.2,0,.24-.08s-.07-.17-.16-.19A2.15,2.15,0,0,0,84.37,297.26Zm.46,1.18a2.18,2.18,0,0,0-1.57.24.17.17,0,0,0,0,.22.18.18,0,0,0,.27,0,1.81,1.81,0,0,1,.58-.27A3.05,3.05,0,0,0,84.83,298.44Zm.19.9a.89.89,0,0,0-.68.43c0,.07-.08.16,0,.22s.15,0,.19-.08a.72.72,0,0,1,.56-.33c.09,0,.24,0,.2-.16S85.12,299.34,85,299.34Zm0,1.56a.8.8,0,0,0,.46-.26c0-.06.08-.14,0-.21s-.14,0-.19.06a.36.36,0,0,1-.53.1c-.09,0-.18-.22-.27-.07s.06.21.16.28A.65.65,0,0,0,85,300.9Zm-1.41-1.17c-.1,0-.23,0-.23.14s.14.08.22.08.16,0,.18.12a.19.19,0,0,1-.1.2c-.07,0-.16,0-.17-.09s0-.1-.08-.06a.14.14,0,0,0-.06.11.25.25,0,0,0,.11.23c.17.12.22-.08.34-.11s.22-.21.18-.36A.33.33,0,0,0,83.6,299.73Zm2.62,2.16a.43.43,0,0,0,.35-.18c.05-.06.11-.14,0-.21s-.13,0-.18.07-.25.13-.4.09-.2-.21-.27,0,.13.19.24.23A1.24,1.24,0,0,0,86.22,301.89Zm.45-.73a.41.41,0,0,0-.31-.32.34.34,0,0,0-.4.11c0,.06-.08.12,0,.18a.11.11,0,0,0,.15,0c.17-.19.29-.12.37.08s0,.14.15.11S86.67,301.22,86.67,301.16Zm-3.37-.92c0-.09.07-.25-.09-.24s-.11.15-.12.25a.56.56,0,0,0,.3.53c.07,0,.15.1.21,0s0-.12-.09-.15A.36.36,0,0,1,83.3,300.24Zm1.73-.51-.1,0c-.08.05-.21.1-.17.22s.16.06.25,0a.19.19,0,0,1,.26.06c.06.06.12.13.19,0s0-.15,0-.21A.41.41,0,0,0,85,299.73Zm-.65.52a.15.15,0,0,0,0-.07.08.08,0,0,0-.11,0,1,1,0,0,1-.42.42s0,.07,0,.11,0,.06.1.07S84.41,300.43,84.38,300.25Zm1.37.45c-.17,0-.3.38-.23.58s0,.15.13.14.1-.09.08-.16a.4.4,0,0,1,.06-.38C85.84,300.8,85.84,300.73,85.75,300.7Zm.35-.45c0-.12,0-.27-.13-.25s0,.29-.13.43,0,.15.09.13S86.08,300.36,86.1,300.25Zm-.21-.57a.39.39,0,0,0-.31-.27c-.07,0-.12,0-.1.11s.18.22.32.27S85.89,299.75,85.89,299.68Zm-.85.79c.06,0,.21,0,.17-.14s-.28-.05-.41-.14-.09,0-.08.08S84.88,300.46,85,300.47Zm1.45-.88c0-.08-.07-.19-.19-.19s-.14.06-.12.15,0,.18.16.19S86.48,299.69,86.49,299.59Zm-.06,1.77c0-.08-.09-.15-.13-.11s-.27-.05-.3.12.08.16.17.17A.24.24,0,0,0,86.43,301.36Z" transform="translate(-42.98 -286.56)"/><path class="cls-8" d="M86.34,306.35c-.13,0-.23-.08-.34-.11s-.18-.13-.25-.05a.26.26,0,0,0,0,.32.88.88,0,0,0,.4.25c.28.12.28.11.24.44a.58.58,0,0,1-.33-.14c-.13-.07-.22-.05-.29.07s0,.16.1.21a2.2,2.2,0,0,0,.25.17.78.78,0,0,1,.43.82l-.37-.11c-.12-.05-.2-.06-.24.1s0,.24.14.27.63.09.66.52c0,.14,0,.2-.14.19h0c-.91.11-.9.11-1-.79s-.14-1.93-.22-2.89c0-.28,0-.33.28-.19l.22.1C86.41,305.78,86.41,305.78,86.34,306.35Z" transform="translate(-42.98 -286.56)"/><path class="cls-8" d="M87.94,308.69a.77.77,0,0,1-.28-.47c-.25-.72-.47-1.44-.73-2.16-.1-.25,0-.35.21-.45.54-.22.54-.23.58.33C87.8,306.83,87.86,307.73,87.94,308.69Z" transform="translate(-42.98 -286.56)"/><path class="cls-8" d="M85.05,306.4c-.07.78-.15,1.57-.22,2.36a2.48,2.48,0,0,1,0,.27c0,.13,0,.31-.23.26s-.33-.06-.3-.33c.1-.72.17-1.44.23-2.16a.7.7,0,0,1,.32-.52C85,306.16,85,306.22,85.05,306.4Z" transform="translate(-42.98 -286.56)"/><path class="cls-8" d="M83.66,307.06a2.86,2.86,0,0,1,.29,1.76c-.06.2-.1.28-.33.26-.57-.05-.57,0-.41-.58Z" transform="translate(-42.98 -286.56)"/><path class="cls-8" d="M81.6,298l1.19-.24c.08,0,.16,0,.21,0a.16.16,0,0,1-.1.22,4.25,4.25,0,0,1-.94.39C81.74,298.44,81.74,298.14,81.6,298Z" transform="translate(-42.98 -286.56)"/><path class="cls-8" d="M87.27,304.84c0-.27,0-.53.27-.69.06,0,.1-.12.17,0a.15.15,0,0,1,0,.19.5.5,0,0,0-.1.59.18.18,0,0,1-.18.23C87.27,305.1,87.26,305,87.27,304.84Z" transform="translate(-42.98 -286.56)"/><path class="cls-9" d="M83.67,301.27s.07.06,0,.08Z" transform="translate(-42.98 -286.56)"/><path class="cls-8" d="M75.53,308a1.39,1.39,0,0,1-1.27-.86c0-.14.06-.15.13-.19.54-.31,1.09-.61,1.64-.91.09,0,.18-.12.26,0a1.37,1.37,0,0,1,.17,1.27A1.2,1.2,0,0,1,75.53,308Z" transform="translate(-42.98 -286.56)"/><path class="cls-8" d="M80.6,312.16a.49.49,0,0,1-.43.52.88.88,0,0,1-.69-.27,2.21,2.21,0,0,1,.48-.84A.91.91,0,0,1,80.6,312.16Z" transform="translate(-42.98 -286.56)"/><path class="cls-8" d="M80.54,311.39a.61.61,0,0,1-.44-.16c-.08-.11.06-.22.1-.34a.3.3,0,0,1,.07-.15c.1-.11,0-.4.3-.32a.44.44,0,0,1,.38.49A.51.51,0,0,1,80.54,311.39Z" transform="translate(-42.98 -286.56)"/><path class="cls-8" d="M95.29,304.6c0,.45-.07.53-.5.41a.38.38,0,0,1-.16-.05c-.14-.09-.44,0-.42-.27a.61.61,0,0,1,.59-.58A.47.47,0,0,1,95.29,304.6Z" transform="translate(-42.98 -286.56)"/><path class="cls-8" d="M93.62,306.94a4.61,4.61,0,0,1,.54.06c.22,0,.6,0,.64.13s-.23.46-.35.7-.1.12-.17,0Z" transform="translate(-42.98 -286.56)"/><path class="cls-8" d="M89.77,312l-.79.34c-.09,0-.16,0-.16-.09,0-.35,0-.7,0-1.13Z" transform="translate(-42.98 -286.56)"/><path class="cls-9" d="M80.72,302.53c.31.2.65.08,1,.16a3.15,3.15,0,0,0,.44,0c.07,0,.14,0,.14.11s-.08.11-.14.1c-.23-.05-.46-.1-.63.14h0c-.28-.17-.65-.12-.87-.41a.29.29,0,0,1,.21-.45c.3-.06.6.13.91,0,.05,0,.09.05.1.11s-.06.12-.13.13a2.55,2.55,0,0,1-.73,0A.28.28,0,0,0,80.72,302.53Z" transform="translate(-42.98 -286.56)"/><path class="cls-9" d="M84.24,305.33c0-.44.05-.84.07-1.25a.32.32,0,0,1,.17-.3c.15-.09.34-.16.23-.41,0-.09.05-.14.14-.1s.19.49,0,.59c-.42.24-.37.64-.34,1S84.59,305.18,84.24,305.33Z" transform="translate(-42.98 -286.56)"/><path class="cls-9" d="M84.37,297.26a2.15,2.15,0,0,1,1,.11c.09,0,.23,0,.16.19s-.13.17-.24.08c-.37-.29-.76-.08-1.14-.05-.1,0-.26,0-.15.2s0,.13-.1.14-.15,0-.15-.17C83.73,297.39,83.81,297.32,84.37,297.26Z" transform="translate(-42.98 -286.56)"/><path class="cls-9" d="M84.83,298.44a3.05,3.05,0,0,1-.76.22,1.81,1.81,0,0,0-.58.27.18.18,0,0,1-.27,0,.17.17,0,0,1,0-.22A2.18,2.18,0,0,1,84.83,298.44Z" transform="translate(-42.98 -286.56)"/><path class="cls-9" d="M86.52,299a2.51,2.51,0,0,1,0-.27.14.14,0,0,1,.15-.11c.07,0,.13,0,.12.1a1.2,1.2,0,0,0,.07.42c0,.15-.07.27-.25.19a.67.67,0,0,0-.58-.08.13.13,0,0,1-.16-.09c0-.08,0-.11.09-.16s.38-.05.57,0l.06,0Z" transform="translate(-42.98 -286.56)"/><path class="cls-9" d="M85,299.34c.1,0,.24,0,.26.08s-.11.15-.2.16a.72.72,0,0,0-.56.33c0,.07-.1.14-.19.08s0-.15,0-.22A.89.89,0,0,1,85,299.34Z" transform="translate(-42.98 -286.56)"/><path class="cls-9" d="M85,300.9a.65.65,0,0,1-.36-.1c-.1-.07-.26-.13-.16-.28s.18,0,.27.07a.36.36,0,0,0,.53-.1c0-.05.1-.14.19-.06s0,.15,0,.21A.8.8,0,0,1,85,300.9Z" transform="translate(-42.98 -286.56)"/><path class="cls-9" d="M83.6,299.73A.33.33,0,0,1,84,300c0,.15,0,.31-.18.36s-.17.23-.34.11a.25.25,0,0,1-.11-.23.14.14,0,0,1,.06-.11s.07,0,.08.06.1.12.17.09a.19.19,0,0,0,.1-.2c0-.09-.09-.12-.18-.12s-.22.11-.22-.08S83.5,299.74,83.6,299.73Z" transform="translate(-42.98 -286.56)"/><path class="cls-9" d="M86.22,301.89a1.24,1.24,0,0,1-.23,0c-.11,0-.3-.09-.24-.23s.18,0,.27,0,.29.06.4-.09.1-.14.18-.07,0,.15,0,.21A.43.43,0,0,1,86.22,301.89Z" transform="translate(-42.98 -286.56)"/><path class="cls-9" d="M86.67,301.16c0,.06,0,.12,0,.15s-.12-.05-.15-.11-.2-.27-.37-.08a.11.11,0,0,1-.15,0c-.07-.06,0-.12,0-.18a.34.34,0,0,1,.4-.11A.41.41,0,0,1,86.67,301.16Z" transform="translate(-42.98 -286.56)"/><path class="cls-9" d="M83.3,300.24a.36.36,0,0,0,.21.39c.06,0,.13.08.09.15s-.14,0-.21,0a.56.56,0,0,1-.3-.53c0-.1,0-.25.12-.25S83.27,300.15,83.3,300.24Z" transform="translate(-42.98 -286.56)"/><path class="cls-9" d="M85,299.73a.41.41,0,0,1,.39.14c0,.06.1.13,0,.21s-.13,0-.19,0A.19.19,0,0,0,85,300c-.09.06-.19.13-.25,0s.09-.17.17-.22Z" transform="translate(-42.98 -286.56)"/><path class="cls-9" d="M84.38,300.25c0,.18-.35.57-.53.56s-.1,0-.1-.07,0-.1,0-.11a1,1,0,0,0,.42-.42.08.08,0,0,1,.11,0A.15.15,0,0,1,84.38,300.25Z" transform="translate(-42.98 -286.56)"/><path class="cls-9" d="M85.75,300.7c.09,0,.09.1,0,.18a.4.4,0,0,0-.06.38c0,.07,0,.15-.08.16s-.1-.07-.13-.14S85.58,300.7,85.75,300.7Z" transform="translate(-42.98 -286.56)"/><path class="cls-9" d="M86.1,300.25c0,.11,0,.27-.17.31s-.12-.08-.09-.13-.11-.37.13-.43S86.09,300.13,86.1,300.25Z" transform="translate(-42.98 -286.56)"/><path class="cls-9" d="M85.89,299.68c0,.07,0,.14-.09.11s-.28-.11-.32-.27,0-.11.1-.11A.39.39,0,0,1,85.89,299.68Z" transform="translate(-42.98 -286.56)"/><path class="cls-9" d="M85,300.47c-.16,0-.29,0-.32-.2s0-.1.08-.08.34,0,.41.14S85.1,300.44,85,300.47Z" transform="translate(-42.98 -286.56)"/><path class="cls-9" d="M86.49,299.59c0,.1-.06.16-.15.15s-.15-.1-.16-.19,0-.16.12-.15S86.45,299.51,86.49,299.59Z" transform="translate(-42.98 -286.56)"/><path class="cls-9" d="M86.43,301.36a.24.24,0,0,1-.26.18c-.09,0-.19-.06-.17-.17s.21,0,.3-.12S86.42,301.28,86.43,301.36Z" transform="translate(-42.98 -286.56)"/><path class="cls-8" d="M86.52,299l0,.07-.06,0Z" transform="translate(-42.98 -286.56)"/></g></svg>