<svg id="Capa_1" data-name="Capa 1" xmlns="http://www.w3.org/2000/svg" viewBox="0 0 118.81 109.4"><defs><style>.cls-1{fill:#fae9d3;}.cls-2{fill:#df9b2d;}</style></defs><path class="cls-1" d="M877.31,303s1.51,2.26,7.91,15.06,28,15.06,33.41,20.7,12.36,22.77,22,27.58,12.69,14.52,4.78,19.07-23.71,4.18-31.81-9-16.56-22.21-28.61-25c-11-2.59-16-7-18.26-19.39s-12-21.46-18.45-25.6S863,306.19,867,317.22c7.71,21.31,25.78,33.92,31.36,33.92-17.23-11.29-29.49-37.65-34.58-42.86-9.68-9.9-15.66-12.51-15.66-12.51s10-1.86,16.42,5.67,17.43,30.43,20.33,27.11c-.24-3.32-14.68-27.48-14.68-36.14S872.29,293.6,877.31,303Z" transform="translate(-836.39 -282.49)"/><path class="cls-2" d="M922.07,376.84c-.14-7.14,6.52-10.67,13-8.51s12.39,11.25,7.18,14.21S922.2,384,922.07,376.84Z" transform="translate(-836.39 -282.49)"/><path class="cls-1" d="M953.92,377.58s.85-4.51-1.41-7.34S958.16,370.24,953.92,377.58Z" transform="translate(-836.39 -282.49)"/><path class="cls-1" d="M940.12,390.93s4.57.48,7.2-2S947.78,394.56,940.12,390.93Z" transform="translate(-836.39 -282.49)"/><path class="cls-1" d="M836.39,296.43a20.28,20.28,0,0,0,6.93,2.78C846.89,299.76,838.23,304.7,836.39,296.43Z" transform="translate(-836.39 -282.49)"/><path class="cls-1" d="M856,283.51c2-4,13.36,4.57,12,10.87C864.51,298.15,864.32,284.69,856,283.51Z" transform="translate(-836.39 -282.49)"/></svg>