<svg id="Capa_1" data-name="Capa 1" xmlns="http://www.w3.org/2000/svg" viewBox="0 0 58.83 91.55"><defs><style>.cls-1{fill:#df9b2d;}.cls-2{fill:#dda75e;}.cls-3{fill:#dbc45e;}</style></defs><path class="cls-1" d="M427.62,466.21c-.18.92-6.46,23.94.36,29.73,0,0,1.09-33.28,16.74-46.92,15.34,9,16.2,46.92,16.2,46.92,6.83-8.27.54-28.81.37-29.73,29.73,43.52-2.58,74.36-2.58,74.36H430.18S397.88,509.73,427.62,466.21Z" transform="translate(-415.04 -449.02)"/><path class="cls-2" d="M444.45,487.67c17.17,14.8,13.82,52.9,13.82,52.9h-27.9S427.27,502.47,444.45,487.67Z" transform="translate(-415.04 -449.02)"/><path class="cls-3" d="M444.27,499.66c12.37,11.44,10,40.91,10,40.91H434.12S431.89,511.1,444.27,499.66Z" transform="translate(-415.04 -449.02)"/></svg>