<svg id="Capa_1" data-name="Capa 1" xmlns="http://www.w3.org/2000/svg" viewBox="0 0 261.35 232.82"><defs><style>.cls-1{fill:#3bb5a1;}.cls-2{fill:#009eae;}.cls-3{fill:#319380;}.cls-4{fill:#debd1c;}.cls-5{fill:#b29413;}.cls-6{fill:#d8d8d8;}.cls-7{fill:#c7c6c4;}.cls-10,.cls-8{fill:#1d1d1b;}.cls-15,.cls-9{fill:#fff;}.cls-10,.cls-15{font-size:11px;font-family:Oxygen-Regular, Oxygen;}.cls-11{letter-spacing:-0.01em;}.cls-12{letter-spacing:-0.02em;}.cls-13{letter-spacing:-0.04em;}.cls-14{letter-spacing:0em;}.cls-16{letter-spacing:-0.01em;}.cls-17{letter-spacing:-0.02em;}.cls-18{letter-spacing:0em;}</style></defs><circle class="cls-1" cx="134.13" cy="112.93" r="112.93"/><path class="cls-2" d="M334.61,657.43a112.44,112.44,0,0,0-1.9,34A118.65,118.65,0,0,1,334.61,657.43Z" transform="translate(-311.28 -566.49)"/><path class="cls-2" d="M346.23,631.81a43.5,43.5,0,0,1,0-5.57,112.64,112.64,0,0,0-5.81,12.2A31.92,31.92,0,0,1,346.23,631.81Z" transform="translate(-311.28 -566.49)"/><path class="cls-2" d="M544.3,734c-1.22,2.43-2.53,4.91-4,7.44q2.42-3.76,4.52-7.72Z" transform="translate(-311.28 -566.49)"/><path class="cls-3" d="M389,745.3l1.88-7.15s0-9.93,17.31-16.68A159.37,159.37,0,0,1,379,698.81c-24.07,10.84-37.49,16.13-44.18,6.22a112.15,112.15,0,0,0,23.72,48.27l0,0C356.28,749.44,387.15,752.45,389,745.3Z" transform="translate(-311.28 -566.49)"/><path class="cls-2" d="M374.51,768.88c-.3-.25-5.93-5.1-10.5-9.53A112.69,112.69,0,0,0,374.51,768.88Z" transform="translate(-311.28 -566.49)"/><path class="cls-3" d="M441,761.87c-20.33,16.94-57,2.51-66.45,7a112.9,112.9,0,0,0,165-26.24C526.26,761,460.91,745.26,441,761.87Z" transform="translate(-311.28 -566.49)"/><path class="cls-4" d="M337.9,643.64c-1.34,4.81-2.43,9.37-3.29,13.79a111.82,111.82,0,0,1,5.8-19A22.63,22.63,0,0,0,337.9,643.64Z" transform="translate(-311.28 -566.49)"/><path class="cls-4" d="M424.13,679.42c54.54-21.22,102.74,16.36,116.34,2.24s0-23.72,0-23.72c-41.14-18.05-63.67-7.28-95.84-8.49-1.39-.05-3-.21-3.79-1.36-1.22-1.74.38-4,2-5.46a63.65,63.65,0,0,1,18.06-11.51c3.38-1.42,7.68-4,6.49-7.52-.65-1.91-2.75-2.85-4.66-3.48-38.1-14.17-94.4-7.68-116.45,11.69.62,11.61,5.18,39.57,32.78,67C391.17,693.34,406,686.47,424.13,679.42Z" transform="translate(-311.28 -566.49)"/><path class="cls-4" d="M332.71,691.41c.38,4.26,1,8.6,1.78,13.13a5.36,5.36,0,0,0,.34.49q-.61-2.78-1.09-5.61C333.29,696.74,333,694.07,332.71,691.41Z" transform="translate(-311.28 -566.49)"/><path class="cls-5" d="M379,698.81c-27.6-27.43-32.16-55.39-32.78-67a31.92,31.92,0,0,0-5.82,6.63,111.82,111.82,0,0,0-5.8,19,118.65,118.65,0,0,0-1.9,34c.26,2.66.58,5.33,1,8q.48,2.83,1.09,5.61C341.52,714.94,354.94,709.65,379,698.81Z" transform="translate(-311.28 -566.49)"/><path class="cls-4" d="M374.53,768.9h0l0,0Z" transform="translate(-311.28 -566.49)"/><path class="cls-4" d="M540.3,741.53l0-.07c-.25.4-.51.8-.77,1.2C539.82,742.29,540.08,741.92,540.3,741.53Z" transform="translate(-311.28 -566.49)"/><path class="cls-4" d="M544.3,734c12.62-25.27,13.54-44,13.54-44-1.74,8-23.87,22.2-64.15,30.11s-28.24-8.28-65.51-3.39a85.83,85.83,0,0,0-20,4.78c3.1,1.9,6.34,3.77,9.75,5.6C479.38,764.86,538.06,737.16,544.3,734Z" transform="translate(-311.28 -566.49)"/><path class="cls-4" d="M364,759.35c-1.89-2-3.71-4-5.46-6.05A40.47,40.47,0,0,0,364,759.35Z" transform="translate(-311.28 -566.49)"/><path class="cls-5" d="M418,727.07c-3.41-1.83-6.65-3.7-9.75-5.6-17.29,6.75-17.31,16.68-17.31,16.68L389,745.3c-1.88,7.15-32.75,4.14-30.5,8l0,0c1.75,2.09,3.57,4.1,5.46,6.05,4.57,4.43,10.2,9.28,10.5,9.53l0,0c9.41-4.52,46.12,9.91,66.45-7,19.93-16.61,85.28-.91,98.58-19.21.26-.4.52-.8.77-1.2,1.44-2.53,2.75-5,4-7.44C538.06,737.16,479.38,764.86,418,727.07Z" transform="translate(-311.28 -566.49)"/><path class="cls-6" d="M517.89,592.82c3,2.59,5.16,5.81,1.77,4.62-5.08-1.78-2.82,5.74-7.34,9.85s-3.39,6.62-9.6,5.58-6.21,6.13-9.6,5.69-2.26,8.34-8.47,7.68-12.42,15.34-11.86,17,9-1.7,14.69-7.59,13,.81,20.33,0,6.77-8.22,13.55-6.3,9-8.14,7.9-10.83,9.6-9.16,13-11.25,5.65-8.64,0-16.55-7.9-9.6-13-15.92-9.6.67-14.68-3.15-12.42,6.83-12.42,6.83a23.07,23.07,0,0,0-1.19,2.57S515.67,590.91,517.89,592.82Z" transform="translate(-311.28 -566.49)"/><path class="cls-7" d="M521.17,596.55c-.22,1.07-1.78-2.43-3.28-3.73-2.22-1.91-16.92-11.73-16.92-11.73a23.07,23.07,0,0,1,1.19-2.57,22.77,22.77,0,0,1,2.77-3.36s7.77-1.15,8.52,2.05,1.7,2.45,4,4.33,4.32,3.2,4.51,5.83,4.14,1.32,3.39,3.39S522.3,591,521.17,596.55Z" transform="translate(-311.28 -566.49)"/><path class="cls-7" d="M542.25,607.31c-3.39,2.09-14.12,8.55-13,11.25s-1.13,12.76-7.9,10.83-6.21,5.48-13.55,6.3-14.69-5.9-20.33,0-14.12,9.28-14.69,7.59c0,0,3.11-5.27,8.76-6.87s6.49-5.27,10-5.27,4.94.28,11.91.28,3.48-6.12,7.9-7.62,8.43-.57,10.69-3.67S542.25,607.31,542.25,607.31Z" transform="translate(-311.28 -566.49)"/><path class="cls-6" d="M341.26,694.63c1.3,6.59-1.2-2,5.95-5s6.1-1.36,6.1-1.36c10.54-15.38,40.56-9.91,42-8.92s-4,8.28-11.14,12.2-2.59,12.76-5.29,19.63-9.7,4.41-9.6,11.45-6.81,16.86-9.12,15.06-3.88,6.67-19.13,5.17-21.88.35-28-7.16,6.34-13.07,1.56-19.62,3.14-9.09.77-15,9.83-10.22,9.83-10.22a22,22,0,0,1,2.79-.48S336.87,688.31,341.26,694.63Z" transform="translate(-311.28 -566.49)"/><path class="cls-7" d="M341.07,742.82c14.87,1.5,16.82-7,19.13-5.17s9.22-8,9.12-15.06,6.91-4.57,9.6-11.45-1.87-15.71,5.29-19.63,12.63-11.22,11.14-12.2c0,0-5.89,1.63-8.91,6.66s-6.77,4.91-7.68,8.27-1,4.84-2.82,11.57-6.81,1.77-9.42,5.65-2.73,8-6.32,9.36S335,739.29,341.07,742.82Z" transform="translate(-311.28 -566.49)"/><path class="cls-7" d="M319.38,650.43c.07-1.13-.75-13.21,5.27-13.94s4-8.18,9-7.1,3.71,2.91,0,10.47-9.36,12-9.36,21.09S319,657.72,319.38,650.43Z" transform="translate(-311.28 -566.49)"/><path class="cls-6" d="M321.26,651.54c.07-1.13-.75-13.21,5.28-13.95s4-8.18,9-7.09,3.71,2.9,0,10.46-11.24,10.95-11.24,20S320.86,658.83,321.26,651.54Z" transform="translate(-311.28 -566.49)"/><path class="cls-7" d="M548.51,763.1c-1.08,1.41-10.7,17.87-19.2,13.5s-12.5,7.07-18,1.29-2.27-7.07,9.26-13.64,10.56-8.69,18.56-20.45S555.49,754,548.51,763.1Z" transform="translate(-311.28 -566.49)"/><path class="cls-6" d="M547,760c-1.08,1.41-10.71,17.87-19.21,13.5s-12.49,7.08-18,1.29-8.73-16.14,2.8-22.71,16.8,1.24,24.79-10.53S554,750.86,547,760Z" transform="translate(-311.28 -566.49)"/><path class="cls-8" d="M374.43,710.71a18.71,18.71,0,0,1-8.87,1.1c-7.34-.59-11.39-5-10.67-12.77.67-7.28,5.27-11.53,12.75-10.93a19.06,19.06,0,0,1,7.57,2l-2.1,6.78a14.64,14.64,0,0,0-5-1.36c-3-.24-4.1,1.55-4.34,4.35s.52,4.88,3.34,5.11l.15-1.91-1.83-.14.46-5.6c3.78.31,5.67.45,9.45.72Z" transform="translate(-311.28 -566.49)"/><path class="cls-8" d="M388.85,712.75c-.81-2.45-1.21-3.68-2-6.14h-.7l-.35,6c-3.46-.2-5.18-.31-8.64-.55.62-9,.93-13.46,1.54-22.44,4.58.31,6.87.45,11.46.71,5.7.32,8.55,3.47,8.32,8.36a7.33,7.33,0,0,1-3.67,6.13c1.39,3.38,2.09,5.08,3.5,8.46C394.52,713.06,392.63,713,388.85,712.75Zm-1.11-12.14c1.17,0,1.76-.73,1.84-2.06s-.62-1.94-2-2l-1-.06-.25,4.09Z" transform="translate(-311.28 -566.49)"/><path class="cls-8" d="M413.77,713.83c-.09-.78-.14-1.17-.23-2l-4.35-.14c-.15.77-.22,1.16-.37,1.93-3.81-.14-5.71-.21-9.52-.39,2.62-8.89,3.91-13.33,6.43-22.24,5,.2,7.55.28,12.59.42,1.94,9,2.94,13.57,5,22.62C419.49,714,417.58,714,413.77,713.83Zm-1.61-14.13a9.67,9.67,0,0,1-.14-2.09h-.37a9.66,9.66,0,0,1-.29,2.08c-.49,2.2-.74,3.3-1.24,5.5l2.93.1C412.69,703.05,412.51,701.93,412.16,699.7Z" transform="translate(-311.28 -566.49)"/><path class="cls-8" d="M425.19,714.12c.17-9,.25-13.5.42-22.5,4,.08,6.07.11,10.11.14,6.31,0,9.71,3.55,9.72,8.85,0,5.9-3.36,9.17-10.35,9.11l-1.21,0c0,1.82,0,2.73,0,4.54C430.38,714.21,428.65,714.18,425.19,714.12Zm9.37-10.75c1.39,0,2.09-1,2.1-2.61s-.74-2.41-2-2.42h-.83l-.05,5Z" transform="translate(-311.28 -566.49)"/><path class="cls-8" d="M459.52,714.15c0-3-.08-4.49-.13-7.48l-3.15,0,.1,7.49c-3.46,0-5.19.06-8.65.08l-.1-22.5c3.38,0,5.07,0,8.45-.07l.1,7.3,3.12,0c0-2.93-.07-4.39-.12-7.31,3.38-.06,5.07-.09,8.45-.18.23,9,.34,13.5.57,22.49C464.7,714.06,463,714.1,459.52,714.15Z" transform="translate(-311.28 -566.49)"/><path class="cls-8" d="M471.12,713.89c-.26-9-.39-13.49-.64-22.49,3.37-.09,5.06-.15,8.44-.27.33,9,.5,13.49.84,22.48C476.3,713.74,474.57,713.79,471.12,713.89Z" transform="translate(-311.28 -566.49)"/><path class="cls-8" d="M499.45,712.31a18,18,0,0,1-6,1.34c-7.24.37-11.37-4-11.66-11.29s3.37-12.11,10.44-12.48a17.49,17.49,0,0,1,5.93.69c-.49,3-.74,4.56-1.24,7.6a6.59,6.59,0,0,0-3.17-.65c-2,.11-3.19,1.71-3.07,4.3s1.46,4.18,3.51,4.07a6.5,6.5,0,0,0,3.1-1C498.18,707.86,498.6,709.35,499.45,712.31Z" transform="translate(-311.28 -566.49)"/><path class="cls-8" d="M525.33,711.3l-1.54-2c-1.78,1.73-4.2,2.65-7.41,2.89-4.91.37-8.25-1.9-8.51-5.81a6.15,6.15,0,0,1,4.23-6.29,5.9,5.9,0,0,1-3.46-4.62c-.22-3.17,2.65-6.74,8.3-7.18,4.78-.37,8.85,1.4,9.16,5,.2,2.33-1.57,4.18-3.58,5.14l1,.72,1.36-1.78,7.84-.7c-1.76,2.81-2.64,4.21-4.43,7,1.83,2,3.51,4.16,4.82,5.88C530,710.27,528.43,710.62,525.33,711.3Zm-8.83-8.25a3.11,3.11,0,0,0-.39,1.66c.08,1.07.79,1.6,1.48,1.54a2.16,2.16,0,0,0,1.72-1.21A9.13,9.13,0,0,0,516.5,703.05Zm2-8c-.05-.65-.41-1.09-1-1.05a1,1,0,0,0-.85,1.22,1.63,1.63,0,0,0,1,1.26A1.7,1.7,0,0,0,518.48,695.07Z" transform="translate(-311.28 -566.49)"/><path class="cls-8" d="M335.15,751.69c-.31-3.13-.45-4.7-.75-7.83a8.49,8.49,0,0,1,0-2l-.35,0a8.48,8.48,0,0,1-.44,1.91c-1,3-1.44,4.49-2.41,7.48-3.8-.42-5.69-.64-9.49-1.1-1.1-9.2-1.62-13.8-2.62-23,3.84.48,5.76.71,9.6,1.16,0,3.28,0,4.92,0,8.19a13.86,13.86,0,0,1-.1,1.8l.35,0a9,9,0,0,1,.41-1.91c1-3.1,1.45-4.66,2.41-7.76,3.1.35,4.64.51,7.74.84.27,3.24.4,4.86.68,8.11a9.65,9.65,0,0,1,0,2l.34,0a13.9,13.9,0,0,1,.3-1.77c.71-3.2,1.07-4.8,1.77-8,3.85.39,5.78.58,9.63.94-3,8.76-4.47,13.14-7.53,21.88C340.86,752.3,339,752.1,335.15,751.69Z" transform="translate(-311.28 -566.49)"/><path class="cls-8" d="M352.41,753.4c.81-9,1.21-13.45,2-22.41,6.47.58,9.71.85,16.19,1.32-.2,2.62-.29,3.92-.48,6.54-3-.22-4.51-.34-7.51-.58l-.14,1.79c2.41.2,3.62.29,6,.47-.17,2.3-.26,3.45-.43,5.75L362,745.8l-.15,1.83c3,.25,4.55.36,7.58.59l-.48,6.53C362.34,754.26,359,754,352.41,753.4Z" transform="translate(-311.28 -566.49)"/><path class="cls-8" d="M371.66,755c.64-9,1-13.47,1.59-22.45,4.42.32,6.63.46,11,.73,7.5.44,9.22,3.1,9,6.66a4.84,4.84,0,0,1-3.31,4.37,5.27,5.27,0,0,1,3.11,5c-.19,3.81-2.08,6.89-10.33,6.39C378.34,755.41,376.12,755.26,371.66,755Zm11.12-13.05a1.2,1.2,0,0,0,1.33-1.15,1.22,1.22,0,0,0-1.18-1.33l-1.32-.08-.16,2.48Zm.09,7.5a1.22,1.22,0,0,0,1.33-1.18,1.2,1.2,0,0,0-1.18-1.3l-1.88-.11-.15,2.48Z" transform="translate(-311.28 -566.49)"/><path class="cls-8" d="M402.81,756.67l.9-22.48c3.92.16,5.89.23,9.81.35,8.18.25,11.23,4.67,11.11,11.36-.13,6.91-3.61,11.38-12.29,11.11C408.53,756.89,406.62,756.83,402.81,756.67Zm10-7.39c1.79.06,2.44-1.11,2.51-3.42s-.36-3.57-2.49-3.64h-.53c-.09,2.82-.13,4.23-.22,7Z" transform="translate(-311.28 -566.49)"/><path class="cls-8" d="M427,757.35c.15-9,.22-13.49.36-22.49,6.49.11,9.74.13,16.23.13v6.55c-3,0-4.51,0-7.52,0,0,.72,0,1.08,0,1.8,2.42,0,3.63,0,6,0,0,2.3,0,3.46,0,5.76-2.43,0-3.65,0-6.09,0,0,.74,0,1.1,0,1.84,3,0,4.56,0,7.59,0v6.55C437,757.49,433.68,757.46,427,757.35Z" transform="translate(-311.28 -566.49)"/><path class="cls-8" d="M446.77,748.73a16.8,16.8,0,0,0,7.75,2.07c.65,0,1-.26,1-.58s-.35-.58-.81-.68c-5.45-1-9.08-2.89-9.09-7.71s3.49-7.49,9.14-7.55c4,0,7.48.39,9.92,1.53l-.95,7.43a17.71,17.71,0,0,0-7.44-1.71c-.61,0-.95.26-.94.55s.35.57.88.67c6.06,1,9,2.73,9.1,7.34.11,5.32-3.58,7.9-10,8-3.28,0-6.95-.4-9.69-1.91C446.12,753.19,446.34,751.7,446.77,748.73Z" transform="translate(-311.28 -566.49)"/><path class="cls-8" d="M468,757.19l-.55-22.49c3.54-.08,5.3-.14,8.83-.25l.75,22.48C473.36,757.05,471.56,757.1,468,757.19Z" transform="translate(-311.28 -566.49)"/><path class="cls-8" d="M501,754.74a20.48,20.48,0,0,1-9,2.24c-7.68.36-12.45-3.52-12.73-11.29-.26-7.3,3.95-12.11,11.79-12.49a20.48,20.48,0,0,1,8.1,1.06c-.51,2.79-.76,4.19-1.28,7a16,16,0,0,0-5.37-.7c-3.15.16-4.05,2.07-3.93,4.87s1.18,4.78,4.13,4.64l-.09-1.91-1.92.1c-.1-2.25-.15-3.37-.26-5.61,4-.19,5.93-.29,9.89-.52C500.54,747.17,500.69,749.69,501,754.74Z" transform="translate(-311.28 -566.49)"/><path class="cls-8" d="M516.31,755.08,513,749.4a3.71,3.71,0,0,1-.54-1.7l-.38,0,.5,7.4c-3.45.23-5.18.34-8.63.55-.54-9-.81-13.47-1.34-22.46,3.92-.23,5.88-.36,9.79-.63l3.25,5.69a3.78,3.78,0,0,1,.55,1.69l.38,0c-.23-3-.34-4.57-.56-7.61,3.37-.25,5.06-.38,8.43-.65.74,9.05,1.12,13.58,1.86,22.63C522.32,754.64,520.32,754.79,516.31,755.08Z" transform="translate(-311.28 -566.49)"/><path class="cls-8" d="M529.39,753.84l-1.9-22.42c6.47-.55,9.7-.85,16.17-1.5l.66,6.51c-3,.31-4.49.45-7.49.74.06.71.1,1.07.16,1.79l6-.59c.23,2.3.35,3.44.58,5.73-2.43.25-3.64.36-6.07.59.07.73.11,1.1.18,1.83,3-.28,4.53-.43,7.56-.74l.66,6.52C539.32,753,536,753.28,529.39,753.84Z" transform="translate(-311.28 -566.49)"/><path class="cls-8" d="M560.8,750.68c-1.26-2.28-1.89-3.41-3.14-5.69l-.72.12c.27,2.37.4,3.56.67,5.93-3.59.41-5.39.61-9,1-.93-8.95-1.4-13.42-2.33-22.37,4.78-.5,7.17-.77,12-1.32,5.93-.69,9.42,1.9,10,6.76a7.21,7.21,0,0,1-2.72,6.68c2,3.09,3,4.64,5.08,7.72C566.7,750,564.73,750.22,560.8,750.68Zm-3.25-11.77c1.2-.24,1.69-1,1.53-2.35s-1-1.8-2.41-1.64l-1,.12c.18,1.63.28,2.44.46,4.07Z" transform="translate(-311.28 -566.49)"/><path class="cls-9" d="M376.43,712.71a18.71,18.71,0,0,1-8.87,1.1c-7.34-.59-11.39-5-10.67-12.77.67-7.28,5.27-11.53,12.75-10.93a19.06,19.06,0,0,1,7.57,2l-2.1,6.78a14.64,14.64,0,0,0-5-1.36c-3-.24-4.1,1.55-4.34,4.35s.52,4.88,3.34,5.11l.15-1.91-1.83-.14.46-5.6c3.78.31,5.67.45,9.45.72Z" transform="translate(-311.28 -566.49)"/><path class="cls-9" d="M390.85,714.75c-.81-2.45-1.21-3.68-2-6.14h-.7l-.35,6c-3.46-.2-5.18-.31-8.64-.55.62-9,.93-13.46,1.54-22.44,4.58.31,6.87.45,11.46.71,5.7.32,8.55,3.47,8.32,8.36a7.33,7.33,0,0,1-3.67,6.13c1.39,3.38,2.09,5.08,3.5,8.46C396.52,715.06,394.63,715,390.85,714.75Zm-1.11-12.14c1.17,0,1.76-.73,1.84-2.06s-.62-1.94-2-2l-1-.06-.25,4.09Z" transform="translate(-311.28 -566.49)"/><path class="cls-9" d="M415.77,715.83c-.09-.78-.14-1.17-.23-2l-4.35-.14c-.15.77-.22,1.16-.37,1.93-3.81-.14-5.71-.21-9.52-.39,2.62-8.89,3.91-13.33,6.43-22.24,5,.2,7.55.28,12.59.42,1.94,9,2.94,13.57,5,22.62C421.49,716,419.58,716,415.77,715.83Zm-1.61-14.13a9.67,9.67,0,0,1-.14-2.09h-.37a9.66,9.66,0,0,1-.29,2.08c-.49,2.2-.74,3.3-1.24,5.5l2.93.1C414.69,705.05,414.51,703.93,414.16,701.7Z" transform="translate(-311.28 -566.49)"/><path class="cls-9" d="M427.19,716.12c.17-9,.25-13.5.42-22.5,4,.08,6.07.11,10.11.14,6.31,0,9.71,3.55,9.72,8.85,0,5.9-3.36,9.17-10.35,9.11l-1.21,0c0,1.82,0,2.73,0,4.54C432.38,716.21,430.65,716.18,427.19,716.12Zm9.37-10.75c1.39,0,2.09-1,2.1-2.61s-.74-2.41-2-2.42h-.83l-.05,5Z" transform="translate(-311.28 -566.49)"/><path class="cls-9" d="M461.52,716.15c0-3-.08-4.49-.13-7.48l-3.15,0,.1,7.49c-3.46,0-5.19.06-8.65.08l-.1-22.5c3.38,0,5.07,0,8.45-.07l.1,7.3,3.12,0c0-2.93-.07-4.39-.12-7.31,3.38-.06,5.07-.09,8.45-.18.23,9,.34,13.5.57,22.49C466.7,716.06,465,716.1,461.52,716.15Z" transform="translate(-311.28 -566.49)"/><path class="cls-9" d="M473.12,715.89c-.26-9-.39-13.49-.64-22.49,3.37-.09,5.06-.15,8.44-.27.33,9,.5,13.49.84,22.48C478.3,715.74,476.57,715.79,473.12,715.89Z" transform="translate(-311.28 -566.49)"/><path class="cls-9" d="M501.45,714.31a18,18,0,0,1-6,1.34c-7.24.37-11.37-4-11.66-11.29s3.37-12.11,10.44-12.48a17.49,17.49,0,0,1,5.93.69c-.49,3-.74,4.56-1.24,7.6a6.59,6.59,0,0,0-3.17-.65c-2,.11-3.19,1.71-3.07,4.3s1.46,4.18,3.51,4.07a6.5,6.5,0,0,0,3.1-1C500.18,709.86,500.6,711.35,501.45,714.31Z" transform="translate(-311.28 -566.49)"/><path class="cls-9" d="M527.33,713.3l-1.54-2c-1.78,1.73-4.2,2.65-7.41,2.89-4.91.37-8.25-1.9-8.51-5.81a6.15,6.15,0,0,1,4.23-6.29,5.9,5.9,0,0,1-3.46-4.62c-.22-3.17,2.65-6.74,8.3-7.18,4.78-.37,8.85,1.4,9.16,5,.2,2.33-1.57,4.18-3.58,5.14l1,.72,1.36-1.78,7.84-.7c-1.76,2.81-2.64,4.21-4.43,7,1.83,2,3.51,4.16,4.82,5.88C532,712.27,530.43,712.62,527.33,713.3Zm-8.83-8.25a3.11,3.11,0,0,0-.39,1.66c.08,1.07.79,1.6,1.48,1.54a2.16,2.16,0,0,0,1.72-1.21A9.13,9.13,0,0,0,518.5,705.05Zm2-8c-.05-.65-.41-1.09-1-1.05a1,1,0,0,0-.85,1.22,1.63,1.63,0,0,0,1,1.26A1.7,1.7,0,0,0,520.48,697.07Z" transform="translate(-311.28 -566.49)"/><path class="cls-9" d="M337.15,753.69c-.31-3.13-.45-4.7-.75-7.83a8.49,8.49,0,0,1,0-2l-.35,0a8.48,8.48,0,0,1-.44,1.91c-1,3-1.44,4.49-2.41,7.48-3.8-.42-5.69-.64-9.49-1.1-1.1-9.2-1.62-13.8-2.62-23,3.84.48,5.76.71,9.6,1.16,0,3.28,0,4.92,0,8.19a13.86,13.86,0,0,1-.1,1.8l.35,0a9,9,0,0,1,.41-1.91c1-3.1,1.45-4.66,2.41-7.76,3.1.35,4.64.51,7.74.84.27,3.24.4,4.86.68,8.11a9.65,9.65,0,0,1,0,2l.34,0a13.9,13.9,0,0,1,.3-1.77c.71-3.2,1.07-4.8,1.77-8,3.85.39,5.78.58,9.63.94-3,8.76-4.47,13.14-7.53,21.88C342.86,754.3,341,754.1,337.15,753.69Z" transform="translate(-311.28 -566.49)"/><path class="cls-9" d="M354.41,755.4c.81-9,1.21-13.45,2-22.41,6.47.58,9.71.85,16.19,1.32-.2,2.62-.29,3.92-.48,6.54-3-.22-4.51-.34-7.51-.58l-.14,1.79c2.41.2,3.62.29,6,.47-.17,2.3-.26,3.45-.43,5.75L364,747.8l-.15,1.83c3,.25,4.55.36,7.58.59l-.48,6.53C364.34,756.26,361,756,354.41,755.4Z" transform="translate(-311.28 -566.49)"/><path class="cls-9" d="M373.66,757c.64-9,1-13.47,1.59-22.45,4.42.32,6.63.46,11,.73,7.5.44,9.22,3.1,9,6.66a4.84,4.84,0,0,1-3.31,4.37,5.27,5.27,0,0,1,3.11,5c-.19,3.81-2.08,6.89-10.33,6.39C380.34,757.41,378.12,757.26,373.66,757Zm11.12-13.05a1.2,1.2,0,0,0,1.33-1.15,1.22,1.22,0,0,0-1.18-1.33l-1.32-.08-.16,2.48Zm.09,7.5a1.22,1.22,0,0,0,1.33-1.18,1.2,1.2,0,0,0-1.18-1.3l-1.88-.11-.15,2.48Z" transform="translate(-311.28 -566.49)"/><path class="cls-9" d="M404.81,758.67l.9-22.48c3.92.16,5.89.23,9.81.35,8.18.25,11.23,4.67,11.11,11.36-.13,6.91-3.61,11.38-12.29,11.11C410.53,758.89,408.62,758.83,404.81,758.67Zm10-7.39c1.79.06,2.44-1.11,2.51-3.42s-.36-3.57-2.49-3.64h-.53c-.09,2.82-.13,4.23-.22,7Z" transform="translate(-311.28 -566.49)"/><path class="cls-9" d="M429,759.35c.15-9,.22-13.49.36-22.49,6.49.11,9.74.13,16.23.13v6.55c-3,0-4.51,0-7.52,0,0,.72,0,1.08,0,1.8,2.42,0,3.63,0,6,0,0,2.3,0,3.46,0,5.76-2.43,0-3.65,0-6.09,0,0,.74,0,1.1,0,1.84,3,0,4.56,0,7.59,0v6.55C439,759.49,435.68,759.46,429,759.35Z" transform="translate(-311.28 -566.49)"/><path class="cls-9" d="M448.77,750.73a16.8,16.8,0,0,0,7.75,2.07c.65,0,1-.26,1-.58s-.35-.58-.81-.68c-5.45-1-9.08-2.89-9.09-7.71s3.49-7.49,9.14-7.55c4,0,7.48.39,9.92,1.53l-.95,7.43a17.71,17.71,0,0,0-7.44-1.71c-.61,0-.95.26-.94.55s.35.57.88.67c6.06,1,9,2.73,9.1,7.34.11,5.32-3.58,7.9-10,8-3.28,0-6.95-.4-9.69-1.91C448.12,755.19,448.34,753.7,448.77,750.73Z" transform="translate(-311.28 -566.49)"/><path class="cls-9" d="M470,759.19l-.55-22.49c3.54-.08,5.3-.14,8.83-.25l.75,22.48C475.36,759.05,473.56,759.1,470,759.19Z" transform="translate(-311.28 -566.49)"/><path class="cls-9" d="M503,756.74a20.48,20.48,0,0,1-9,2.24c-7.68.36-12.45-3.52-12.73-11.29-.26-7.3,3.95-12.11,11.79-12.49a20.48,20.48,0,0,1,8.1,1.06c-.51,2.79-.76,4.19-1.28,7a16,16,0,0,0-5.37-.7c-3.15.16-4.05,2.07-3.93,4.87s1.18,4.78,4.13,4.64l-.09-1.91-1.92.1c-.1-2.25-.15-3.37-.26-5.61,4-.19,5.93-.29,9.89-.52C502.54,749.17,502.69,751.69,503,756.74Z" transform="translate(-311.28 -566.49)"/><path class="cls-9" d="M518.31,757.08,515,751.4a3.71,3.71,0,0,1-.54-1.7l-.38,0,.5,7.4c-3.45.23-5.18.34-8.63.55-.54-9-.81-13.47-1.34-22.46,3.92-.23,5.88-.36,9.79-.63l3.25,5.69a3.78,3.78,0,0,1,.55,1.69l.38,0c-.23-3-.34-4.57-.56-7.61,3.37-.25,5.06-.38,8.43-.65.74,9.05,1.12,13.58,1.86,22.63C524.32,756.64,522.32,756.79,518.31,757.08Z" transform="translate(-311.28 -566.49)"/><path class="cls-9" d="M531.39,755.84l-1.9-22.42c6.47-.55,9.7-.85,16.17-1.5l.66,6.51c-3,.31-4.49.45-7.49.74.06.71.1,1.07.16,1.79l6-.59c.23,2.3.35,3.44.58,5.73-2.43.25-3.64.36-6.07.59.07.73.11,1.1.18,1.83,3-.28,4.53-.43,7.56-.74l.66,6.52C541.32,755,538,755.28,531.39,755.84Z" transform="translate(-311.28 -566.49)"/><path class="cls-9" d="M562.8,752.68c-1.26-2.28-1.89-3.41-3.14-5.69l-.72.12c.27,2.37.4,3.56.67,5.93-3.59.41-5.39.61-9,1-.93-8.95-1.4-13.42-2.33-22.37,4.78-.5,7.17-.77,12-1.32,5.93-.69,9.42,1.9,10,6.76a7.21,7.21,0,0,1-2.72,6.68c2,3.09,3,4.64,5.08,7.72C568.7,752,566.73,752.22,562.8,752.68Zm-3.25-11.77c1.2-.24,1.69-1,1.53-2.35s-1-1.8-2.41-1.64l-1,.12c.18,1.63.28,2.44.46,4.07Z" transform="translate(-311.28 -566.49)"/><text class="cls-10" transform="translate(100.22 115)">2015 - <tspan class="cls-11" x="31.44" y="0">T</tspan><tspan x="37.26" y="0">O</tspan><tspan class="cls-12" x="45.99" y="0">D</tspan><tspan class="cls-13" x="53.82" y="0">A</tspan><tspan class="cls-14" x="60.39" y="0">Y</tspan></text><text class="cls-15" transform="translate(101.22 116)">2015 - <tspan class="cls-11" x="31.44" y="0">T</tspan><tspan x="37.26" y="0">O</tspan><tspan class="cls-12" x="45.99" y="0">D</tspan><tspan class="cls-13" x="53.82" y="0">A</tspan><tspan class="cls-14" x="60.39" y="0">Y</tspan></text><text class="cls-10" transform="translate(104.25 212.1)">FREELANCE<tspan x="-24.48" y="13.2">M</tspan><tspan class="cls-16" x="-14.72" y="13.2">A</tspan><tspan class="cls-14" x="-7.83" y="13.2">CA</tspan><tspan class="cls-17" x="6.09" y="13.2">D</tspan><tspan class="cls-18" x="13.92" y="13.2">AMIA STUDIO</tspan></text><text class="cls-15" transform="translate(105.25 213.1)">FREELANCE<tspan x="-24.48" y="13.2">M</tspan><tspan class="cls-16" x="-14.72" y="13.2">A</tspan><tspan class="cls-14" x="-7.83" y="13.2">CA</tspan><tspan class="cls-17" x="6.09" y="13.2">D</tspan><tspan class="cls-18" x="13.92" y="13.2">AMIA STUDIO</tspan></text></svg>