<svg id="Capa_1" data-name="Capa 1" xmlns="http://www.w3.org/2000/svg" viewBox="0 0 262.15 83.59"><defs><style>.cls-1{fill:#26add2;}.cls-2{fill:#f2eed0;}.cls-3,.cls-4,.cls-9{fill:#90cbaa;}.cls-3,.cls-6,.cls-8{stroke:#2c0d0f;stroke-width:0.5px;}.cls-3,.cls-6,.cls-8,.cls-9{stroke-miterlimit:10;}.cls-5,.cls-6{fill:#4e9886;}.cls-7{fill:#c42f20;}.cls-8{fill:#dadada;}.cls-9{stroke:#4e9886;}.cls-10{fill:#2c0d0f;}</style></defs><path class="cls-1" d="M1356.4,167.29a16.49,16.49,0,0,0-5.48-.06s.07,2.29,4.42,4Z" transform="translate(-1294.47 -130.2)"/><path class="cls-1" d="M1355.4,171.5a16.52,16.52,0,0,0-5.48-.06s.06,2.28,4.41,4Z" transform="translate(-1294.47 -130.2)"/><path class="cls-1" d="M1354.88,176.17a16.62,16.62,0,0,0-5.33,1.31s.65,2.2,5.29,2.78Z" transform="translate(-1294.47 -130.2)"/><path class="cls-1" d="M1354.88,180.68a16.79,16.79,0,0,0-5,2.23s1,2.05,5.7,1.81Z" transform="translate(-1294.47 -130.2)"/><path class="cls-1" d="M1356.6,184.83a16.64,16.64,0,0,0-4,3.78s1.65,1.59,6-.21Z" transform="translate(-1294.47 -130.2)"/><path class="cls-2" d="M1356.14,166.81s-10,13.41,3.95,23.58c2.4,1.29,8.61.15,14.27-8,1.11-2.12-1.62-11.86-1.62-11.86S1368.85,164.69,1356.14,166.81Z" transform="translate(-1294.47 -130.2)"/><path class="cls-3" d="M1296.7,130.53s83.57,2.82,85.83,2.82,40.94,19.2,40.94,19.2l-50.25,10.73s-4-11.86-9-14.12S1296.7,130.53,1296.7,130.53Z" transform="translate(-1294.47 -130.2)"/><path class="cls-4" d="M1373.22,166.1a22.84,22.84,0,0,0-1.42,9.32c.29,5.37,5.09,13.27,5.09,13.27s19.2,10.17,57.88,10.17,59.57,0,63.81-1.42,16.38-7.34,20.89-11.57,14.12-6.78,20.9-7.91a86.15,86.15,0,0,1,14.68-.85s3.11-1.69,0-3.38-28.8-20.62-79.62-22.31S1373.22,166.1,1373.22,166.1Z" transform="translate(-1294.47 -130.2)"/><path class="cls-5" d="M1371.8,175.42s15.58,9.91,20.62,11.27,90.63-2.38,99.38-5,10.59-4.44,10.59-4.44l45.7-.1s-19,.71-28.62,8.71c-6.87,5.74-16.44,12.21-27.65,12.42-13.28,1-98,.57-98,.57l-3.81-5.45s-11.48-2.57-13.1-4.72A27.3,27.3,0,0,1,1371.8,175.42Z" transform="translate(-1294.47 -130.2)"/><path class="cls-2" d="M1383.66,189.07a84.2,84.2,0,0,1,39.81-7.16c18.07,1.42,16.85,5.28,16.85,7.16a3.92,3.92,0,0,1-3,2.16s-45.55-1-48.85,0S1382,191.51,1383.66,189.07Z" transform="translate(-1294.47 -130.2)"/><polygon class="cls-6" points="81 73.74 105.8 66.68 107.26 72.33 81 73.74"/><path class="cls-6" d="M1388.46,191.23a93.66,93.66,0,0,1,35-7.06c19.49,0,13.84,7.06,13.84,7.06s-11.29,16.94-12.42,17.51-2.26,2.26-13.27,3.1-49.13,1.7-49.13,1.7l33-7.34s4.52-.85.57-4.8A61,61,0,0,1,1388.46,191.23Z" transform="translate(-1294.47 -130.2)"/><path class="cls-7" d="M1371.77,176.55c-.39-1.69,2.45-2.53,8.66-2.47l174.62-.35a1.69,1.69,0,0,1,0,3.38l-179.58,1.23S1372.16,178.24,1371.77,176.55Z" transform="translate(-1294.47 -130.2)"/><circle class="cls-8" cx="180.67" cy="16.64" r="3.8"/><path class="cls-6" d="M1469.85,148.39a.86.86,0,0,1,.31-1.69s8.26.47,9.6,0,2.14,1.39.26,1.7S1471.22,149,1469.85,148.39Z" transform="translate(-1294.47 -130.2)"/><path class="cls-6" d="M1468.24,150.29c-1.79-.6-.53-1.83.4-1.69,0,0,10.85.46,12.61,0s2.81,1.39.34,1.7S1470,150.89,1468.24,150.29Z" transform="translate(-1294.47 -130.2)"/><path class="cls-6" d="M1466.67,152.23c-2.23-.6-.65-1.83.49-1.69,0,0,13.45.46,15.64,0s3.48,1.39.42,1.7S1468.89,152.83,1466.67,152.23Z" transform="translate(-1294.47 -130.2)"/><path class="cls-2" d="M1373.22,163.5c45.72-9.9,45.23-9.81,50.25-10.73,4.38-.8,4.47,2,.93,2.67-2.54.64-50,10.64-51.18,10.88S1370.58,164.63,1373.22,163.5Z" transform="translate(-1294.47 -130.2)"/><path class="cls-8" d="M1525.3,162l4.8-.7s10.62,4.19,12.42,5.38l-5.65.26a53.46,53.46,0,0,0-8.61-1.41l-3.53-.14Z" transform="translate(-1294.47 -130.2)"/><ellipse class="cls-9" cx="169.28" cy="30.81" rx="3.85" ry="3.25"/><ellipse class="cls-9" cx="192.5" cy="30.81" rx="2.67" ry="2.25"/><ellipse class="cls-9" cx="210.08" cy="31.39" rx="2.17" ry="1.83"/><ellipse class="cls-9" cx="1518.81" cy="162.43" rx="1.72" ry="1.83" transform="translate(-1141.98 715.11) rotate(-32.66)"/><path class="cls-10" d="M1356.14,166.81s-10.87,13.72,4,23.67a4,4,0,0,0,1.81.36c.26,0-13.28-9.54-4.63-24.2Z" transform="translate(-1294.47 -130.2)"/></svg>