<svg id="Capa_1" data-name="Capa 1" xmlns="http://www.w3.org/2000/svg" viewBox="0 0 289.53 59.31"><defs><style>.cls-1{fill:#f9b233;}.cls-2{fill:#df9b2d;}</style></defs><path class="cls-1" d="M273.34,553.37a88.67,88.67,0,0,1,3.15,15.56c7.08,2.22,11.27,4.83,11.27,7.5,0,9-45.31,16.31-101.19,16.31s-101.19-7.3-101.19-16.31c0-3.4,6.44-6.55,17.47-9.16a11.36,11.36,0,0,1,.4-1.89,48.72,48.72,0,0,1,3-13.88c-39.46,5.76-65.53,15.71-65.53,27,0,17.83,64.81,32.29,144.77,32.29s144.76-14.46,144.76-32.29C330.23,568.08,307.83,559.27,273.34,553.37Z" transform="translate(-40.7 -551.5)"/><path class="cls-2" d="M103.17,551.94a22,22,0,0,0-3.08,16l2.76-.66,3.38-15.77Z" transform="translate(-40.7 -551.5)"/><path class="cls-2" d="M276.46,553.91a22,22,0,0,1,3.07,16l-2.75-.66-3.39-15.77Z" transform="translate(-40.7 -551.5)"/></svg>