<svg id="Capa_1" data-name="Capa 1" xmlns="http://www.w3.org/2000/svg" viewBox="0 0 497.26 115.86"><defs><style>.cls-1{fill:#f5d6a6;}</style></defs><path class="cls-1" d="M861.59,652.14s2.61,8.07,4,12.64h0c48.41,8.87,79.91,24.3,79.91,45.56,0,23-86.17,34.74-192.47,34.74s-192.46-11.69-192.46-34.74c0-19.64,31.41-35.39,79.7-44.78l4.25-13.42c-82.94,10.48-140.12,32.6-140.12,58.2,0,35.71,111.32,57.66,248.63,57.66s248.63-22,248.63-57.66C1001.71,684.74,944.54,662.62,861.59,652.14Z" transform="translate(-504.45 -652.14)"/><path class="cls-1" d="M868.29,678.48a18.54,18.54,0,0,1,.46,3c15.14,4.77,24,10.54,24,16.76,0,16.33-61,22.56-136.31,22.56s-136.3-6.23-136.3-22.56c0-5.06,6.87-9.83,17.22-14l.47-5.74c-33.17,6.7-53.92,16.25-53.92,26.86,0,20.26,75.73,29.68,169.15,29.68s169.16-9.42,169.16-29.68C922.24,694.73,901.48,685.18,868.29,678.48Z" transform="translate(-504.45 -652.14)"/></svg>