<svg id="Capa_1" data-name="Capa 1" xmlns="http://www.w3.org/2000/svg" viewBox="0 0 232.49 233.41"><defs><style>.cls-1{fill:#9d4b97;}.cls-2{fill:#854183;}.cls-3{fill:#ba95ba;}.cls-4{fill:#d8d8d8;}.cls-5,.cls-6{fill:none;stroke-miterlimit:10;}.cls-5{stroke:#ba95ba;}.cls-6{stroke:#9d4b97;}.cls-7{fill:#a8a7a7;}.cls-10,.cls-8{fill:#1d1d1b;}.cls-9{fill:#fff;}.cls-10{font-size:11px;font-family:Oxygen-Regular, Oxygen;}</style></defs><circle class="cls-1" cx="116.25" cy="116.72" r="116.25"/><path class="cls-2" d="M805.78,590.29a116.26,116.26,0,0,0-134.9,185.84s-32.25-78.9,9.16-140.19S805.78,590.29,805.78,590.29Z" transform="translate(-636.83 -577.68)"/><path class="cls-3" d="M637.66,707.77s37.23,19.36,54.24,15.7,38.4-4,54.78,10.13,60.8,11.63,81.31,9.69,31.73-3,31.73-3l-9.42,17.41S740.46,744.93,726.91,750s-40.1,1.69-53.93.56-28-13.74-28-13.74Z" transform="translate(-636.83 -577.68)"/><path class="cls-3" d="M867.34,672.46c-13.73,12.81-42.74,9.78-52.08,9.22s-8.34-14.12-32.06-15.89-30.12,12.69-45.84,12.69c-30.45,0-92.79-26.34-92.79-26.34l-4.25,13.42c27.48,21.72,73,27.28,97,29.37s21.26,10.47,41,11.82,31-11,36.88-12.82,54.07,0,53.86-6.88A101.32,101.32,0,0,0,867.34,672.46Zm-82,23.13c-8.58,0-15.53-3.6-15.53-8s6.95-8,15.53-8,15.53,3.6,15.53,8S793.93,695.59,785.36,695.59Z" transform="translate(-636.83 -577.68)"/><path class="cls-3" d="M777.25,783.21c-15.16-9.71-21.54-2.14-40.74,2.53s-66.25-10.24-66.25-10.24c7.73,8.55,26.67,20.24,26.67,20.24s27.72,4.53,43.65,3.4,51.74,4.24,51.74,4.24l18.58-8.58S792.42,792.93,777.25,783.21Zm-12.43,11.41c-5.58,0-10.1-2-10.1-4.44s4.52-4.44,10.1-4.44,10.09,2,10.09,4.44S770.39,794.62,764.82,794.62Z" transform="translate(-636.83 -577.68)"/><path class="cls-3" d="M847.77,626.48s-55.44,6.91-66.65-1.56-23.15-21.74-49.13-7-61.73-5.5-61.73-5.5l-10.73,12.55s21.07,14.41,75.29,16.66,119.92-4.06,119.92-4.06ZM742.6,635.94c-6.69,0-12.11-2.66-12.11-5.93s5.42-5.93,12.11-5.93,12.12,2.65,12.12,5.93S749.3,635.94,742.6,635.94Z" transform="translate(-636.83 -577.68)"/><path class="cls-4" d="M749.55,602.4s23.34-2.78,41,2.6c.16,3.47-1.09,25.78-2.63,29.83-11.9-4.76-40.38-3.7-43-2.75C744.86,632.08,749.71,604.63,749.55,602.4Z" transform="translate(-636.83 -577.68)"/><path class="cls-2" d="M713.14,640.66s-18.09-.79-28.92,10.58c5.71.27,13.48,6.67,18.89,12,7.22-7.3,25.87-10.14,23.49-12.07C726.6,651.19,718.78,640.84,713.14,640.66Z" transform="translate(-636.83 -577.68)"/><path class="cls-2" d="M738.85,666.83c-1.15-3.24-20.15-26.88-25.08-26.5" transform="translate(-636.83 -577.68)"/><path class="cls-2" d="M739.85,666.83" transform="translate(-636.83 -577.68)"/><path class="cls-2" d="M711.14,637.66" transform="translate(-636.83 -577.68)"/><line class="cls-5" x1="195.3" y1="74.19" x2="224.75" y2="74.46"/><line class="cls-5" x1="136.54" y1="84.39" x2="190.99" y2="74.48"/><line class="cls-5" x1="97.16" y1="69.28" x2="132.44" y2="83.91"/><line class="cls-5" x1="86.63" y1="69.48" x2="92.4" y2="68.92"/><path class="cls-6" d="M699.68,649.47l23.79-2.3" transform="translate(-636.83 -577.68)"/><line class="cls-6" x1="51.68" y1="69.87" x2="57.94" y2="71.95"/><line class="cls-5" x1="38.66" y1="65.55" x2="51.68" y2="69.87"/><line class="cls-6" x1="15.72" y1="57.95" x2="38.66" y2="65.55"/><path class="cls-6" d="M699.12,649.73a2.18,2.18,0,1,1-4.36,0" transform="translate(-636.83 -577.68)"/><path class="cls-6" d="M694.76,649.73a2.18,2.18,0,0,1,4.36,0" transform="translate(-636.83 -577.68)"/><circle class="cls-5" cx="94.58" cy="69.31" r="2.18"/><circle class="cls-5" cx="134.43" cy="84.79" r="2.18"/><circle class="cls-5" cx="193.12" cy="74.22" r="2.18"/><path class="cls-7" d="M749.69,602.42l-2.3,16.28L745,635c-.79,5.42-1.47,10.86-2.5,16.25-.52,2.69-1.05,5.38-1.65,8l-.91,4c-.35,1.33-.66,2.67-1,4l-.2,0c.07-1.38.22-2.74.32-4.11l.44-4.1c.3-2.72.68-5.44,1-8.15.78-5.43,1.9-10.8,2.9-16.19l3-16.16,3.1-16.15Z" transform="translate(-636.83 -577.68)"/><g id="WZ2tZe.tif"><path d="M780.19,605.87c0,.19,0,.38,0,.57s0,.32,0,.48c0,.31,0,.62-.05.93s-.07.8-.11,1.2l0,.43c0,.43,0,.85-.08,1.27s-.05.71-.07,1.06-.07,1-.11,1.48,0,.71-.08,1.07-.07,1-.11,1.45-.05.7-.07,1.05-.08,1-.11,1.48c0,.23,0,.46,0,.69,0,.4-.07.8-.11,1.2l0,.43c0,.42-.05.85-.08,1.27s0,.7-.07,1.05-.08,1-.11,1.5c0,.34-.05.69-.08,1s-.07.8-.1,1.2c0,.14,0,.27,0,.41,0,.43-.06.87-.08,1.31a88.38,88.38,0,0,0-19.19-1.31c0-.21,0-.42,0-.63s0-.3,0-.45,0-.59.06-.89.07-.83.1-1.24l0-.39c0-.31,0-.62.06-.93s.06-.82.1-1.23l0-.39c0-.44.05-.87.08-1.31s.05-.7.08-1,0-.74.07-1.1.06-.72.08-1.07c0-.5.07-1,.11-1.48s0-.68.08-1c0-.5.07-1,.11-1.5s.05-.7.08-1.05.07-.81.1-1.22,0-.6,0-.89.07-.84.11-1.26l0-.38c0-.3,0-.61.05-.91s.07-.83.1-1.24l0-.39,0-.56c0-.08,0-.1.11-.09S773.31,603.54,780.19,605.87Zm-13.94,14.24.39,0,.84.06a8.93,8.93,0,0,0,1.15,0,2.35,2.35,0,0,0,1.22-.42,2.38,2.38,0,0,0,1-1.45,3.4,3.4,0,0,0,.09-1,2.49,2.49,0,0,0-.37-1.22,2.32,2.32,0,0,0-1.28-1,3.31,3.31,0,0,0-1-.16l-.42,0-1.22-.11c0,.44-.07.86-.1,1.29s0,.62,0,.93l0,.4c0,.4-.07.81-.11,1.22s0,.6-.05.9S766.26,620,766.25,620.11Zm2.47-6.73s0,.06.08.07c.36.16.73.33,1.1.47a3.32,3.32,0,0,0,.62.16c.32,0,.64.09,1,.11a3.42,3.42,0,0,0,.44,0,1.78,1.78,0,0,0,.92-.31,1.32,1.32,0,0,0,.6-1c0-.14,0-.27,0-.41a.9.9,0,0,0-.28-.73,2.55,2.55,0,0,0-.65-.48c-.36-.18-.75-.3-1.13-.45a2.23,2.23,0,0,1-.44-.21.39.39,0,0,1-.11-.26s.1-.14.16-.16a.89.89,0,0,1,.36,0c.25.06.49.15.73.22l.24.1.46.27.76-1.13-.11-.05c-.21-.1-.41-.21-.62-.29a5.28,5.28,0,0,0-1-.33,3.44,3.44,0,0,0-.91,0,2,2,0,0,0-1,.37,1.55,1.55,0,0,0-.63,1s0,.11,0,.17a1.14,1.14,0,0,0,.26,1,2.58,2.58,0,0,0,1,.65c.24.1.5.16.74.26a2.18,2.18,0,0,1,.43.22.2.2,0,0,1,.09.16c0,.15-.15.26-.33.24a2.78,2.78,0,0,1-.9-.19l-.7-.32-.33-.19Zm-.59.52c0-.27,0-.52.07-.78s0-.69.08-1c0-.5.07-1,.11-1.49,0-.31,0-.62.05-.93,0-.15,0-.3,0-.45s0-.34,0-.51l-1.41-.11c0,.38-.06.74-.09,1.11s-.06.71-.08,1.07-.06.73-.08,1.09l-.06.94c0,.16,0,.31,0,.46v.53Zm3.15,6.58,1.42.11c0-.3.06-.59.08-.89s.05-.87.08-1.31c0-.14,0-.28,0-.41,0-.4.07-.8.1-1.2s0-.62,0-.93c0-.15,0-.3,0-.45l-1.41-.11a2.4,2.4,0,0,0,0,.24c0,.36,0,.72-.08,1.07s-.07,1-.1,1.45l-.09,1.3c0,.14,0,.29,0,.44S771.29,620.24,771.28,620.48Zm5.3-5.5-.38.27-.81.54-.83.57c-.16.11-.19.15-.16.37l.21-.14.54-.37.84-.56.76-.53c.11-.08.12-.18,0-.26l-.26-.23c-.33-.3-.66-.6-1-.91-.16-.14-.31-.3-.46-.44l-.41-.36a.4.4,0,0,0,.13.43l1.49,1.35Zm-11.16-2.73-.72.48-1.1.76c-.18.12-.37.25-.55.39a.13.13,0,0,0,0,.21l1,.92.77.71.37.32.05,0a.83.83,0,0,0-.1-.29,7.67,7.67,0,0,0-.58-.56c-.24-.22-.5-.42-.73-.65s-.34-.36-.5-.54l1-.65c.34-.24.67-.5,1-.72C765.45,612.5,765.43,612.4,765.42,612.25ZM775,624.57l.09-1.23-.2,0-.06.88-.23-.35c-.12-.18-.24-.36-.37-.53s-.11-.05-.17-.06a.42.42,0,0,0,0,.14c0,.21,0,.42,0,.64s0,.3,0,.45l.17,0,.07-.87.18.26c.12.17.26.35.37.54S774.87,624.61,775,624.57Zm-12.76-.93.43,0a.7.7,0,0,0,.29,0,.65.65,0,0,0,.19-1c-.24-.23-.53-.15-.82-.18Zm2.74-.29a.41.41,0,0,1-.35.3.47.47,0,0,1-.17-.88c.15-.09.32,0,.53.18l.07,0,.08,0a.56.56,0,0,0-.76-.26.65.65,0,0,0-.28.87.54.54,0,0,0,.85.21v.14h.16l0-.61-.31,0c-.11,0-.14,0-.13.15Zm8.73,1-.63-.06a1.33,1.33,0,0,1,0-.2c0-.15,0-.19.19-.17l.27,0c.11,0,.14,0,.1-.16a2.88,2.88,0,0,1-.41,0s-.12-.06-.12-.09a1.41,1.41,0,0,1,0-.28l.63,0v-.17l-.82-.07-.1,1.25.86.06Zm-6.41-1.55-.58,1.2.21,0,0,0c0-.1.07-.24.14-.29s.21,0,.32,0,.19.06.21.19.09.21.26.15c-.11-.34-.23-.68-.33-1C767.5,622.87,767.49,622.74,767.29,622.76Zm4.31,1.57-.09-.34c-.09-.27-.17-.54-.26-.8,0-.06,0-.15-.12-.15a.18.18,0,0,0-.18.12c-.12.28-.25.55-.38.82l-.13.26c.1,0,.2.08.24,0s.16-.29.4-.25.24,0,.27.25c0,.08,0,.13.14.12Zm4.69-.91-1-.07v.16l.41,0-.08,1.06h.19l0,0c0-.29,0-.57.05-.86,0-.1,0-.16.15-.15a2.4,2.4,0,0,0,.28,0Zm-10.42-.76,0,.16.41,0-.07,1.06h.2l.08-1,.41,0v-.17Zm4.11.46-.06,1.08h.19l.08-1.05.4,0c0-.19,0-.19-.13-.19l-.24,0-.62,0c0,.18,0,.19.15.19Zm2,1s0,0,0-.06c0-.28,0-.56.07-.84,0-.08,0-.17-.1-.18s-.1.09-.11.17,0,.42-.05.64v.44l.83.06,0-.16Zm-3.74-.26.08-1.07h-.21l-.08,1.23.85.06c0-.19,0-.19-.14-.19Zm-2.7,0,.09-1.24-.19,0-.09,1.24Zm-1.84-.14.09-1.24-.2,0-.09,1.24Z" transform="translate(-636.83 -577.68)"/><path d="M768,616.26a6.81,6.81,0,0,1,.69.09,1,1,0,0,1,.74.78,1.88,1.88,0,0,1,.05.33,2.42,2.42,0,0,1,0,.54,1.18,1.18,0,0,1-.7.94,1.42,1.42,0,0,1-.71,0l-.23,0Z" transform="translate(-636.83 -577.68)"/><path d="M762.51,622.6a.54.54,0,0,1,.53.16.5.5,0,0,1,0,.58c-.13.22-.37.15-.59.14Z" transform="translate(-636.83 -577.68)"/><path d="M767.13,623.51l.21-.47h0l.16.49Z" transform="translate(-636.83 -577.68)"/><path d="M771.1,623.26l.15.55-.39,0Z" transform="translate(-636.83 -577.68)"/></g><path class="cls-8" d="M716,705.14c0-.35,0-.53,0-.89,1.29-1.08,1.93-1.62,3.2-2.72a4.38,4.38,0,0,0,.64-.73,5.75,5.75,0,0,0,.47-.79l.17-.33a1.36,1.36,0,0,0-.26-1.06,1.42,1.42,0,0,0-1-.49,2.45,2.45,0,0,0-1.88.44c-.08-.34-.12-.51-.21-.84a3.12,3.12,0,0,1,2.25-.43,2.52,2.52,0,0,1,1.68.79,1.89,1.89,0,0,1,.47,1.65,1.13,1.13,0,0,1-.08.19l-.24.47c-.12.23-.25.45-.38.65a7.22,7.22,0,0,1-.48.67,4.74,4.74,0,0,1-.56.6c-1,.86-1.55,1.28-2.6,2.13,1.53.19,2.29.28,3.81.44l-.15.82C718.84,705.5,717.88,705.38,716,705.14Z" transform="translate(-636.83 -577.68)"/><path class="cls-8" d="M726.21,706.06a2.54,2.54,0,0,1-1.31.19,2.57,2.57,0,0,1-1.26-.44,2.33,2.33,0,0,1-.79-1,4.13,4.13,0,0,1-.36-1.36,7.11,7.11,0,0,1,0-1.66,7.83,7.83,0,0,1,.25-1.36,5,5,0,0,1,.44-1.11,3.1,3.1,0,0,1,.64-.81,2.16,2.16,0,0,1,.83-.48,2.61,2.61,0,0,1,1-.1,2.56,2.56,0,0,1,1.19.41,2.45,2.45,0,0,1,.78.93,4.45,4.45,0,0,1,.39,1.35,7.91,7.91,0,0,1,0,1.7,8.31,8.31,0,0,1-.3,1.63,4.6,4.6,0,0,1-.6,1.26A2.42,2.42,0,0,1,726.21,706.06Zm.3-6.76a1.28,1.28,0,0,0-.91-.52,1.24,1.24,0,0,0-1,.35,2.8,2.8,0,0,0-.71,1.1,6.53,6.53,0,0,0-.36,1.68,6.75,6.75,0,0,0,0,1.75,2.9,2.9,0,0,0,.48,1.25,1.31,1.31,0,0,0,.93.53,1.27,1.27,0,0,0,1-.35,2.89,2.89,0,0,0,.71-1.14,7.26,7.26,0,0,0,.35-1.71,6.42,6.42,0,0,0,0-1.72A2.89,2.89,0,0,0,726.51,699.3Z" transform="translate(-636.83 -577.68)"/><path class="cls-8" d="M729,706.48l-.05-.89c1.24-1.14,1.85-1.71,3.06-2.86a3.82,3.82,0,0,0,.61-.76,8.94,8.94,0,0,0,.44-.81,3.27,3.27,0,0,1,.14-.33,1.39,1.39,0,0,0-.3-1.06,1.45,1.45,0,0,0-1-.44,2.45,2.45,0,0,0-1.85.52l-.25-.83a3.11,3.11,0,0,1,2.22-.53,2.54,2.54,0,0,1,1.71.71,1.93,1.93,0,0,1,.55,1.63,1.16,1.16,0,0,1-.08.2q0,.12-.21.48c-.12.23-.23.46-.35.67a7.94,7.94,0,0,1-.45.69,3.81,3.81,0,0,1-.54.62c-1,.9-1.48,1.35-2.49,2.25,1.53.12,2.29.17,3.82.26,0,.33-.06.5-.11.83Z" transform="translate(-636.83 -577.68)"/><path class="cls-8" d="M739.24,706.93a2.53,2.53,0,0,1-1.31.25,2.5,2.5,0,0,1-1.27-.38,2.36,2.36,0,0,1-.84-.93,4.51,4.51,0,0,1-.42-1.33,7.45,7.45,0,0,1-.06-1.66,9.1,9.1,0,0,1,.18-1.37,5,5,0,0,1,.4-1.13,2.82,2.82,0,0,1,.6-.84,2.26,2.26,0,0,1,.8-.52,2.6,2.6,0,0,1,1-.14,2.45,2.45,0,0,1,1.2.35,2.4,2.4,0,0,1,.83.9,4.25,4.25,0,0,1,.45,1.33,8.17,8.17,0,0,1,.1,1.69,7.94,7.94,0,0,1-.22,1.64,4.44,4.44,0,0,1-.55,1.29A2.39,2.39,0,0,1,739.24,706.93Zm0-6.76a1.24,1.24,0,0,0-1.89-.09,2.85,2.85,0,0,0-.65,1.13,6.4,6.4,0,0,0-.29,1.7,6.86,6.86,0,0,0,.1,1.74,2.91,2.91,0,0,0,.54,1.23,1.26,1.26,0,0,0,.94.49,1.3,1.3,0,0,0,1-.4,2.88,2.88,0,0,0,.66-1.16,7.22,7.22,0,0,0,.27-1.73,6.07,6.07,0,0,0-.13-1.71A2.78,2.78,0,0,0,739.22,700.17Z" transform="translate(-636.83 -577.68)"/><path class="cls-8" d="M744.74,704.64l0-.79,2.74.06c0,.31,0,.47,0,.79Z" transform="translate(-636.83 -577.68)"/><path class="cls-8" d="M754.27,707.39h-1c0-2.85,0-4.27,0-7.12h-2.46v-.82c2.33,0,3.5,0,5.84,0v.82l-2.46,0C754.24,703.12,754.25,704.54,754.27,707.39Z" transform="translate(-636.83 -577.68)"/><path class="cls-8" d="M765,703.14a5.29,5.29,0,0,1-.18,1.67,3.76,3.76,0,0,1-.68,1.32,3.36,3.36,0,0,1-1.19.89,4.44,4.44,0,0,1-1.64.35,4.05,4.05,0,0,1-2.14-.45,3.2,3.2,0,0,1-1.35-1.4,4.89,4.89,0,0,1-.48-2.14,4.31,4.31,0,0,1,1-3,4.09,4.09,0,0,1,5.57-.17A4.33,4.33,0,0,1,765,703.14Zm-6.65.22a3.68,3.68,0,0,0,.77,2.39,3,3,0,0,0,4.25-.13,3.68,3.68,0,0,0,.62-2.44,3.83,3.83,0,0,0-.81-2.4A2.55,2.55,0,0,0,761,700a2.61,2.61,0,0,0-2.06.92A3.72,3.72,0,0,0,758.3,703.36Z" transform="translate(-636.83 -577.68)"/><path class="cls-8" d="M773.14,702.64a3.73,3.73,0,0,1-.91,3,4.49,4.49,0,0,1-3.09,1.22l-2.43.14-.4-7.94,2.2-.12a6.49,6.49,0,0,1,1.8.12,4.09,4.09,0,0,1,1.41.62,3,3,0,0,1,1,1.17A4.84,4.84,0,0,1,773.14,702.64Zm-1,.1a3,3,0,0,0-1-2.36,3.78,3.78,0,0,0-2.57-.6l-1.25.07c.14,2.53.21,3.79.34,6.32l1.44-.09a3.4,3.4,0,0,0,2.4-.94A3.06,3.06,0,0,0,772.13,702.74Z" transform="translate(-636.83 -577.68)"/><path class="cls-8" d="M780,706l-1.19-2.42-3.23.29c-.31,1-.46,1.55-.78,2.59l-1,.08c1-3.27,1.5-4.91,2.45-8.19l1-.08c1.47,3.06,2.22,4.59,3.75,7.63Zm-1.57-3.16c-1-2.12-1.49-3.31-1.6-3.57-.39,1.52-.59,2.28-1,3.8Z" transform="translate(-636.83 -577.68)"/><path class="cls-8" d="M783.38,701.62c.73-1.65,1.09-2.48,1.8-4.13l1-.12c-.89,2-1.34,3-2.27,5.07.15,1.26.22,1.89.36,3.15l-1,.11c-.13-1.25-.2-1.88-.34-3.13-1.3-1.79-1.94-2.69-3.2-4.49l1-.1C781.81,699.44,782.33,700.17,783.38,701.62Z" transform="translate(-636.83 -577.68)"/><path class="cls-9" d="M716.85,706.26c0-.35,0-.53,0-.89,1.29-1.08,1.93-1.63,3.2-2.73a4.11,4.11,0,0,0,.64-.74,5.21,5.21,0,0,0,.47-.79c.07-.13.1-.19.16-.32a1.39,1.39,0,0,0-.26-1.07,1.45,1.45,0,0,0-1-.48,2.47,2.47,0,0,0-1.88.44c-.09-.33-.13-.5-.22-.84a3.13,3.13,0,0,1,2.26-.43,2.51,2.51,0,0,1,1.68.78,1.93,1.93,0,0,1,.49,1.65l-.09.19-.24.47c-.12.23-.25.45-.37.66s-.29.43-.48.67a4.14,4.14,0,0,1-.57.6L718,705.57l3.82.43-.15.81C719.76,706.61,718.79,706.5,716.85,706.26Z" transform="translate(-636.83 -577.68)"/><path class="cls-9" d="M727.15,707.14a2.44,2.44,0,0,1-1.31.2,2.41,2.41,0,0,1-2.07-1.4,4.61,4.61,0,0,1-.36-1.35,7.66,7.66,0,0,1,0-1.66,8.71,8.71,0,0,1,.24-1.36,5.05,5.05,0,0,1,.45-1.11,3.13,3.13,0,0,1,.63-.82,2.23,2.23,0,0,1,.83-.48,2.68,2.68,0,0,1,1-.1,2.45,2.45,0,0,1,1.19.41,2.32,2.32,0,0,1,.79.93,4.3,4.3,0,0,1,.4,1.34,7.91,7.91,0,0,1,0,1.7,8.34,8.34,0,0,1-.29,1.63,4.66,4.66,0,0,1-.6,1.27A2.33,2.33,0,0,1,727.15,707.14Zm.27-6.75a1.28,1.28,0,0,0-.91-.52,1.24,1.24,0,0,0-1,.35,2.77,2.77,0,0,0-.71,1.11,6.36,6.36,0,0,0-.36,1.67,7.16,7.16,0,0,0,0,1.75A2.85,2.85,0,0,0,725,706a1.28,1.28,0,0,0,.93.53,1.32,1.32,0,0,0,1-.35,2.77,2.77,0,0,0,.7-1.14,7.37,7.37,0,0,0,.29-3.43A2.72,2.72,0,0,0,727.42,700.39Z" transform="translate(-636.83 -577.68)"/><path class="cls-9" d="M729.91,707.56c0-.36,0-.54-.06-.89,1.23-1.14,1.85-1.72,3.06-2.87a3.89,3.89,0,0,0,.6-.77,5.72,5.72,0,0,0,.44-.81l.15-.33a1.42,1.42,0,0,0-.31-1.06,1.45,1.45,0,0,0-1-.43,2.41,2.41,0,0,0-1.85.53l-.25-.83a3.07,3.07,0,0,1,2.23-.54,2.49,2.49,0,0,1,1.71.71,1.9,1.9,0,0,1,.56,1.62,1.16,1.16,0,0,1-.08.2q0,.12-.21.48c-.11.23-.23.46-.35.67s-.27.44-.44.69a4.4,4.4,0,0,1-.54.63L731,706.81l3.83.26c0,.32-.07.49-.11.82C732.82,707.77,731.85,707.71,729.91,707.56Z" transform="translate(-636.83 -577.68)"/><path class="cls-9" d="M740.22,708a2.49,2.49,0,0,1-1.3.26,2.54,2.54,0,0,1-1.28-.38,2.27,2.27,0,0,1-.84-.92,4.22,4.22,0,0,1-.43-1.34,8,8,0,0,1-.07-1.65,9.24,9.24,0,0,1,.18-1.38,4.7,4.7,0,0,1,.39-1.13,3.34,3.34,0,0,1,.6-.84,2.3,2.3,0,0,1,.81-.52,2.71,2.71,0,0,1,1-.15,2.43,2.43,0,0,1,1.22.36,2.38,2.38,0,0,1,.83.89,4.25,4.25,0,0,1,.45,1.33,7.5,7.5,0,0,1,.11,1.69,7.39,7.39,0,0,1-.22,1.64,4.18,4.18,0,0,1-.54,1.29A2.28,2.28,0,0,1,740.22,708Zm0-6.76a1.25,1.25,0,0,0-.93-.47,1.23,1.23,0,0,0-1,.39,2.62,2.62,0,0,0-.65,1.14,6.32,6.32,0,0,0-.29,1.69,6.91,6.91,0,0,0,.11,1.75,2.81,2.81,0,0,0,.55,1.22,1.29,1.29,0,0,0,1.93.09,2.87,2.87,0,0,0,.66-1.17,7.22,7.22,0,0,0,.27-1.73,6.43,6.43,0,0,0-.14-1.71A2.78,2.78,0,0,0,740.19,701.21Z" transform="translate(-636.83 -577.68)"/><path class="cls-9" d="M745.74,705.66l0-.79c1.09,0,1.64,0,2.74,0v.79C747.39,705.7,746.84,705.69,745.74,705.66Z" transform="translate(-636.83 -577.68)"/><path class="cls-9" d="M755.31,708.38h-1l-.05-7.12h-2.47v-.82c2.34,0,3.52,0,5.86-.06,0,.33,0,.49,0,.82l-2.47,0C755.26,704.11,755.28,705.53,755.31,708.38Z" transform="translate(-636.83 -577.68)"/><path class="cls-9" d="M766,704.09a5.3,5.3,0,0,1-.17,1.67,3.76,3.76,0,0,1-.68,1.32A3.06,3.06,0,0,1,764,708a4.44,4.44,0,0,1-1.65.37,4.05,4.05,0,0,1-2.14-.45,3.15,3.15,0,0,1-1.36-1.39,4.93,4.93,0,0,1-.49-2.14,4.31,4.31,0,0,1,.94-3,4.13,4.13,0,0,1,5.59-.2A4.36,4.36,0,0,1,766,704.09Zm-6.67.25a3.65,3.65,0,0,0,.78,2.38,3,3,0,0,0,4.27-.15,3.65,3.65,0,0,0,.61-2.43,3.73,3.73,0,0,0-.82-2.4,2.56,2.56,0,0,0-2.12-.79,2.61,2.61,0,0,0-2.06.94A3.65,3.65,0,0,0,759.34,704.34Z" transform="translate(-636.83 -577.68)"/><path class="cls-9" d="M774.23,703.55a3.77,3.77,0,0,1-.9,3,4.51,4.51,0,0,1-3.1,1.24l-2.44.14c-.17-3.17-.26-4.76-.43-7.93l2.22-.13a6.92,6.92,0,0,1,1.8.11,4.13,4.13,0,0,1,1.42.61,3,3,0,0,1,1,1.17A4.64,4.64,0,0,1,774.23,703.55Zm-1,.11a3.05,3.05,0,0,0-1-2.35,3.77,3.77,0,0,0-2.58-.59l-1.26.08c.15,2.52.22,3.78.37,6.31l1.44-.09a3.46,3.46,0,0,0,2.41-1A3,3,0,0,0,773.22,703.66Z" transform="translate(-636.83 -577.68)"/><path class="cls-9" d="M781.13,706.93l-1.2-2.41-3.24.3c-.31,1-.46,1.56-.78,2.59l-1,.08c1-3.27,1.49-4.91,2.43-8.19l1-.09c1.49,3.06,2.25,4.58,3.8,7.62Zm-1.58-3.15c-1-2.11-1.52-3.31-1.62-3.57-.39,1.52-.59,2.28-1,3.81Z" transform="translate(-636.83 -577.68)"/><path class="cls-9" d="M784.5,702.5c.73-1.66,1.09-2.48,1.8-4.14l1-.12c-.88,2-1.33,3-2.26,5.08.15,1.26.22,1.89.37,3.15l-1,.11-.35-3.13c-1.31-1.78-2-2.68-3.23-4.48l1-.1C782.92,700.32,783.44,701.05,784.5,702.5Z" transform="translate(-636.83 -577.68)"/><text class="cls-10" transform="translate(104.19 213.69)">ISDI</text><path class="cls-9" d="M743.47,792.42l-1-.06.5-7.93.93.06Z" transform="translate(-636.83 -577.68)"/><path class="cls-9" d="M745.41,791.2a6.19,6.19,0,0,0,2.76.72c1.23,0,1.84-.5,1.86-1.56a1.23,1.23,0,0,0-.27-.84,2.14,2.14,0,0,0-1-.52l-1.62-.44c-1.23-.35-1.82-1-1.77-2a1.93,1.93,0,0,1,.86-1.65,3.84,3.84,0,0,1,2.17-.48,6.37,6.37,0,0,1,1.35.19,3.65,3.65,0,0,1,1,.43c-.11.31-.17.46-.28.76a4.18,4.18,0,0,0-1-.37,5,5,0,0,0-1.21-.18c-1.3,0-2,.38-2,1.28a.93.93,0,0,0,.28.74,2,2,0,0,0,.9.46l1.53.4a3.21,3.21,0,0,1,1.5.76,1.94,1.94,0,0,1,.5,1.45,2.17,2.17,0,0,1-.8,1.82,3.2,3.2,0,0,1-2.14.57,6.78,6.78,0,0,1-1.79-.25,4.28,4.28,0,0,1-1.22-.52C745.21,791.66,745.27,791.51,745.41,791.2Z" transform="translate(-636.83 -577.68)"/><path class="cls-9" d="M759.18,788.53a3.71,3.71,0,0,1-1,3,4.57,4.57,0,0,1-3.2,1.11c-1,0-1.5,0-2.49,0,0-3.18,0-4.77,0-7.95.89,0,1.33,0,2.21,0a6.63,6.63,0,0,1,1.79.2,4,4,0,0,1,1.39.66,3.08,3.08,0,0,1,.95,1.2A4.71,4.71,0,0,1,759.18,788.53Zm-1,.07a3,3,0,0,0-1-2.39,3.83,3.83,0,0,0-2.54-.7l-1.26,0,.05,6.32,1.47,0a3.51,3.51,0,0,0,2.48-.85A3,3,0,0,0,758.16,788.6Z" transform="translate(-636.83 -577.68)"/><path class="cls-9" d="M762,792.36l-1,.06-.45-7.93.93-.06Z" transform="translate(-636.83 -577.68)"/></svg>