<svg id="Capa_1" data-name="Capa 1" xmlns="http://www.w3.org/2000/svg" viewBox="0 0 363.33 71.28"><defs><style>.cls-1{fill:#444443;}.cls-2{fill:#fff;}</style></defs><path class="cls-1" d="M655,725.07c.62-9,.93-13.47,1.56-22.45,3.74.26,5.62.39,9.37.62,7.81.49,10.57,5,10.2,11.71-.38,6.9-3.85,11.23-12.09,10.72C660.41,725.44,658.6,725.32,655,725.07Zm9.75-7.11c1.71.1,2.36-1.05,2.5-3.35S667,711,665,710.9l-.51,0-.45,7Z" transform="translate(-570.96 -702.62)"/><path class="cls-1" d="M678,726.48c.47-9,.71-13.48,1.19-22.47,6.2.33,9.3.48,15.5.74-.11,2.61-.16,3.92-.27,6.54-2.87-.12-4.31-.18-7.17-.32l-.09,1.8,5.77.26-.25,5.75-5.79-.26c0,.74,0,1.1-.09,1.84l7.23.32c-.11,2.62-.17,3.93-.28,6.54C687.44,727,684.29,726.81,678,726.48Z" transform="translate(-570.96 -702.62)"/><path class="cls-1" d="M697.1,718.61a15.43,15.43,0,0,0,7.28,2.39c.62,0,1-.22,1-.54s-.3-.59-.74-.71c-5.14-1.26-8.52-3.27-8.32-8.09s3.65-7.34,9.06-7.16c3.86.14,7.12.73,9.4,2l-1.25,7.38a16.17,16.17,0,0,0-7-2c-.58,0-.91.22-.92.51s.3.58.81.71c5.73,1.23,8.44,3.13,8.32,7.74-.14,5.32-3.77,7.72-9.86,7.51-3.11-.1-6.58-.7-9.12-2.32C696.29,723,696.56,721.55,697.1,718.61Z" transform="translate(-570.96 -702.62)"/><path class="cls-1" d="M716.84,728c.23-9,.34-13.49.57-22.49,3.38.09,5.06.12,8.44.19-.17,9-.26,13.49-.43,22.49C722,728.13,720.27,728.09,716.84,728Z" transform="translate(-570.96 -702.62)"/><path class="cls-1" d="M748.3,727.33a18.65,18.65,0,0,1-8.7,1.71c-7.3-.07-11.63-4.19-11.49-12,.13-7.31,4.39-11.9,11.89-11.83a18.65,18.65,0,0,1,7.68,1.53c-.64,2.76-1,4.14-1.62,6.9a14.66,14.66,0,0,0-5.07-1c-3,0-4,1.84-4,4.65s.86,4.83,3.67,4.85l0-1.9-1.82,0,0-5.61,9.44.06C748.33,719.75,748.32,722.28,748.3,727.33Z" transform="translate(-570.96 -702.62)"/><path class="cls-1" d="M762.83,728.63c-1.12-2.35-1.68-3.53-2.78-5.89a3.85,3.85,0,0,1-.42-1.72h-.36c0,3,0,4.45,0,7.42-3.29,0-4.93,0-8.22,0,0-9,0-13.5,0-22.5,3.76,0,5.63,0,9.39,0,1.09,2.36,1.64,3.53,2.75,5.89a3.83,3.83,0,0,1,.41,1.72H764c0-3,0-4.58-.06-7.63l8.08-.09c.13,9.08.19,13.62.32,22.71C768.55,728.58,766.64,728.6,762.83,728.63Z" transform="translate(-570.96 -702.62)"/><path class="cls-1" d="M775.3,728.27c-.15-9-.22-13.5-.37-22.5,6.21-.1,9.31-.17,15.51-.34.08,2.62.11,3.93.18,6.55-2.87.08-4.3.12-7.17.18,0,.72,0,1.08,0,1.8l5.77-.14.15,5.76-5.79.14,0,1.83c2.89-.06,4.33-.1,7.22-.18l.18,6.55C784.76,728.1,781.6,728.17,775.3,728.27Z" transform="translate(-570.96 -702.62)"/><path class="cls-1" d="M805.25,727.46c-1-2.37-1.54-3.55-2.56-5.92l-.69.06c.08,2.39.12,3.58.21,6-3.43.12-5.15.18-8.58.28-.26-9-.4-13.49-.66-22.49,4.59-.13,6.88-.21,11.47-.38,5.7-.21,8.82,2.67,9,7.56A7.34,7.34,0,0,1,810.4,719c1.69,3.25,2.53,4.87,4.23,8.11C810.88,727.24,809,727.32,805.25,727.46Zm-2.23-12c1.16-.15,1.67-.89,1.62-2.22s-.79-1.88-2.17-1.83l-1,0,.15,4.1Z" transform="translate(-570.96 -702.62)"/><path class="cls-1" d="M840,726.2l-1.49-2c-1.8,1.7-4.22,2.56-7.41,2.74-4.87.27-8.15-2-8.34-6a6.12,6.12,0,0,1,4.31-6.21,5.92,5.92,0,0,1-3.37-4.69c-.17-3.16,2.76-6.69,8.42-7,4.79-.27,8.81,1.59,9,5.19.15,2.33-1.66,4.14-3.68,5.06l.95.73c.56-.69.83-1,1.39-1.74l7.83-.51c-1.82,2.76-2.74,4.14-4.58,6.9,1.78,2.05,3.4,4.25,4.66,6Zm-8.6-8.44a3.14,3.14,0,0,0-.42,1.65c.06,1.08.75,1.62,1.44,1.58a2.17,2.17,0,0,0,1.73-1.18A9.22,9.22,0,0,0,831.38,717.76Zm2.12-7.94c0-.65-.39-1.1-1-1.06a1,1,0,0,0-.88,1.2,1.66,1.66,0,0,0,1,1.28A1.68,1.68,0,0,0,833.5,709.82Z" transform="translate(-570.96 -702.62)"/><path class="cls-1" d="M571,760.23c1.12-8.93,1.69-13.39,2.82-22.32,3.46.44,5.19.65,8.65,1.07-.7,5.87-1,8.81-1.76,14.69l7,.82c-.36,3.06-.53,4.59-.88,7.65C580.43,761.41,577.27,761,571,760.23Z" transform="translate(-570.96 -702.62)"/><path class="cls-1" d="M609.37,764.56c.49-4.32.73-6.48,1.22-10.8l-.33,0a9.08,9.08,0,0,1-.47,2c-1.1,3.29-1.65,4.94-2.76,8.23-3.19-.32-4.79-.49-8-.83-.41-3.45-.61-5.17-1-8.62a8.82,8.82,0,0,1,0-2.06l-.34,0c-.4,4.33-.61,6.49-1,10.82-3.17-.34-4.76-.52-7.93-.88,1.31-8.9,2-13.36,3.28-22.27,4.53.52,6.8.76,11.34,1.24.31,3.44.47,5.15.79,8.59a9,9,0,0,1,0,2l.34,0a8.61,8.61,0,0,1,.39-1.92c1-3.3,1.46-5,2.42-8.25,4.57.47,6.85.69,11.42,1.12-.54,9-.82,13.48-1.35,22.47C614.14,765,612.55,764.88,609.37,764.56Z" transform="translate(-570.96 -702.62)"/><path class="cls-1" d="M621.28,756.91a16.23,16.23,0,0,0,7.39,2.79c.63.06,1-.16,1.06-.48s-.29-.61-.73-.75c-5.23-1.54-8.61-3.74-8.17-8.54s4.14-7.13,9.7-6.65c4,.34,7.3,1.11,9.59,2.49l-1.67,7.3a17.22,17.22,0,0,0-7.13-2.43c-.59,0-1,.18-1,.46s.28.61.8.76c5.84,1.54,8.54,3.59,8.18,8.18-.42,5.31-4.27,7.51-10.53,7-3.21-.27-6.75-1.06-9.29-2.81C620.22,761.28,620.58,759.83,621.28,756.91Z" transform="translate(-570.96 -702.62)"/><path class="cls-1" d="M661,768.76c-.07-.78-.11-1.17-.18-2l-4.45-.29c-.17.77-.26,1.16-.43,1.92-3.89-.26-5.84-.39-9.73-.68,2.92-8.81,4.37-13.22,7.22-22,5.18.36,7.78.53,13,.85,1.7,9.11,2.57,13.67,4.34,22.78C666.87,769.12,664.92,769,661,768.76Zm-1.21-14.18a9.77,9.77,0,0,1-.08-2.1l-.38,0a9.54,9.54,0,0,1-.36,2.07c-.58,2.18-.86,3.27-1.45,5.46l3,.19C660.26,757.94,660.12,756.82,659.82,754.58Z" transform="translate(-570.96 -702.62)"/><path class="cls-1" d="M672.66,769.45c.49-9,.74-13.48,1.24-22.46,3.86.21,5.8.31,9.66.5,8.07.39,11,4.88,10.71,11.57C694,766,690.48,770.35,682,769.94,678.25,769.75,676.39,769.66,672.66,769.45Zm9.93-7.23c1.76.08,2.42-1.08,2.53-3.38s-.28-3.58-2.38-3.68l-.52,0-.35,7Z" transform="translate(-570.96 -702.62)"/><path class="cls-1" d="M716.44,771.2c.17-4.34.25-6.51.42-10.86h-.34a9.05,9.05,0,0,1-.31,2c-.85,3.36-1.28,5-2.14,8.4-3.2-.08-4.81-.13-8-.23-.66-3.41-1-5.11-1.64-8.52a9.17,9.17,0,0,1-.2-2.06h-.33c-.09,4.35-.13,6.52-.22,10.87l-8-.29c.65-9,1-13.47,1.62-22.45,4.56.17,6.83.25,11.39.39.56,3.41.85,5.11,1.42,8.51a9,9,0,0,1,.13,2h.34a9.33,9.33,0,0,1,.24-1.94c.73-3.36,1.09-5,1.81-8.41,4.58.13,6.87.18,11.46.27.12,9,.18,13.51.31,22.51C721.23,771.32,719.63,771.28,716.44,771.2Z" transform="translate(-570.96 -702.62)"/><path class="cls-1" d="M727.14,771.43c.16-9,.24-13.5.39-22.49,3.49.06,5.23.08,8.71.12-.1,9-.15,13.5-.26,22.5C732.45,771.52,730.68,771.49,727.14,771.43Z" transform="translate(-570.96 -702.62)"/><path class="cls-1" d="M751.1,771.87c-1.13-2.36-1.69-3.55-2.81-5.91a3.77,3.77,0,0,1-.41-1.73h-.38l0,7.41c-3.39,0-5.08,0-8.47,0,.08-9,.12-13.5.21-22.5,3.87,0,5.8,0,9.67.06,1.11,2.37,1.67,3.55,2.79,5.91a3.74,3.74,0,0,1,.41,1.73h.38v-7.63c3.33,0,5,0,8.33,0,.05,9.09.08,13.63.13,22.71C757,771.87,755,771.87,751.1,771.87Z" transform="translate(-570.96 -702.62)"/><path class="cls-1" d="M764,771.61c-.07-9-.11-13.5-.18-22.5l8.71-.09c.12,9,.19,13.49.31,22.49C769.27,771.56,767.5,771.58,764,771.61Z" transform="translate(-570.96 -702.62)"/><path class="cls-1" d="M776.14,762.71a16.33,16.33,0,0,0,7.63,2c.64,0,1-.27,1-.6s-.35-.57-.8-.66c-5.36-1-9-2.79-9-7.61s3.34-7.54,8.92-7.66c4-.09,7.37.33,9.79,1.45-.35,3-.52,4.46-.87,7.44a17,17,0,0,0-7.34-1.65c-.6,0-.93.27-.92.56s.35.57.87.66c6,.91,8.88,2.65,9,7.26.16,5.33-3.44,7.92-9.71,8.06-3.22.07-6.82-.33-9.53-1.8C775.56,767.17,775.75,765.68,776.14,762.71Z" transform="translate(-570.96 -702.62)"/><path class="cls-1" d="M801.68,770.82l-.5-14.79-5.39.17c-.09-3.08-.14-4.62-.23-7.69,7.76-.24,11.65-.38,19.41-.72l.34,7.69-5.38.23c.23,5.91.35,8.87.59,14.78C807,770.63,805.21,770.7,801.68,770.82Z" transform="translate(-570.96 -702.62)"/><path class="cls-1" d="M830.2,769.57c-1.1-2.35-1.64-3.53-2.73-5.88l-.72.07c.13,2.39.19,3.58.31,6-3.53.18-5.3.27-8.83.43-.41-9-.62-13.48-1-22.47,4.73-.22,7.1-.34,11.83-.59,5.87-.32,9.14,2.51,9.43,7.4a7.28,7.28,0,0,1-3.08,6.49c1.79,3.21,2.68,4.82,4.48,8C836,769.25,834.06,769.36,830.2,769.57Zm-2.48-12c1.19-.17,1.71-.92,1.64-2.25s-.85-1.86-2.27-1.79l-1,0,.21,4.1Z" transform="translate(-570.96 -702.62)"/><path class="cls-1" d="M855.67,768l-.43-1.91-4.45.31c-.07.78-.1,1.17-.17,2-3.89.27-5.84.39-9.74.63,1.72-9.12,2.56-13.68,4.2-22.8,5.19-.34,7.78-.52,13-.91,2.91,8.81,4.38,13.21,7.36,22C861.51,767.55,859.57,767.69,855.67,768Zm-3.09-13.89a9.45,9.45,0,0,1-.37-2.07l-.37,0a9.8,9.8,0,0,1-.08,2.1c-.28,2.24-.42,3.36-.71,5.6l3-.2C853.46,757.35,853.17,756.26,852.58,754.08Z" transform="translate(-570.96 -702.62)"/><path class="cls-1" d="M869.9,766.89l-1.2-14.75-5.38.43c-.23-3.07-.35-4.61-.59-7.68,7.75-.6,11.63-.93,19.37-1.64l.7,7.67c-2.15.2-3.22.3-5.37.48.52,5.9.77,8.85,1.29,14.74C875.19,766.45,873.43,766.6,869.9,766.89Z" transform="translate(-570.96 -702.62)"/><path class="cls-1" d="M884.36,754.4c-.66-7.21,2.54-12.22,10-13s11.45,3,12.27,10.63c.77,7.16-2.4,12.3-10,13.05S885.07,762.07,884.36,754.4Zm13.16-1.31c-.25-2.4-.92-4.21-2.49-4.06s-1.79,2-1.56,4.35.91,4.29,2.49,4.13S897.75,755.41,897.52,753.09Z" transform="translate(-570.96 -702.62)"/><path class="cls-1" d="M922.32,761.66l-3.1-5.69-.71.12c.28,2.38.41,3.56.69,5.94-3.52.41-5.28.6-8.8,1-1-8.95-1.48-13.42-2.46-22.36,4.72-.52,7.07-.79,11.78-1.34,5.85-.69,9.29,1.91,9.9,6.77a7.31,7.31,0,0,1-2.66,6.68c2,3.09,3,4.64,5,7.72C928.1,761,926.17,761.21,922.32,761.66Zm-3.24-11.76c1.18-.24,1.65-1,1.5-2.35s-1-1.81-2.38-1.64l-1,.12.48,4.07Z" transform="translate(-570.96 -702.62)"/><path class="cls-2" d="M656.89,727.2c.61-9,.91-13.47,1.52-22.44,3.76.25,5.63.37,9.39.6,7.83.48,10.59,5,10.23,11.69-.37,6.91-3.84,11.25-12.09,10.74C662.32,727.56,660.51,727.45,656.89,727.2Zm9.75-7.12c1.71.1,2.37-1.05,2.5-3.35s-.22-3.58-2.25-3.71l-.51,0c-.17,2.82-.26,4.23-.44,7Z" transform="translate(-570.96 -702.62)"/><path class="cls-2" d="M679.92,728.58c.46-9,.69-13.48,1.16-22.47,6.21.32,9.31.47,15.53.72-.11,2.62-.16,3.92-.27,6.54-2.87-.11-4.31-.18-7.18-.31,0,.72,0,1.08-.08,1.8,2.31.11,3.46.16,5.77.25-.09,2.3-.14,3.46-.24,5.76l-5.8-.25c0,.73,0,1.1-.08,1.83l7.23.31c-.1,2.62-.16,3.93-.26,6.55C689.38,729.05,686.23,728.91,679.92,728.58Z" transform="translate(-570.96 -702.62)"/><path class="cls-2" d="M699,720.68a15.52,15.52,0,0,0,7.3,2.39c.62,0,1-.22,1-.54s-.31-.59-.75-.71c-5.15-1.25-8.53-3.26-8.34-8.08s3.64-7.35,9.06-7.17c3.86.13,7.13.72,9.42,2l-1.25,7.38a16.3,16.3,0,0,0-7-2c-.58,0-.91.22-.92.51s.3.59.81.71c5.74,1.23,8.46,3.13,8.35,7.73-.14,5.33-3.77,7.73-9.86,7.53-3.13-.1-6.6-.7-9.14-2.31C698.24,725.1,698.51,723.63,699,720.68Z" transform="translate(-570.96 -702.62)"/><path class="cls-2" d="M718.83,730.05c.21-9,.32-13.49.54-22.49,3.38.08,5.07.12,8.45.18l-.4,22.49C724,730.17,722.26,730.13,718.83,730.05Z" transform="translate(-570.96 -702.62)"/><path class="cls-2" d="M750.34,729.33a18.74,18.74,0,0,1-8.71,1.73c-7.31-.06-11.66-4.17-11.53-11.95.11-7.3,4.38-11.9,11.89-11.84a18.75,18.75,0,0,1,7.69,1.51c-.64,2.76-1,4.15-1.61,6.91a14.45,14.45,0,0,0-5.08-1c-3,0-4,1.84-4,4.65s.86,4.83,3.68,4.85v-1.91h-1.82c0-2.25,0-3.37,0-5.62,3.78,0,5.67,0,9.46.05C750.35,721.75,750.35,724.28,750.34,729.33Z" transform="translate(-570.96 -702.62)"/><path class="cls-2" d="M764.88,730.61c-1.12-2.35-1.68-3.52-2.79-5.88a3.85,3.85,0,0,1-.42-1.72h-.36l.05,7.41c-3.29,0-4.94,0-8.23,0,0-9,0-13.5,0-22.49,3.76,0,5.64,0,9.4,0,1.1,2.35,1.65,3.53,2.76,5.88a3.85,3.85,0,0,1,.42,1.72h.36c0-3,0-4.58-.08-7.63,3.24,0,4.86,0,8.1-.1l.35,22.71C770.61,730.56,768.7,730.58,764.88,730.61Z" transform="translate(-570.96 -702.62)"/><path class="cls-2" d="M777.37,730.23l-.4-22.49c6.22-.11,9.32-.18,15.54-.36.07,2.62.11,3.93.19,6.55-2.88.08-4.32.12-7.19.18l0,1.8c2.31,0,3.47-.08,5.78-.15l.16,5.76c-2.32.07-3.48.1-5.8.15,0,.74,0,1.1,0,1.84l7.24-.19c.07,2.62.11,3.93.19,6.54C786.84,730.05,783.68,730.12,777.37,730.23Z" transform="translate(-570.96 -702.62)"/><path class="cls-2" d="M807.36,729.38c-1-2.36-1.54-3.55-2.57-5.92l-.69.07.22,6-8.59.29c-.28-9-.42-13.49-.69-22.49,4.59-.14,6.89-.22,11.48-.4,5.71-.22,8.84,2.65,9.06,7.54a7.35,7.35,0,0,1-3.07,6.45c1.69,3.24,2.54,4.86,4.25,8.09C813,729.16,811.12,729.24,807.36,729.38Zm-2.25-12c1.16-.15,1.68-.89,1.63-2.22s-.8-1.88-2.18-1.83l-1,0,.15,4.1Z" transform="translate(-570.96 -702.62)"/><path class="cls-2" d="M842.14,728.06l-1.49-2c-1.81,1.7-4.22,2.57-7.42,2.75-4.88.28-8.16-2-8.36-6a6.11,6.11,0,0,1,4.31-6.21,5.94,5.94,0,0,1-3.39-4.68c-.16-3.17,2.76-6.7,8.42-7,4.8-.28,8.84,1.58,9.07,5.17.15,2.34-1.66,4.15-3.68,5.07l1,.73,1.38-1.74c3.14-.2,4.71-.31,7.84-.53-1.82,2.77-2.73,4.15-4.57,6.91,1.78,2,3.4,4.25,4.67,6C846.78,727.13,845.24,727.45,842.14,728.06Zm-8.63-8.41a3.17,3.17,0,0,0-.41,1.64c.06,1.08.75,1.62,1.44,1.58a2.17,2.17,0,0,0,1.73-1.19A8.92,8.92,0,0,0,833.51,719.65Zm2.13-7.95c0-.65-.4-1.1-1-1.06a1,1,0,0,0-.87,1.2,1.66,1.66,0,0,0,1,1.28A1.74,1.74,0,0,0,835.64,711.7Z" transform="translate(-570.96 -702.62)"/><path class="cls-2" d="M572.8,762.48c1.11-8.93,1.67-13.4,2.78-22.33,3.47.44,5.21.65,8.68,1.06l-1.75,14.69,7,.81c-.35,3.06-.52,4.59-.87,7.65C582.28,763.64,579.12,763.27,572.8,762.48Z" transform="translate(-570.96 -702.62)"/><path class="cls-2" d="M611.27,766.76l1.2-10.8-.33,0a9.17,9.17,0,0,1-.47,2c-1.09,3.29-1.64,4.94-2.74,8.23-3.2-.32-4.8-.48-8-.82-.41-3.45-.62-5.17-1-8.61a8.91,8.91,0,0,1,0-2.07l-.33,0c-.41,4.33-.61,6.5-1,10.83l-7.95-.87c1.31-8.91,2-13.37,3.26-22.28,4.53.51,6.81.76,11.35,1.23.32,3.43.48,5.15.81,8.58a9.08,9.08,0,0,1,0,2l.34,0a8.43,8.43,0,0,1,.39-1.91c1-3.31,1.45-5,2.41-8.26,4.58.46,6.86.68,11.44,1.11-.54,9-.8,13.48-1.32,22.47Z" transform="translate(-570.96 -702.62)"/><path class="cls-2" d="M623.18,759.09a16.31,16.31,0,0,0,7.4,2.78c.64.06,1-.16,1.06-.49s-.28-.6-.73-.74c-5.24-1.53-8.63-3.72-8.19-8.53s4.13-7.13,9.7-6.66c4,.33,7.32,1.1,9.61,2.47-.66,2.93-1,4.39-1.66,7.31a17.25,17.25,0,0,0-7.14-2.42c-.6,0-1,.18-1,.46s.29.6.8.76c5.86,1.53,8.56,3.57,8.21,8.17-.41,5.31-4.27,7.51-10.54,7-3.21-.27-6.75-1-9.29-2.8Z" transform="translate(-570.96 -702.62)"/><path class="cls-2" d="M663,770.89c-.07-.78-.11-1.18-.18-2l-4.45-.28c-.17.77-.26,1.15-.43,1.92-3.9-.26-5.85-.39-9.75-.67,2.91-8.81,4.35-13.22,7.2-22,5.19.35,7.79.52,13,.83,1.72,9.11,2.6,13.67,4.39,22.78C668.85,771.24,666.9,771.13,663,770.89Zm-1.22-14.18a9.77,9.77,0,0,1-.1-2.1l-.37,0a9.54,9.54,0,0,1-.36,2.07c-.57,2.18-.86,3.28-1.44,5.46l3,.19C662.22,760.07,662.07,759,661.78,756.71Z" transform="translate(-570.96 -702.62)"/><path class="cls-2" d="M674.65,771.56c.48-9,.72-13.48,1.21-22.46,3.87.21,5.8.3,9.68.48,8.08.38,11,4.87,10.73,11.56C696,768.05,692.5,772.44,684,772,680.25,771.86,678.39,771.76,674.65,771.56Zm9.93-7.25c1.77.09,2.42-1.07,2.53-3.37s-.29-3.58-2.38-3.68l-.53,0c-.13,2.82-.2,4.23-.33,7Z" transform="translate(-570.96 -702.62)"/><path class="cls-2" d="M718.49,773.25c.17-4.34.25-6.51.41-10.86h-.34a9.05,9.05,0,0,1-.31,2c-.85,3.36-1.27,5-2.13,8.41-3.21-.08-4.81-.13-8-.23-.67-3.4-1-5.11-1.66-8.51a9.23,9.23,0,0,1-.2-2.06h-.34l-.2,10.87-8-.28,1.6-22.46c4.56.17,6.83.25,11.39.38.58,3.41.86,5.11,1.44,8.51a9,9,0,0,1,.14,2h.33a8.75,8.75,0,0,1,.25-1.94c.72-3.37,1.08-5.05,1.79-8.42,4.59.13,6.89.18,11.48.26.13,9,.2,13.51.34,22.51C723.29,773.36,721.69,773.33,718.49,773.25Z" transform="translate(-570.96 -702.62)"/><path class="cls-2" d="M729.21,773.47c.14-9,.21-13.5.36-22.5,3.49.06,5.23.08,8.72.11-.09,9-.14,13.5-.23,22.5C734.52,773.55,732.75,773.52,729.21,773.47Z" transform="translate(-570.96 -702.62)"/><path class="cls-2" d="M753.21,773.87c-1.14-2.36-1.71-3.54-2.83-5.91a3.6,3.6,0,0,1-.42-1.72h-.37c0,3,0,4.45,0,7.42l-8.48,0c.07-9,.11-13.5.18-22.5,3.88,0,5.81,0,9.69,0,1.11,2.37,1.67,3.55,2.8,5.91a3.74,3.74,0,0,1,.41,1.73h.38c0-3,0-4.57,0-7.63,3.33,0,5,0,8.34,0,.07,9.08.1,13.63.17,22.71C759.11,773.86,757.14,773.87,753.21,773.87Z" transform="translate(-570.96 -702.62)"/><path class="cls-2" d="M766.08,773.59c-.09-9-.13-13.5-.21-22.5,3.48,0,5.23-.05,8.72-.11.13,9,.2,13.5.34,22.5C771.39,773.53,769.62,773.56,766.08,773.59Z" transform="translate(-570.96 -702.62)"/><path class="cls-2" d="M778.26,764.68a16.37,16.37,0,0,0,7.65,2c.64,0,1-.27,1-.6s-.35-.57-.81-.66c-5.37-1-9-2.77-9.05-7.6s3.34-7.53,8.92-7.67c4-.09,7.39.32,9.81,1.43-.34,3-.51,4.47-.86,7.45a17.19,17.19,0,0,0-7.35-1.64c-.6,0-.93.27-.93.56s.35.57.88.66c6,.9,8.89,2.64,9,7.25.16,5.32-3.43,7.92-9.72,8.07-3.21.08-6.82-.32-9.53-1.78C777.68,769.14,777.88,767.65,778.26,764.68Z" transform="translate(-570.96 -702.62)"/><path class="cls-2" d="M803.85,772.74c-.21-5.91-.32-8.87-.53-14.78l-5.39.18c-.1-3.08-.14-4.62-.24-7.7,7.78-.25,11.66-.4,19.44-.75l.35,7.7-5.39.23c.24,5.91.36,8.87.61,14.78C809.16,772.55,807.39,772.62,803.85,772.74Z" transform="translate(-570.96 -702.62)"/><path class="cls-2" d="M832.4,771.45l-2.74-5.87-.71.07c.13,2.39.19,3.58.32,6-3.54.19-5.31.28-8.85.44-.42-9-.63-13.48-1.06-22.47,4.74-.22,7.11-.34,11.84-.61,5.88-.32,9.16,2.5,9.46,7.39a7.27,7.27,0,0,1-3.07,6.49c1.79,3.21,2.69,4.82,4.49,8C838.21,771.12,836.28,771.24,832.4,771.45Zm-2.5-11.94c1.2-.17,1.72-.92,1.65-2.25s-.86-1.87-2.28-1.79l-1,0c.09,1.64.13,2.46.22,4.1Z" transform="translate(-570.96 -702.62)"/><path class="cls-2" d="M857.92,769.82l-.45-1.92-4.45.32c-.07.78-.1,1.17-.17,2-3.89.27-5.84.4-9.74.64,1.7-9.12,2.54-13.69,4.17-22.81,5.19-.35,7.79-.53,13-.93,2.93,8.81,4.41,13.2,7.4,22Zm-3.12-13.89a9.45,9.45,0,0,1-.37-2.07l-.38,0A9.8,9.8,0,0,1,854,756l-.7,5.6,3-.21Z" transform="translate(-570.96 -702.62)"/><path class="cls-2" d="M872.16,768.71c-.49-5.9-.73-8.85-1.22-14.75l-5.38.44c-.25-3.07-.37-4.61-.61-7.68,7.76-.61,11.64-1,19.4-1.67.28,3.07.42,4.61.71,7.68l-5.38.48c.52,5.9.79,8.85,1.31,14.74C877.46,768.26,875.69,768.42,872.16,768.71Z" transform="translate(-570.96 -702.62)"/><path class="cls-2" d="M886.63,756.19c-.68-7.2,2.52-12.22,10-13s11.47,3,12.3,10.61c.79,7.16-2.39,12.3-10,13.07S887.35,763.86,886.63,756.19Zm13.17-1.33c-.25-2.4-.93-4.21-2.49-4.05s-1.8,2-1.56,4.36.92,4.28,2.49,4.12S900,757.19,899.8,754.86Z" transform="translate(-570.96 -702.62)"/><path class="cls-2" d="M924.65,763.4l-3.12-5.68-.71.12.7,5.93c-3.52.41-5.29.62-8.81,1-1-8.95-1.49-13.42-2.49-22.36,4.72-.53,7.08-.8,11.79-1.36,5.86-.7,9.31,1.9,9.92,6.76a7.29,7.29,0,0,1-2.65,6.68c2,3.09,3,4.63,5,7.72C930.43,762.7,928.5,762.94,924.65,763.4Zm-3.26-11.76c1.18-.24,1.65-1,1.49-2.35s-1-1.8-2.38-1.64l-1,.12c.19,1.63.29,2.45.48,4.08Z" transform="translate(-570.96 -702.62)"/></svg>