<svg id="Capa_1" data-name="Capa 1" xmlns="http://www.w3.org/2000/svg" viewBox="0 0 297.06 285.72"><defs><style>.cls-1{fill:#b29413;}.cls-2{fill:none;}.cls-3{fill:#debd1c;}.cls-4{fill:#635417;}.cls-5{fill:#444443;}.cls-6{fill:#fff;}.cls-7{fill:#c1a015;}.cls-8{fill:#483f18;}.cls-9{fill:#d8d8d8;}.cls-10{fill:#a8a7a7;}.cls-11{fill:#020303;}.cls-12{fill:#e62e3a;}</style></defs><circle class="cls-1" cx="148.53" cy="163.84" r="121.87"/><path class="cls-2" d="M187.82,277.44c.07,3.33,4.34,4.05,4.34,4.05a10.52,10.52,0,0,0,6-1.63q-4.95-2-9.66-4.5A3.21,3.21,0,0,0,187.82,277.44Z" transform="translate(-87.98 -16.94)"/><path class="cls-3" d="M199.66,277.44c0-2.24-3.35-4.05-7.5-4.05a6.58,6.58,0,0,0-3.66,2q4.71,2.47,9.66,4.5A3.08,3.08,0,0,0,199.66,277.44Z" transform="translate(-87.98 -16.94)"/><path class="cls-3" d="M241.57,59.48a114.47,114.47,0,0,0-54.63,215.06,11.44,11.44,0,0,1,5.22-1.15c4.15,0,7.5,1.81,7.5,4.05a3.08,3.08,0,0,1-1.5,2.42A114.46,114.46,0,1,0,241.57,59.48Z" transform="translate(-87.98 -16.94)"/><path class="cls-4" d="M187.82,277.44a3.21,3.21,0,0,1,.68-2.08l-1.56-.82c-1.4.73-2.28,1.76-2.28,2.9,0,2.24,3.36,4.05,7.5,4.05C192.16,281.49,187.89,280.77,187.82,277.44Z" transform="translate(-87.98 -16.94)"/><path class="cls-4" d="M192.16,273.39a11.44,11.44,0,0,0-5.22,1.15l1.56.82A6.58,6.58,0,0,1,192.16,273.39Z" transform="translate(-87.98 -16.94)"/><path class="cls-5" d="M88.36,190.9a9,9,0,0,0,3.6,1.74c1.81.25,2.31-.62,2.18-2.47-.43-6.26-.65-9.38-1.08-15.64,4.09.55,6.13.82,10.22,1.33.43,6.74.65,10.1,1.08,16.84.45,7-1.85,10.48-9.13,9.5A20.59,20.59,0,0,1,88,199.7C88.13,196.18,88.21,194.42,88.36,190.9Z" transform="translate(-87.98 -16.94)"/><path class="cls-5" d="M106.92,189.69c-.54-8.63,3.39-13.7,12.19-12.73s13.25,6.28,13.71,15.46c.43,8.57-3.52,13.85-12.2,12.89S107.5,198.88,106.92,189.69Zm15.29,1.72c-.15-2.87-.84-5.16-2.68-5.36s-2.18,1.93-2,4.72.87,5.26,2.69,5.46S122.37,194.2,122.21,191.41Z" transform="translate(-87.98 -16.94)"/><path class="cls-5" d="M148.94,180.58c4.1.33,6.15.49,10.26.79.23,6.28.35,9.43.58,15.72.3,8.26-4,11.52-11.55,10.89s-12.15-4.62-12.55-12.9c-.31-6.29-.46-9.44-.77-15.73,4.1.38,6.15.57,10.26.92.27,6.15.4,9.23.67,15.38.08,1.89.61,3,2,3.16s1.82-1,1.74-2.85Z" transform="translate(-87.98 -16.94)"/><path class="cls-5" d="M177.16,209.21c-1.19-2.92-1.78-4.38-3-7.31h-.83l.22,7.11c-4.06-.24-6.08-.37-10.14-.65-.37-10.7-.56-16.06-.94-26.76,5.58.38,8.37.55,14,.86,6.93.38,10.66,4.12,10.8,9.94a8.07,8.07,0,0,1-3.84,7.3c2,4,2.92,6,4.85,10.06C183.82,209.56,181.6,209.45,177.16,209.21Zm-2.54-14.46c1.39-.05,2-.87,2-2.46s-.93-2.31-2.6-2.41l-1.18-.07.15,4.89Z" transform="translate(-87.98 -16.94)"/><path class="cls-5" d="M204.6,210.61l-3.36-7.11a4.83,4.83,0,0,1-.52-2.07l-.43,0,.15,8.82c-3.89-.13-5.83-.2-9.71-.36-.23-10.7-.35-16.05-.58-26.75,4.57.19,6.85.27,11.42.42l3.4,7.11a4.67,4.67,0,0,1,.51,2.07h.43c0-3.63-.07-5.44-.12-9.07,3.93.1,5.9.15,9.84.22l.25,27C211.37,210.79,209.11,210.74,204.6,210.61Z" transform="translate(-87.98 -16.94)"/><path class="cls-5" d="M235,210.78c-.13-.93-.2-1.39-.34-2.31h-5.13c-.13.92-.2,1.38-.34,2.3-4.47,0-6.71,0-11.19-.11,2.52-10.65,3.79-16,6.38-26.66,6.14.06,9.2.07,15.34,0,2.63,10.68,3.92,16,6.47,26.68C241.76,210.76,239.52,210.77,235,210.78Zm-2.44-16.73a12.07,12.07,0,0,1-.26-2.48h-.44a12.07,12.07,0,0,1-.26,2.48c-.5,2.63-.75,3.95-1.26,6.58h3.49C233.37,198,233.11,196.68,232.6,194.05Z" transform="translate(-87.98 -16.94)"/><path class="cls-5" d="M248.4,210.68l.2-26.74c4.11-.06,6.17-.1,10.28-.19-.09,7-.13,10.55-.22,17.58,3.24-.07,4.87-.12,8.11-.22l-.15,9.16C259.33,210.49,255.69,210.58,248.4,210.68Z" transform="translate(-87.98 -16.94)"/><path class="cls-5" d="M269.22,210.18c.19-10.7.28-16.05.47-26.74,4.11-.14,6.17-.22,10.28-.4-.25,10.7-.37,16.05-.61,26.75C275.31,210,273.28,210,269.22,210.18Z" transform="translate(-87.98 -16.94)"/><path class="cls-5" d="M283.6,199.2a17.53,17.53,0,0,0,8.73,2.08c.74-.05,1.18-.37,1.19-.76s-.37-.66-.89-.76c-6.14-.93-10.23-3-10.09-8.71s4.3-9.08,10.89-9.46c4.69-.26,8.67.08,11.43,1.3-.63,3.57-.95,5.35-1.57,8.91a18.53,18.53,0,0,0-8.46-1.65c-.69,0-1.1.36-1.11.7s.38.67,1,.76c6.91.84,10.15,2.78,10,8.26-.22,6.34-4.53,9.6-11.71,10-3.68.21-7.78-.13-10.82-1.79C282.72,204.53,283,202.76,283.6,199.2Z" transform="translate(-87.98 -16.94)"/><path class="cls-5" d="M330.49,206.29l.8-13-.39,0a12.38,12.38,0,0,1-.42,2.47c-1.08,4.11-1.62,6.17-2.69,10.28-3.67.33-5.5.49-9.17.79-.72-4-1.07-5.94-1.8-9.89a10.55,10.55,0,0,1-.2-2.42l-.39,0c-.14,5.17-.22,7.76-.36,12.93-3.65.29-5.48.42-9.13.68.73-10.73,1.1-16.1,1.85-26.83,5.37-.39,8.05-.59,13.42-1,.61,4,.92,5.94,1.52,9.9a10.18,10.18,0,0,1,.12,2.3l.39,0a11.67,11.67,0,0,1,.32-2.33c.91-4.09,1.37-6.14,2.29-10.23,5.4-.48,8.1-.74,13.49-1.28-.2,10.68-.31,16-.53,26.71C336,205.77,334.14,206,330.49,206.29Z" transform="translate(-87.98 -16.94)"/><path class="cls-5" d="M370,202.38l-1.43-2.32a15.6,15.6,0,0,1-9.06,3.87c-5.73.7-9.27-1.86-9-6.53a9,9,0,0,1,5.93-7.77,5.67,5.67,0,0,1-3.4-5.36c.22-3.77,4.22-8.22,11.09-9.08,5.81-.72,10.35,1.17,10.05,5.47-.19,2.79-2.63,5.12-5.17,6.39l1,.8,1.92-2.21c3.75-.5,5.63-.76,9.37-1.29l-6.53,8.7a69.06,69.06,0,0,1,4.47,6.83C375.59,200.9,373.74,201.4,370,202.38ZM361.18,193a4.31,4.31,0,0,0-.72,2c-.09,1.29.65,1.88,1.47,1.78a3.23,3.23,0,0,0,2.2-1.55A7.92,7.92,0,0,0,361.18,193Zm3.68-9.71c.05-.77-.31-1.28-1-1.19a1.51,1.51,0,0,0-1.22,1.51,1.55,1.55,0,0,0,1,1.46A2.59,2.59,0,0,0,364.86,183.24Z" transform="translate(-87.98 -16.94)"/><path class="cls-5" d="M110.41,254.51c-.19-.95-.29-1.42-.48-2.36l-5-.63c-.08.91-.11,1.37-.19,2.28-4.33-.56-6.5-.85-10.83-1.46,1.75-10.4,2.64-15.59,4.46-26,6,.8,8.92,1.17,14.87,1.88q4,13.77,8,27.57C116.92,255.3,114.75,255,110.41,254.51ZM107,237.42a12.76,12.76,0,0,1-.42-2.52l-.42-.06a11.72,11.72,0,0,1-.09,2.46l-.8,6.46,3.38.43Z" transform="translate(-87.98 -16.94)"/><path class="cls-5" d="M134.22,230.49c4,.39,6,.58,10,.93.29,6.29.43,9.44.72,15.73.37,8.27-3.77,11.47-11.13,10.74s-11.86-4.8-12.33-13.08l-.9-15.75c4,.45,6,.66,10,1.06l.8,15.4c.1,1.89.63,3,2,3.19s1.76-.94,1.67-2.82C134.69,239.73,134.53,236.65,134.22,230.49Z" transform="translate(-87.98 -16.94)"/><path class="cls-5" d="M148.59,258.48c-.47-10.71-.7-16.07-1.17-26.78,4.44.38,6.66.55,11.11.88,9.28.69,13,6.09,13.25,14.06.26,8.22-3.29,13.38-12.78,12.67C154.84,259,152.75,258.84,148.59,258.48Zm10.31-8.36c2,.15,2.62-1.22,2.52-4s-.67-4.27-3-4.45l-.6,0c.13,3.35.2,5,.33,8.39Z" transform="translate(-87.98 -16.94)"/><path class="cls-5" d="M175.08,260.38c-.33-10.7-.49-16-.81-26.76,4,.24,6,.35,10,.54.27,10.7.41,16.05.68,26.75C181,260.72,179,260.62,175.08,260.38Z" transform="translate(-87.98 -16.94)"/><path class="cls-5" d="M187.51,247.74c-.2-8.6,3.86-14,12.47-13.7s12.78,5.26,12.88,14.42c.09,8.55-4,14.14-12.48,13.86S187.73,256.9,187.51,247.74Zm15,.53c0-2.87-.64-5.11-2.43-5.17s-2.22,2.11-2.17,4.89.65,5.2,2.43,5.26S202.52,251.05,202.48,248.27Z" transform="translate(-87.98 -16.94)"/><path class="cls-5" d="M219.6,262c-2.62-10.74-3.94-16.11-6.63-26.85,4.47.09,6.71.12,11.18.17.77,5.39,1.15,8.09,1.9,13.49a14.65,14.65,0,0,1,.18,2.35h.42a14.7,14.7,0,0,1,.17-2.35c.71-5.38,1.07-8.07,1.79-13.46,4.47,0,6.71,0,11.18,0-2.6,10.71-3.89,16.06-6.42,26.75C227.86,262.11,225.11,262.09,219.6,262Z" transform="translate(-87.98 -16.94)"/><path class="cls-5" d="M241.83,262.08l.1-26.74c4,0,6-.05,10-.12L251.71,262C247.76,262,245.78,262.05,241.83,262.08Z" transform="translate(-87.98 -16.94)"/><path class="cls-5" d="M255.72,251.49a17.1,17.1,0,0,0,8.54,2.3c.72,0,1.15-.33,1.15-.72s-.37-.67-.87-.78c-6-1.11-10-3.26-10-9s4.08-9,10.5-9.16c4.59-.14,8.48.31,11.18,1.61-.57,3.54-.85,5.32-1.42,8.86a18.29,18.29,0,0,0-8.27-1.88c-.68,0-1.07.33-1.08.67s.38.68,1,.79c6.76,1,9.94,3.05,9.82,8.53-.13,6.34-4.29,9.47-11.3,9.69-3.59.11-7.59-.35-10.58-2.09C254.92,256.79,255.18,255,255.72,251.49Z" transform="translate(-87.98 -16.94)"/><path class="cls-5" d="M292.85,233.69c4-.23,6-.36,10-.63-.21,6.29-.32,9.44-.54,15.72-.29,8.27-4.71,12.13-12.1,12.54s-11.61-3-11.42-11.23c.14-6.28.22-9.42.36-15.71,4-.17,6-.27,10-.49-.18,6.15-.26,9.22-.43,15.37-.05,1.89.38,3,1.74,2.9s1.85-1.22,1.91-3.1C292.57,242.91,292.66,239.84,292.85,233.69Z" transform="translate(-87.98 -16.94)"/><path class="cls-5" d="M319.3,258.51c-.09-.91-.14-1.37-.24-2.28-2,.16-3,.25-5,.4-.17.94-.26,1.41-.43,2.34-4.35.35-6.53.51-10.88.8q3.63-13.62,7.35-27.22c6-.44,9-.69,14.92-1.22,2.09,10.49,3.11,15.73,5.13,26.2C325.82,258,323.65,258.14,319.3,258.51ZM317.65,242a11.71,11.71,0,0,1-.15-2.46l-.43,0a11.78,11.78,0,0,1-.36,2.51l-1.5,6.7,3.39-.28Z" transform="translate(-87.98 -16.94)"/><path class="cls-5" d="M332.28,257.33c.53-10.72.8-16.08,1.34-26.8,4-.39,6-.6,10-1-.39,7.06-.59,10.58-1,17.64,3.15-.34,4.72-.52,7.86-.88-.21,3.68-.32,5.51-.54,9.19C342.89,256.26,339.35,256.64,332.28,257.33Z" transform="translate(-87.98 -16.94)"/><path class="cls-5" d="M353.61,244.66a15.48,15.48,0,0,0,8.37,1.49c.72-.09,1.16-.45,1.19-.84s-.34-.63-.84-.7c-5.91-.52-9.79-2.29-9.45-8.05s4.5-9.38,10.89-10.19c4.56-.59,8.4-.51,11,.53-.75,3.61-1.12,5.42-1.86,9a16.46,16.46,0,0,0-8.11-1.09c-.68.08-1.08.43-1.1.78s.33.64.92.69c6.65.37,9.71,2.1,9.32,7.6-.46,6.37-4.73,9.92-11.7,10.81-3.57.45-7.53.38-10.41-1.07C352.56,250.05,352.91,248.26,353.61,244.66Z" transform="translate(-87.98 -16.94)"/><path class="cls-6" d="M92,193.26A9,9,0,0,0,95.63,195c1.81.25,2.31-.62,2.18-2.47-.43-6.25-.65-9.38-1.08-15.64,4.09.55,6.13.82,10.22,1.33.43,6.74.65,10.11,1.08,16.84.45,7-1.85,10.48-9.13,9.5a20.66,20.66,0,0,1-7.25-2.5C91.8,198.54,91.88,196.78,92,193.26Z" transform="translate(-87.98 -16.94)"/><path class="cls-6" d="M110.59,192.05c-.54-8.64,3.39-13.71,12.19-12.74s13.25,6.28,13.71,15.46c.43,8.58-3.52,13.85-12.2,12.9S111.17,201.24,110.59,192.05Zm15.3,1.72c-.16-2.88-.85-5.17-2.68-5.37s-2.19,1.93-2,4.72.87,5.26,2.69,5.46S126,196.55,125.89,193.77Z" transform="translate(-87.98 -16.94)"/><path class="cls-6" d="M152.61,182.93c4.1.34,6.15.49,10.26.79l.58,15.72c.3,8.27-4,11.52-11.55,10.89s-12.15-4.62-12.55-12.9c-.31-6.29-.46-9.44-.77-15.73,4.1.39,6.15.57,10.26.92l.67,15.39c.08,1.88.61,3,2,3.15s1.82-1,1.74-2.84C153,192.16,152.87,189.09,152.61,182.93Z" transform="translate(-87.98 -16.94)"/><path class="cls-6" d="M180.83,211.56c-1.19-2.92-1.78-4.38-3-7.3H177l.22,7.11c-4.06-.24-6.08-.37-10.14-.64-.37-10.71-.56-16.06-.94-26.77,5.58.38,8.37.55,14,.86,6.93.38,10.66,4.12,10.8,9.94a8.1,8.1,0,0,1-3.83,7.31l4.84,10.05C187.49,211.92,185.27,211.81,180.83,211.56Zm-2.54-14.46c1.39,0,2-.87,2-2.45s-.94-2.32-2.61-2.41l-1.18-.07.15,4.88Z" transform="translate(-87.98 -16.94)"/><path class="cls-6" d="M208.27,213l-3.36-7.11a4.67,4.67,0,0,1-.51-2.07H204l.15,8.81c-3.89-.12-5.83-.2-9.71-.36-.23-10.7-.35-16.05-.58-26.75,4.57.19,6.85.28,11.42.42l3.4,7.11a4.67,4.67,0,0,1,.51,2.07h.43c-.05-3.63-.07-5.44-.12-9.07,3.94.11,5.9.15,9.84.22l.25,27C215,213.15,212.78,213.09,208.27,213Z" transform="translate(-87.98 -16.94)"/><path class="cls-6" d="M238.72,213.13l-.35-2.31h-5.12l-.35,2.31c-4.47,0-6.71-.05-11.19-.12,2.52-10.65,3.8-16,6.38-26.65,6.14.05,9.21.06,15.34,0,2.63,10.68,3.92,16,6.48,26.68C245.43,213.11,243.19,213.12,238.72,213.13Zm-2.45-16.73a11.92,11.92,0,0,1-.26-2.48h-.44a11.35,11.35,0,0,1-.26,2.48L234.06,203h3.48C237,200.35,236.78,199,236.27,196.4Z" transform="translate(-87.98 -16.94)"/><path class="cls-6" d="M252.07,213l.2-26.74c4.11,0,6.17-.09,10.28-.19-.09,7-.13,10.55-.22,17.58,3.25-.07,4.87-.12,8.11-.22l-.15,9.16C263,212.85,259.36,212.93,252.07,213Z" transform="translate(-87.98 -16.94)"/><path class="cls-6" d="M272.89,212.53c.19-10.69.28-16,.47-26.74,4.11-.14,6.17-.22,10.28-.4-.24,10.7-.37,16.05-.61,26.75C279,212.32,277,212.4,272.89,212.53Z" transform="translate(-87.98 -16.94)"/><path class="cls-6" d="M287.28,201.56a17.55,17.55,0,0,0,8.72,2.07c.74,0,1.18-.37,1.19-.75s-.37-.67-.88-.77c-6.15-.93-10.24-3-10.1-8.71s4.3-9.08,10.89-9.45c4.7-.27,8.67.07,11.43,1.3-.63,3.56-.95,5.34-1.57,8.9a18.52,18.52,0,0,0-8.45-1.65c-.7,0-1.11.36-1.12.71s.38.66,1,.75c6.91.84,10.15,2.78,10,8.26-.22,6.34-4.53,9.6-11.71,10-3.68.21-7.78-.14-10.82-1.8C286.39,206.88,286.68,205.11,287.28,201.56Z" transform="translate(-87.98 -16.94)"/><path class="cls-6" d="M334.16,208.64l.8-13-.39,0a12.38,12.38,0,0,1-.42,2.47c-1.08,4.12-1.62,6.17-2.69,10.28-3.67.33-5.5.49-9.17.79-.72-3.95-1.07-5.93-1.8-9.89a10.46,10.46,0,0,1-.2-2.42l-.39,0c-.14,5.17-.21,7.76-.36,12.93-3.65.29-5.47.43-9.13.68.74-10.73,1.1-16.1,1.85-26.83,5.37-.38,8.05-.59,13.42-1,.61,4,.92,5.94,1.53,9.9a10.76,10.76,0,0,1,.11,2.3l.39,0a11.67,11.67,0,0,1,.32-2.34c.92-4.09,1.37-6.14,2.29-10.23,5.4-.48,8.1-.73,13.49-1.28-.2,10.69-.31,16-.53,26.72C339.64,208.12,337.81,208.3,334.16,208.64Z" transform="translate(-87.98 -16.94)"/><path class="cls-6" d="M373.71,204.73l-1.43-2.32a15.6,15.6,0,0,1-9.06,3.87c-5.73.7-9.27-1.85-9-6.53a9,9,0,0,1,5.93-7.76,5.69,5.69,0,0,1-3.4-5.36c.22-3.78,4.22-8.23,11.09-9.09,5.81-.72,10.35,1.17,10.05,5.47-.19,2.79-2.63,5.13-5.17,6.39l1,.81,1.92-2.22c3.75-.49,5.63-.75,9.37-1.29l-6.53,8.7a71.48,71.48,0,0,1,4.47,6.83C379.27,203.25,377.41,203.75,373.71,204.73Zm-8.86-9.43a4.35,4.35,0,0,0-.72,2c-.08,1.28.65,1.88,1.47,1.77a3.17,3.17,0,0,0,2.2-1.55A8,8,0,0,0,364.85,195.3Zm3.68-9.7c.05-.78-.31-1.29-1-1.2a1.56,1.56,0,0,0-.23,3A2.61,2.61,0,0,0,368.53,185.6Z" transform="translate(-87.98 -16.94)"/><path class="cls-6" d="M114.08,256.86c-.19-.94-.29-1.41-.48-2.36-2-.24-3-.37-5-.63-.08.92-.11,1.37-.19,2.28-4.33-.56-6.5-.85-10.83-1.46,1.75-10.39,2.65-15.59,4.47-26,5.94.79,8.91,1.17,14.86,1.87q4,13.77,8,27.57C120.59,257.65,118.42,257.4,114.08,256.86Zm-3.43-17.09a12.74,12.74,0,0,1-.41-2.52l-.43-.05a11.77,11.77,0,0,1-.09,2.46l-.8,6.46,3.38.42Z" transform="translate(-87.98 -16.94)"/><path class="cls-6" d="M137.89,232.84c4,.39,6,.58,10,.93.29,6.3.43,9.44.72,15.73.37,8.28-3.76,11.47-11.13,10.74s-11.86-4.79-12.33-13.08l-.9-15.75c4,.45,6,.66,10,1.07l.8,15.39c.1,1.89.63,3.06,2,3.19s1.76-.93,1.67-2.82Z" transform="translate(-87.98 -16.94)"/><path class="cls-6" d="M152.26,260.84c-.47-10.72-.7-16.07-1.17-26.79,4.44.38,6.66.55,11.11.88,9.28.69,13,6.1,13.25,14.06.26,8.22-3.29,13.38-12.78,12.68C158.51,261.36,156.42,261.19,152.26,260.84Zm10.31-8.36c2,.14,2.62-1.22,2.52-4s-.67-4.28-3.05-4.46l-.6,0c.13,3.36.2,5,.33,8.4Z" transform="translate(-87.98 -16.94)"/><path class="cls-6" d="M178.75,262.74c-.33-10.71-.49-16.06-.81-26.76,4,.23,6,.34,10,.53.27,10.71.41,16.06.68,26.76C184.67,263.07,182.7,263,178.75,262.74Z" transform="translate(-87.98 -16.94)"/><path class="cls-6" d="M191.18,250.09c-.2-8.6,3.86-14,12.47-13.7s12.78,5.26,12.88,14.42c.09,8.56-4,14.14-12.47,13.86S191.4,259.25,191.18,250.09Zm15,.53c-.05-2.86-.64-5.1-2.43-5.16s-2.22,2.1-2.17,4.88.65,5.2,2.43,5.26S206.2,253.41,206.15,250.62Z" transform="translate(-87.98 -16.94)"/><path class="cls-6" d="M223.27,264.36c-2.62-10.73-3.94-16.1-6.63-26.85,4.47.09,6.71.13,11.18.17.77,5.4,1.15,8.09,1.9,13.49a14.74,14.74,0,0,1,.18,2.35h.43a13.46,13.46,0,0,1,.16-2.35c.71-5.39,1.07-8.08,1.79-13.47,4.47,0,6.71,0,11.18,0-2.6,10.71-3.88,16.06-6.42,26.75C231.53,264.46,228.78,264.44,223.27,264.36Z" transform="translate(-87.98 -16.94)"/><path class="cls-6" d="M245.5,264.43l.1-26.73c4,0,6-.06,10-.13l-.25,26.74C251.43,264.38,249.45,264.4,245.5,264.43Z" transform="translate(-87.98 -16.94)"/><path class="cls-6" d="M259.39,253.84a17.13,17.13,0,0,0,8.54,2.3c.72,0,1.15-.33,1.15-.71s-.37-.68-.87-.79c-6-1.1-10-3.26-10-9s4.08-9,10.5-9.16c4.59-.14,8.48.31,11.18,1.61-.57,3.55-.85,5.32-1.42,8.87a18.17,18.17,0,0,0-8.27-1.89c-.68,0-1.07.34-1.08.68s.38.67,1,.78c6.76,1,9.94,3.06,9.82,8.53-.13,6.34-4.29,9.48-11.3,9.69-3.59.11-7.59-.35-10.58-2.08C258.59,259.14,258.86,257.37,259.39,253.84Z" transform="translate(-87.98 -16.94)"/><path class="cls-6" d="M296.52,236c4-.23,6-.35,10-.62L306,251.14c-.29,8.26-4.71,12.12-12.09,12.53s-11.62-3-11.43-11.23c.15-6.28.22-9.42.36-15.7,4-.18,6-.28,10-.49-.17,6.14-.26,9.22-.43,15.36-.05,1.89.38,3,1.74,2.9s1.85-1.21,1.91-3.1C296.24,245.26,296.33,242.19,296.52,236Z" transform="translate(-87.98 -16.94)"/><path class="cls-6" d="M323,260.87c-.09-.92-.14-1.38-.24-2.29l-5,.41c-.17.93-.26,1.4-.43,2.34-4.35.34-6.53.5-10.88.8q3.65-13.62,7.36-27.23c6-.44,8.95-.69,14.91-1.22,2.09,10.49,3.11,15.73,5.13,26.21C329.5,260.3,327.32,260.5,323,260.87Zm-1.65-16.56a11.85,11.85,0,0,1-.15-2.47l-.43,0a12.35,12.35,0,0,1-.35,2.5c-.61,2.68-.91,4-1.51,6.7l3.39-.28Z" transform="translate(-87.98 -16.94)"/><path class="cls-6" d="M336,259.68c.54-10.72.8-16.08,1.34-26.8,4-.39,6-.59,10-1-.39,7-.59,10.58-1,17.63,3.15-.34,4.72-.51,7.87-.88l-.55,9.19C346.56,258.62,343,259,336,259.68Z" transform="translate(-87.98 -16.94)"/><path class="cls-6" d="M357.28,247a15.48,15.48,0,0,0,8.37,1.49c.72-.09,1.16-.45,1.19-.83s-.34-.64-.84-.71c-5.91-.52-9.79-2.29-9.45-8s4.51-9.39,10.89-10.2c4.56-.58,8.4-.51,11,.53-.75,3.61-1.12,5.42-1.86,9a16.46,16.46,0,0,0-8.11-1.09c-.68.09-1.08.44-1.1.78s.33.64.92.69c6.65.38,9.71,2.1,9.32,7.61-.45,6.36-4.73,9.91-11.7,10.8-3.57.46-7.53.38-10.4-1.07Z" transform="translate(-87.98 -16.94)"/><ellipse class="cls-7" cx="80.96" cy="126.3" rx="7.48" ry="3.76"/><path class="cls-4" d="M162.45,144.24c0-2.08,3.35-4.76,7.48-4.76a7.85,7.85,0,0,1,4.67,1.31c-1.25-1.34-3.74-2.26-6.61-2.26-4.13,0-7.48,1.9-7.48,4.24S163.86,147,168,147l.44,0C164.54,146.85,162.45,146.23,162.45,144.24Z" transform="translate(-87.98 -16.94)"/><path class="cls-4" d="M176,141.61c-.09.21-.2.41-.21.43,0,1.68-3.27,3.69-5.77,4.25A18.86,18.86,0,0,1,167,147a13.91,13.91,0,0,0,2.15,0c4.12-.23,7.47-1.69,7.26-4.18A2.25,2.25,0,0,0,176,141.61Z" transform="translate(-87.98 -16.94)"/><ellipse class="cls-7" cx="319.92" cy="223.1" rx="4.44" ry="2.23" transform="translate(-145.24 106.88) rotate(-20.14)"/><path class="cls-4" d="M316.51,225c-.42-1.16.9-3.34,3.2-4.18a4.66,4.66,0,0,1,2.87-.23,5.5,5.5,0,0,0-4.14.1c-2.31.84-3.79,2.58-3.31,3.89s2.73,1.67,5,.83l.24-.1C318.21,226,316.92,226.09,316.51,225Z" transform="translate(-87.98 -16.94)"/><path class="cls-4" d="M323.5,220.76c0,.13,0,.27,0,.28.35.93-1.07,2.72-2.35,3.55a11.72,11.72,0,0,1-1.5,1,10.25,10.25,0,0,0,1.21-.42c2.25-1,3.82-2.47,3.19-3.81A1.36,1.36,0,0,0,323.5,220.76Z" transform="translate(-87.98 -16.94)"/><path class="cls-4" d="M213.73,126.53c-8,0-14.58,2.38-14.58,5.31s6.53,5.32,14.58,5.32c0,0-8.29-.94-8.44-5.32S213.73,126.53,213.73,126.53Z" transform="translate(-87.98 -16.94)"/><path class="cls-4" d="M213.73,126.53a33.64,33.64,0,0,1,4.14,0,34.16,34.16,0,0,1,4.13.57,16.51,16.51,0,0,1,4,1.36,7.28,7.28,0,0,1,1.8,1.27,2.75,2.75,0,0,1,0,4.29,7.28,7.28,0,0,1-1.8,1.27,16.09,16.09,0,0,1-4,1.36,32.28,32.28,0,0,1-4.13.57,33.64,33.64,0,0,1-4.14,0,44.44,44.44,0,0,0,8.09-1.28,19.5,19.5,0,0,0,3.73-1.45,6.56,6.56,0,0,0,1.54-1.12,1.84,1.84,0,0,0,0-2.93,6.56,6.56,0,0,0-1.54-1.12,19.5,19.5,0,0,0-3.73-1.45A44.44,44.44,0,0,0,213.73,126.53Z" transform="translate(-87.98 -16.94)"/><path class="cls-4" d="M271.35,156.06c-5.48,1.09-9.22,5.44-8.37,9.72s6,6.85,11.46,5.75a8.06,8.06,0,0,1-7.28-6.59A7.87,7.87,0,0,1,271.35,156.06Z" transform="translate(-87.98 -16.94)"/><path class="cls-4" d="M271.35,156.06a11.19,11.19,0,0,1,7.11.28,8.57,8.57,0,0,1,3.09,2,6.62,6.62,0,0,1,1.41,7.07,8.32,8.32,0,0,1-2.06,3.07,10.93,10.93,0,0,1-3,2.05,11.88,11.88,0,0,1-3.45.95,14.07,14.07,0,0,0,3.23-1.39,10.71,10.71,0,0,0,2.68-2.14,6.55,6.55,0,0,0-2.19-10.95,10.71,10.71,0,0,0-3.3-1A13.73,13.73,0,0,0,271.35,156.06Z" transform="translate(-87.98 -16.94)"/><path class="cls-4" d="M283.85,85.68c-4.32,0-7.83,1.78-7.83,4s3.51,4,7.83,4c0,0-4.46-.71-4.53-4S283.85,85.68,283.85,85.68Z" transform="translate(-87.98 -16.94)"/><path class="cls-4" d="M283.85,85.68a11.14,11.14,0,0,1,4.82.43,6.73,6.73,0,0,1,2.23,1.17,2.86,2.86,0,0,1,0,4.78,6.92,6.92,0,0,1-2.23,1.17,11.14,11.14,0,0,1-4.82.43,16.92,16.92,0,0,0,4.54-1.16,7,7,0,0,0,1.9-1.16,2,2,0,0,0,0-3.35,7.38,7.38,0,0,0-1.9-1.16A16.91,16.91,0,0,0,283.85,85.68Z" transform="translate(-87.98 -16.94)"/><path class="cls-4" d="M188.47,275.4a6.56,6.56,0,0,1,3.69-2,11.58,11.58,0,0,0-5.22,1.14" transform="translate(-87.98 -16.94)"/><path class="cls-8" d="M186.94,274.53c-1.41.74-2.28,1.77-2.28,2.91,0,2.24,3.36,4.05,7.5,4.05,0,0-4.27-.72-4.34-4.05a3.16,3.16,0,0,1,.65-2" transform="translate(-87.98 -16.94)"/><path class="cls-4" d="M192.16,273.39a10.15,10.15,0,0,1,3.11.06,8.11,8.11,0,0,1,3,1.08,3.69,3.69,0,0,1,1.9,2.79,2.46,2.46,0,0,1-.59,1.69,2.69,2.69,0,0,1-1.4.86,4.54,4.54,0,0,0,1-2.5,2.9,2.9,0,0,0-1.4-2.1A12.8,12.8,0,0,0,192.16,273.39Z" transform="translate(-87.98 -16.94)"/><path class="cls-9" d="M237.42,17.65s46.47-2.69,46,2.4c-.39,4.31-3.5,34.81-8.67,32.17-11.89-4.77-39.38-5.84-42-4.89C232.73,47.33,237.58,19.88,237.42,17.65Z" transform="translate(-87.98 -16.94)"/><path class="cls-10" d="M237.52,17.67,235.21,34l-2.4,16.26c-.8,5.43-1.48,10.87-2.51,16.25-.52,2.69-1,5.38-1.65,8.06l-.91,4c-.34,1.33-.65,2.66-1,4l-.19,0c.07-1.38.21-2.74.32-4.11l.44-4.1c.29-2.73.67-5.44,1.05-8.16.77-5.42,1.89-10.79,2.9-16.18l3-16.17,3.1-16.15Z" transform="translate(-87.98 -16.94)"/><path class="cls-4" d="M182.38,92.59a80,80,0,0,0,18.77,23.26c3.33-4.64,13.17-9.92,20.61-11.55-2.21-10-14.29-20.39-17.21-19.44C204.55,84.86,185.61,88,182.38,92.59Z" transform="translate(-87.98 -16.94)"/><path class="cls-4" d="M227.09,82.52a27.71,27.71,0,0,0-5.14.24c-1.71.18-3.42.41-5.12.65-3.42.48-6.82,1-10.2,1.69s-6.74,1.43-10.08,2.19c-1.68.36-3.34.8-5,1.29a22.91,22.91,0,0,0-2.41.84,5,5,0,0,0-2.1,1.35l-.09,0A4.91,4.91,0,0,1,189,89a21.4,21.4,0,0,1,2.39-1.09,51.14,51.14,0,0,1,5-1.6,101.17,101.17,0,0,1,10.18-2c3.42-.54,6.84-1,10.27-1.39,1.72-.18,3.44-.34,5.17-.46a27.16,27.16,0,0,1,5.18,0Z" transform="translate(-87.98 -16.94)"/><path class="cls-2" d="M227.1,82.48" transform="translate(-87.98 -16.94)"/><path class="cls-2" d="M187,90.74" transform="translate(-87.98 -16.94)"/><g id="_01RSMk.tif" data-name="01RSMk.tif"><path class="cls-11" d="M259.43,42.38l-.8.6a8.14,8.14,0,0,1-1.18.8,4.66,4.66,0,0,1-1.32.49,6.35,6.35,0,0,1-.86.12,5.49,5.49,0,0,1-.91,0c-.26,0-.53,0-.82-.1A12.31,12.31,0,0,1,252.2,44l-.86-.28a8,8,0,0,1-1.21-.57,4.53,4.53,0,0,1-.76-.56,8.3,8.3,0,0,1-.91-1,2.7,2.7,0,0,1-.44-.86,4.64,4.64,0,0,1-.16-.74,5.35,5.35,0,0,1,0-1c0-.28.07-.55.09-.83s.11-.69.16-1,.12-.67.18-1l.15-.81c.05-.28.11-.56.16-.83s.1-.55.15-.82l.18-.81.12-.63c.05-.27.12-.55.18-.83l.12-.61c.06-.27.11-.54.17-.81s.1-.41.14-.61,0-.05.09-.05c.35,0,.71,0,1.08,0l1,0,1.31.06.91,0c.36,0,.66,0,1,0,.08,0,.07.06.07.11,0,.21-.06.43-.1.65s-.07.46-.1.69l-.12.86c0,.28-.08.56-.13.85s-.11.71-.17,1.06l-.12.85c-.05.29-.11.58-.16.87s-.09.57-.13.85-.11.58-.16.87-.07.44-.1.66l-.15.86c0,.14,0,.29,0,.43a5.15,5.15,0,0,0,0,.88,1.46,1.46,0,0,0,.7,1.12,5.43,5.43,0,0,0,.69.39,1.3,1.3,0,0,0,.49.11c.27,0,.53.06.8.07a2.41,2.41,0,0,0,1-.14,7.38,7.38,0,0,0,.81-.36,2.42,2.42,0,0,0,.56-.44,4.87,4.87,0,0,0,.59-.86,2.82,2.82,0,0,0,.19-.51,6.54,6.54,0,0,0,.24-1c.06-.31.09-.63.14-.94s.12-.58.15-.87.06-.45.1-.67.08-.63.14-.94.09-.6.13-.9.11-.59.15-.89.09-.59.14-.89.11-.6.16-.9.07-.45.11-.67.08-.59.13-.88c0-.06,0-.1.13-.08l1.1.21c.35.08.7.13,1.05.2l1,.23.78.19.46.13s0,0,0,.07c-.08.36-.14.74-.22,1.11s-.18.84-.26,1.26-.11.62-.17.92-.14.57-.18.86-.11.59-.17.89-.15.73-.21,1.09-.11.6-.16.9-.14.73-.21,1.1-.09.62-.15.93-.12.58-.16.87-.1.61-.15.92-.11.6-.16.91-.06.46-.1.68-.11.64-.15,1-.07.48-.1.72-.06.44-.1.66-.07,0-.12,0l-.52-.13-1-.23-.9-.2c-.24-.06-.49-.11-.73-.15s-.33-.07-.51-.09-.13,0-.09-.16c.07-.3.1-.61.15-.91s.09-.51.13-.76S259.4,42.6,259.43,42.38Z" transform="translate(-87.98 -16.94)"/><path class="cls-12" d="M264,26.7c0,.27-.1.5-.14.72l-.18.9c0,.13-.06.26-.08.39s-.05.07-.11.06l-1-.21-1.05-.21-1.27-.25c-.31-.05-.62-.08-.93-.1s-.66,0-1,0l-1,.05c-.31,0-.63,0-.95.06s-.65,0-1,.05l-.91,0-.87,0a1.79,1.79,0,0,0-.33,0c-.07,0-.07,0-.07-.06.09-.41.19-.82.25-1.23,0-.23.09-.46.11-.69,0-.08,0-.12.18-.12.68,0,1.22.06,1.79,0s.92-.07,1.38-.11.78-.06,1.17-.08a9.46,9.46,0,0,1,1.19,0,8.33,8.33,0,0,1,1.18.16c.4.07.82.14,1.25.23l1.33.26.83.16C264,26.61,264,26.65,264,26.7Z" transform="translate(-87.98 -16.94)"/><path class="cls-12" d="M258.86,25.22a1.65,1.65,0,0,1-2.08-1.44,2.65,2.65,0,0,1,1.86-2.54A1.88,1.88,0,0,1,261,23,2.19,2.19,0,0,1,258.86,25.22Z" transform="translate(-87.98 -16.94)"/><path class="cls-12" d="M254.09,25.43c-1.28.14-2.58-.57-2.7-1.46-.17-1.27,1.3-2.27,2.43-2.44,1.56-.25,2.25.52,2.35,1.44A2.22,2.22,0,0,1,254.09,25.43Z" transform="translate(-87.98 -16.94)"/><path class="cls-12" d="M264.24,26.08c-1.56-.18-2.58-1-2.61-2.16A2,2,0,0,1,264,22a2.37,2.37,0,0,1,2.31,2.13,1.63,1.63,0,0,1-.61,1.48A2.09,2.09,0,0,1,264.24,26.08Z" transform="translate(-87.98 -16.94)"/><path class="cls-12" d="M259.4,18a1.3,1.3,0,0,1,1.39,1.17,1.32,1.32,0,0,1-1.31,1.43c-.82.1-1.4-.3-1.44-1A1.59,1.59,0,0,1,259.4,18Z" transform="translate(-87.98 -16.94)"/></g></svg>