<svg id="Capa_1" data-name="Capa 1" xmlns="http://www.w3.org/2000/svg" viewBox="0 0 227.42 175.86"><defs><style>.cls-1{fill:#ddd;}.cls-2{fill:#009eae;}.cls-3{fill:#634e42;}.cls-4{fill:#c7c6c4;}.cls-5{fill:#adadad;}.cls-6{fill:#1d1d1b;}.cls-7{fill:#fff;}.cls-8{fill:none;}</style></defs><circle class="cls-1" cx="112.97" cy="112.68" r="62.36"/><path class="cls-2" d="M466.92,285.72s-46.48-2.68-46,2.4c.38,4.32,3.5,34.81,8.66,32.18,11.9-4.77,39.39-5.85,42.05-4.9C471.61,315.4,466.75,288,466.92,285.72Z" transform="translate(-339.59 -282.96)"/><path class="cls-3" d="M466.31,283l3.09,16.15,3,16.17c1,5.38,2.12,10.75,2.9,16.18.38,2.72.75,5.43,1.05,8.16l.44,4.09c.1,1.37.25,2.74.32,4.11l-.2,0c-.37-1.33-.68-2.67-1-4l-.92-4c-.6-2.68-1.13-5.37-1.65-8.06-1-5.38-1.71-10.83-2.5-16.25l-2.41-16.27L466.11,283Z" transform="translate(-339.59 -282.96)"/><path class="cls-4" d="M515.24,398.34c-1,12.67-5.33,27.25-14.18,37.67-13.78,16.24-52.53,38.12-88.89,7.25-18.17-15.43-31.88-45.48-14.12-78.51,0,0,1,51.67,51.3,59.67C494.14,431.54,515.24,398.34,515.24,398.34Z" transform="translate(-339.59 -282.96)"/><path class="cls-4" d="M424.07,358.65a59.94,59.94,0,0,1,8.31,2.89c1.29.55,2.58,1.1,3.83,1.7a25.06,25.06,0,0,1,3.67,2c2.34,1.55,4.6,3.61,7.28,4.64A18.88,18.88,0,0,0,455.6,371l4.26-.39,4.14-.28c2.74-.27,5.41-.69,8.1-1,5.42-.48,10.81-1.25,17-1.62l.3.64a27.05,27.05,0,0,1-7.47,5.43,32.49,32.49,0,0,1-8.75,3,34.54,34.54,0,0,1-9.25.19,33.17,33.17,0,0,1-4.55-.73,35.6,35.6,0,0,1-4.38-1.44A53.6,53.6,0,0,0,446.5,372c-2.87-.66-6.05-.64-9-1.47a17.29,17.29,0,0,1-4.16-1.8,29.59,29.59,0,0,1-3.76-2.55,25.21,25.21,0,0,1-3.32-3.14,17.19,17.19,0,0,1-2.64-3.89Z" transform="translate(-339.59 -282.96)"/><path class="cls-4" d="M406,376.08c4,2.27,7.74,4.61,11.48,6.89l2.79,1.7c.92.58,1.86,1.12,2.78,1.68,1.87,1.11,3.7,2.24,5.49,3.48,3.58,2.45,7.14,5.28,11.26,6.92a33.69,33.69,0,0,0,12.93,2.41c2.21-.05,4.38-.12,6.54-.28l1.61-.09,1.6-.14c1.07-.1,2.13-.13,3.19-.28,4.24-.48,8.35-1.51,12.49-2.39,2-.58,4.15-1,6.19-1.61l3.1-.88c1-.34,2.05-.69,3.1-1l1.56-.48c.53-.16,1-.38,1.55-.55,1-.38,2.08-.73,3.15-1.08,2.1-.74,4.17-1.59,6.42-2.24l.38.59a51.67,51.67,0,0,1-5,4.77c-.91.71-1.83,1.41-2.77,2.1-.48.34-.94.69-1.43,1l-1.49.9c-1,.61-2,1.18-3,1.76s-2.11,1-3.18,1.5l-1.61.72c-.54.23-1.1.41-1.66.61-1.1.41-2.23.76-3.35,1.13A53,53,0,0,1,466,405c-1.17,0-2.35-.07-3.52-.12a22.7,22.7,0,0,1-3.5-.37,50.92,50.92,0,0,1-6.84-1.54c-4.46-1.34-8.74-2.81-13.11-4.06s-9-2.11-13.3-3.93a33.26,33.26,0,0,1-6.07-3.36,49.25,49.25,0,0,1-5.47-4.27,43.71,43.71,0,0,1-4.83-5,29.89,29.89,0,0,1-3.9-5.8Z" transform="translate(-339.59 -282.96)"/><path class="cls-5" d="M403.93,398.81c4,2.27,7.74,4.61,11.48,6.89l2.79,1.7c.92.58,1.86,1.12,2.78,1.69,1.86,1.1,3.7,2.24,5.49,3.47,3.58,2.45,7.13,5.28,11.26,6.93a33.87,33.87,0,0,0,12.93,2.4c2.21-.05,4.38-.11,6.54-.28.54,0,1.07-.07,1.61-.08l1.6-.14c1.07-.11,2.13-.13,3.19-.28,4.24-.49,8.35-1.51,12.49-2.39,2-.59,4.15-1,6.18-1.62l3.11-.87c1-.34,2.05-.69,3.09-1l1.57-.48c.53-.17,1-.38,1.55-.56,1-.38,2.08-.73,3.15-1.07,2.1-.75,4.17-1.59,6.42-2.24l.38.58a50.49,50.49,0,0,1-5,4.77c-.91.71-1.83,1.42-2.78,2.1-.47.34-.94.69-1.42,1l-1.49.9c-1,.61-2,1.18-3,1.77s-2.11,1-3.18,1.49l-1.61.73c-.54.23-1.1.4-1.66.6-1.1.41-2.23.76-3.35,1.13a52.64,52.64,0,0,1-14,1.76c-1.17,0-2.35-.07-3.52-.11a23,23,0,0,1-3.51-.38,49.61,49.61,0,0,1-6.83-1.54c-4.46-1.34-8.74-2.81-13.11-4.06s-9-2.11-13.3-3.93a32.67,32.67,0,0,1-6.07-3.36,50.23,50.23,0,0,1-5.48-4.26,47.34,47.34,0,0,1-4.83-5,31.23,31.23,0,0,1-3.9-5.81Z" transform="translate(-339.59 -282.96)"/><path class="cls-5" d="M420.33,428.05c2.79,1.35,5.2,2.74,7.56,4.13l3.5,2.08a30.54,30.54,0,0,1,3.35,2.24c2.14,1.67,4.25,3.81,6.88,4.86a16.13,16.13,0,0,0,8.29,1l8.17-1.19c2.66-.47,5.26-1.1,7.89-1.63s5.33-1,8.1-1.45c1.39-.24,2.78-.53,4.24-.69a36.24,36.24,0,0,1,4.46-.55l.32.62a28.52,28.52,0,0,1-3.32,3.19,37.09,37.09,0,0,1-3.73,2.6,33.63,33.63,0,0,1-8.39,3.56,31.81,31.81,0,0,1-9.13.95l-2.3-.09c-.77-.06-1.53-.18-2.29-.3a18,18,0,0,1-2.26-.53c-.74-.21-1.48-.4-2.2-.68a86.7,86.7,0,0,0-8.53-2.63c-2.85-.69-6.05-.81-9-1.88a15.51,15.51,0,0,1-4-2.19,24.8,24.8,0,0,1-3.46-3,21.65,21.65,0,0,1-2.82-3.63,14.71,14.71,0,0,1-1.88-4.32Z" transform="translate(-339.59 -282.96)"/><path class="cls-6" d="M364.41,408.4c0-2.41,0-3.62.08-6l-.18,0a5.06,5.06,0,0,1-.14,1.13c-.41,1.85-.61,2.78-1,4.63l-4.24-.32c-.41-1.92-.61-2.87-1-4.78a5.5,5.5,0,0,1-.14-1.16h-.18c0,2.42.05,3.63.08,6.05l-4.21-.34.4-12.47c2.44.2,3.67.3,6.11.48l.9,4.77a5.45,5.45,0,0,1,.1,1.09l.18,0a5.29,5.29,0,0,1,.1-1.08c.34-1.85.5-2.78.84-4.63l6.16.45.4,12.53Z" transform="translate(-339.59 -282.96)"/><path class="cls-6" d="M378.06,409.33l-.16-1.09-2.36-.15-.16,1.07-5.16-.34,3-12.3,7,.44c1.21,5.07,1.81,7.61,3,12.68Zm-1.12-7.89a5.74,5.74,0,0,1-.12-1.17h-.2a5.47,5.47,0,0,1-.12,1.15c-.23,1.22-.35,1.83-.58,3l1.6.1Z" transform="translate(-339.59 -282.96)"/><path class="cls-6" d="M385,404.88a8.89,8.89,0,0,0,4.05,1.4c.34,0,.54-.11.54-.29s-.18-.33-.42-.4c-2.85-.75-4.75-1.9-4.75-4.58s1.86-4.06,4.87-3.9a12.12,12.12,0,0,1,5.24,1.21c-.23,1.63-.35,2.45-.58,4.09a9.07,9.07,0,0,0-3.9-1.22c-.32,0-.5.12-.5.28s.18.33.46.4c3.18.75,4.7,1.84,4.7,4.4,0,3-1.94,4.25-5.26,4.07a10.55,10.55,0,0,1-5-1.37C384.67,407.33,384.78,406.52,385,404.88Z" transform="translate(-339.59 -282.96)"/><path class="cls-6" d="M399.22,410.46v-8.23l-2.88-.13v-4.28c4.18.2,6.27.29,10.44.45v4.28l-2.88-.12v8.22Z" transform="translate(-339.59 -282.96)"/><path class="cls-6" d="M408.74,410.84v-12.5c3.45.12,5.17.18,8.61.28v3.64l-4-.12v1l3.18.1v3.2l-3.18-.1v1l4,.12v3.64C413.91,411,412.19,411,408.74,410.84Z" transform="translate(-339.59 -282.96)"/><path class="cls-6" d="M425.86,411.34c-.52-1.35-.77-2-1.28-3.37h-.38v3.32c-1.88,0-2.82-.06-4.69-.12v-12.5l6.37.16c3.16.07,4.82,1.78,4.82,4.5a4,4,0,0,1-1.84,3.46c.85,1.86,1.27,2.79,2.12,4.64C428.93,411.41,427.91,411.39,425.86,411.34Zm-1-6.72c.64-.05.94-.44.94-1.18s-.4-1.07-1.16-1.09h-.54v2.28Z" transform="translate(-339.59 -282.96)"/><path class="cls-6" d="M432.76,404a2.71,2.71,0,0,0,1.6-2.25c0-.64-.46-1.27-1.9-1.45a2.55,2.55,0,0,1,2.64-2.42,2.73,2.73,0,0,1,2.79,3c0,2.22-1.88,3.9-3.83,4.79Z" transform="translate(-339.59 -282.96)"/><path class="cls-6" d="M440.09,406.71a8.46,8.46,0,0,0,4.05,1.21c.34,0,.54-.13.54-.31s-.18-.32-.42-.39c-2.85-.61-4.75-1.68-4.75-4.36s1.86-4.14,4.87-4.12a11.92,11.92,0,0,1,5.24,1c-.23,1.65-.34,2.47-.58,4.12a8.77,8.77,0,0,0-3.9-1c-.32,0-.5.14-.5.3s.18.32.46.38c3.18.6,4.7,1.62,4.7,4.18,0,3-1.94,4.34-5.26,4.32a10.1,10.1,0,0,1-5-1.15C439.74,409.18,439.86,408.36,440.09,406.71Z" transform="translate(-339.59 -282.96)"/><path class="cls-6" d="M456.39,411.63V399.12c2.08,0,3.12,0,5.2,0,4.35,0,6,2.38,6,6.1s-1.76,6.37-6.27,6.41Zm5.07-4.33c.94,0,1.26-.67,1.26-1.95s-.24-2-1.36-2h-.29v3.92Z" transform="translate(-339.59 -282.96)"/><path class="cls-6" d="M469.72,411.51V399c3.45-.05,5.17-.08,8.61-.15v3.64l-4,.08v1l3.18-.07v3.21l-3.18.06v1l4-.08v3.64C474.89,411.42,473.17,411.46,469.72,411.51Z" transform="translate(-339.59 -282.96)"/><path class="cls-6" d="M491.08,410.38a10.23,10.23,0,0,1-4.74,1.13c-4,.11-6.39-2.08-6.39-6.4,0-4.06,2.33-6.71,6.49-6.83a10.34,10.34,0,0,1,4.26.69c-.35,1.55-.52,2.33-.88,3.87a7.84,7.84,0,0,0-2.8-.45c-1.66.05-2.18,1.1-2.18,2.66s.5,2.67,2,2.62v-1.06l-1,0v-3.12l5.2-.16Z" transform="translate(-339.59 -282.96)"/><path class="cls-6" d="M499.71,410.69l-1.28-3.29-.38,0v3.32l-4.69.17v-12.5l6.37-.24c3.16-.12,4.82,1.48,4.82,4.2a4.31,4.31,0,0,1-1.84,3.58l2.12,4.51Zm-1-6.66c.64-.08.94-.5.94-1.24s-.4-1-1.16-1l-.54,0v2.28Z" transform="translate(-339.59 -282.96)"/><path class="cls-6" d="M506.73,410.4V397.89c3.44-.15,5.16-.24,8.6-.42v3.64c-1.58.08-2.37.13-4,.2v1l3.18-.16v3.2l-3.18.16v1c1.59-.07,2.38-.11,4-.2V410C511.89,410.15,510.17,410.24,506.73,410.4Z" transform="translate(-339.59 -282.96)"/><path class="cls-6" d="M517.49,409.86v-12.5l8.6-.5v3.64l-4,.23v1l3.18-.19v3.2l-3.18.19v1l4-.23v3.64Z" transform="translate(-339.59 -282.96)"/><path class="cls-6" d="M532.81,408.92v-12.5l4.68-.32v12.5Z" transform="translate(-339.59 -282.96)"/><path class="cls-6" d="M546.24,408.06l-1.5-3.16a2,2,0,0,1-.22-.94h-.2v4.12l-4.48.34v-12.5l5.2-.39,1.5,3.16a2,2,0,0,1,.22.94h.2v-4.25l4.47-.36v12.62C549.35,407.82,548.31,407.9,546.24,408.06Z" transform="translate(-339.59 -282.96)"/><path class="cls-6" d="M349.42,431.2c-.33-1.74-.49-2.61-.82-4.35a5.2,5.2,0,0,1-.12-1.09h-.18a5,5,0,0,1-.12,1.07c-.33,1.68-.49,2.52-.82,4.21l-4.93-.45c-1.14-5.1-1.7-7.66-2.84-12.76l5.11.47.5,4.56a8.43,8.43,0,0,1,.06,1h.18a5.46,5.46,0,0,1,.1-1.07l.8-4.37,4.12.36c.32,1.81.48,2.71.79,4.51a5.71,5.71,0,0,1,.1,1.09h.18a8,8,0,0,1,.06-1l.5-4.48,5.12.42c-1.14,4.91-1.7,7.36-2.84,12.27C352.39,431.46,351.4,431.38,349.42,431.2Z" transform="translate(-339.59 -282.96)"/><path class="cls-6" d="M359.14,432V419.5c3.44.27,5.16.4,8.6.64v3.64l-4-.29v1l3.18.24v3.2l-3.18-.23v1l4,.28v3.64C364.3,432.4,362.58,432.27,359.14,432Z" transform="translate(-339.59 -282.96)"/><path class="cls-6" d="M369.89,432.79v-12.5l5.86.39c4,.26,5,1.75,5,3.73a2.51,2.51,0,0,1-1.62,2.42,3.15,3.15,0,0,1,1.76,2.81c0,2.12-.9,3.81-5.18,3.54Zm5.34-7.28a.6.6,0,0,0,.66-.64.71.71,0,0,0-.66-.74l-.7-.05v1.38Zm.28,4.18a.62.62,0,0,0,.66-.66.69.69,0,0,0-.66-.72l-1-.07v1.38Z" transform="translate(-339.59 -282.96)"/><path class="cls-6" d="M396.45,434.59l-.74-1.22a5.78,5.78,0,0,1-4.12,1.08c-2.66-.13-4.38-1.61-4.38-3.79a3.16,3.16,0,0,1,2.54-3.18,3.55,3.55,0,0,1-1.72-2.8c0-1.76,1.72-3.54,4.86-3.38,2.66.13,4.82,1.4,4.82,3.41a2.88,2.88,0,0,1-2.2,2.57l.5.47.82-.88,4.32.19-2.76,3.54c.9,1.24,1.7,2.55,2.32,3.6ZM392,429.41a1.69,1.69,0,0,0-.28.89.86.86,0,0,0,.74,1,1.13,1.13,0,0,0,1-.55A5.5,5.5,0,0,0,392,429.41Zm1.42-4.27c0-.36-.18-.63-.5-.64s-.52.21-.52.61a1,1,0,0,0,.5.77A.91.91,0,0,0,393.45,425.14Z" transform="translate(-339.59 -282.96)"/><path class="cls-6" d="M418.18,434.53a10,10,0,0,1-4.74.83c-4-.13-6.39-2.46-6.39-6.78,0-4.06,2.32-6.57,6.49-6.44a10.63,10.63,0,0,1,4.26.95c-.35,1.53-.53,2.29-.88,3.82a7.87,7.87,0,0,0-2.8-.63c-1.66,0-2.18,1-2.18,2.53s.5,2.7,2,2.75V430.5l-1,0v-3.13c2.08.07,3.12.11,5.2.16Z" transform="translate(-339.59 -282.96)"/><path class="cls-6" d="M426.81,435.36,425.53,432h-.38v3.32l-4.69-.11v-12.5c2.55.06,3.82.1,6.37.15,3.16.07,4.83,1.77,4.83,4.49a4,4,0,0,1-1.85,3.47l2.13,4.64Zm-1-6.72c.64-.05.94-.44.94-1.18s-.4-1.07-1.16-1.09h-.54v2.28Z" transform="translate(-339.59 -282.96)"/><path class="cls-6" d="M441.08,435.58l-.16-1.08-2.36,0-.16,1.08-5.17-.07c1.21-5,1.81-7.47,3-12.46l7,.08,3,12.52ZM440,427.75a5.57,5.57,0,0,1-.12-1.16h-.2a5.57,5.57,0,0,1-.12,1.16l-.58,3.08h1.6Z" transform="translate(-339.59 -282.96)"/><path class="cls-6" d="M448,435.62v-12.5h5.61c3.5,0,5.38,1.94,5.38,4.88,0,3.28-1.84,5.1-5.64,5.1h-.66v2.52Zm5-6c.76,0,1.14-.54,1.14-1.46s-.42-1.34-1.1-1.34h-.46v2.8Z" transform="translate(-339.59 -282.96)"/><path class="cls-6" d="M467.39,435.54v-4.16l-1.72,0v4.16l-4.69,0V423.1l4.69,0v4.06l1.72,0V423l4.69-.07v12.5Z" transform="translate(-339.59 -282.96)"/><path class="cls-6" d="M474.44,435.43v-12.5l4.68-.1v12.5Z" transform="translate(-339.59 -282.96)"/><path class="cls-6" d="M490.57,434.82a9.44,9.44,0,0,1-3.26.66c-3.92.12-6.07-2.34-6.07-6.4s2.15-6.71,6.07-6.82a9.34,9.34,0,0,1,3.26.46c-.36,1.68-.55,2.52-.92,4.21a3.42,3.42,0,0,0-1.72-.41c-1.12,0-1.8.91-1.8,2.35s.68,2.34,1.8,2.31a3.66,3.66,0,0,0,1.72-.51C490,432.33,490.21,433.16,490.57,434.82Z" transform="translate(-339.59 -282.96)"/><path class="cls-6" d="M497.21,434.79v-12.5l5.21-.21c4.34-.18,6,2.18,6,5.9s-1.76,6.43-6.26,6.61C500.18,434.68,499.19,434.72,497.21,434.79Zm5.07-4.5c.94,0,1.26-.71,1.26-2s-.24-2-1.36-1.92h-.28v3.92Z" transform="translate(-339.59 -282.96)"/><path class="cls-6" d="M510.54,434.22V421.71c3.44-.16,5.16-.25,8.6-.45v3.64l-4,.22v1l3.18-.17v3.2l-3.18.17v1l4-.21v3.64Z" transform="translate(-339.59 -282.96)"/><path class="cls-6" d="M521.54,428.77a8.17,8.17,0,0,0,4,.94c.34,0,.54-.18.54-.36s-.18-.3-.42-.35c-2.84-.43-4.74-1.36-4.74-4s1.86-4.26,4.86-4.45a11.54,11.54,0,0,1,5.24.61c-.23,1.66-.35,2.49-.58,4.16a8.49,8.49,0,0,0-3.9-.78c-.32,0-.5.18-.5.34s.18.3.46.35c3.18.38,4.7,1.3,4.7,3.86,0,3-1.94,4.47-5.26,4.67a9.7,9.7,0,0,1-5-.8C521.19,431.26,521.31,430.43,521.54,428.77Z" transform="translate(-339.59 -282.96)"/><path class="cls-6" d="M533.26,432.89v-12.5l4.67-.32v12.5Z" transform="translate(-339.59 -282.96)"/><path class="cls-6" d="M551.16,430.93a10.72,10.72,0,0,1-4.73,1.36c-4,.31-6.38-1.76-6.38-6.08,0-4.06,2.32-6.82,6.48-7.15a9.91,9.91,0,0,1,4.25.48c-.35,1.56-.53,2.34-.88,3.91a7.42,7.42,0,0,0-2.79-.32c-1.66.13-2.18,1.21-2.18,2.77s.5,2.65,2,2.52v-1.05l-1,.07v-3.12c2.07-.16,3.11-.24,5.19-.42Z" transform="translate(-339.59 -282.96)"/><path class="cls-6" d="M559.83,430.92l-1.5-3.15a2,2,0,0,1-.22-.94l-.2,0V431l-4.47.39V418.85l5.19-.45,1.5,3.15a2,2,0,0,1,.22.94l.19,0v-4.24l4.48-.41v12.62Z" transform="translate(-339.59 -282.96)"/><path class="cls-7" d="M366.41,410.4c0-2.41,0-3.62.08-6l-.18,0a5.06,5.06,0,0,1-.14,1.13c-.41,1.85-.61,2.78-1,4.63l-4.24-.32c-.41-1.92-.61-2.87-1-4.78a5.5,5.5,0,0,1-.14-1.16h-.18c0,2.42.05,3.63.08,6.05l-4.21-.34.4-12.47c2.44.2,3.67.3,6.11.48l.9,4.77a5.45,5.45,0,0,1,.1,1.09l.18,0a5.29,5.29,0,0,1,.1-1.08c.34-1.85.5-2.78.84-4.63l6.16.45.4,12.53Z" transform="translate(-339.59 -282.96)"/><path class="cls-7" d="M380.06,411.33l-.16-1.09-2.36-.15-.16,1.07-5.16-.34,3-12.3,7,.44c1.21,5.07,1.81,7.61,3,12.68Zm-1.12-7.89a5.74,5.74,0,0,1-.12-1.17h-.2a5.47,5.47,0,0,1-.12,1.15c-.23,1.22-.35,1.83-.58,3l1.6.1Z" transform="translate(-339.59 -282.96)"/><path class="cls-7" d="M387,406.88a8.89,8.89,0,0,0,4.05,1.4c.34,0,.54-.11.54-.29s-.18-.33-.42-.4c-2.85-.75-4.75-1.9-4.75-4.58s1.86-4.06,4.87-3.9a12.12,12.12,0,0,1,5.24,1.21c-.23,1.63-.35,2.45-.58,4.09a9.07,9.07,0,0,0-3.9-1.22c-.32,0-.5.12-.5.28s.18.33.46.4c3.18.75,4.7,1.84,4.7,4.4,0,3-1.94,4.25-5.26,4.07a10.55,10.55,0,0,1-5-1.37C386.67,409.33,386.78,408.52,387,406.88Z" transform="translate(-339.59 -282.96)"/><path class="cls-7" d="M401.22,412.46v-8.23l-2.88-.13v-4.28c4.18.2,6.27.29,10.44.45v4.28l-2.88-.12v8.22Z" transform="translate(-339.59 -282.96)"/><path class="cls-7" d="M410.74,412.84v-12.5c3.45.12,5.17.18,8.61.28v3.64l-4-.12v1l3.18.1v3.2l-3.18-.1v1l4,.12v3.64C415.91,413,414.19,413,410.74,412.84Z" transform="translate(-339.59 -282.96)"/><path class="cls-7" d="M427.86,413.34c-.52-1.35-.77-2-1.28-3.37h-.38v3.32c-1.88,0-2.82-.06-4.69-.12v-12.5l6.37.16c3.16.07,4.82,1.78,4.82,4.5a4,4,0,0,1-1.84,3.46c.85,1.86,1.27,2.79,2.12,4.64C430.93,413.41,429.91,413.39,427.86,413.34Zm-1-6.72c.64-.05.94-.44.94-1.18s-.4-1.07-1.16-1.09h-.54v2.28Z" transform="translate(-339.59 -282.96)"/><path class="cls-7" d="M434.76,406a2.71,2.71,0,0,0,1.6-2.25c0-.64-.46-1.27-1.9-1.45a2.55,2.55,0,0,1,2.64-2.42,2.73,2.73,0,0,1,2.79,3c0,2.22-1.88,3.9-3.83,4.79Z" transform="translate(-339.59 -282.96)"/><path class="cls-7" d="M442.09,408.71a8.46,8.46,0,0,0,4.05,1.21c.34,0,.54-.13.54-.31s-.18-.32-.42-.39c-2.85-.61-4.75-1.68-4.75-4.36s1.86-4.14,4.87-4.12a11.92,11.92,0,0,1,5.24,1c-.23,1.65-.34,2.47-.58,4.12a8.77,8.77,0,0,0-3.9-1c-.32,0-.5.14-.5.3s.18.32.46.38c3.18.6,4.7,1.62,4.7,4.18,0,3-1.94,4.34-5.26,4.32a10.1,10.1,0,0,1-5-1.15C441.74,411.18,441.86,410.36,442.09,408.71Z" transform="translate(-339.59 -282.96)"/><path class="cls-7" d="M458.39,413.63V401.12c2.08,0,3.12,0,5.2,0,4.35,0,6,2.38,6,6.1s-1.76,6.37-6.27,6.41Zm5.07-4.33c.94,0,1.26-.67,1.26-1.95s-.24-2-1.36-2h-.29v3.92Z" transform="translate(-339.59 -282.96)"/><path class="cls-7" d="M471.72,413.51V401c3.45-.05,5.17-.08,8.61-.15v3.64l-4,.08v1l3.18-.07v3.21l-3.18.06v1l4-.08v3.64C476.89,413.42,475.17,413.46,471.72,413.51Z" transform="translate(-339.59 -282.96)"/><path class="cls-7" d="M493.08,412.38a10.23,10.23,0,0,1-4.74,1.13c-4,.11-6.39-2.08-6.39-6.4,0-4.06,2.33-6.71,6.49-6.83a10.34,10.34,0,0,1,4.26.69c-.35,1.55-.52,2.33-.88,3.87a7.84,7.84,0,0,0-2.8-.45c-1.66.05-2.18,1.1-2.18,2.66s.5,2.67,2,2.62v-1.06l-1,0v-3.12l5.2-.16Z" transform="translate(-339.59 -282.96)"/><path class="cls-7" d="M501.71,412.69l-1.28-3.29-.38,0v3.32l-4.69.17v-12.5l6.37-.24c3.16-.12,4.82,1.48,4.82,4.2a4.31,4.31,0,0,1-1.84,3.58l2.12,4.51Zm-1-6.66c.64-.08.94-.5.94-1.24s-.4-1-1.16-1l-.54,0v2.28Z" transform="translate(-339.59 -282.96)"/><path class="cls-7" d="M508.73,412.4V399.89c3.44-.15,5.16-.24,8.6-.42v3.64c-1.58.08-2.37.13-4,.2v1l3.18-.16v3.2l-3.18.16v1c1.59-.07,2.38-.11,4-.2V412C513.89,412.15,512.17,412.24,508.73,412.4Z" transform="translate(-339.59 -282.96)"/><path class="cls-7" d="M519.49,411.86v-12.5l8.6-.5v3.64l-4,.23v1l3.18-.19v3.2l-3.18.19v1l4-.23v3.64Z" transform="translate(-339.59 -282.96)"/><path class="cls-7" d="M534.81,410.92v-12.5l4.68-.32v12.5Z" transform="translate(-339.59 -282.96)"/><path class="cls-7" d="M548.24,410.06l-1.5-3.16a2,2,0,0,1-.22-.94h-.2v4.12l-4.48.34v-12.5l5.2-.39,1.5,3.16a2,2,0,0,1,.22.94h.2v-4.25l4.47-.36v12.62C551.35,409.82,550.31,409.9,548.24,410.06Z" transform="translate(-339.59 -282.96)"/><path class="cls-7" d="M351.42,433.2c-.33-1.74-.49-2.61-.82-4.35a5.2,5.2,0,0,1-.12-1.09h-.18a5,5,0,0,1-.12,1.07c-.33,1.68-.49,2.52-.82,4.21l-4.93-.45c-1.14-5.1-1.7-7.66-2.84-12.76l5.11.47.5,4.56a8.43,8.43,0,0,1,.06,1h.18a5.46,5.46,0,0,1,.1-1.07l.8-4.37,4.12.36c.32,1.81.48,2.71.79,4.51a5.71,5.71,0,0,1,.1,1.09h.18a8,8,0,0,1,.06-1l.5-4.48,5.12.42c-1.14,4.91-1.7,7.36-2.84,12.27C354.39,433.46,353.4,433.38,351.42,433.2Z" transform="translate(-339.59 -282.96)"/><path class="cls-7" d="M361.14,434V421.5c3.44.27,5.16.4,8.6.64v3.64l-4-.29v1l3.18.24v3.2l-3.18-.23v1l4,.28v3.64C366.3,434.4,364.58,434.27,361.14,434Z" transform="translate(-339.59 -282.96)"/><path class="cls-7" d="M371.89,434.79v-12.5l5.86.39c4,.26,5,1.75,5,3.73a2.51,2.51,0,0,1-1.62,2.42,3.15,3.15,0,0,1,1.76,2.81c0,2.12-.9,3.81-5.18,3.54Zm5.34-7.28a.6.6,0,0,0,.66-.64.71.71,0,0,0-.66-.74l-.7-.05v1.38Zm.28,4.18a.62.62,0,0,0,.66-.66.69.69,0,0,0-.66-.72l-1-.07v1.38Z" transform="translate(-339.59 -282.96)"/><path class="cls-7" d="M398.45,436.59l-.74-1.22a5.78,5.78,0,0,1-4.12,1.08c-2.66-.13-4.38-1.61-4.38-3.79a3.16,3.16,0,0,1,2.54-3.18,3.55,3.55,0,0,1-1.72-2.8c0-1.76,1.72-3.54,4.86-3.38,2.66.13,4.82,1.4,4.82,3.41a2.88,2.88,0,0,1-2.2,2.57l.5.47.82-.88,4.32.19-2.76,3.54c.9,1.24,1.7,2.55,2.32,3.6ZM394,431.41a1.69,1.69,0,0,0-.28.89.86.86,0,0,0,.74,1,1.13,1.13,0,0,0,1-.55A5.5,5.5,0,0,0,394,431.41Zm1.42-4.27c0-.36-.18-.63-.5-.64s-.52.21-.52.61a1,1,0,0,0,.5.77A.91.91,0,0,0,395.45,427.14Z" transform="translate(-339.59 -282.96)"/><path class="cls-7" d="M420.18,436.53a10,10,0,0,1-4.74.83c-4-.13-6.39-2.46-6.39-6.78,0-4.06,2.32-6.57,6.49-6.44a10.63,10.63,0,0,1,4.26.95c-.35,1.53-.53,2.29-.88,3.82a7.87,7.87,0,0,0-2.8-.63c-1.66,0-2.18,1-2.18,2.53s.5,2.7,2,2.75V432.5l-1,0v-3.13c2.08.07,3.12.11,5.2.16Z" transform="translate(-339.59 -282.96)"/><path class="cls-7" d="M428.81,437.36,427.53,434h-.38v3.32l-4.69-.11v-12.5c2.55.06,3.82.1,6.37.15,3.16.07,4.83,1.77,4.83,4.49a4,4,0,0,1-1.85,3.47l2.13,4.64Zm-1-6.72c.64-.05.94-.44.94-1.18s-.4-1.07-1.16-1.09h-.54v2.28Z" transform="translate(-339.59 -282.96)"/><path class="cls-7" d="M443.08,437.58l-.16-1.08-2.36,0-.16,1.08-5.17-.07c1.21-5,1.81-7.47,3-12.46l7,.08,3,12.52ZM442,429.75a5.57,5.57,0,0,1-.12-1.16h-.2a5.57,5.57,0,0,1-.12,1.16l-.58,3.08h1.6Z" transform="translate(-339.59 -282.96)"/><path class="cls-7" d="M450,437.62v-12.5h5.61c3.5,0,5.38,1.94,5.38,4.88,0,3.28-1.84,5.1-5.64,5.1h-.66v2.52Zm5-6c.76,0,1.14-.54,1.14-1.46s-.42-1.34-1.1-1.34h-.46v2.8Z" transform="translate(-339.59 -282.96)"/><path class="cls-7" d="M469.39,437.54v-4.16l-1.72,0v4.16l-4.69,0V425.1l4.69,0v4.06l1.72,0V425l4.69-.07v12.5Z" transform="translate(-339.59 -282.96)"/><path class="cls-7" d="M476.44,437.43v-12.5l4.68-.1v12.5Z" transform="translate(-339.59 -282.96)"/><path class="cls-7" d="M492.57,436.82a9.44,9.44,0,0,1-3.26.66c-3.92.12-6.07-2.34-6.07-6.4s2.15-6.71,6.07-6.82a9.34,9.34,0,0,1,3.26.46c-.36,1.68-.55,2.52-.92,4.21a3.42,3.42,0,0,0-1.72-.41c-1.12,0-1.8.91-1.8,2.35s.68,2.34,1.8,2.31a3.66,3.66,0,0,0,1.72-.51C492,434.33,492.21,435.16,492.57,436.82Z" transform="translate(-339.59 -282.96)"/><path class="cls-7" d="M499.21,436.79v-12.5l5.21-.21c4.34-.18,6,2.18,6,5.9s-1.76,6.43-6.26,6.61C502.18,436.68,501.19,436.72,499.21,436.79Zm5.07-4.5c.94,0,1.26-.71,1.26-2s-.24-2-1.36-1.92h-.28v3.92Z" transform="translate(-339.59 -282.96)"/><path class="cls-7" d="M512.54,436.22V423.71c3.44-.16,5.16-.25,8.6-.45v3.64l-4,.22v1l3.18-.17v3.2l-3.18.17v1l4-.21v3.64Z" transform="translate(-339.59 -282.96)"/><path class="cls-7" d="M523.54,430.77a8.17,8.17,0,0,0,4,.94c.34,0,.54-.18.54-.36s-.18-.3-.42-.35c-2.84-.43-4.74-1.36-4.74-4s1.86-4.26,4.86-4.45a11.54,11.54,0,0,1,5.24.61c-.23,1.66-.35,2.49-.58,4.16a8.49,8.49,0,0,0-3.9-.78c-.32,0-.5.18-.5.34s.18.3.46.35c3.18.38,4.7,1.3,4.7,3.86,0,3-1.94,4.47-5.26,4.67a9.7,9.7,0,0,1-5-.8C523.19,433.26,523.31,432.43,523.54,430.77Z" transform="translate(-339.59 -282.96)"/><path class="cls-7" d="M535.26,434.89v-12.5l4.67-.32v12.5Z" transform="translate(-339.59 -282.96)"/><path class="cls-7" d="M553.16,432.93a10.72,10.72,0,0,1-4.73,1.36c-4,.31-6.38-1.76-6.38-6.08,0-4.06,2.32-6.82,6.48-7.15a9.91,9.91,0,0,1,4.25.48c-.35,1.56-.53,2.34-.88,3.91a7.42,7.42,0,0,0-2.79-.32c-1.66.13-2.18,1.21-2.18,2.77s.5,2.65,2,2.52v-1.05l-1,.07v-3.12c2.07-.16,3.11-.24,5.19-.42Z" transform="translate(-339.59 -282.96)"/><path class="cls-7" d="M561.83,432.92l-1.5-3.15a2,2,0,0,1-.22-.94l-.2,0V433l-4.47.39V420.85l5.19-.45,1.5,3.15a2,2,0,0,1,.22.94l.19,0v-4.24l4.48-.41v12.62Z" transform="translate(-339.59 -282.96)"/><path class="cls-7" d="M448.71,447.39a2.15,2.15,0,0,0-1.26.29,1.88,1.88,0,0,0-.79.9,3.25,3.25,0,0,0-.26,1.37,3.6,3.6,0,0,0,.14,1.07,2.65,2.65,0,0,0,.42.88,2.19,2.19,0,0,0,.73.61,2.61,2.61,0,0,0,1,.25,3.17,3.17,0,0,0,1.55-.33c.05.27.08.4.13.66a3.21,3.21,0,0,1-1.77.34,3.66,3.66,0,0,1-1.32-.32,2.68,2.68,0,0,1-1-.76,3.45,3.45,0,0,1-.58-1.11,4.67,4.67,0,0,1-.19-1.39,4,4,0,0,1,.21-1.33,2.94,2.94,0,0,1,.61-1,2.4,2.4,0,0,1,1-.61,3.44,3.44,0,0,1,1.31-.18,3.58,3.58,0,0,1,1.85.56l-.3.61A3.12,3.12,0,0,0,448.71,447.39Z" transform="translate(-339.59 -282.96)"/><path class="cls-7" d="M451.87,453.44v-6.5c1.49,0,2.24,0,3.73,0l0,.67c-1.18,0-1.76,0-2.94,0v2.12c1.12,0,1.68,0,2.79,0v.66c-1.11,0-1.67,0-2.79,0v2.36c1.21,0,1.82,0,3,0,0,.27,0,.41,0,.68C454.13,453.45,453.37,453.46,451.87,453.44Z" transform="translate(-339.59 -282.96)"/><path class="cls-7" d="M461.14,446.61l.81-.07c-.94,2.69-1.41,4-2.36,6.69l-.79,0c-.94-2.54-1.41-3.82-2.35-6.39l.81,0,1.45,4.05c.19.52.35,1,.49,1.48,0-.22.21-.74.49-1.56C460.15,449.5,460.63,448.08,461.14,446.61Z" transform="translate(-339.59 -282.96)"/><path class="cls-6" d="M447.71,447.34a2.14,2.14,0,0,0-1.26.27,1.9,1.9,0,0,0-.79.89,3.42,3.42,0,0,0-.26,1.37,4,4,0,0,0,.14,1.07,2.56,2.56,0,0,0,.42.88,2,2,0,0,0,.73.62,2.79,2.79,0,0,0,1,.27,3.39,3.39,0,0,0,1.55-.31l.13.65a3,3,0,0,1-1.77.32,3.47,3.47,0,0,1-1.32-.33,2.8,2.8,0,0,1-1-.77,3.6,3.6,0,0,1-.58-1.12,4.67,4.67,0,0,1-.19-1.39,3.93,3.93,0,0,1,.21-1.32,3,3,0,0,1,.61-1,2.38,2.38,0,0,1,1-.6,3.26,3.26,0,0,1,1.31-.16,3.55,3.55,0,0,1,1.84.57c-.11.25-.17.37-.29.61A3.13,3.13,0,0,0,447.71,447.34Z" transform="translate(-339.59 -282.96)"/><path class="cls-6" d="M450.87,453.41v-6.5c1.49,0,2.24,0,3.73,0,0,.27,0,.4,0,.67-1.18,0-1.76,0-2.94,0v2.13c1.12,0,1.68,0,2.79,0v.66c-1.11,0-1.67,0-2.79,0v2.37c1.21,0,1.82,0,3,0,0,.27,0,.41,0,.68C453.12,453.46,452.37,453.45,450.87,453.41Z" transform="translate(-339.59 -282.96)"/><path class="cls-6" d="M460.14,446.69l.81-.06c-.94,2.67-1.41,4-2.36,6.66l-.79,0c-.94-2.55-1.41-3.83-2.35-6.41l.81,0,1.45,4.06c.19.53.35,1,.49,1.49a15.8,15.8,0,0,1,.49-1.55C459.15,449.56,459.63,448.16,460.14,446.69Z" transform="translate(-339.59 -282.96)"/><path class="cls-7" d="M432.3,391.55l-.1-.73,2.27-2.33a2.68,2.68,0,0,0,.44-.62,6,6,0,0,0,.31-.66l.1-.27a1.24,1.24,0,0,0-.3-.87,1.27,1.27,0,0,0-.86-.37,1.89,1.89,0,0,0-1.47.41l-.25-.68a2.37,2.37,0,0,1,1.77-.42,2.21,2.21,0,0,1,1.42.6,1.7,1.7,0,0,1,.54,1.34.82.82,0,0,1-.06.16q0,.11-.15.39c-.08.2-.16.38-.24.55a6.2,6.2,0,0,1-.33.57,2.63,2.63,0,0,1-.39.5L433.15,391l3,.24-.05.68C434.6,391.75,433.83,391.69,432.3,391.55Z" transform="translate(-339.59 -282.96)"/><path class="cls-7" d="M440.8,392a1.91,1.91,0,0,1-1,.19,2,2,0,0,1-1-.32,2,2,0,0,1-.7-.77,4,4,0,0,1-.4-1.1,6.31,6.31,0,0,1-.13-1.35,6.55,6.55,0,0,1,.09-1.13,3.54,3.54,0,0,1,.26-.92,2.42,2.42,0,0,1,.45-.69,1.76,1.76,0,0,1,.63-.41,2,2,0,0,1,.82-.11,2.07,2.07,0,0,1,1,.31,2,2,0,0,1,.7.73,3.87,3.87,0,0,1,.41,1.1,6.61,6.61,0,0,1,.14,1.39,6.84,6.84,0,0,1-.13,1.34,3.82,3.82,0,0,1-.39,1.05A1.85,1.85,0,0,1,440.8,392Zm-.26-5.54a1.07,1.07,0,0,0-.77-.4.91.91,0,0,0-.76.31,2,2,0,0,0-.48.92,5.23,5.23,0,0,0-.17,1.39,5.66,5.66,0,0,0,.17,1.43,2.38,2.38,0,0,0,.48,1,1.08,1.08,0,0,0,.76.41,1,1,0,0,0,.77-.32,2,2,0,0,0,.48-1,5.39,5.39,0,0,0,.17-1.41,5.45,5.45,0,0,0-.17-1.41A2.25,2.25,0,0,0,440.54,386.48Z" transform="translate(-339.59 -282.96)"/><path class="cls-7" d="M444.16,385.77l.7,0v6.58l-.78,0v-5.76A3.86,3.86,0,0,1,443,387v-.73l.28-.11.33-.13.27-.12A2.32,2.32,0,0,0,444.16,385.77Z" transform="translate(-339.59 -282.96)"/><path class="cls-7" d="M450.87,390.91h-.75v1.63l-.74,0v-1.63l-3-.08v-.68l2.89-4.19.82,0v4.31h.81C450.9,390.53,450.89,390.65,450.87,390.91Zm-1.49-4-2.2,3.25,2.2.06Z" transform="translate(-339.59 -282.96)"/><path class="cls-7" d="M454.57,390.39v-.65h2.2v.64Z" transform="translate(-339.59 -282.96)"/><path class="cls-7" d="M460.58,392.51l-.1-.72,2.27-2.58a3.38,3.38,0,0,0,.44-.67,4.75,4.75,0,0,0,.31-.7l.1-.28a1.1,1.1,0,0,0-.3-.83,1.12,1.12,0,0,0-.86-.28A2.05,2.05,0,0,0,461,387l-.26-.65a2.63,2.63,0,0,1,1.78-.62,2,2,0,0,1,1.43.44,1.55,1.55,0,0,1,.53,1.28,1,1,0,0,1-.05.17c0,.07-.08.2-.15.41s-.16.39-.25.57a6.07,6.07,0,0,1-.32.6,3.13,3.13,0,0,1-.4.55l-1.85,2,3-.1-.05.68C462.89,392.46,462.12,392.48,460.58,392.51Z" transform="translate(-339.59 -282.96)"/><path class="cls-7" d="M469.09,392a2.15,2.15,0,0,1-1,.31,1.87,1.87,0,0,1-1-.21,1.74,1.74,0,0,1-.71-.69,3.82,3.82,0,0,1-.39-1.05,6.19,6.19,0,0,1-.13-1.35,8,8,0,0,1,.08-1.13,4.4,4.4,0,0,1,.27-1,2.71,2.71,0,0,1,.45-.74,2,2,0,0,1,.63-.48,2,2,0,0,1,.82-.2,1.91,1.91,0,0,1,1,.19,1.77,1.77,0,0,1,.7.66,3.34,3.34,0,0,1,.41,1.05,6.34,6.34,0,0,1,.14,1.37,7.06,7.06,0,0,1-.13,1.36,4.46,4.46,0,0,1-.39,1.1A2.14,2.14,0,0,1,469.09,392Zm-.26-5.51a1,1,0,0,0-.77-.32,1.07,1.07,0,0,0-.76.4,2.32,2.32,0,0,0-.49,1,6.25,6.25,0,0,0,0,2.81,2.18,2.18,0,0,0,.49,1,.92.92,0,0,0,.76.32,1,1,0,0,0,.77-.4,2.34,2.34,0,0,0,.48-1,5.66,5.66,0,0,0,.17-1.43,5.23,5.23,0,0,0-.17-1.39A2,2,0,0,0,468.83,386.52Z" transform="translate(-339.59 -282.96)"/><path class="cls-7" d="M472.45,385.4l.7,0v6.58l-.78.05v-5.76a4.93,4.93,0,0,1-1.08.57v-.74l.28-.14.33-.16.27-.15Z" transform="translate(-339.59 -282.96)"/><path class="cls-7" d="M478.62,384.9l-.06.73-2.68.23c0,.86-.05,1.55-.07,2.08a2.08,2.08,0,0,1,1.08-.41,2.23,2.23,0,0,1,.87.08,1.53,1.53,0,0,1,.63.37,1.84,1.84,0,0,1,.37.6,2.35,2.35,0,0,1,.12.77,2.3,2.3,0,0,1-.63,1.66,2.64,2.64,0,0,1-1.74.75,2.33,2.33,0,0,1-1.76-.45l.28-.65a2.2,2.2,0,0,0,1.51.39,1.64,1.64,0,0,0,1.13-.51,1.56,1.56,0,0,0,.42-1.1,1.23,1.23,0,0,0-.35-.93,1.27,1.27,0,0,0-1-.28,1.49,1.49,0,0,0-1.05.53l-.6,0c.06-1.41.1-2.12.17-3.53C476.6,385.08,477.28,385,478.62,384.9Z" transform="translate(-339.59 -282.96)"/><path class="cls-6" d="M431.3,391.46l-.1-.73c.91-.92,1.36-1.39,2.27-2.32a2.91,2.91,0,0,0,.44-.62,6,6,0,0,0,.31-.66l.1-.27a1.24,1.24,0,0,0-.3-.87,1.32,1.32,0,0,0-.86-.38,1.89,1.89,0,0,0-1.47.41l-.25-.68a2.33,2.33,0,0,1,1.77-.41,2.23,2.23,0,0,1,1.43.6,1.74,1.74,0,0,1,.53,1.35l-.06.16-.15.39-.24.54c-.09.18-.19.36-.32.57a3.12,3.12,0,0,1-.4.5l-1.85,1.82,3,.26-.05.67C433.6,391.67,432.84,391.6,431.3,391.46Z" transform="translate(-339.59 -282.96)"/><path class="cls-6" d="M439.8,392a1.89,1.89,0,0,1-1,.19,2,2,0,0,1-1.73-1.1,4,4,0,0,1-.4-1.1,7,7,0,0,1-.13-1.35,6.55,6.55,0,0,1,.09-1.13,4,4,0,0,1,.26-.92,2.24,2.24,0,0,1,.45-.68,1.64,1.64,0,0,1,.63-.41,2,2,0,0,1,.83-.11,2,2,0,0,1,1.69,1,3.8,3.8,0,0,1,.41,1.09,6.61,6.61,0,0,1,.14,1.39,6.87,6.87,0,0,1-.13,1.35,3.82,3.82,0,0,1-.39,1A1.83,1.83,0,0,1,439.8,392Zm-.26-5.54a1.07,1.07,0,0,0-.76-.4.94.94,0,0,0-.77.3,2,2,0,0,0-.48.93,5.1,5.1,0,0,0-.17,1.38,5.61,5.61,0,0,0,.17,1.43,2.32,2.32,0,0,0,.48,1,1,1,0,0,0,.77.41.91.91,0,0,0,.76-.31,2,2,0,0,0,.48-.95,5.89,5.89,0,0,0,0-2.81A2.29,2.29,0,0,0,439.54,386.42Z" transform="translate(-339.59 -282.96)"/><path class="cls-6" d="M443.16,385.72l.7,0v6.58l-.78,0v-5.76A3.86,3.86,0,0,1,442,387v-.73l.28-.11.33-.12.27-.13A1.47,1.47,0,0,0,443.16,385.72Z" transform="translate(-339.59 -282.96)"/><path class="cls-6" d="M449.87,390.89l-.75,0v1.63h-.74v-1.63c-1.19,0-1.79-.05-3-.1v-.67c1.15-1.67,1.73-2.5,2.88-4.18l.83,0v4.31h.81C449.9,390.51,449.89,390.64,449.87,390.89Zm-1.49-4-2.2,3.24,2.2.07Z" transform="translate(-339.59 -282.96)"/><path class="cls-6" d="M453.57,390.39v-.65h2.2v.65Z" transform="translate(-339.59 -282.96)"/><path class="cls-6" d="M459.57,392.53l-.1-.72,2.28-2.57a3.38,3.38,0,0,0,.44-.67,4.7,4.7,0,0,0,.31-.69l.1-.28a1.1,1.1,0,0,0-.3-.84,1.12,1.12,0,0,0-.86-.28,2.05,2.05,0,0,0-1.47.57c-.11-.26-.16-.39-.26-.65a2.58,2.58,0,0,1,1.78-.61,2,2,0,0,1,1.43.45,1.54,1.54,0,0,1,.53,1.28,1.26,1.26,0,0,1-.05.16c0,.07-.08.21-.15.41s-.16.39-.25.57a4.44,4.44,0,0,1-.32.6,3.13,3.13,0,0,1-.4.55c-.74.82-1.11,1.22-1.86,2l3.05-.08-.05.67C461.88,392.49,461.11,392.51,459.57,392.53Z" transform="translate(-339.59 -282.96)"/><path class="cls-6" d="M468.09,392.08a2.08,2.08,0,0,1-1,.31,1.81,1.81,0,0,1-1.73-.9,4,4,0,0,1-.39-1.06,6.19,6.19,0,0,1-.13-1.35,8,8,0,0,1,.08-1.13,4.4,4.4,0,0,1,.27-.95,2.65,2.65,0,0,1,.45-.73,1.88,1.88,0,0,1,.63-.49,2.19,2.19,0,0,1,.82-.19,1.91,1.91,0,0,1,1,.19,1.73,1.73,0,0,1,.7.67,3.34,3.34,0,0,1,.41,1.05,6.28,6.28,0,0,1,.14,1.37,7.06,7.06,0,0,1-.13,1.36,4.24,4.24,0,0,1-.39,1.09A2.06,2.06,0,0,1,468.09,392.08Zm-.26-5.51a1,1,0,0,0-.77-.32,1.09,1.09,0,0,0-.76.39,2.44,2.44,0,0,0-.49,1,6.29,6.29,0,0,0,0,2.82,2.18,2.18,0,0,0,.49,1,.92.92,0,0,0,.76.32,1,1,0,0,0,.77-.4,2.28,2.28,0,0,0,.48-1,5.61,5.61,0,0,0,.17-1.43,5.23,5.23,0,0,0-.17-1.39A2.05,2.05,0,0,0,467.83,386.57Z" transform="translate(-339.59 -282.96)"/><path class="cls-6" d="M471.45,385.47l.7-.05V392l-.78.05v-5.76a4.54,4.54,0,0,1-1.08.56v-.73s.14-.07.28-.14l.33-.17.27-.15Z" transform="translate(-339.59 -282.96)"/><path class="cls-6" d="M477.62,385l-.06.73-2.68.22c0,.86-.05,1.55-.06,2.08a2.14,2.14,0,0,1,1.07-.41,2.18,2.18,0,0,1,.87.09,1.41,1.41,0,0,1,.63.37,1.68,1.68,0,0,1,.37.6,2.41,2.41,0,0,1,.13.78,2.3,2.3,0,0,1-.64,1.65,2.64,2.64,0,0,1-1.74.75,2.34,2.34,0,0,1-1.76-.47l.28-.64a2.2,2.2,0,0,0,1.51.39,1.72,1.72,0,0,0,1.14-.5,1.6,1.6,0,0,0,.41-1.11,1.12,1.12,0,0,0-1.35-1.2,1.43,1.43,0,0,0-1,.51l-.61,0c.06-1.41.1-2.12.17-3.53C475.6,385.17,476.28,385.11,477.62,385Z" transform="translate(-339.59 -282.96)"/><path class="cls-5" d="M438.88,355a56.58,56.58,0,0,0,13.66,16.13c2.28-3.34,9.15-7.23,14.38-8.52-1.73-7.05-10.45-14.17-12.5-13.45C454.42,349.11,441.08,351.61,438.88,355Z" transform="translate(-339.59 -282.96)"/><path class="cls-5" d="M477,347.89a16.92,16.92,0,0,0-4.44-.29c-1.49,0-3,.17-4.46.31-3,.3-5.92.71-8.86,1.21s-5.84,1.14-8.75,1.75c-1.46.28-2.9.63-4.33,1a21.66,21.66,0,0,0-2.12.65,4.29,4.29,0,0,0-1.87,1.06l-.09,0a4.22,4.22,0,0,1,1.78-1.43c.68-.34,1.38-.63,2.08-.9,1.42-.53,2.87-.92,4.32-1.32a79,79,0,0,1,8.86-1.56c3-.41,5.95-.72,8.94-.91,1.5-.09,3-.14,4.5-.12a17.31,17.31,0,0,1,4.47.49Z" transform="translate(-339.59 -282.96)"/><path class="cls-8" d="M477,347.84" transform="translate(-339.59 -282.96)"/><path class="cls-8" d="M442.12,353.56" transform="translate(-339.59 -282.96)"/><g id="hIHPJx.tif"><path class="cls-7" d="M439.28,302.21c.25-.91.47-1.68.68-2.45a.69.69,0,0,1,.7-.61c.64,0,.6-.3.36-.77-.66-1.29-1.27-2.61-1.93-3.91-.26-.5-.22-.7.38-.75q4.69-.45,9.42-.56a.91.91,0,0,1,1,.62c.27.64.6,1.25,1,2-2.06,0-4,.12-5.95.25-1.78.12-1.73.12-1,1.74a1.3,1.3,0,0,0,1.61.9c1-.15,2.07-.13,3.1-.23a1.09,1.09,0,0,1,1.24.71c.95,1.9,1,1.86-1.2,2-.73.05-1.47.13-2.2.16s-.64.22-.4.74c.86,1.88.84,1.86,2.9,1.69,1.6-.12,3.21-.18,4.8-.29a1.21,1.21,0,0,1,1.45.85,12.87,12.87,0,0,0,.77,1.53c-.18.29-.45.2-.66.21-3.07.12-6.13.35-9.19.76a1,1,0,0,1-1.23-.64c-.6-1.28-1.29-2.53-1.89-3.83a.8.8,0,0,0-1-.54C441.15,302,440.29,302.06,439.28,302.21Z" transform="translate(-339.59 -282.96)"/><path class="cls-7" d="M443.92,307.05c-3.46.5-6.81,1.36-10.14,1.88s-6.26-2.24-6.41-6c-.16-4,2.32-7.63,5.89-8.38,1.18-.24,2.38-.35,3.57-.53a.77.77,0,0,1,.93.53c.43,1,.89,1.91,1.38,2.83.26.49.16.66-.37.71a10.54,10.54,0,0,0-1.58.22c-.59.15-1,0-1.14-.6a.72.72,0,0,0-1-.54,9.48,9.48,0,0,0-2.53.63,5,5,0,0,0-2.36,5.43,3.44,3.44,0,0,0,4.13,2.71c2.4-.49,4.81-.9,7.22-1.34a1.24,1.24,0,0,1,1.65.89A12.27,12.27,0,0,0,443.92,307.05Z" transform="translate(-339.59 -282.96)"/><path class="cls-7" d="M458.82,302.78c.83-2.35,1.59-4.46,2.37-6.59l-1.28-.21.71-2c.1-.3.33-.37.67-.33l2.92.32c.45,0,.61.18.45.58q-2.07,5.29-4.09,11.06a.47.47,0,0,1-.55.38h-.2c-2.36.09-2.36.13-3.41-1.93-1.68-3.28-3.33-6.61-5.05-10-.42-.81-.21-1,.62-.93,2,.05,2,.05,2.9,1.83C456.15,297.53,457.43,300.05,458.82,302.78Z" transform="translate(-339.59 -282.96)"/></g></svg>