<svg id="Capa_1" data-name="Capa 1" xmlns="http://www.w3.org/2000/svg" viewBox="0 0 102.77 114.34"><defs><style>.cls-1{fill:#cc3a25;}.cls-2{fill:#ab2f22;}.cls-3{fill:#e94b3b;}.cls-4{fill:#622614;}.cls-5{fill:#b6afbd;}.cls-6{fill:#d3c4dc;}.cls-7{fill:#2c0d0f;}.cls-8{fill:#cea490;}.cls-9{fill:#d1c8e5;}.cls-10{fill:#66406f;}.cls-11{fill:#c7a026;}.cls-12{fill:#e2cee5;}</style></defs><circle class="cls-1" cx="51.38" cy="62.77" r="51.38"/><path class="cls-2" d="M1454.25,331.76s5.93-31.21,10.45-40c0,0-.91,7.3,9.42,7,3.23-16.9,12.91-22.51,12.91-22.51a51.42,51.42,0,0,0-34.61,48.58c0,28.38,21.59,51.15,50,51.15a62.19,62.19,0,0,0,15.61-1.75l-.2,0a59,59,0,0,1-6.53,1.47C1476.27,381.54,1454.54,351.15,1454.25,331.76Z" transform="translate(-1452.42 -262.1)"/><path class="cls-3" d="M1553.56,337.75s-7-3.93-22,9.34c-12.1,10.73-42.91,24-41.5,5.37s57.6-26.55,49.41-44.62-52.33,26.54-54.31,6.78,38.6-15.28,39.35-22.47c1.13-10.85-17.37-3.88-34.45,2.71-7.15,2.75-12.29,3.83-16,3.94-1.45,7.61-1.61,17.51,1,30.22,8.11,39.19,39.95,44.81,42.66,45.22C1547.18,365.81,1553.56,337.75,1553.56,337.75Z" transform="translate(-1452.42 -262.1)"/><path class="cls-1" d="M1475.14,329c-2.63-12.71-2.47-22.61-1-30.22-10.33.3-9.42-7-9.42-7-14.83,15.9-12,38.11-12,38.11.29,19.39,22.64,51.63,58.62,45.8a56.35,56.35,0,0,0,6.53-1.47C1515.09,373.83,1483.25,368.21,1475.14,329Z" transform="translate(-1452.42 -262.1)"/><ellipse class="cls-2" cx="49.37" cy="34.83" rx="34.4" ry="8.44"/><polygon class="cls-4" points="18.73 12.76 19.32 34.05 21.18 34.05 21.18 26.2 26.58 26.59 26.58 34.83 28.64 34.83 28.64 26 30.02 25.71 32.57 24.92 32.57 21.98 23.34 22.18 22.85 11.68 18.73 12.76"/><path class="cls-5" d="M1481.77,276.63s.6,2,.11,2.94c-.3.58.92,1.44.92,1.44v.85s1.9.06,2.29.52.3,3.07.3,3.07l-6.06-2.41,1.31-7.72Z" transform="translate(-1452.42 -262.1)"/><path class="cls-6" d="M1477.44,268.78s-.07.91-.72,1.17a5.09,5.09,0,0,0-3,3.86,31,31,0,0,0,0,6.8,8.15,8.15,0,0,0-.85,2.82,9.19,9.19,0,0,0,0,1.7s1.11-.79,1.5-.66.66.85,2.1,1,5.1.26,5.56.58.65,4.45.91,5.37.92,3.53.92,3.53a3.8,3.8,0,0,0,1.76-.59c.46-.46.2-9.81-.72-10.27s-4.38-1.7-4.38-1.7.26-.72.39-1a12.06,12.06,0,0,0,.33-3.21,36.2,36.2,0,0,0-.26-5.62c-.26-.92-.66-1.9-.66-1.9l-.39,1.64Z" transform="translate(-1452.42 -262.1)"/><path class="cls-5" d="M1477.89,274.73a13.93,13.93,0,0,0,0,3.6c.27.72,3.44,2.78,3.9,3s.76.12.63-1.13S1478.29,276.56,1477.89,274.73Z" transform="translate(-1452.42 -262.1)"/><path class="cls-5" d="M1473.71,277s1.5,3.73,2.61,4.32a12.41,12.41,0,0,0,3,.91s-5.43-.78-5.56-1S1473.71,277,1473.71,277Z" transform="translate(-1452.42 -262.1)"/><path class="cls-7" d="M1477.93,268.22l-.49.56,2.48,3.53.39-1.64S1478.42,268.29,1477.93,268.22Z" transform="translate(-1452.42 -262.1)"/><path class="cls-8" d="M1479.86,264.16s-1.31,0-1.79.79a1.92,1.92,0,0,0-.3,1.8c.12.91.45.55.3,1l-.14.46,2.38,2.45s.27-.91.5-.88.68.23.91-.29.33-1.25.43-1.28.52,0,.45-.26a4.39,4.39,0,0,1-.45-1.24C1482.15,266.26,1482.6,264.46,1479.86,264.16Z" transform="translate(-1452.42 -262.1)"/><path class="cls-8" d="M1507.19,266.2a2.07,2.07,0,0,1,.2-1.25,1.69,1.69,0,0,1,1.22-.86,2.37,2.37,0,0,1,1.67.52,3.37,3.37,0,0,1,.27,1.59s.44-.1.35.12-.15.89-.45,1-.1.81-.1.81a2.18,2.18,0,0,1-.61,1.38c-.56.46-2,.13-2-.37s-.34-1-.44-1.4-.34-.81-.29-1.08A1.85,1.85,0,0,1,1507.19,266.2Z" transform="translate(-1452.42 -262.1)"/><path class="cls-9" d="M1513.48,283.3a8.52,8.52,0,0,1-.85,1.3c-.53.66-.59,3.14-.85,4.32s-.88,3.25-.88,3.25a1.81,1.81,0,0,0-.28,1.26c0,.92.6,1.25,0,1.51s-1.83.85-2,0,.18-2.55,0-2.75a4,4,0,0,1-.37-2.1,11.16,11.16,0,0,0,.37-2.61c0-.59,0-1.11,0-1.31s.35-1.37.35-1.37a7.86,7.86,0,0,0-2-.85c-.34.07-2.1.33-2.17.79s1,2.35,1.48,3.4.37,2.74.69,3.53a4.75,4.75,0,0,1,.38,2.22c-.13.2-.9.4-1.07.72s-1.48.89-1.48.89-2.81-10.13-2.16-11.35a11.32,11.32,0,0,1,1.72-2.29h9.08Z" transform="translate(-1452.42 -262.1)"/><path class="cls-10" d="M1507.6,268.43c.15-.18.34,1.23.93,1.28s1.42-.69,1.62-.93a1.78,1.78,0,0,1,.33-.35l.42.59-.56,5.5-1.81,2.79-2.21-.69S1507,268.81,1507.6,268.43Z" transform="translate(-1452.42 -262.1)"/><path class="cls-9" d="M1503,276.62l1-5.73a3.82,3.82,0,0,1,1.12-1,22.17,22.17,0,0,1,2.21-.69v.23a7.94,7.94,0,0,0,0,2.27c.2,1.08.44,5.64.44,5.64H1503Z" transform="translate(-1452.42 -262.1)"/><path class="cls-9" d="M1508.24,277.31a20.45,20.45,0,0,1,.35-2.45c.19-.74.88-3,1-3.48a14.81,14.81,0,0,1,.69-1.52,6.46,6.46,0,0,1,.36-.84,11.22,11.22,0,0,0,1.5.64c.54.15,1.52.24,1.81.78s.79,7.19.79,7.19Z" transform="translate(-1452.42 -262.1)"/><polygon class="cls-4" points="79.96 12.03 81.92 12.82 82.24 36.76 80.35 36.76 79.96 27.99 72.31 27.99 72.31 36.76 70.47 36.76 70.47 25.51 69.62 25.32 70.02 24.42 79.82 24.4 79.96 12.03"/><path class="cls-8" d="M1527.57,267.6s.17-.75,0-.92.2-1.6-.75-2.16a3,3,0,0,0-3-.43,2.25,2.25,0,0,0-1.3,2.4,5.47,5.47,0,0,0,.25,1.93c.2.42.47,1.24.53,1.34a8.69,8.69,0,0,0,1,.32c.3.13.44,1.28.44,1.28S1527.57,268.51,1527.57,267.6Z" transform="translate(-1452.42 -262.1)"/><path class="cls-11" d="M1518.33,295s-.57-4.22-.33-4.84a4.09,4.09,0,0,0-.06-2.29c-.2-1-1-3.13-.14-3.85a27.14,27.14,0,0,1,4.32-2.1s.39-3.73.46-3.92-1.69-.24-2.51.09-3.64-.76-3.64-.76,1.44-1.16,2.22-1,2-.28,2.82,0a1.79,1.79,0,0,0,1.11.14,15.39,15.39,0,0,0,1.63-3.5c.2-1.15,1.64-2.85,1.9-3.44s1-1.56,1.44-1.37a3.42,3.42,0,0,1,2.29,1.7,15.56,15.56,0,0,1,2.22,5.56c.4,2.62,1,4.18,1,5.07a28.61,28.61,0,0,1-.72,5c-.26.3-.65,1.28-1.83,1.15s-7.13-.13-8,0a1.84,1.84,0,0,0-1.31.85,8.26,8.26,0,0,1,.59,3.33c-.07,1.9.46,4.45.33,4.81s-1.18.43-2,.49S1518.33,295,1518.33,295Z" transform="translate(-1452.42 -262.1)"/><polygon class="cls-4" points="29.63 16.74 34.76 15.24 69.1 15.24 69.1 15.95 68.38 18.28 29.72 17.47 29.63 16.74"/><path class="cls-4" d="M1489.08,297.82a8.67,8.67,0,0,1-.92,1l-2.76-.26-.41-19,3.44.07.09,2.48Z" transform="translate(-1452.42 -262.1)"/><polygon class="cls-4" points="66.28 18.64 66.28 21.13 65.43 21.85 65.11 37.81 61.97 37.81 61.97 20.93 35.8 20.67 35.48 17.6 66.28 17.92 66.28 18.64"/><path class="cls-8" d="M1494.9,262.5a2.5,2.5,0,0,1,2.7,0c1,.45,1.23,2.11,1.13,2.79,0,0,.29-.19.24.79s-.34.78-.34.78.29.79,0,1a3.75,3.75,0,0,0-.59.94h-3.19l-.39-1.82s-.69-.2-.74-.74,0-1,.35-.93C1494.12,265.29,1493.65,263.09,1494.9,262.5Z" transform="translate(-1452.42 -262.1)"/><path class="cls-12" d="M1488.36,276l1.44-5.71,2.35-.7,1.64-.39,1.11-.95s2.49-.36,2.94,0a13.23,13.23,0,0,1,1.44,1.73s2.33.26,3,1.18,2.09,7.2,2.09,7.2.31,1.21-.41,1.37a7.54,7.54,0,0,1-2.81,0c-.41-.2-12.82-1.65-12.82-1.65Z" transform="translate(-1452.42 -262.1)"/><polygon class="cls-4" points="35.48 14.85 37.44 41.14 39.47 41.14 39.92 40.55 39.4 31.73 40.42 31.74 40.71 38.17 42.67 38.07 42.67 31.79 46.2 31.94 46.65 41.45 49 41.45 49.37 40.82 49.37 38.31 51.16 38.27 51.04 33.42 50.88 27.14 51.98 25.71 50.23 25.36 48.51 27.47 48.3 14.52 35.48 14.85"/><path class="cls-12" d="M1504,295.5l1.57-.46s-.75-8.18-1.16-9.16c-.41-1.64-2.57-2.87-2.57-2.87h-1s-.83,5.14.09,5.69,1.73-1.13,1.73-1.13Z" transform="translate(-1452.42 -262.1)"/></svg>