<svg id="Capa_1" data-name="Capa 1" xmlns="http://www.w3.org/2000/svg" viewBox="0 0 164.06 140.68"><defs><style>.cls-1{fill:#9d4b97;}.cls-2{fill:#854183;}.cls-3{fill:#debd1c;}.cls-4{fill:#dddbdb;}.cls-5{fill:#28272a;}.cls-6{fill:#733972;}.cls-7{fill:#1d1d1b;}.cls-8{fill:#fff;}</style></defs><circle class="cls-1" cx="83.01" cy="79.37" r="61.31"/><path class="cls-2" d="M541.84,196.22a61.31,61.31,0,1,1-89-82.24s-35,39.71.88,82.19S541.84,196.22,541.84,196.22Z" transform="translate(-407.64 -82.58)"/><path class="cls-3" d="M518.51,85s41.11-2.38,40.71,2.12c-.34,3.82-3.1,30.79-7.67,28.46-10.52-4.22-34.83-5.17-37.19-4.33C514.36,111.28,518.66,87,518.51,85Z" transform="translate(-407.64 -82.58)"/><path class="cls-4" d="M519.24,82.61l-2,14.41-2.09,14.4c-.71,4.79-1.25,9.62-2.19,14.38S511,135.3,509.68,140l-.2,0c.26-4.87.84-9.69,1.51-14.49s1.7-9.55,2.58-14.31l2.69-14.3L519,82.58Z" transform="translate(-407.64 -82.58)"/><path class="cls-2" d="M475.76,146a50,50,0,0,0,12.09,14.28c2-3,8.08-6.4,12.71-7.54-1.53-6.24-9.24-12.54-11.05-11.9C489.51,140.86,477.7,143.07,475.76,146Z" transform="translate(-407.64 -82.58)"/><path class="cls-2" d="M509.49,139.74c-4.78-1.54-29.45,2.31-30.86,5.06" transform="translate(-407.64 -82.58)"/><path class="cls-2" d="M509.49,139.74" transform="translate(-407.64 -82.58)"/><path class="cls-2" d="M478.63,144.8" transform="translate(-407.64 -82.58)"/><g id="QHDka5.tif"><path class="cls-5" d="M522.1,92.45c.13.3.45.16.69.12a18.8,18.8,0,0,1,3.67-.08c1.37,0,3.39,1.61,3.6,2.86a4.64,4.64,0,0,1-4.44,5.56c-3.07.17-5.24-1.71-4.71-4.92.19-1.15.19-2.28.38-3.43Zm7.47,3.9A3.64,3.64,0,0,0,526,92.91a33.26,33.26,0,0,1-3.73.07c-.33,0-.44.1-.61.44-.39.85,0,1.63-.3,2.48a3.81,3.81,0,0,0,2.87,4.52C527.05,101,529.85,98.72,529.57,96.35Z" transform="translate(-407.64 -82.58)"/><path class="cls-5" d="M545,99.77c.21-1.69.29-3.36.57-5,0-.24,0-.57.33-.51s.31.46.25.68a20.38,20.38,0,0,0-.34,3.73,18.94,18.94,0,0,0-.25,2.82c0,.2,0,.44-.28.42s-.45-.07-.52-.39c-.28-1.18-.64-2.33-.84-3.5a11.33,11.33,0,0,0-.72-2.08c-.17,1.7-.34,3.4-.49,5.1,0,.26,0,.52-.37.45s-.24-.4-.2-.6c.36-2,.29-4.13.6-6.19,0-.25-.21-.66.3-.72s.53.23.61.54c.27,1.11.51,2.24.79,3.36C544.6,98.52,544.81,99.14,545,99.77Z" transform="translate(-407.64 -82.58)"/><path class="cls-5" d="M549.43,100.55a41.18,41.18,0,0,0,.52-5c0-.25-.15-.7.3-.62s.18.42.17.64c0,2.18-.42,4.3-.41,6.47,0,.29-.06.77-.54.69s-.19-.46-.27-.7c-.65-1.9-1-3.85-1.5-5.77a45.31,45.31,0,0,0-.51,5.34c0,.23.17.67-.24.66s-.33-.48-.32-.75c.06-2.08.42-4.13.41-6.23,0-.35.12-.71.55-.74s.34.42.41.67C548.47,96.87,548.91,98.57,549.43,100.55Z" transform="translate(-407.64 -82.58)"/><path class="cls-5" d="M554.67,97.76c-.32,1.49-.09,3.09-.39,4.59-.24,1.19-1,1.13-1.81,1a1.41,1.41,0,0,1-1.28-1.58,21.87,21.87,0,0,1,.45-5.38c.22-1,.9-1.34,2-1.09.91.21,1.06.95,1.06,1.8Zm-2.87,3.06a3.38,3.38,0,0,0,0,.45c.07.53-.21,1.22.62,1.44s1.3-.06,1.35-.88a30.13,30.13,0,0,0,.26-5.3c-.08-.63-.52-.69-.91-.68A1.14,1.14,0,0,0,552,97.12C552.06,98.38,551.79,99.57,551.8,100.82Z" transform="translate(-407.64 -82.58)"/><path class="cls-5" d="M535.65,95.32c.07,1.32-.2,2.52-.24,3.73a1.77,1.77,0,0,1-2.83,1.19,1.54,1.54,0,0,1-.5-1.48,21.27,21.27,0,0,1,.42-4.19,1.66,1.66,0,0,1,2.93-.66C535.86,94.35,535.52,94.93,535.65,95.32Zm-.58.36a7.93,7.93,0,0,0,0-1.09c-.06-.39-.24-.74-.72-.77s-.92.07-1.08.55a12.88,12.88,0,0,0-.48,4.77,1,1,0,0,0,1.07.92,1.06,1.06,0,0,0,1-1C534.77,97.88,535.11,96.8,535.07,95.68Z" transform="translate(-407.64 -82.58)"/><path class="cls-5" d="M536.27,100c.39-2,.23-4,.62-6.07.08-.41.15-.51.54-.32a1.27,1.27,0,0,0,.7,0c1.43-.23,1.83.71,1.82,1.79a5,5,0,0,1-.35,1.85,1.11,1.11,0,0,1-1.61.69c-.48-.19-.94-.16-.85.59.05.5-.27.94-.22,1.46,0,.29.27.86-.29.87S536.43,100.25,536.27,100Zm3.06-4.43c0-1.13-.24-1.35-1.25-1.39s-.66.75-.73,1.25a7.81,7.81,0,0,1-.05,1.09c-.13.4-.38.68.32.83s1.18.33,1.42-.38A2.64,2.64,0,0,0,539.33,95.53Z" transform="translate(-407.64 -82.58)"/><path class="cls-5" d="M540.54,99.77c.13-1.7.27-3.59.41-5.48,0-.24,0-.51.33-.52s.33.28.31.51c-.07,1.32-.09,2.66-.28,4-.09.58,0,1.15-.12,1.72,0,.3.08.61-.11.89s-.19.47-.5.33,0-.33,0-.51A4.87,4.87,0,0,1,540.54,99.77Z" transform="translate(-407.64 -82.58)"/><path class="cls-5" d="M525.44,99.48a2.49,2.49,0,0,1-2.78-1.31,2.22,2.22,0,0,1,0-2.6,4.42,4.42,0,0,1,2-1.57c.28-.11.58-.13.67.15.16.49-.32.27-.5.33a2.61,2.61,0,0,0-1.89,3.2c.42,1.17,2,1.68,3.57,1.16a2.85,2.85,0,0,0,1.4-3,1.94,1.94,0,0,0-1.25-1.2c-.31-.11-.75-.18-.47-.57s.58-.06.86.09a2.89,2.89,0,0,1,1.29,3.33A3.16,3.16,0,0,1,525.44,99.48Z" transform="translate(-407.64 -82.58)"/><path class="cls-5" d="M525.91,93.17a33.91,33.91,0,0,1-.4,4.47s-.14.14-.21.14c-.24,0-.28-.16-.23-.3.31-.93,0-1.88.3-2.8C525.5,94.25,525.21,93.77,525.91,93.17Z" transform="translate(-407.64 -82.58)"/></g><path class="cls-2" d="M471.4,179.92c-3-.77-5.83.33-6.39,2.47s1.41,4.49,4.38,5.26a4.2,4.2,0,0,1-2.11-4.67A4.11,4.11,0,0,1,471.4,179.92Z" transform="translate(-407.64 -82.58)"/><path class="cls-2" d="M471.4,179.92a6.08,6.08,0,0,1,3.52,1.57,4.6,4.6,0,0,1,1.18,1.68,3.38,3.38,0,0,1-1,3.94,4.83,4.83,0,0,1-1.85.9,6.19,6.19,0,0,1-3.84-.36,8.32,8.32,0,0,0,3.61-.39,3,3,0,0,0,1.36-5.23A8.35,8.35,0,0,0,471.4,179.92Z" transform="translate(-407.64 -82.58)"/><path class="cls-2" d="M490.11,191.73c-.23,1.41,1.2,2.81,3.18,3.12s3.78-.56,4-2c0,0-.88,1.35-3.83.9S490.11,191.73,490.11,191.73Z" transform="translate(-407.64 -82.58)"/><path class="cls-2" d="M490.11,191.73a2.3,2.3,0,0,1,1.44-2.1,4.39,4.39,0,0,1,2.64-.37,4.56,4.56,0,0,1,2.4,1.17,2.32,2.32,0,0,1,.71,2.45,2.64,2.64,0,0,0-1.21-1.85,5.12,5.12,0,0,0-2.06-.78,5.06,5.06,0,0,0-2.19.1A2.58,2.58,0,0,0,490.11,191.73Z" transform="translate(-407.64 -82.58)"/><path class="cls-2" d="M522.89,144.15c-.36,2.21,1.88,4.41,5,4.91s5.94-.89,6.29-3.1c0,0-1.37,2.12-6,1.41S522.89,144.15,522.89,144.15Z" transform="translate(-407.64 -82.58)"/><path class="cls-2" d="M522.89,144.15a3.07,3.07,0,0,1,.7-1.86,4.52,4.52,0,0,1,1.64-1.23,7.28,7.28,0,0,1,7.69,1.23,4.49,4.49,0,0,1,1.16,1.69,3.07,3.07,0,0,1,.09,2,3.92,3.92,0,0,0-1.76-3.07,8,8,0,0,0-6.89-1.11A3.89,3.89,0,0,0,522.89,144.15Z" transform="translate(-407.64 -82.58)"/><path class="cls-2" d="M479.48,108.65c0,.9-4.37,3.29-7.25,3.29s-4.07-1.62-4.07-2.52,2.13-2,5-2S479.48,107.75,479.48,108.65Z" transform="translate(-407.64 -82.58)"/><path class="cls-6" d="M468.49,108.65a38.06,38.06,0,0,0,.67-4.07c0-1.19,1.29-3.37,4.33-3.48s4.16,1.49,4.27,2.51a9.86,9.86,0,0,0,1.72,5S471.81,114,468.49,108.65Z" transform="translate(-407.64 -82.58)"/><path class="cls-2" d="M469.16,104.6c.15,1.7,2.21,2.9,4.6,2.68s4.2-1.76,4.05-3.45c0,0-.62,1.81-4.17,2.16S469.16,104.6,469.16,104.6Z" transform="translate(-407.64 -82.58)"/><path class="cls-2" d="M469.16,104.6a2.77,2.77,0,0,1,1.09-2.79,5.5,5.5,0,0,1,6-.54,2.77,2.77,0,0,1,1.57,2.56A3,3,0,0,0,475.9,102a6.21,6.21,0,0,0-5.19.46A3.08,3.08,0,0,0,469.16,104.6Z" transform="translate(-407.64 -82.58)"/><path class="cls-2" d="M453.16,151.31c0,.9-5.6,4.3-10.15,3-2.77-.78-3.55-2.51-3.55-3.41s2.14-2.05,5-2.05S453.16,150.41,453.16,151.31Z" transform="translate(-407.64 -82.58)"/><path class="cls-6" d="M440.4,149.62a44.24,44.24,0,0,0,1.4-4.62c.25-1.37,2-3.72,5.56-3.38s4.61,2.38,4.58,3.58a11.55,11.55,0,0,0,1.22,6.11S443.43,156.39,440.4,149.62Z" transform="translate(-407.64 -82.58)"/><path class="cls-2" d="M441.8,145c-.08,2,2.12,3.7,4.93,3.82s5.14-1.41,5.23-3.4c0,0-1,2-5.17,1.88S441.8,145,441.8,145Z" transform="translate(-407.64 -82.58)"/><path class="cls-2" d="M441.8,145a3.23,3.23,0,0,1,1.72-3,6.47,6.47,0,0,1,7,.28,3.25,3.25,0,0,1,1.47,3.15,3.54,3.54,0,0,0-1.9-2.49,7.23,7.23,0,0,0-6.16-.26A3.5,3.5,0,0,0,441.8,145Z" transform="translate(-407.64 -82.58)"/><path class="cls-7" d="M445,174.72a8.11,8.11,0,0,1-2.93.35c-3.53-.19-5.46-2.56-5.46-6.22s1.93-5.87,5.46-5.68a8.83,8.83,0,0,1,2.93.66c-.33,1.49-.5,2.23-.83,3.72a3.34,3.34,0,0,0-1.55-.5c-1-.05-1.62.69-1.62,2s.62,2.15,1.62,2.21a3.09,3.09,0,0,0,1.55-.33Z" transform="translate(-407.64 -82.58)"/><path class="cls-7" d="M446.07,169.36c0-3.62,1.77-5.88,5.39-5.72s5.35,2.28,5.35,6.14c0,3.6-1.77,5.92-5.39,5.76S446.07,173.21,446.07,169.36Zm6.34.28c0-1.21-.23-2.16-1-2.19s-.95.88-.95,2.05.23,2.19,1,2.22S452.41,170.81,452.41,169.64Z" transform="translate(-407.64 -82.58)"/><path class="cls-7" d="M468.29,175.79c0-2.18,0-3.26.07-5.44h-.16a4.74,4.74,0,0,1-.13,1c-.37,1.69-.55,2.53-.92,4.21l-3.82-.11c-.37-1.7-.55-2.55-.92-4.26a4.84,4.84,0,0,1-.13-1h-.16c0,2.17.05,3.26.07,5.44l-3.8-.13c.15-4.5.22-6.74.36-11.24l5.52.18c.32,1.7.48,2.55.81,4.25a5,5,0,0,1,.09,1h.16a4.86,4.86,0,0,1,.09-1c.3-1.68.45-2.52.76-4.21,2.22.06,3.33.09,5.55.13.14,4.51.21,6.76.36,11.26Z" transform="translate(-407.64 -82.58)"/><path class="cls-7" d="M483.82,176l.07-5.44h-.16a4.84,4.84,0,0,1-.13,1l-.92,4.22-3.82,0c-.37-1.69-.55-2.54-.92-4.24a4.84,4.84,0,0,1-.13-1h-.16c0,2.18.05,3.26.07,5.44l-3.8-.06c.15-4.5.22-6.75.36-11.25,2.21,0,3.31.06,5.52.08.32,1.7.48,2.55.81,4.24a5,5,0,0,1,.09,1h.16a4.86,4.86,0,0,1,.09-1c.3-1.69.46-2.54.76-4.23,2.22,0,3.33,0,5.55,0,.14,4.51.22,6.76.36,11.26Z" transform="translate(-407.64 -82.58)"/><path class="cls-7" d="M495.28,164.78l4.21,0v6.61c0,3.48-1.83,5-5,5s-5-1.48-5-5V164.8h4.22v6.46c0,.79.19,1.26.77,1.26s.78-.47.78-1.27Z" transform="translate(-407.64 -82.58)"/><path class="cls-7" d="M507.29,176l-1.35-2.93a2,2,0,0,1-.2-.86h-.18v3.71l-4,.06V164.72l4.68-.08,1.35,2.93a1.83,1.83,0,0,1,.2.86h.18v-3.81l4-.1v11.36Z" transform="translate(-407.64 -82.58)"/><path class="cls-7" d="M514.1,175.71V164.46l4.22-.13v11.25Z" transform="translate(-407.64 -82.58)"/><path class="cls-7" d="M522.68,175.43V168l-2.6.09v-3.85c3.77-.13,5.65-.21,9.41-.38v3.85l-2.6.12v7.4Z" transform="translate(-407.64 -82.58)"/><path class="cls-7" d="M534,174.92v-3.71c-1.32-3-2-4.42-3.29-7.38,1.82-.08,2.73-.13,4.55-.23.26,1,.38,1.5.63,2.49a3.88,3.88,0,0,1,.13,1h.18a4,4,0,0,1,.13-1c.25-1,.37-1.53.63-2.56l4.55-.25c-1.32,3.09-2,4.64-3.29,7.73v3.71Z" transform="translate(-407.64 -82.58)"/><path class="cls-7" d="M417.51,194.66c0-2.17,0-3.26.07-5.43l-.16,0a4.68,4.68,0,0,1-.12,1l-.92,4.15c-1.53-.12-2.29-.19-3.81-.33-.37-1.72-.55-2.58-.92-4.31a5,5,0,0,1-.13-1h-.16c0,2.18.05,3.27.07,5.44l-3.79-.35.36-11.22c2.2.21,3.3.31,5.5.5.33,1.72.49,2.58.81,4.31a5,5,0,0,1,.09,1h.16a4.7,4.7,0,0,1,.09-1c.3-1.67.46-2.5.76-4.17,2.21.19,3.32.28,5.54.45L421.3,195Z" transform="translate(-407.64 -82.58)"/><path class="cls-7" d="M429.79,195.59c-.06-.39-.09-.59-.14-1l-2.13-.15-.14,1-4.64-.34,2.7-11.05,6.28.44c1.08,4.57,1.63,6.86,2.71,11.43Zm-1-7.11a5.19,5.19,0,0,1-.1-1h-.19a4.93,4.93,0,0,1-.1,1c-.21,1.1-.32,1.65-.52,2.74l1.43.1C429.1,190.17,429,189.61,428.78,188.48Z" transform="translate(-407.64 -82.58)"/><path class="cls-7" d="M441.77,196.44l-1.35-3a2,2,0,0,1-.19-.87h-.18v3.71l-4-.24V184.75l4.68.27,1.35,3a1.93,1.93,0,0,1,.2.87h.18v-3.81l4,.21v11.36Z" transform="translate(-407.64 -82.58)"/><path class="cls-7" d="M455.1,197l-.15-1-2.12-.09-.15,1-4.64-.21,2.7-11.13,6.29.26c1.08,4.54,1.63,6.81,2.72,11.35Zm-1-7.09a5.17,5.17,0,0,1-.11-1h-.18a5.1,5.1,0,0,1-.11,1c-.21,1.1-.31,1.65-.52,2.75l1.44.06C454.4,191.56,454.3,191,454.09,189.88Z" transform="translate(-407.64 -82.58)"/><path class="cls-7" d="M470.55,196.88a8.85,8.85,0,0,1-4.27.78c-3.58-.09-5.75-2.19-5.75-6.08,0-3.65,2.09-5.92,5.84-5.82a9.61,9.61,0,0,1,3.84.83c-.32,1.38-.47,2.07-.79,3.44a7.26,7.26,0,0,0-2.52-.54c-1.5,0-2,.88-2,2.28s.45,2.43,1.84,2.47v-1l-.9,0v-2.81l4.68.11Z" transform="translate(-407.64 -82.58)"/><path class="cls-7" d="M472.6,197.48V186.23c3.1.06,4.66.09,7.76.12v3.28l-3.57,0v.9l2.86,0v2.88l-2.86,0v.92l3.57,0v3.28C477.26,197.57,475.7,197.55,472.6,197.48Z" transform="translate(-407.64 -82.58)"/><path class="cls-7" d="M488,197.65l-1.15-3-.34,0v3l-4.22,0V186.37l5.73,0c2.85,0,4.34,1.51,4.34,4a3.71,3.71,0,0,1-1.65,3.15c.76,1.66,1.14,2.48,1.91,4.14Zm-.88-6c.58-.06.85-.42.85-1.08s-.36-1-1.05-1h-.49v2Z" transform="translate(-407.64 -82.58)"/><path class="cls-7" d="M500.05,197.59v-7.4l-2.6,0v-3.86c3.77,0,5.65-.06,9.41-.13v3.85l-2.59,0v7.4Z" transform="translate(-407.64 -82.58)"/><path class="cls-7" d="M514.34,197.3c-.46-1.19-.69-1.78-1.16-3l-.34,0v3l-4.21.11V186.19l5.73-.14c2.84-.08,4.34,1.38,4.34,3.83a3.82,3.82,0,0,1-1.66,3.2c.77,1.63,1.15,2.45,1.91,4.08Zm-.88-6c.57-.07.84-.44.84-1.11s-.36-.94-1-.92h-.49v2.05Z" transform="translate(-407.64 -82.58)"/><path class="cls-7" d="M527.18,196.84l-.14-1-2.13.09-.14,1-4.65.18,2.7-11.35,6.29-.26,2.72,11.12Zm-1-7a5.1,5.1,0,0,1-.11-1h-.18a5.19,5.19,0,0,1-.1,1.05c-.21,1.12-.32,1.68-.53,2.8l1.44-.06C526.48,191.5,526.38,191,526.17,189.85Z" transform="translate(-407.64 -82.58)"/><path class="cls-7" d="M533.41,196.55V185.3l4.21-.22v11.25Z" transform="translate(-407.64 -82.58)"/><path class="cls-7" d="M545.5,196l-1.35-2.87a1.88,1.88,0,0,1-.19-.85h-.18V196l-4,.24V185l4.68-.28,1.35,2.86a1.83,1.83,0,0,1,.2.86l.18,0v-3.81l4-.27v11.36Z" transform="translate(-407.64 -82.58)"/><path class="cls-7" d="M552.3,195.4V184.15c3.1-.23,4.64-.35,7.74-.6v3.28l-3.57.28v.9l2.86-.22v2.88l-2.86.22v.92l3.57-.28v3.28C556.94,195.06,555.4,195.18,552.3,195.4Z" transform="translate(-407.64 -82.58)"/><path class="cls-7" d="M562,194.65V183.39c3.1-.25,4.64-.39,7.73-.67V186l-3.55.32v.9L569,187v2.88l-2.85.26V191l3.55-.32V194C566.61,194.25,565.07,194.39,562,194.65Z" transform="translate(-407.64 -82.58)"/><path class="cls-8" d="M447,175.82a8.1,8.1,0,0,1-2.93.36c-3.53-.19-5.46-2.55-5.46-6.21s1.93-5.88,5.46-5.69a8.83,8.83,0,0,1,2.93.65c-.33,1.49-.5,2.23-.83,3.72a3.34,3.34,0,0,0-1.55-.49c-1,0-1.62.69-1.62,2s.62,2.15,1.62,2.21a3.09,3.09,0,0,0,1.55-.34Z" transform="translate(-407.64 -82.58)"/><path class="cls-8" d="M448.07,170.46c0-3.62,1.77-5.89,5.39-5.74s5.35,2.28,5.35,6.13c0,3.6-1.77,5.92-5.39,5.77S448.07,174.31,448.07,170.46Zm6.34.26c0-1.21-.23-2.15-1-2.18s-.95.88-.95,2.05.23,2.18,1,2.22S454.41,171.89,454.41,170.72Z" transform="translate(-407.64 -82.58)"/><path class="cls-8" d="M470.29,176.84c0-2.18,0-3.27.07-5.44h-.16a4.83,4.83,0,0,1-.13,1c-.37,1.68-.55,2.53-.92,4.21l-3.82-.1c-.37-1.7-.55-2.55-.92-4.26a4.84,4.84,0,0,1-.12-1h-.17c0,2.18.05,3.26.08,5.44l-3.81-.12c.15-4.5.22-6.75.36-11.24l5.52.16c.32,1.71.48,2.56.81,4.26a4.86,4.86,0,0,1,.09,1h.16a4.8,4.8,0,0,1,.09-1c.3-1.69.46-2.53.76-4.22,2.22.06,3.33.08,5.55.12l.36,11.26Z" transform="translate(-407.64 -82.58)"/><path class="cls-8" d="M485.82,177c0-2.17,0-3.26.07-5.43h-.16a4.83,4.83,0,0,1-.13,1c-.36,1.69-.55,2.54-.92,4.23l-3.82,0c-.37-1.7-.55-2.55-.92-4.24a5,5,0,0,1-.12-1h-.17c0,2.17.05,3.26.08,5.43-1.53,0-2.29,0-3.81-.05.15-4.5.22-6.75.36-11.24l5.52.06c.32,1.7.49,2.55.81,4.24a4.93,4.93,0,0,1,.09,1h.16a5,5,0,0,1,.09-1c.31-1.69.46-2.53.76-4.22l5.55,0c.15,4.5.22,6.75.36,11.25Z" transform="translate(-407.64 -82.58)"/><path class="cls-8" d="M497.28,165.76l4.22,0v6.61c0,3.47-1.84,5-5,5s-5-1.47-5-4.95v-6.6l4.22,0v6.46c0,.79.2,1.26.77,1.26s.78-.48.78-1.27Z" transform="translate(-407.64 -82.58)"/><path class="cls-8" d="M509.3,176.94c-.54-1.17-.81-1.76-1.36-2.92a2,2,0,0,1-.19-.86h-.18v3.71l-4,.07V165.69l4.68-.09c.55,1.17.82,1.76,1.36,2.92a2,2,0,0,1,.19.86h.18v-3.82l4-.1v11.36Z" transform="translate(-407.64 -82.58)"/><path class="cls-8" d="M516.1,176.65V165.4l4.22-.14v11.25Z" transform="translate(-407.64 -82.58)"/><path class="cls-8" d="M524.68,176.35V169l-2.6.1V165.2c3.77-.14,5.65-.22,9.41-.41v3.86l-2.6.12v7.4Z" transform="translate(-407.64 -82.58)"/><path class="cls-8" d="M536,175.82v-3.71c-1.31-3-2-4.42-3.29-7.38l4.55-.23c.26,1,.38,1.49.63,2.48a4,4,0,0,1,.13,1h.18a4.09,4.09,0,0,1,.13-1c.25-1,.37-1.53.63-2.56,1.82-.1,2.73-.15,4.55-.27-1.32,3.1-2,4.65-3.29,7.75v3.7Z" transform="translate(-407.64 -82.58)"/><path class="cls-8" d="M419.51,195.82c0-2.17,0-3.26.07-5.43h-.16a4.65,4.65,0,0,1-.13,1c-.36,1.67-.55,2.5-.91,4.16l-3.82-.32c-.36-1.72-.55-2.59-.91-4.31a5,5,0,0,1-.13-1h-.16c0,2.17,0,3.26.07,5.44l-3.79-.34c.14-4.49.22-6.73.36-11.22l5.5.49c.32,1.72.48,2.58.81,4.3a5,5,0,0,1,.09,1h.16a4.7,4.7,0,0,1,.09-1l.75-4.17,5.54.44c.15,4.51.22,6.77.36,11.28C421.78,196,421,196,419.51,195.82Z" transform="translate(-407.64 -82.58)"/><path class="cls-8" d="M431.79,196.73l-.15-1-2.12-.15c-.06.39-.08.58-.14,1l-4.64-.33c1.08-4.42,1.62-6.63,2.69-11.06,2.52.18,3.77.27,6.29.43,1.08,4.57,1.63,6.86,2.71,11.42Zm-1-7.11a5.27,5.27,0,0,1-.11-1.05h-.18a5,5,0,0,1-.1,1c-.21,1.1-.32,1.65-.53,2.74l1.44.1C431.09,191.3,431,190.74,430.78,189.62Z" transform="translate(-407.64 -82.58)"/><path class="cls-8" d="M443.77,197.55l-1.35-3a2.09,2.09,0,0,1-.19-.88h-.18v3.71l-4-.23V185.87l4.68.26,1.35,3a1.9,1.9,0,0,1,.2.87h.18v-3.82c1.62.09,2.42.13,4,.2v11.36C446.58,197.7,445.65,197.65,443.77,197.55Z" transform="translate(-407.64 -82.58)"/><path class="cls-8" d="M457.1,198l-.15-1-2.12-.09-.15,1-4.64-.2,2.7-11.13,6.29.24c1.09,4.54,1.63,6.81,2.72,11.34Zm-1-7.08a5.17,5.17,0,0,1-.11-1h-.18a4.48,4.48,0,0,1-.11,1c-.21,1.1-.31,1.65-.52,2.75l1.44.06C456.4,192.64,456.3,192.08,456.09,191Z" transform="translate(-407.64 -82.58)"/><path class="cls-8" d="M472.56,197.93a9,9,0,0,1-4.27.78c-3.59-.08-5.75-2.17-5.75-6.06,0-3.66,2.09-5.93,5.84-5.84a9.43,9.43,0,0,1,3.83.83c-.31,1.37-.47,2.06-.79,3.44a7,7,0,0,0-2.52-.54c-1.5,0-2,.88-2,2.29s.45,2.42,1.84,2.46v-1l-.9,0V191.5l4.69.11Z" transform="translate(-407.64 -82.58)"/><path class="cls-8" d="M474.61,198.52V187.27l7.75.1v3.27l-3.57,0v.9l2.86,0v2.88l-2.86,0v.92l3.57,0v3.28Z" transform="translate(-407.64 -82.58)"/><path class="cls-8" d="M490,198.65l-1.15-3-.34,0v3H484.3V187.38c2.29,0,3.44,0,5.73,0,2.85,0,4.35,1.5,4.35,3.95a3.74,3.74,0,0,1-1.66,3.16l1.91,4.13Zm-.88-6c.58-.05.85-.41.85-1.08s-.36-.95-1.05-1h-.48v2.06Z" transform="translate(-407.64 -82.58)"/><path class="cls-8" d="M502.05,198.56v-7.4l-2.59,0v-3.86c3.76,0,5.64-.07,9.4-.15V191l-2.59.05v7.4C504.58,198.53,503.74,198.54,502.05,198.56Z" transform="translate(-407.64 -82.58)"/><path class="cls-8" d="M516.34,198.24l-1.15-3-.35,0v3l-4.21.11V187.15l5.73-.16c2.84-.09,4.34,1.37,4.34,3.82A3.84,3.84,0,0,1,519,194c.77,1.63,1.15,2.44,1.91,4.07C519.11,198.16,518.18,198.19,516.34,198.24Zm-.88-6c.57-.07.84-.44.84-1.11s-.36-.94-1-.92h-.49v2.06Z" transform="translate(-407.64 -82.58)"/><path class="cls-8" d="M529.18,197.76c-.06-.39-.09-.58-.14-1l-2.13.09-.14,1-4.65.19,2.7-11.36c2.52-.1,3.77-.16,6.29-.28,1.09,4.45,1.63,6.68,2.72,11.12Zm-1-7a5.1,5.1,0,0,1-.11-1h-.18a5.26,5.26,0,0,1-.1,1.05c-.21,1.12-.32,1.68-.53,2.79l1.44-.06C528.49,192.41,528.38,191.86,528.17,190.76Z" transform="translate(-407.64 -82.58)"/><path class="cls-8" d="M535.41,197.45V186.2l4.21-.23v11.25Z" transform="translate(-407.64 -82.58)"/><path class="cls-8" d="M547.5,196.84,546.15,194a1.88,1.88,0,0,1-.19-.85l-.19,0v3.7c-1.61.11-2.41.16-4,.25V185.84l4.68-.29,1.35,2.86a1.82,1.82,0,0,1,.2.85h.18v-3.82c1.61-.1,2.42-.16,4-.28v11.37Z" transform="translate(-407.64 -82.58)"/><path class="cls-8" d="M554.3,196.25V185c3.09-.23,4.64-.35,7.73-.61v3.28l-3.56.29v.9l2.86-.24v2.89l-2.86.23v.92l3.56-.29v3.27C558.94,195.9,557.39,196,554.3,196.25Z" transform="translate(-407.64 -82.58)"/><path class="cls-8" d="M564,195.48V184.23c3.09-.27,4.64-.41,7.73-.7v3.28l-3.56.33v.9l2.86-.27v2.88l-2.86.27v.92l3.56-.33v3.27C568.61,195.08,567.06,195.21,564,195.48Z" transform="translate(-407.64 -82.58)"/><path class="cls-8" d="M481.64,156.69l0-1.16c1-1,1.49-1.55,2.48-2.6a3.63,3.63,0,0,0,.67-.87,1.69,1.69,0,0,0,.22-.86,1.11,1.11,0,0,0-.34-.84,1.33,1.33,0,0,0-.87-.36,2.71,2.71,0,0,0-1,.1,2.31,2.31,0,0,0-.8.4l-.4-1.1a3.72,3.72,0,0,1,4.13.19,2.15,2.15,0,0,1,.7,1.69,2.64,2.64,0,0,1-.4,1.41,7,7,0,0,1-1.09,1.33c-.71.71-1.06,1.06-1.77,1.75,1.27.1,1.9.15,3.17.22l-.1,1C484.39,156.94,483.48,156.87,481.64,156.69Z" transform="translate(-407.64 -82.58)"/><path class="cls-8" d="M491.89,157.13a2.76,2.76,0,0,1-1.14.2,2.81,2.81,0,0,1-1.15-.25,2.34,2.34,0,0,1-.85-.62,3.16,3.16,0,0,1-.55-.91,4.66,4.66,0,0,1-.32-1.12,8.09,8.09,0,0,1-.1-1.24,8.25,8.25,0,0,1,.1-1.26,4.75,4.75,0,0,1,.32-1.09,2.91,2.91,0,0,1,.57-.88,2.29,2.29,0,0,1,.84-.56,2.91,2.91,0,0,1,1.14-.18,2.8,2.8,0,0,1,1.14.23,2.57,2.57,0,0,1,.84.6,3.33,3.33,0,0,1,.55.9,4.58,4.58,0,0,1,.32,1.11,7.11,7.11,0,0,1,.1,1.25,6.92,6.92,0,0,1-.1,1.24,4.56,4.56,0,0,1-.31,1.11,3.13,3.13,0,0,1-.55.89A2.34,2.34,0,0,1,491.89,157.13ZM490,156a1.11,1.11,0,0,0,.74.26,1.08,1.08,0,0,0,.73-.23,1.47,1.47,0,0,0,.46-.68,4.52,4.52,0,0,0,.23-.93,7.45,7.45,0,0,0,.07-1.1c0-1.94-.5-2.92-1.49-2.94s-1.5.93-1.51,2.85a7.73,7.73,0,0,0,.07,1.12,5.73,5.73,0,0,0,.23.95A1.7,1.7,0,0,0,490,156Z" transform="translate(-407.64 -82.58)"/><path class="cls-8" d="M496.27,157.21v-6.55s-.28.14-.69.32-.65.28-.71.29V150.2l.82-.42c.46-.24.71-.37.76-.41l1.18,0v7.83Z" transform="translate(-407.64 -82.58)"/><path class="cls-8" d="M502.79,156.89v-1.74c-1.42.1-2.13.15-3.55.21v-1c1.28-2.11,1.92-3.18,3.19-5.32l1.78-.14v5l1-.09-.07,1.07-.9.08v1.75Zm-2.15-2.66,2.15-.14v-3.65Z" transform="translate(-407.64 -82.58)"/><path class="cls-8" d="M474.6,215.12a4,4,0,0,1-2.8-1.31,4.5,4.5,0,0,1-1-3.07,3.81,3.81,0,0,1,1-2.88,3.52,3.52,0,0,1,2.81-.83,4,4,0,0,1,2.8,1.27,4.41,4.41,0,0,1,1,3,3.9,3.9,0,0,1-1,2.9A3.4,3.4,0,0,1,474.6,215.12Zm-1.72-2.07a2.25,2.25,0,0,0,1.73.89,1.89,1.89,0,0,0,1.72-.62,3.14,3.14,0,0,0,.59-2.06,3.58,3.58,0,0,0-.59-2.17,2.19,2.19,0,0,0-1.72-.89,1.9,1.9,0,0,0-1.72.62,3.13,3.13,0,0,0-.59,2.08A3.56,3.56,0,0,0,472.88,213.05Z" transform="translate(-407.64 -82.58)"/><path class="cls-8" d="M480.2,215.38v-7.89c1,.06,1.57.09,2.62.13a4.83,4.83,0,0,1,1.59.31,2.16,2.16,0,0,1,1,.81,2.28,2.28,0,0,1,.39,1.36,3.09,3.09,0,0,1-.15,1,1.93,1.93,0,0,1-1.41,1.29,4.64,4.64,0,0,1-1.46.14c-.49,0-.88-.06-1.19-.1v3Zm2.46-3.91a3.09,3.09,0,0,0,.78-.06,1.21,1.21,0,0,0,.51-.2.84.84,0,0,0,.3-.32,1.5,1.5,0,0,0,.15-.38,2.54,2.54,0,0,0,0-.41,1.26,1.26,0,0,0-.42-1,1.93,1.93,0,0,0-1.18-.38l-1.2-.06v2.76Z" transform="translate(-407.64 -82.58)"/><path class="cls-8" d="M487.38,215.67V207.8l1.46,0v7.87Z" transform="translate(-407.64 -82.58)"/><path class="cls-8" d="M491,215.73v-7.87h1.55c.28.44.84,1.32,1.7,2.64s1.38,2.13,1.57,2.41l.27.41.28.42c0-1.23,0-1.87,0-1.91v-4l1.33,0v7.86l-1.57,0c-1.42-2.2-2.13-3.3-3.55-5.52-.11-.17-.16-.26-.26-.43,0,.95,0,1.61,0,2v4Z" transform="translate(-407.64 -82.58)"/><path class="cls-8" d="M499.77,215.66v-7.87l1.55,0,1.7,2.58,1.57,2.35.27.4.28.4c0-1.22,0-1.86,0-1.91v-4l1.33-.06v7.86l-1.57.09-3.55-5.39-.26-.42c0,1,0,1.61,0,2v4Z" transform="translate(-407.64 -82.58)"/><path class="cls-8" d="M512.05,215.12a3.41,3.41,0,0,1-2.8-.87,3.91,3.91,0,0,1-1-2.91,4.39,4.39,0,0,1,1-3,4,4,0,0,1,2.81-1.27,3.48,3.48,0,0,1,2.8.83,3.84,3.84,0,0,1,1,2.89,4.46,4.46,0,0,1-1,3.06A4,4,0,0,1,512.05,215.12Zm-1.72-1.8a1.91,1.91,0,0,0,1.73.62,2.22,2.22,0,0,0,1.72-.89,3.56,3.56,0,0,0,.59-2.15,3.18,3.18,0,0,0-.59-2.08,1.86,1.86,0,0,0-1.72-.62,2.24,2.24,0,0,0-1.73.89,3.6,3.6,0,0,0-.58,2.17A3.16,3.16,0,0,0,510.33,213.32Z" transform="translate(-407.64 -82.58)"/></svg>