<svg id="Capa_1" data-name="Capa 1" xmlns="http://www.w3.org/2000/svg" viewBox="0 0 127.52 209.58"><defs><style>.cls-1{fill:#cfcece;}.cls-2{fill:#afaeae;}.cls-3{fill:#26add2;}.cls-4{fill:#249cb7;}.cls-5{fill:#de5446;}.cls-6{fill:#345faa;stroke:#26add2;stroke-miterlimit:10;stroke-width:3px;}.cls-7{fill:#4679bd;}</style></defs><path class="cls-1" d="M395.6,621c2.41-37.48,19.09-76.61,19.09-76.61s13.37-8.59,29.42-8.59,30.1,8.59,30.1,8.59S490.9,583.56,493.3,621s-1.89,43.26-13,61.18c-6.53,10.52-17.75,19.52-25.9,25.16a17.42,17.42,0,0,1-19.84,0c-8.14-5.63-19.36-14.64-25.9-25.15C397.5,664.3,393.2,658.52,395.6,621Z" transform="translate(-378.58 -500.9)"/><path class="cls-2" d="M438.77,536c-14.44,1.14-26.39,8.44-26.39,8.44S395.69,583.56,393.29,621s2.43,43.26,13.57,61.18c6.53,10.52,20,20,28.12,25.65,0,0-13.78-26.18-10.75-90C427.17,555.87,438.77,536,438.77,536Z" transform="translate(-378.58 -500.9)"/><polygon class="cls-1" points="63.76 42.41 63.76 42.38 64.09 42.4 63.76 42.41"/><polygon class="cls-1" points="64.09 42.4 64.43 42.38 64.43 42.41 64.09 42.4"/><path class="cls-3" d="M478.23,552s-18.74-6.4-35.55-6.4-37.2,6.4-37.2,6.4l1.93-6.78s20.93-9.42,36.7-9.42c16.38,0,34.12,10,34.12,10Z" transform="translate(-378.58 -500.9)"/><path class="cls-4" d="M434.79,546c2.27-7.12,4.34-9.92,4.34-9.92A87.79,87.79,0,0,0,412.38,543s-1.11,4.31-2.45,7.8c0,0,10-2.39,13-3S434.79,546,434.79,546Z" transform="translate(-378.58 -500.9)"/><path class="cls-5" d="M413.05,593.3l1.34-50.2s-29.77-4.81-33.89-32.32C380.5,510.78,366.74,558.46,413.05,593.3Z" transform="translate(-378.58 -500.9)"/><path class="cls-5" d="M445.75,593.3l.21-56.21s-4.76-5.39-5.42-36.19C440.54,500.9,438.34,554.29,445.75,593.3Z" transform="translate(-378.58 -500.9)"/><path class="cls-5" d="M474.72,593.3,471,543.22s29.5-6.23,32.31-33.9C503.3,509.32,519.31,556.29,474.72,593.3Z" transform="translate(-378.58 -500.9)"/><circle class="cls-6" cx="63.76" cy="145" r="23.26"/><path class="cls-3" d="M408.32,682.22c6.55,10.51,17.76,19.52,25.9,25.15a17.92,17.92,0,0,0,20.15,0c8.15-5.64,19.37-14.64,25.9-25.16a124,124,0,0,0-36.88-5.86A105.19,105.19,0,0,0,408.32,682.22Z" transform="translate(-378.58 -500.9)"/><path class="cls-7" d="M458.11,659.62c5.21-5.37,6.51-14,4.72-20a20.94,20.94,0,0,0-26-14.11A52,52,0,0,1,451,638.8C457.19,647.11,458.11,659.62,458.11,659.62Z" transform="translate(-378.58 -500.9)"/><path class="cls-4" d="M406.86,682.22c6.53,10.52,20,20,28.12,25.65,0,0-5-8.84-8.19-30.22,0,0-8,1.33-10.27,2.07S406.86,682.22,406.86,682.22Z" transform="translate(-378.58 -500.9)"/></svg>